<mxfile host="app.diagrams.net" agent="Mozilla/5.0 (Windows NT 10.0; Win64; x64) AppleWebKit/537.36 (KHTML, like Gecko) Chrome/127.0.0.0 Safari/537.36" version="24.7.6">
  <diagram id="Ht1M8jgEwFfnCIfOTk4-" name="Page-1">
    <mxGraphModel grid="1" page="1" gridSize="10" guides="1" tooltips="1" connect="1" arrows="1" fold="1" pageScale="1" pageWidth="827" pageHeight="1169" math="0" shadow="0">
      <root>
        <mxCell id="0" />
        <mxCell id="1" parent="0" />
        <mxCell id="R68YelzHevuyLXNBaInd-11" value="" style="edgeStyle=orthogonalEdgeStyle;rounded=0;orthogonalLoop=1;jettySize=auto;html=1;" edge="1" parent="1" source="R68YelzHevuyLXNBaInd-8" target="R68YelzHevuyLXNBaInd-10">
          <mxGeometry relative="1" as="geometry" />
        </mxCell>
        <mxCell id="R68YelzHevuyLXNBaInd-8" value="&amp;nbsp;User Devices&amp;nbsp;" style="rounded=0;whiteSpace=wrap;html=1;" vertex="1" parent="1">
          <mxGeometry x="354" y="35" width="120" height="60" as="geometry" />
        </mxCell>
        <mxCell id="R68YelzHevuyLXNBaInd-16" value="" style="edgeStyle=orthogonalEdgeStyle;rounded=0;orthogonalLoop=1;jettySize=auto;html=1;" edge="1" parent="1" source="R68YelzHevuyLXNBaInd-10" target="R68YelzHevuyLXNBaInd-13">
          <mxGeometry relative="1" as="geometry">
            <Array as="points">
              <mxPoint x="414" y="280" />
              <mxPoint x="660" y="280" />
            </Array>
          </mxGeometry>
        </mxCell>
        <mxCell id="R68YelzHevuyLXNBaInd-21" value="" style="edgeStyle=orthogonalEdgeStyle;rounded=0;orthogonalLoop=1;jettySize=auto;html=1;" edge="1" parent="1" source="R68YelzHevuyLXNBaInd-10" target="R68YelzHevuyLXNBaInd-20">
          <mxGeometry relative="1" as="geometry" />
        </mxCell>
        <mxCell id="R68YelzHevuyLXNBaInd-23" style="edgeStyle=orthogonalEdgeStyle;rounded=0;orthogonalLoop=1;jettySize=auto;html=1;entryX=0.5;entryY=0;entryDx=0;entryDy=0;" edge="1" parent="1" source="R68YelzHevuyLXNBaInd-10" target="R68YelzHevuyLXNBaInd-17">
          <mxGeometry relative="1" as="geometry">
            <Array as="points">
              <mxPoint x="414" y="280" />
              <mxPoint x="160" y="280" />
            </Array>
          </mxGeometry>
        </mxCell>
        <mxCell id="R68YelzHevuyLXNBaInd-10" value="&amp;nbsp;&amp;nbsp;CloudFront&amp;nbsp;" style="rounded=0;whiteSpace=wrap;html=1;" vertex="1" parent="1">
          <mxGeometry x="354" y="175" width="120" height="60" as="geometry" />
        </mxCell>
        <mxCell id="R68YelzHevuyLXNBaInd-12" value="" style="outlineConnect=0;dashed=0;verticalLabelPosition=bottom;verticalAlign=top;align=center;html=1;shape=mxgraph.aws3.cloudfront;fillColor=#F58536;gradientColor=none;" vertex="1" parent="1">
          <mxGeometry x="240" y="158.5" width="76.5" height="93" as="geometry" />
        </mxCell>
        <mxCell id="R68YelzHevuyLXNBaInd-34" value="" style="edgeStyle=orthogonalEdgeStyle;rounded=0;orthogonalLoop=1;jettySize=auto;html=1;" edge="1" parent="1" source="R68YelzHevuyLXNBaInd-13" target="R68YelzHevuyLXNBaInd-33">
          <mxGeometry relative="1" as="geometry" />
        </mxCell>
        <mxCell id="R68YelzHevuyLXNBaInd-13" value="OAuth Provider&lt;br&gt;(Google/Facebook)" style="rounded=0;whiteSpace=wrap;html=1;" vertex="1" parent="1">
          <mxGeometry x="580" y="350" width="120" height="60" as="geometry" />
        </mxCell>
        <mxCell id="R68YelzHevuyLXNBaInd-17" value="React Native&amp;nbsp;Application" style="rounded=0;whiteSpace=wrap;html=1;" vertex="1" parent="1">
          <mxGeometry x="100" y="350" width="120" height="60" as="geometry" />
        </mxCell>
        <mxCell id="R68YelzHevuyLXNBaInd-31" value="" style="edgeStyle=orthogonalEdgeStyle;rounded=0;orthogonalLoop=1;jettySize=auto;html=1;" edge="1" parent="1" source="R68YelzHevuyLXNBaInd-20" target="R68YelzHevuyLXNBaInd-30">
          <mxGeometry relative="1" as="geometry" />
        </mxCell>
        <mxCell id="R68YelzHevuyLXNBaInd-20" value="API Gateway&amp;nbsp;&lt;div&gt;(Rate Limiting)&lt;/div&gt;" style="rounded=0;whiteSpace=wrap;html=1;" vertex="1" parent="1">
          <mxGeometry x="354" y="350" width="120" height="60" as="geometry" />
        </mxCell>
        <mxCell id="R68YelzHevuyLXNBaInd-22" value="" style="image;html=1;image=img/lib/clip_art/computers/Virtual_Application_128x128.png" vertex="1" parent="1">
          <mxGeometry x="10" y="340" width="80" height="80" as="geometry" />
        </mxCell>
        <mxCell id="R68YelzHevuyLXNBaInd-24" value="" style="outlineConnect=0;dashed=0;verticalLabelPosition=bottom;verticalAlign=top;align=center;html=1;shape=mxgraph.aws3.api_gateway;fillColor=#D9A741;gradientColor=none;" vertex="1" parent="1">
          <mxGeometry x="270" y="340" width="60" height="80" as="geometry" />
        </mxCell>
        <mxCell id="R68YelzHevuyLXNBaInd-29" value="" style="shape=image;verticalLabelPosition=bottom;labelBackgroundColor=default;verticalAlign=top;aspect=fixed;imageAspect=0;image=data:image/png,iVBORw0KGgoAAAANSUhEUgAAAfUAAAFxCAIAAADlC6aIAAAgAElEQVR4Aey9B3wc1bU/LmIgYENI7z10iI0BY0va3Zktajb15aXR3gsGV5KX/PPeyw/Cj5ZiXsIjBPIJtizZktxtNatYxbZ6r6u2vRetVtt73/n9Z459GW+zZMuyZPZqP6MzZ84tc+bOd86ce+6dDGLOKbpwKUKlhSsvXdLy1sAnsz/AWcdvl/e1XAKtj0QiqBUEQSA6hpgz8i1jwYwUbY9RR7Jd1EHjBRLetynk40tYfA5qHr2XLH4zrmKNSAPzagPKlVBvqY/Oq6JkwqiKZAJXmg8NuNK1oPIv+XyvUDuTtScZH53IHIk5loPEEvbDhHXRMTAajdJ3lzt9KfhO1+Bi0gmvTTQaXcw2pOuauwZSX5r4qzn3klNLxpcMnNS5ru7RZG1OrcOr2+alVnuyq5xCtwkPLXdMp7f/AnxPeLZL7Sqm25PWwNLUQDgcXpCGpTF9QdQ490IS4h4w6Vi5HGkS31Oc3iV0tXBcAkXHsa8aI9mFX6gGXbT8paaQyzzxSCQSX8I1do5wggt7Usn6SUJ9xmv42uYg5VzyaSYsATFjiBQYuBxhHbU5I/7EYs4cdueu5VBcCofDcbw0I62BtAbSGkilgcvEjRSQFYNpCREv3n2PQHMZEbH4HnOqSEfx1yGYTkk0EEiSkoin2Z9QDSTpJoFPqDou+7RBn/HFxGNXDAdQLgb6YJdu/i4jWEdNTYXvMeAOikvWKZcy30+lpdPCpdaepaMZektAS36/n868unT6wl0J/V8VraLHAGA9wrqEgyiA8gg0lxGRgZx9cA7084QzDwaDMRcVrocvefJSKeY4ML1eL50PTLfbDXyPx+P3++kCc6FRyTGEz+eL4VzObnxLkpUWL5ma4/V6/X4/lAan7/F4fD6fx+OBQ0D7fD6/3w+HUhcYc3S+7ZyLfDKZGH5MS+CKxDNT8OGUY4r1er2gnHj+vDjQknllSSGc8LxSdML42pNx6Hw6DY0BzuVvY+5NVBEi0LlfWl0o+xyJZKqDS08/iloYcx/FnFHMgyQYDMLtFgqFAoEAbBEeInOebsIjerlAPInv9BQKhQDigYgB9xjwRdfJM7fkdrvjBeHauKkEBcbLpObMPdfcJVPXuLBHXS4XdFm32+10OuFph6oALKM/AtGhRSbQ5UZE6gYkvNwJmR6PJxk/dRXzPQrdDLbzzfvJkV+E2wR1Ieje89Utyh7zmPd4PC6Xi34HgW0E5aNc9OcBGPI+nw8I5LoBGKRjIwL3ZRQjfwG+h8PhYDAIZxgIBDwej81mM5lMRqNx5nyanp42UGmaSvrzSTfPpNfrIYdWq6Vn1Wg09N0Fp1G98SVrU6Z4+YXiTE9PazQarVYLbdPr9dPT06AWpBwgUjT+EhoDp0vPGMOJ2aVLpum0BpJpIL7bxHOS5Z0LH90UCYXPAxIJL1AvcACv6Fuj0WgwGIAzOztrtVrh5ZgO9DEoT4f4ZYHy5/Ad2eyBwLnhHY/Ho9frFQqFlEoSiUQqlcpkMolEIqMlOHppW7FYLJfLJVSCkiUSiVwuR6VBPTG7tMrPkUhgiRPxLQcO/ZRBG+hEkNplMhkwgYMErgSB6qIXnpBJF1im9CWcV8IsCZkLqxPoLahM1J0QZ6GImIoWqtjLLyd1w9DNIpFIxGJxMmGkNzqhUChkMpnBYPD5fAEqBakEboxkVvzSh/iP/e9gtoOLyu/32+12lUoll8sVCoXyfFKpVEqlUnGxBOIXkzpXLFQBJUPh52u79P9QdUx+1J4Y/iXvxtcSz5lL4TKZTEUlhUKhUqk0Go1KpUJqpxOgK3QiMUSyumLE0G4yeeAjMXoD6MwFp2Pas+DlJyxwLv05JuOC6yemwJhdVDvSD7oiySRRlnkR9PLpVaBC5lgdKieGQOVcAkEvKll2tVqNmg23Umo8oQur1WqpVCqXy202G3LTgzMjTKXI+QQmPOwtA3xHQaZguSPPlNlslslkMYASs4sUDdpHuzFEsqNKpRKgTalUSqVSuCTy84leCPDonLnQ50siH1H0hPhzJBQKRUJJepl0OqFwMtVBRqVSKZfLZTIZvDBJJBJ610QFQo+k1zUXGmWPIVLnpQunllzYo9BbLgF2UTPoLafTSCCGoMvMhU7YH2LKpO/OpUy6DMpLZ6buPyjLlSBimoF2F6ouVGAyYi4VwR3E5/OHqTR4Po2MjAwlTyA1NDQ0NTUFXc5kMsGoLARuIX91OG5yMvLVLOWx1gzwucNQMow+w2CX0WgEzIXejFSczIRPcUPSD8VcQriZx8bG+vr6BgcHBwYGYDswn3T+UpL/6fn6qYQ4SAxxLoHo7++/hFxzzALt7+3tHRwcHB8fl8lkoB/6vQ39OEaNsIuu0RUiEPICcdFa4ltF59BpKIp+mhct/BIEoEb69hIKWUZZ6GdKp6/WKdBx4HLagMqhE2q1ms/nDw0NCQQCdLKpPULgUpPJZBMTE4ODgzIqzc7OwlA/hK4hf3UwGIxcmJYHvodCoSAVAemjkptKLpfLYDCIxWK4k+VyOeU/IJ0GQMTc4bCLtnDx0C7KEnNR5XK5Wq0WiUQjIyMajcbtdlutVrvd7nA47HEpITNO6gKG7XxCXGCg3cskzhdvg3JidudbuM1ms1qtED+j1+uHh4dFIpFcLkedOOZBG6PMxd9Fd9F8q6afEXpHjmfOt9hPiDy6rS75fFEJ8UR8mTHXJV7gMjmX/1CHe0StVo+MjIyPjyuVSrVaDbaRikroNGGXvlUoFDqdTiqV9vX1wcPAYDBABA6MtaLpF4DvYSrRp7ZGIhFiCacMAHcUdu2kks1mo05bTOK5VKlQycf1SolcN9Pcpd/9vurwQel4v1Y9rROrZXqVSK7VTw4rhz4wte9SjFVNqaZVSr1SNiVT6qQqSeVo9R+H/nJgYJ9APK5TTssUYoVaIpdJlEqhRq7WKlUjA71SqdTrCzm8QbvX63c7vK7Z2YDb6/A4nXafw+Fy+h1Or9tjg2cPPZbO4XC43W4Xldxut91u93q9TqcTOEtwC+qNaaHD4YC4LrvdDiGSgUBALBaPjo7KZDJwx8MjNt6rCBzo0OhOQ/dMzOMBCSw1Au7ApdaqdHuWsgZiHjxqtXqCP9g/OqhSa1UKrUyulMuVOpVaolLIVWKFUqtWq5UqiUotU2tkCqVEKdPLFSqlmrRZ5XJ5T08PFeIhm56ecTgccIfSIT5IpRAVPh45n6JUWsLwTmQEAgHklnG5XGB1WiwWjUYjmRJr1EqRRqwQSQyaaVN9rfvH/xLelE3k5cy++WvZ2JRSq5MpRVLZgPn0s0TdCuLUdc6m+5VDpWNag049axHr/j5e+LmuBzN6vrqi4/Ydg6+KJMJp5bRULtNItQrFrEitkojE42Ojs7ppl9vvcLishC80LvIda3D38N1el8/hsLqdFq/H7fb6XE4PlZxOJwCi00lyIHgccNPn89lsNhBASEonAPERJ2YX8edIJHt+zD07SMKLC5wdlOn1emdmZkZHR6VSqUqlmpiYGBsb4/P5Y2Njo6OjfD5/YmJiZGRkdHR0bGxsZGREIBDA4BLdQQ/29VK+Relti7ld6YfSdFoD8RqI6TCkf2ZsaGSEL5OTxrvdMn2obG95RZVSbdGp5BqVdmRo+Exza011y9SEQqmWHTpaeuDg0ckpoVarF4vFg4ODEirpdNMWi8VmswHKo7lU4KhJiO9LeZSVxHeYYuByuRwOh5VKJpNJpVKJhRKhSqlUKzSGWZFIYPyfV4iNjOjWZ4nnfx76+aOSyhMKh0WutqiGjnnr74j03kW0rfad/YKl7T9UQtmMxjwiHvxJ73/c2P2tdfzHrxu6Y03Xo7VjTWaVWa5RyNQStUxkUmvGhkf4YoHL5XE4vbag12zWBRrbXIODRE2bVTBpDDotLpfX7nQHvSMjfL1eD9HxgUAAgpm8Xi/Y7x6PRyaTmc1mwEe32+2g0hyhdjHF6A0D2uVy2Ww2s9ns9XotFovJZHK5XF6vd2pqamJiQiKRdHZ2trW1dVKpnUpdXV0dHR3t7e09PT1tbW0dHR0ikSjG14Gs+Ph7I81ZFhpQUmlZNHXxGxmP76MT4+PDkxq1YWZWLx3r/u1/bH79D39ubhwe6h7uaRn8w+t/fO3VN3Zu/93bb7/7tw8/KDt86M+73q2rb9brjGKxtLu7G9lDJpMJQTz44iFoEkz4MJUiVAL7fSlb8Rkw/xvA3W63m81mk8k0MzMjl8unhAKhRicXS1Q6g0ois+16LbgxO/iLF8NP/zjwbz8m8d1oUsqd6tFS75lvhZq/T7Q+GDzzOVPrNpVMOmOwjUuGn+341Q0Dd9zXven6wXsf7NtUM3HKqjDJ5BqhRqHWkGHf/cNDaoMh7Am7rU4r4XX19kUaTzvNCnvr6eDZDo/D7nS6IwGvzWHetvXlgwcPDgwMAKi9//77JSUlYOG2tbVNTk7u3r37yJEjU1NT8OAFPz7QCeEbsJWOtjFiSCCGf5m7qFhE+P1+rVZbW1vb3d1dU1MzNTXl8XgCgYDBYIATHBoa6u3tnZycnJiYANAfGxsTCARjY2OTk5N8Pr+zs5PP59ONd7jfYu6Bxb8J0zVesgYA3BNeQTh0ySVfkxnVavXwCH9kaEwqldusxvryA7//3a/++3e///M7HzXVNuzffXTPh6X//LBwf9Ghw4ePvvjiC83NHYcPV55qOCOXqWUyRV9fn0wmEwqFCoViZmYGIN5ut6PZsPRwmjCVYiB+aXppMmD+rtPptNvtVqvVRM1W1ev1UqlUPDGl0+hl01K1UKSRmtSNNe4XfkQ89Tjxr4+b3/g/yrEx4YxGrlWrp3pNZ16Inv5StPk271mGcqhMoNZK5JoZub5wpPjrPazPDN3/2b6Hf9n/mkg8Nq3Wi+UqjVQrV2h6xwcEIqHN5XV7Ag6P2+Y0hurPBitrQkeriYZGx9Eqh1Thc7iISLDlVN2br//hrbfeqqys/Mtf/vLHP/7xv/7rv8rKyv7yl7+88cYbH1HpzTffPHbs2CuvvKLX6+GqpAD3y8Toy8lOf6IA7fF4gsFgV1fX5s2b9+3bB82GwYZJKgkEgp6eHnDIIJ/M+Pg4eGwmJib6+/s7OzulUinAAbLcIdjmmryfr/mTSuP7vC6xRqMZG50c4o9qNSq9XLqvcE9jTV1Nxck3//znv/7v27v+/O7ufx74+//urTrRfKqu4cP3d73/7v+88caunt4htUovlcoHBgbkcrlAIJBIJHq9ng7xaMmQGIhfHvgOw5UOh8Nms1ksFpizq9VqRSKRTDhJeVIkarlEojYJtUpVY6X2b/87XbRXONSnmjUqJFKNQi5T66XCEWX3u6qOP8pHKsQytU6jl8pFap1RqhAeGqt+revtfw4UDolGZtXTCrVErJBo5GqVSjA6OGBXT9s9frvD5Q15fD0D3uFBa3e7ZbA9NNA9297q7x/z2+xOwr/rg3ePHjvx7rvvvv7662+99dbY2FhRUVFbW9s//vGPP/7xj0KhsKKi4q9//Wt7e/uuXbuUSqXH47Hb7ZeDwouW1+FwwLBHfX39P/7xj2PHjsnl8kAg4HQ6/X6/TqeDUdaBgYGenh7++QT+dz6fD6A/MTHR2to6Pj4OJjzC96UWcjOvOzYtDBCf1sNcNKDRaMaH+AP8IZVaphBJpgTSae2sVq6cko+fbjvT1d0/Pjk2ODg4NS6XiVValbi9paG7Z1Cp0qlUGplM1t/fL5dLJyYmpFKpVqs1GAyzs7Nmsxkc8eAvhQX+4ic9IS/NEjThM8B/bbfbwfM7PT2t0+lUKtXU1NTIxLBKZ1DI1Gqlhpy/q5ArjSaF3iOwGWVGm1ogU0g1cs20QjxBPgPVFrXKqdEaFEqtQimRKcQyqWparrJq7CaV1auyGFQzIplUIxFqVQaB2jA6OTI1NeEzO11uf9ji9rlt4ZpWj3jKqpMQu/7p7+4ijFpL3VmfXj9rtw4ODrr8bpPJ1Nzc3N7ertVqJyYmdu/e3dbWJhQK1Wq1UCjs6urau3dvX1+f1+u1Wq0QSLNoMD3HipBPhi4fDAbVavXU1JTL5VIqlSKRyOfzwQi+w+EYHx8XiUSTk5M9PT2jo6Pj4+MjIyMTExNgyAPgCwSCgYGB7u5umBhFx/e53BuLLJPQ57DIbUhXt3w1gPoPvZ9rNJqJUTL+XalTyZUKrW5ardSolSqNVjFtMOunTdpppdGk0mh0SqVaq1UbjaYZo0kqU2i1WolE1NXVoVYrhULh5OSkSqXS6XRgwkPENoRyoIj40PlFGCNUWur47nQ6rVar2Ww2Go0whimXyycmJkSTU1qlTKhRKGRqpUIm1Yo0EqFIrVBLpQKlQqZS69UqhXRSqVYJ5AalQiJRqKUKoUaulSiUGoVSI9VMaURKhUSpkcoUYrFCQz4tpUJytqpqenRwSKZReTw+u4dc81ZJWDyDQ8GGtlBDV+DEMWfzWV99u7mrOzgz7fT6IhEi5LD7/X6INgWHBnxZMBgMer3eYDCIRjlsNhtAPGAo3R9CR9V4eu6S8XnnwkHgHuM4cjgc0HVg4lwwGLRYLDBEHAwG5XI5zHUCJwzM0hoYGBgaGoLJVkAMDQ01NzcLBALo/egeQMTSuZ/TZunSuRbLsSWoS8fi+9j4aP8wf0o0pZJNTvEFwvEpsUgyJRWJ+IIpiWBKMiUQTQkkQrFoUjwxKZJOCqamhAKxWMjnjwwM9CkUsqmpqcnJSZiXA14as9lstVohDhtuT1hJGCB+GeA7CpuZnZ2dmZkB410ikfD5/MnJSTJolFpwBk1bBQJtoX+o1Wp6qLWKSugygNMAssjlcp1ONzExwefzrbPkVGCHy2lx2Mk4JLvTJFPbZBpXwGfVz5hECr/R6na7Z112u9MRsDrNdpvDRQZHOu3kjyTcLouDomjYiaAWwihhYhRionFXIFwuV4p4SpQLEBnGW8Cjgg7NnQBVQ1GwhdqhAchRA2MhKBDIbrdPUkkul3d0dJxJnjo6OoRCoUajAQAF/SP6yhH0uJ34WugIEn90jhwoBITp9LyyJ2tnDD9md45VLJq2596eT44kdAmwSnuo1N/f39PT09vb29fXB9vu7m5wcgK/v7+/l5aEQiF4Bfh8PiyaotVqp6enZ2dnLRYLTEyBcPgUgZJL0T8D4AKed1ioVqlUwuQa8PxSUaHkemwikQgWjwQO7EqlUthFC0BKqMXbxGIx8NF6h0KhELILhcLBwUGlUhn0+lwOp93psLtddic5xyfo9YVdXofDEfQHgl6f3+0BHHe4nE63iwR3Ct/dTpfbSUZzAicZwiLMBwGAVCSMdkEM8WMIBMpAwDZGZo67qEYkjzjwEIItuOPhukCXksvlo6OjoD2kcKReRMCaeRKJRCQSwWQ8+vVCYqkJ8UKk1FVcwlFoFGREdLKWxpePssQfgu5K59O7Lp2P6LnXi7LMhUDFzkWYLoMyXiZBL3Mu9GVWN9/sKZoERUFvB0MTRRYguxOMfbSLzA5YRRFWfxoeHubz+RKJRKFQaDSa6elpo9EIXngYZY0JlIycT8h5sNQgPgNi3k0mE6w5Dkt9CQSCoaEhiLobHh4eGRkZHh4eHR0dGRkZGBgYodIwlUZHR4eHhwcHB4GgH0L0CDUTZ2RkZGxsbGhoCObjWCwWn8eLzHAbZcXb3S6bi5x96vF57RSguxzOgIf8WI/VTX744ly0u8vtdpJ2N0SngqmLtiAGa/xDIA3kAhqmESEZOETfTUbDQHRCeag6WUbEh6lY506BakdM86AcmLQFtN1Ovtk4HA6pVApqHKXmN/ETJZj9BGJAw1UbnXOCSzYXcag/tSRqMF0Mqph7RXC+UAK9Uj6fTy/2onTCxtBzzbdAet7UdMKS0QVMlpd+sslklhd/oc4oWTlIz8PDw0NDQ6AcgCkEUENDQ8ABIIJd2I6Pj/f29vb39wsEAplMplar6V545KJBUTRh2opjSxrfLRbL7OyswWAA54xUKp2amhoYGNBoNH6/H/AIjTAggPN6vQieAGrRLkI0IMALAehms9lAjO4YIc1YytNCzlZ1Ocx2m8lCjly7XC6LxWK128hZqXbHuUkHNrvdarNZrOSWivmxpkwgAy9ZNmqNFxAnM5/fBZrOQUXabOTyMnDIQqX47EjYaiXbRN+l06h88qSolXaQMGpAvDyM4EMbYNDVnjwh3xFyQ6GXmLkTyYtPfCTF0kDxlSZrmNPpREqIrwYOAR/R8YUDB16P4o/GF5uQA1c84SE6k14+nZ+CRi0HmRTnG1NITMaYo1drl64BOr1Q7UFlzrFACAKEwDl0z8Jn/ABzEEzBvEhAJ2S3BQIBlUo1PDw8OTkJcQookAbQA6JoEL6HQqHI+RSlErH0UgZEzszOzoL9rlAoJBLJxMREX1+fUqn0+/2gFIB18CfA0B9yMtANZ8REBMJ60DsyS8mL5yJvabfT5XI4nXaHy0H61vWGaaVapVQq1UqVSkUS5AIsMGCrUmuoRB5QqdRU0pz7f+4QCCAxDfVdJLX644yQ61xejQYdQgS9BETTc2m15FoW6JCGKoTOoQvTaZCMb1tCGbVaDeeIlIDq1aZMqD06KtELj6GRZAw/WfH0U6bT85WPqY5eFKJjygQ+MOl0jBhdIP7s4oXji0rYgHgxKAo0HF8s4tAzopKhT2q1WsRB8skIejnxMqicGCJecnE4Mc246G6yVoF6dec/wxQvhkqGQzqdDu4ayAIDUWg9SDB94G0Y1qpCxhA80f1+v1Kp7OnpgYg1GGVFLnhY+IS+Is3ywHf4At/MzIxWq1WpVFKpVCAQ8Pn8np4elUoFH/pw0RI8+sDaArh3nE9onNB5Pp0/cm69HuS8hvmZHurz16Qhb3d4HE6/22MyzOjVmoDLE41Gg9FIKBKOhiNEOBIOhgiCCIfDIYhMikbC0cjHu+GkKRKJnMtCfXowHA5Ho1F4sYI88AAOUSlZKehoJEJWCi0BOlmWhHwoJ0oloKEQaCTE1QINW1IJ1Kqk0WgUyaSuF072vFVB/k/YEmAisRQy9ENIk3RmDA3nRdcYqgWIGHn60RTlowLhooMkvS46HVPFfHdTNAOKojcmGSdhpfEZE4rFMy85Y3xRC8ih65xOz7cKet6E9BwLhCA66PNw49hsNrVajaLRAH9gsNTn8yF8B7gKBoOA72NjY0KhEEZZdTod3QW//PDdSkVGInyXSCQCgWB0dBQWZICJNi6Xy2olQ1ngi6ywUgo4WOJteQj/QCs7AmGnVv0FmnSmW60GgwEUDc8Al8vl83indXqr2UJEokSURPMoQYSpX5QgIDKSIIgoQZDQT0SjBJmi5/5TO4k2KCMc9Pl8QABoIjpR1gQ8KC2mzARyyVmA79DyhOXAI4SgnTJ0WSgSHU1eA3kEzu6iykldSPpoWgPLSwNgvYEFRhAErPxBnw0DwdPg+wV8R9AEschdXV2jo6MCgQBmg4ML3kxFSYInA2Y5QZQksk7QTb3U1JVhtVrB+Y7sd3Jm08hIZ2cn+GcgKNDlcgUCAZ1Od+bMGZlMBkuSwTsLmikKVr7NZjMajbOzs4DmAN+w7K3D4fD5fFKptLq6+tChQ+2tbQN9/SqVyu312FxOt9ej1etMJpOHCJMoHiYvj8igkdmMfiJKUMssRwnC6fVopvW6GYPb74tSQBavXOAAusEWkDQcDisUilAoBKYxBNQjix4t65zwIoGY1+sNBAI+ny8hNCfMSGdGo1EvlaA01AAkE4lEPB5PKES+r9BbDl12jng9RzFU6dwJpNgrV0XCxtAvMZ1OIUxvauosi3wuCdt8LTGR5lOf1BzFUhcSc1RNfaIPmJFIxO126/V6q9WKPAcul8vv98P4Itj14HWw2+2A752dnSMjI1NTU/B1I61Wi9YqAEBbZvgOg6vI+S4Wi6empoaGhtrb2xUKRTAYRIuVm0ymmpqa/fv3WyyWUCgEPizwy6NZvOBtn5mZ0Wg0JpMJXnzAjeN0On0+n1wu37NnT1VVFZ/P//DDD5999tnW1la/3w9jFzqdjnw5IKJENEwEQh2K0WMjZz/or1NbDUQ0EiaIEBFo7K378NS+v9ceUNtNJrdDZdIGIlGPb1ZpVBmcbrvXGyKCdp896LOLrXKj2+72GiVmO/nMCEaCUUIpUYcC5PsBXyeu7T2ts+sCAcdp1ci4eLxbOT6qnPJHfDMWg9VuihIhp8+htRt8AW8o6A+Hw063q69vwO/2DA8Pz3ps0WjU7XZHo1EYOo5Goz6fLxwO2+3kVCx404RvORIE4XK5NBqNy+WC78X4fD4+n19eXj4wMGC32wmCMJvNWq3W6/U2NTW1tLSYzWb0hmG32+FZGwqFdDqdzWYjCALegRwOh1arRS8lMd09vZvWwLWnAXgeo7sDnK5ut9tisVRWVh44cECn07lcLrg9Ad+dTic51YZa2D0cDnd0dNTV1ZnNZrr7we/3wxSToaGhyclJsVisUJCzW/V6vdFotFgsyIOPhlhRCE1qA+IqXoIMhO8aDbmiI0yFR/gOSoHpoIcPH/7973/P5/PRcskejwcc8fAMsNlss7OzJpPJbDbDjCfSGKdkYPw6EAhUVVVVVFSA86GhoeGdd94ZGRnx+Xxut9vn8+l0pP0ePedtD/6h7qM/Nf5ty4FXzk62uaJB0qgngh/VFx8ZP9Ui7lHMKI82l//m+P/US7vaBrt3Vew+O9nR1Hp2OuLqn+zqmex8+8Dus4K20oay14590Cgci4SJAEHIZJIAEfGF/QN6wfOFrxd3V9TLu9+oK3yrpujdmuK/txxpHevc3VWxv+ek0qgo7q/5e8sRgVamnyUjYbV6HZ/Pt5nMZ5pP9w33j42NVVZWisXiqqqq+vr6iYmJY8eOabXaQ4cOtbW1jYyMVFdXCwSCwcHBaDTa29v7xhtvVFZWTkxMNDU1nThx4sMPP/zNb37zyiuvNDY2DgwMlJWV7dq1q7Oz86OPPvr979shn/oAACAASURBVH9fVFQkkUii0ajT6ayurt61axfMyPjnP/9ZWVk5MDBw4MCBv/3tb3v37n333Xd7enrA5L+KPSlddVoDi6YB5KUEIhKJjI6OlpaWtlHLaB88eLClpQVi1XU63ezsLKxWAv4Gv98PIYJmsxnQCcxQv98vk8na2toGBwcB3+VyuUajQfgOngyPx7P88F1PLa0O+A5fI2xra1MoFIFAALwuOp3u9ddf/+///u+KiorS0tLCwsK2tjYImoTXFqfTCavGy+VyvV4Pi20ajUZ4ZoLby+12Hz9+vL29nSAIeC2SSqU6nQ4cW06nU6/Xz87ORqKBKEF4icijH72csfnrGc985n9P/SMQDIdI53tQrxcf7qt651RhafvxVw7v+vPZf/71xIebj/1d7zONz4y901gis+uP91SVDR7bM9AlV/Y+U/bq3qaP3u6uIyKEh/DJFQLC548SoRHV+Bun9ghnBO+cKjw5dqZ+sqOWf6ZV0vtR+7HWyc4u+cD/qfj7eyf37m05WjfYbvOTg8CD/QNms1kkEM7o9PV1Na+88srmzZvfe++93bt3792796233nrmmWcKCws/+OCDwsLCV1999ac//WlxcfHQ0FAoFKqrq3vttdd27dpVXl7+2muvvf3221VVVYWFhV1dXXV1dT/72c8OHjxYXV1dUlLyxhtv9Pb2HjlyZP/+/QRBnDx5sri4eGJiorq6+te//rVIJPr/X6F++ctfvvfee4cOHdqzZ09ZWdm+ffuMRuOi3V3pitIauLoaAO8ospqj0ahUKi0rK5NKpXa7/ejRo2DxwMpOZJAe9e1PsNYjkUhrayvY7wjfHQ4H4Htra+vg4CC5OotIBF9PS4Hvy8D/DjNX9Xo9fONNKBSOj48PDAy0trYqFAoUH+nz+SYmJoqKinp7e+HxhaLdAamRGwcs+mkqoZhImKcTCATa29tLSkqEQqHD4RgeHj506NDk5CT4NDweD6z54COCkQgRIaIvHHz9y//3kZv/6969XQcJ0u9CRCOBU6NnRnVjhQ2lH3Yf/WvNR/s7Dp4R9O85c7RlvKdPN1XScfzkcMv7zYePTVSd1qhtBsmf6/9+sPNgk1oUIn36EYlcQASDASIwpBivmGgJhh27O8o7xrvPjrZ3qoZOjZ7Z011+Vt7Xph76y5nSBlHnP5oP7K476gx5lWLpyMCg0+3q6umOhMJikeCnP/1pYWHh9u3bx8bIpemefvrpPXv2/OY3vzGbzRUVFf/+7//+wQcfvPrqqw6HY3Jysqio6K233nr33XcPHjz4pz/9qaamRiaTFRUVtbe3NzQ0/OY3vxkZGZmZmSkrK3vzzTdbW1vLy8tLS0unp6crKiqOHj06NTXV1dX1zjvvDA4OHj9+/NVXXwWrv7u7u7+/v7y83Gq1Xt1bLl17WgOLowHknwECYX1XV9fRo0erq6tramo8Hg84RWEOKsx2BAeLz+cTiURTU1Pgn0FRf4FAQC6Xt7a2DgwMjI+PQwiNWq2Ox3c0ixUCH1KP2y2OTpLVkgHLisHMJplMJhAIxsfH+/v7W1tbZTJZOBy2Wq3wlItGo8PDw8XFxWq1GnxbFosFrHvkYYdxDL1er9PpYFgDluoFPw/MHW1oaNi/f/+xY8f27NnT2toKq8TYbDaYX2CxWAJRcjyViBKd4qFjw7WlfSeEBgkZlhiJRCMBlVZ2qPdU9dBZIuwXasWVw6d1bpdHqzzaWTegkxpN09XDp1uF/SqrXGG1RglCKuquG+/RzU6TI7RhQiSW+iIhIkLoZ6d7ZPwgEeyQDMuMquMDp1V6xYmh0++1HP3D8Y8qO04pTOp6fnvFaEu7YFgiE4/3D81OG2bMJolCHiUIk2W2oqJCKBTW1dXZ7XaDwVBeXi6Tyerr6yORiFAobG5uHhsba2ho0Ol0ra2tLS0tBw8ePH78eCOVRkdHLRZLfX3966+/3tDQQK57p1TCBz2qqqo+/PDDffv2icXijo4OiUTS0NDw3nvvTU1NDQ4O7t69u7a2tr+/n8/nk99gmZqSyWRDQ0NutzvZNU7z0xq4ljSAzHY4KRQ60dbW1nw+mc3mcDjs9Xq1Wi0aBQR0IgiipaWluroa4IuO7zKZrKWlpb+fdL1CCA3MYgX/O/LPLFd8h+D3sbGx/v7+lpYWqVQKI59ghoPjCWbZwDQBFDADOgL1ORzkRFMYTbVTyel0oi/n+Xw+l8slFArb29vlcjms/giKc7vdMJsgEg4SBBW3Tsa8U5EzUcJPRANEJBoNh4gwESIDbDxEJEK55CHcxk94wkQkQGJ4hAi5iAjhI6MsCYJwBwIEiejBUIAgzBZngIq/pAZxI2SRVMyljyAD7b1hf6No0GAxEsFQmIhEg4EgEfKT7xJhsiiqPAjNJGshCAi5RbGMKKgGuiC8vqFIGGAiowMdRdmRM5HecVGZwIQhHaDRNkYG8dNEWgOfEA3Ad4rgZL1eL9xKwWBQo9HMzs76/X6HwwE4AwHcEJ8NQd4AX4FAQCqVtrS09PX1JcR3iKqkrzK2zOx3hO99fX0tLS0ymSwQCID9DtqBj06A0wZAHCx3tCQWeNIB90Fr4PMC/5eL+tAoxJxEo1EIwkElezye6enpmZmZYIjEbcoFHw4QRIhEexJbo0TEC1geojiRKDXriTwUDEWipPsmFKUkiXCIIP8IIhIlgZiMnycBPhANQky9k5SgcD1MPiTIgdtwhHxriBKEnzzkp/JSJn+EfMJEySdKmAq9J2WoxgCqordF6FvQsRBkIwLBOv1+gzc7xKEbJiAfDAbR0RgQBwGojp4RyaeJtAauYQ3Q+zy6NeCmgJsuHA67XC5wJMD4KuAPLEgQM7/J4XCkwPeZmRlYZQwi5SBEEuavgr1Fb8yS0vkF/pl4fAcoB78VPOvQlFQIhURzlJDxDogPWzQPGF6RYCoBmgBlpxJ6GLhcLpPJpNFoDCaz1WhxWm0W86zZanSYjU6rxWw2W0xmh81pMtvNFtus1WKym61Ws81qtlgsZofJabZazDNWy4zN7Jq2eY2uWafFNe1QO8wunc3gNbqM1lmT3eg0mj0mM/kk1xlNbofBbjFbLRab2WIxma0Wk8UctDqNFrOBrN46YyUrs1hMdhspNmM12xx268ys02w1m8mFQ8lWUYvJmEwmmElgtVotVIKPHcJR4CA+ZIQegwRgDgWssQOffwR5mGBsPZ+ACcImk8lut9OF6RWl6bQGrlUNQJ+3UctPwTnS7zu4K8nFTvR6rVaLRgHRhCYAK+S3odvvra2tfX19fD6f7p+5RvBdIpEIhcLR0VGw39VqNfiwyMXZvV4UxRj2B/xuV8DlIv1bXrfd63T7fX6Xz+VxO/1ed8DjcTsDHnfA73V7PU6vD9zu8Vtqos/HG7TQDzU0m2CjX6CEiobyYnYvvxJU4GUSyVqSrNhk8oYkab7l6PX6+CzJKk3Bjy8kNSdFUVflULLWJmtMMvlk/CSXy5BMfr71zld+oepNVk4y/iW0E7ooLJUIwdYQeA1OFaBhbib4czy0FA6Hwf/e29sL+C6RSFQXfssJ2e+wCjwY7+BoRa8OS85+j1+coK+vD+aphsNhgHWkFNLT4iTX73X7fQ6P2+Nyh5yegNvv9PujHr/f7XF53A6fx+n1uJ0uv9vjT47voFsE8EjVgXRakhqAuKmYpiVkxsikd9MaWDQNBKkEk8xhIBSWzIJlt91UAjSz2+3wzg1zgGw229TUVGtr67WG7+TMHWpxMYlEMjU1xefzBwYGmpubD9LSkSNHDh48ePjwYZJ36MiBY8dKDh/cX7zvSOmB4wcPl5UdLDt85NDewoO7C4+XHjx0+OihQ0dOlBw+UlRSVlZyiJagSBojAUmr9gIygeglsVChkBvtJiPmW0mycubLT1ZvsnIWSv5qlTPf80rWzivNn287k8kvFD/Z+SYrf77yV7qchSr/wIED9KIOHTp08ODB0tJS4NPP+siRI3v37u3o6NBoNDqdDmb/GI3G4eHh06dP9/b2wvhqjP0OcfT08dXlYb8bjUZYWhP534eGhpqamh5//PHvf//7a9aseeCBB+jbh1c/cN/aNXffdccPv/zNh2+/a82Gh+5+aM3D9/zw3ls+c/eq2x666557H3n4/kfWrbvnhz/84lfXfuc7D5xPa86n84wL/kMVF7Au3Dmf+5P+/0KtfLyXTC8fS1xIJZNPxr8w98d7yeST8T/OOTcqWTnLnT+3s7+4VDI9JMuZTH6h+POtdwHl165d+8ADD6xevRrAZO3atQhVELF69er777//i1/84sGDByEmEJZXIQhCLBafPXv2Wsb3qakp+MpSY2Pj888/f99997HZbCaTmZmZyaISg8HgZTOYHBYr8xHs+3dhd97DYmZmZz3Cvm919g++w/j2d1n3/TArawOTkYXfvzrr+9/P2fAgi8Vink8MBuM8+fF/Bi0xmUza3hUhs6lELzqeQz+aptMaSGtg6WsgOzsb4AU1Fe5r2GZlZSEBJpP53e9+9+jRowRBTE9PDwwMjI6O+nw+hUIB/pkY+x0tEQxr6KL4d2S/R6lELL2UYTKZDAaDVqtVKpUSiWRycpLP5w8ODjY0NDz77LMPPfQQfj5hGMZms0mQx5ksLsbmMLGHH2TdfS9+173Me+5l3HNfNvPBvMxH8Hvvx+65n3PPD1l33IOte4iRm32+gNj/WFyKlfhk7LOTpE/G2S+/s4TLRW93PId+NE0vmgYAUXAcp18RRLPZbAzDoDG33357eXl5MBgcHx9vpJLRaJTL5fT4d+SfAXxHEzaXGb5PT09rtVqFQiEWiycnJ0dHRwcGBhoaGp577rmHH36YxHMc53A46CIx2RwWjuEcNoeDc7I24A+sZT+4jp2dzWFjBTk8dnY2a90jrIfX4Y+s5+EYC2eijHMh4BrEIT/JmEv2T4JMQuUsgn4Wqt6FKme5X+v56uFKyy93fXI4HIQe9HMBvQHoo9vkjjvuKC8vDwQCfD6/ra2tqanJYDBcGr6D8b5E42fgy9o6nQ6+zDc1NQX43tjY+Mwzz6xdu5bL5eI4zmAwOBwOaAdj8TjsXJzFxlkYxuUw8rjMXC6bzeZwczawWDiPm8Pl8XB2DjeXhXGZbB5d13QaPVfpzDT9idUA9If47bWqkGu1/8dfwdRnulDyYImy2eyYDgO26TnsopwQGIYBvkcikZGRkdbW1ubm5pmZGfDPoPmrc7Tfl6xzhiCIc/Ob9Ho9/eN8Q0NDjY2Nzz333IMPPhivrxj1XfO7bDYbHm/gnsJxHFxV1/yJp09wuWsA7FkEfIBxgKfQh+HuRlYtOkSXROhMZ8aYw/CKj0zAJag3dI7QNsD3YDDI5/MB3w0Gg0KhAP8Mmt+kUqm0Wi3yv8M68jB/NRgMLgP/O319MYif4fP5aXyP6aAcDgdGieEdkMvlwj0TI5beTWtg6WiAjmh04Iaui8AaGow8G4iPng2Ig04NwzBUCPniTjlvmUwmhmF0Ry6SXwoEXRs4jifDd4ifSeP7Urhki9QGFosFnZjD4XC5XCaTmX6nWSTVp6u5DA1wzicAd+i0sOVySYcqgjxEQz+HXcBrcM+yWCzAbjB0WCwWHcfpDwBU5mU0/IpkjWnYZeJ7zPzVJeuiIf0zMzMzsD5w2n6n9yz06spgMNaeTw9S6aGHHlq3bh3Q6W1aA0tZA2vXrkXNe5hKEPEMBjiXy0XDj2j8lh5/ArAITwow2+EZAMLJhjTp99ESoeFEEMqn8f2T7n8HfAfL5fHHH9+4cWN+fn5BQQEQeXl5BemU1sAS1gB0V+ix0MyNGzfm5ubiOM5isXg8HmA0wmvkQ4cRJrqHHe4CNpUAr+lwCSWgXEsE0GOaQW/w5ftn0vZ7jHqX3y68pTIYjF//+tfd3d09PT3dVOrs7Ozt7e3q6oLd9DatgaWvAeiuPT09Z8+efeqpp7KzsxG4w53JZrNzc3OfeeaZ3/72t3/605/ef//93bt3F1OpsLDw73//+5/+9Kff/va3Tz/9dF5eHoJy9GyAtwEw55fmrY4sd2je5djvsOZSKBRaHuOraf8M6pF0CwXMnOzs7D//+c/xE9OWZrhrfDvTnE+4BqCjou7q9Xqff/759evXw6gSeNWfffbZt956q6ioaB+VANb3799fUlKyf//+4uJixN+/f39RUdGbb7753HPPwQ2CzHwAUCZzfvNd0K13pYkrhO8A8Wn/+5W+fAtTfgy+M5nMrKysP/zhD+gzHQAW6HsCn3DsSJ/+UtYAwnT0BbFwOGw2m3/+85+vX78ewzAul/vCCy+89957+/fvBwTft2/ffiqh3eLiYgTxMcT777//i1/8Amx5iIz8hMTP0O33ZYDvsL6YUqmkry+Wjn8H8yQrK+vtt99eyrdxum1pDSTTADJE0He+zGbz008/nZmZ+fjjj+/atau0tHTv3r0A6wjT50jAU+Gdd9558skns7Ozc3JywOcDphaYSkwmk8PhwHZhTLBLLSWF/d7S0tLc3Izi33t6evh8vlAolEqlSqUyJv4drR8J/pk0vl/qBVkC+VgsVhrfk2FHmr9cNAAoHw6Ho9Go1Wp9+umnn3vuud27d5eUlOzevfvAgQOFhYVzxPR4saKiosLCwp07d2ZlZeE4DgE5gOkYhsEoLkRVXt0beu74jtZ/vzbxPT2/CXXENL4vFwhLtzOhBpBfGBnys7Ozr7/+OjLYS0pK9u7de+DAAeR8j0fwZJzi4uISKu3bt6+oqOg///M/E/pqlohH/pLxXafT0eevLm/7Hb7vkZ6/ChCfxveEqJFmLgsNxPvfo9FoW1tbSUkJQPbevXthELWoqIjugk8G6DH8kpKSoqIiGH0Fr/3vf/97gHgIsYcItKVgvKOAH4Ty9PiZGP8M/fur8H2+awffBQJB2n5P2+/LAr/SjZy7BsD/PjIyArY22O+lpaUQD3Np+F5UVFRWVlZUVFRaWopibH73u9+hUVaY5rpEFmsCZE/juwB93yO9vljafp87gqQll6AGkH+GIAiFQgEeleLi4rKysuLiYuSTAUM+xjy/6C4am6U/M4qLi7dt25aZmQmedzDk6YsZIONpkQmE7FBvCvs9xv9+jfhn0PqRaXxHPS+N70sQs9JNmqMGkM+dIAin0wm2NvhhioqKwO0Ooe5lZWUQRXNRTKcLFBcXg+UOBLwK7Nu3b/fu3U899RRyiQC4wwQodGctPnHJ+L7s42di5jel8R11vjS+zxFK0mJLUwPIBd/Y2Lhv376SkhKIZ9+3bx94VMAzs3fvXuSUpyN4ahoeFfQCUez8O++8g/AUgiZhnTJ0Zy0+gdoDVaew36+1+EjAdxT/nva/o853UXxH9w+ylWI49BfkpQkB6VZdwxqAbqlUKgHZERYnBG6YvgSS8ACAEVQQhqNFRUWoqISFIObmzZtRODxanxLdWYtPJMP3sbEx9H0PpVLZ0tKSwj/jcrlQ/MyyWf89je/Jetvc8R1wHIE7ggyE+4iTJtIaWBwNQG+MRqO1tbXgYUcTUBEK04m9e/fCiGthYSE4XlAuBPf79++/qLEP465//etfwWanr0uc7EZbBH4yfEff94DvN80X35fB/KY0vifrXhfFd5j5DTdSIBCwWq1+v58gCAhXCAaDNpvN5/Mtzv2criWtgXgNTE9Pw/Sli0ZAlpWV7dmzB9acATsdTHWIkEEQjwIi6c+GGBoGcp955hlYcWx5zV+dl/2exvdk4LkM+HPBd4TmXq9XrVaLRCJYrCYajSqVSqFQGAgE4u+6NCetgcXRQGtrKwS5oxDGGCxGu2B3o6lPe/fuLSsrg10Yj4UnBEyJSvG0AIHi4uK33noLbvIY2/mq3PnQBtSSFP73NL5flQt0FSq9KL4j9wsQHo9HTCWCINRq9cTEhNfrXZzbOF1LWgPxGggEAgcOHIDwGBQciQA9hoBYGmA2NzcbjUa/3+92u9VqdWtrK4zEFhYWxiwqGVMI3cwvKipCUZIIWK/CbUxVOUd8j/k+n1KppMdHxvvf0/b71bqgC1DvRfEd3VHI8+7z+eArvWKx2Ov1onWdkGSaSGtg0TQwPT0NqJ16ZBVhNDhk2tvbod/OzMw4HA6CIILB4NmzZ9EDIIXxDviOLP1nnnkGzWhdgBvyMoqIecAks9/T+H4ZOl5uWVPjO2A63An0BYQlEkldXZ1AIIDbGAks2l2driitAdDA0NAQMqghPj0FNKMA9lAoRBBEVVUV5O3s7CQIwmQylZSUwLgreOfRUyGGgDFYeBj87ne/w3E87X+/Wh3y4++vpuMj458+qfEdrhmKUgCIVygUQqHQZrPJ5XKxWAx+m0gkggz8q3Wl0/V+AjVw9uxZAF80KJraC79///6mpqZoNKrVamHtMDD8XS4XQRBFVErxhEB1oUD4P/zhD/ABkPiba5E5c7Tfr8H4mfmu/w4BT4t8ea5KdRfFdzq4BwIBhUIxMTHh8XgikYjf7xdTCcZX0/j+CYTXq37KYIPHzGyKMbfRLsTJ1NfX6/X6vr4+QHYww+FEELIjAuWlE/AIge0HH3wA68/EwOvi384QjA/fIYHvr1acKA8HQ+P8sdazLWeaTxsNM3KprPXsx/HvEolEpVLp9Xqj0WixWBw2u9vp8nm8fq8v4POHg6FoOBIJhcF6m8sNjmbDgHCESqBbOpIAB43tXU4vIu33+eL74l+bK1Qjmn+RrPw54jtcgEAgYLPZnE4nutJ2u91isQSDwQW5VJdzmdN5P4EaiEajR44cAYCGyPfUuFxSUlJYWAiLDYAHBrbDw8PRaFSj0dBdPSnWM4ABWAi8+eijj3g83lLwz8AyCRiGwYcJwf/u9/tHRkba29sbGhoMBoNSqUT+dyH1fQ9YP3JmZsZsNsPd7fV6fT5fIBCAkVXA6NQQH41G6VCO3umhTwaDQXrnBGHEQWCCOPMiPsb3T9r6MwDuqSF+XvhOv4ToqsRc2nldm7RwWgOXqQH6qgNzGWLdv39/aWkphMoA0Pf390cikVAoVF9fj5w8KHSSbrYjGs2KgnKys7OR1ZzMkLrSfFj9Bj4pBdsf/OAHJ06cCIfDo6OjbW1tzc3NaH5TT0/P6OioQCCQSqUI3y0Wi81hd7pdHp/X6/f5g4FgOBSORkIR8qspyDCfy/VC4JB6ZC4G6OdScrzMx/73axXf6TiemkYrIqHelhrf4TrFXFp4ONOvTYxA/DVIc9IauEIaAD84MtsRgbA4hkATXIuLi2tqamZmZmBUqaqqCh0CNw5aezKmhH379sFCZigcExnO6LZaZAJ9GxbqxTCMyWTeddddldVVHp93YmryTMvZ02fP6A3TMoW8pa21v7+fz+cLBAK6f8ZsNlvtNofL6fK4PT6vL+APhIKhSDgUSeWfARxAgE7/EC7QAPFIIAYrEP+Su8dC4ntqW3iRLyqqLjWm049eGr6D6tGFQZcEcZDAJV+kdMa0Bi5NAwcPHgSIB+P9oviO3DI9PT1Qo1wuL6MSHIKlC+jr0sTjO/IIgd+/ubm5vr6+qamp8SqlhoaGJlpqbGw8ffr0qVOnTp89093bc6blbFtHO2zbOzvOtracPXu27Xxqb2/vQKmrs7O7q7O7q6Ors72zo6OrE36d51NXotRNpc7OzjNnztTW1paXl1dWVra2tk5MTLjdboT4Mdd3oTy6C+mfuVr4HoPRCNmBoB9FLUzIjMk43+9r05E95mqld9MauCoaqK6upo92xmNxDAceBj09PZFIxOVyNTc3g8cGVjgAj82+ffsKCwtTPCrQAmQlJSXHjx/X6/WwxK5hnmk6SaIXk0TkAvbMzIzRaDQYDDNU0uv1BoOB5BhnpmcMM7NGvWGaThupNDMzg7IAbTDOgNj0jAF+wKG3h05DvUajEeqFQqanpw0Gg0wm6+/vP3XqVHV19ejoKCxqQo+xht5CdwNcWv/5GN9RfOTlrw8cg57xuIlwNv7QJXBSVxdzFI3j0/nJKk3tn6EvPoOuR4zZHi9zadcpnSutgUvQQFtbG1jTMTiecBc8KocOHQoGg16v98iRI+jrTrDuGDLbIQo+YSHwrQ+0TlldXR1MAZXJZEq1SqlWKVTK+f7kSgX9J1PI6T+pXJb6J5FJxVKJSCKWymUyhVwqlwFHIpHIqCQSiRQKhYRKUqlUIiN/Yqkk2U8kEc/lJxAJhWKRUCwSiIQCkXBKKJgSCiYFUyKJWKFSqrUavWF6ZtY4MDRYXXOyb4Ac54BLjCzFS7jiMVkWD99hWAOQdDHxHbwu8Wgez4lH+dT4ji5DwvD2GKBHwjEXIL2b1sCV08Dg4CAaFE0Gx4gPaA6eGYvFMj4+PjY2NjExMX4+Ie9NCuMdlQbCfX19Ho/H4XD4fD6Xx03/Od0u+NGZyWgk7HS7QIbOSU27PG6HywkZ7U4HEA6X0+12O51Oh8Ph8XhcLpfD4XC73S7XuVZBmQ6XE/1cSVLq2lF2h8tptdvMVotuWq9QKQHxhWIRoPzw6Mjx48cVCgV0BoCLGAy5hH5yKfjOwjEuk8lmYywcK8BzMCYnm41x2ExeDs7O4WE5OVk8LgPHCpgYg5WNkwcYTDbOy+LyMtksDpvFw3EWxsZzsnFGbjYXw3kbuMzsHCbOwvKZ3EwOk81hsnAmj4XzWKxsPAtjszg4NxvnkYG0GM7B2TjOwVnsHIzNw9lMjEUOmLA5DOYGLsbgMHI3cHN4GIORy8pnsHAcX89lMzg4h8HI5bCxbAaPyaPjeOonTWp89xNBIkoQYYKIRKNEiBwqiRKhKBElIlEiEiHCQNC2pHiiHymf6JdQ+CoyEzYyBTNZU5NlSSa/UPxk9Sbjz7feZOUk48+3/MTyIZLtJ/se2RlJGzBMdj0iGo3qdDo0LgrIC3CPUJhOwPpisEAeghI60CBYBw8MPW88DR5/mUzmWcTk8/ncVPJ6vW6320MFu3g8HmAC4fF4vFRaxHadqwrq9fl8Xq/X4/FYYydZQgAAIABJREFUrVaYMSMWiw0G0udT33BqYGgwFAkjXw0y6tEVmRdxKfiOc9gc1jl85zJJyGVzcc76dcwf3M64827s3jUsBhPjcrhMLJODMXI4GMbEH1zL/No3GF//BpuRiRfkMpgkVnM5LF42zmJyeCxWDs7kYjj77tXZ3/pO1vduZ2eu5+BsFo5lcVkYm5HLxHksDpOLMTksBpvJ4OAMHGNiLBaOYTycl83CmDiPy8I42RiLx9rAwD79WV7GKuZd9+C5nA08nJHDYbCZTCyLyWFhTPJ5gCD+cvA9TBBREtyJcJS6IFGCCAUJ4oJo1gsvRoSUTvC7UCq9l9bAfDQQJaiOR73chyLBCNkDg1GqH4ZCIfjUKqBt6qXbS0tL9+zZgxaMhGh3tGgBPCegHFhGOB7TYzglJSUUyJJ4CsQVhVSv1+tyudxudyAQgIXAPB4f9UEOslqA1Bigv6LtSVY4tMHr9QaoZLfbVSrVxMSEXKkwWy0tba2nz56BVWkv/6X/EvGdhGwOiZIsBsbisNnMrOxvfSfz0zdt+PRK5i2fx9Y8wMvlstmUtc5hb2Kwmd/+JuNTGcwbV2TfeQcb4+TyCtgYJ4vHIMGbzcMxJoPNxAt4zNvvYt72OeaXv8HNzuTwuFyyaDaOs7gYi4Oz2TiDzcZwnIXjLDYbI2kW+ctmYwwmxsOZDGwDxs1lMxlZn1qRk3Fd5pe+hhWwcRY7l8khJRnZGA9PDegI94FIbb+T92AkShCRMBEhF+wgLfMQQfhI1Afgj4HyRKY7mStGDO0mk79afNSwORLJ2pksezL5heInqzcZf771JisnGX9Byo+GQ0SU7IbRCPmDbhilehXlzz179ixaLQCt/RsDxGgXLHQIYEfDpLC8MKwcCd58NIMJZaQTME+qtLS0qakpEAgAnC0CvsOXlcDZAqEpoVDE7w+iZwzdfk8GvovGB7X4qKlSYMtPTE2KpRKTxdzb39fU1ASP+Ktgv7Mo2xljk64S0njP4+aufzjrltuYN1zPuPFGdsaN2Pe+l8fF2VwOjnM4OJvLy8Xvvpv56U+zbrmV+dBaRn4ui5PDxXCcw8xlcth4DgmjXBzncdk/uIN56yr2F7/Gynwkk8vBWVycRXlgeHg2mzLwAdxxFovFYOAYxsbZGIfL5fKwHC6TyeCw8PxNOJadfeOnOCsy8C98nbWJx+PkcFk8BofDxfBsjEXWO+d0cXwnXTPhMEGQr1RRwuEhOkf1de3q+g7NqU4t+jV06chftybhD4nFEA3dqlNdyphfQmaMTMxuwiwJmTEZY3dpZxTT1MS7cY2HAs9po0sXm+u8fEO36lKadz57bLMRf6HaTzUPGknfxp7ORatDDUtJoCpQ+TEKrGkXjcp9pIVBTbEDqKfsBtJFMz09jUzyufhV0DOAHuEOH+OGyHcAevpROrgDDTObVCqV00m6uRfHHwIVwdbn8w0MDJw+fdbhcPl8vhjUXpz2xFSKdqF25Kvx+/1gyDtcTpFELBAJZ82mjo6OsbExWOhtPu9ysbLztt/ZbDY5X4DLwdgkTLJ4HC4P495154brrs/69I3Zn13Jy7gu6/Of5254BNuYi3F5efkbWXm8bB7G2rCBl5XNyc1j5uZkcfHsR3l5+Vwul8vKy+XwuDkFG/HcXPZd9zJuWcm77WucrA2MTfmcvI2c3AKMy+HwuCwcY7B5maT7npOTk4Px8PW57Ow8LpeXi+Vz8Zx8LIebmZ+D5T+Rg7HJJ82KDMYXv5n9RC57YwEzL3/94/nsHB6DfCJx5gzv5GMkKyvr7bffjlUbtU/aSKSLJgI2uNsdPlQvxl8o424r522vyNlRSf/l7qzKfbki4Y8udiF9MmfHkvpdcEYXNjXhocSNz91ZlSRvYvmFU0LCRqZgJm5P7s6ahL8kJzXv8hOeb+7OGnqnousw9/nDP/7/GjvHTESUCEf8YcoXH4FXSmpmfG1tLfhV4oGYzkEeGFhZDIAeMhYVFRUXFwOmxzj06SUgcC8rK6usrASodblIhF0E+93n8zmdTo/HEwwGR0dHV69e/aUvfeXIkWORSITuIALDGaHtVSHobQBHTSQSCYfDDodDJBKJxeJZs6miqtLmsAPIJMSfuTAvBd9JtzebxD4Wh4vl5/CyMrGvfCVzxXXsr34Tu/u7vOuvz7zxBvY9d2FPbswsyM/Kz+fk5mRyMBYD47E4OMbDWWwei8VkbWBnPczMY23IZ7IfeZibmZWdl8e4/4dZK25kf/FreYwsNs7CHlrPeegR/OGHOVkb2LkcJp6D8fJwFsZ7eH3O+vUcNpOVlZl99/2PPHRv9rp1OTncrMc2MTf+KJ9bkPXpGzNvug6/8678TTz2uvWcB9ex1z+ycX1mDo/D5JKOozlCfGp8J/3vpCuGIAe2ohGrPfzaP3u/9ehR5otV9B9jcyXsMjbXJPzRhS+gXzrBXFK/C8/rgqYmPJSs8YmESS0lk18ofqJ6U51FknoZLx5P+EtVVMKqk5efWBUvnmRe+GNsrmZsrsZfOH3nE0cOn5aQfiCyMwaAQNPf1Wp1imFVBNAA5QjHER991wmcM+DtSWG/Q11isdjtdoPtTIezK42nfioNDw/fc889X/jClxC+n/fIe+jumivdmITlozcMNPDrpda0gWgZs9k8NTWl0WmVatWJinIwHucC5QllLgXfyWAZNpvL5mD5edjGXN7qByjPewb3oUewjVnsz65iXpfB/srX8Cc24k8+kbVxI+vxTew1axg3rMy85XNMZjb7ycc4D67Dv/D1dbeuwn7wnczvfo19622ZX/46O4fHvm8177qbsr74BdYd32N8/Rsbbr4t69bPZn3+C8wffJ+DZXHYubm5uezVD2R//qucr36Te/v3s7/ytQ0rVmVlZOCf/izv9ruwgnzsJ8/y8h5lfupGdkZG1le/wvnu9zbcfFv2Tbeybrkt90tf461+gMXFOBxw618c5FPjO+XtDJGRCpQjftbsf+X9jrt/Wpu/tSF/a0PellOxv601eQl/8ZLnOI15W5bUL+6MkrYcJJM1Plk5yeQXip+s3mT8+dabrJxk/IUpH3up+t6fVRxtk5DBWxEynouIUAND1B0PY3SnT58GnwmKgUHwjQgQgCVr0KxX5GoHTklJyZ49e+gOfZQdEfv376+vrycDIqkExnu8kyQh9l0O0+VywSAq1NXa2lpf32CzOeArVPQXiKvrn4FzRM88CKdxu91+vx8eyXq9fmJqcmbWeLa1RalWJQTuOTLnhO/0gBPSP4NzcRZGxrfk52Xncji337k+IyPzthWs3ALmi0/g3/4SnpHBvH4lk8PKffwpbv6jvMcfY937PcanMrJvzmBmPpD7L0/mPJL50KpbslZk5K1ayfxUBjcjY82tq7iP5WTedy/z5lXMVSs3rFyZdeNN7BtX4jfdzLzhRuZtn8PuuiObx+Xm81j33sO85bO8Wz+b9ZlV61Zcn5dxE+uGDDxjxYYbVuIYM+fZF5ibHl2/6pYNN1yXteJG7LobWTfdhH3+1uyVNzBuvinzS19hr1u3UPhO3UnBIOEl76goYbUG3/hH670/Ppiz4yRve3WC37YaXsJfQuFPHpO7rYq7rYqut3gO/egnjQZtJNJJ1b0/qzh8WkCGzISJEInuRJgg576DT54gCIfDcfjwYUBwBMQxRGlpKawKCc8A5IeBEBpktpeWlsZkjNk9ePCg0WhExjuCs8vB7jnmhQB2QPloNBozvkr30iBzfo4lXzkxBPRerxeWcotGoyKJWK5UaHTaiqrKOUJ5QjES32dmZnQ6HVpfjM/nDw0NNTY2Pv/svz2weg0Vb06GneA4i4UzMTZrfR4ZjcjlYZzHCnAWO2vlSvb112Hfv3PDC//K+7eneRs2MG9cwbw+g7H2h9yfPJ316E8Ym/JzHlzNXPEp9s0rOevXYf/6GIu54ZGbVmavug7LyMhctQr/3reZa+7nbuRm3v09zq03ZN+wgvfVr7EeWsvcyGZlPoR96cuclauyP7Mqe/3D7IJN2fetzlm1ErvphsxvfpvFwLJz8Ue+913WdTeuuz6DvWYN92fP8Z7YlHnzp7NvXomtyMj/zh3sDdnkoOrq1axbVmGfuTnr+99mYzj58oGR8fs4hw0RNQmdNqnt9/MKJUe2iEjUbPP+3w967/vxiZzttYlxPCG4X0XmjtqcF0/lvlRfsKMBe7Em9+V6zvZK3ra6nC31Oduacrc2srdU5Lx8MmfryZyXKnk7m3kvnXp8axNne3nOlgZsR2PO9obHthxj/qqWs6MmZ1s59nIV/stq5o4KfEfNpm3H87ac4m1pLXipkbOtlrPzBPZyNWdbbf62+pwt9dwd9Tmbywu2n+JsqSnYcZK7vQ7b0cjbcTR/c/PGrQ2sbdW87VXZv6rO2VLL3dKYs+04d1tVwUuNG7fW528/lffSifytR3J31LG3V+ZurcvbXl2wuRJ/uSJ3Sy17R/nGl+rIl6cdx3NeqmH+6mT+i42Pbq7ivXySteNEwbZG3tbGnK2VuS835PzbmbxfVua90JS7rapga0XOltrcLSd5L9dxX2rhbDvJ3VHF3VrL3Z7kYXwVr1eSqrlb6x/46eGKZtk5Xy0V+w6dkx59oVKpAIiRnY4s+tRxkxAoicZdwf2CDHzgw8MAHgwikQh87hCViIY9k0Gk1+sn5yyRw7Bul8vh83lgBpPH53a47G6vx+sng2I8bqff5Qu4g+DWABvc6XSiNwO6hY7qAqxHu3QCGgYlAE0/uvg0PH7AhLdarWNjYzOzxsbmpmmD8dxQHxUWRRqT54nzEJT0fyp8f+6ZZx9YveZjLwYHw9gsNhkYw2KycUYel7NpI+ktuWEF+7Or2A89wHzmR7x/+RHGxhnf/jL7+hVktHtuAS//qayCXO4D9zNvuJ6z6jOc9evwHz+OY9mMz3z24esysM9+OTcrq2BTPvvJxxg/fmr9PfdgK27IvvGWnLUPcXILsh59HHvicWztWsaqzzFvvpW15kF2wSbWmoezbro56+YbuOvW5T36RN6PnipYvw5fcVPm9RlZd97F+/nz7McKWLesylpxI/O22zCcx9z4JItbwMjPx39wR37GSuYXv8nMJsdZycFhKgKH/nby8clS1NzwnQp4X4b4nretgb29Km9HOWfrCeavatf924lHfnLshz+pzNlaxX3xZP72xpwdJ0mI31Kbv6MO33Iyd1sVa3sFd+fJR18sz91xlP3yyfwt5Rs3N+S8WPfoSw2bXmou2NxY8FLTxu1ncl6q5G6v5m4/nru1ctOW2ie31nI2V2/aWZez+QRZ6bZjeTtO528/lbO1irO9nL2tgre1KeelRu7LJQUvNebsOM3efBzbeWrT1mYSebfV8H55An+plrOtCttalftyPW97NXPzKe7LZ/CtdbwdtZterOPtbORtbWLtqM3dUpu3tQZ/qfaJ7aewneXs7Sd522qwrRUbX67l/OIkb3sTb+sxztaKjTvPcHdUcbbU5Oys422p5uyofnR7E/PFIznb63N2NHK2n9q4rZK95dTyeEhvqwF8Lz8di++AAmgOZDgc5vP5sAjBvn379uzZgxZ6hDWBY8xw+i4ANyA7eGyKqAT03r170fhtX1+fy+WCsEiwkS8KnS6XJxAIUHjq8nrJYBu3l5yZ5LIHggHC4w5Qo6auQMDncDi8HnLtBGSngxcI3hUu6nUBrKfbyxAsDxwoFj0tFh/f4fkEnwMKBoPk6sQatVAsamltJ+NfqTR3ZAf5VPj+7LPPrllD4jvGJn84h41zqPlELBbGZjE3Pcrh5uHf+gZ2fQbjlpWPfP1rrC9+FbvtG9lf/hbrS1/g3nBj5m2fy8xcz3h0U1Z+PnvND/GVK9m3fo714IOMJzaxstazbv0c61PXcb77Hd4TeaynNjGeenTDjx7Nvvt2bkZG1i23sLBM3pNPcvOeZD3+GBvP5nz9q9krPoXdeT9702PYA+s23LIq66ZPkw+bJ/4Fe+KJPIzBWvFp1vUZrDvvxH/8NGNTLv6ZW7Hrb8K/9+3sggJGwROcnEexgo3se+7i3rSSseq2zPUb2BhOhufjlAkfA+q03Wsb39nbSvFfnc7d2rhxSzX+YuXLr7edadE38xVP/Wcdb0slZ0t17o463raavG0NvJdquC8e2fBMPb6t4rGtNbnbavAdLfiWpoLtNbkv1W/aUsveXom9XMHZUbVxa23eLyq52xrXba1m/HslY3szb2c1Z+sJ9s4GfMvJTb+qYeys4u48yd3RhG1u4m6vY26r4O2o57xYiT17nLW9kvUiCeKbttQynj2Wu7mKt7M8f0dN3pamnB2NWS+Wr32m4t6fHn/gZ9W8zWdzt5dyt1Wydpzk/Ko+i3oz4G6tzf9lbfbOY8ydTbkvlue83MTcfAp/pgbffoK3vSpnWxNp8v+yJmdrFfOl45xfncD+owLb1sB7uY63s7xgS8365w5i5ItL2caXagp+0cD5VdNyx/dzkEDDhVAo1NHRAUOjBw4cQJGOKT7WAevJIGsdAmkA+iHOnf7Rj+7ubhQtA95wAE0UeJ4QNH2+gMMBXnInaby7XP5gIExNBIyGCZeDnIbq8/nsTocn4Hf5vE6nE1zqYHrD4CREzsSUjxA/fkwV2fVoSpTdboenRUwhi78LYZHT09PjkxNG0+yx4+VXBt+ff27N2gcA3AHfWRw2xiUHJzk8Np73GP5QFuPWG1g3ZDBW3pr1qVWs6zKY113H/NSNzJX/j73rgG7iWLvrRk14JMGAMaaEXg3uVV2yDSE9odlUF8k2CSSEgHFTl1wogYSOjXG3ZUuWK2DTe+i99+Ku3qX9z2hgn55teOEleS/8Jzo60mh2dnZ2tXu/O3e++aZnUO/uwT17U0aNJ9GowdM/Cpo4MaBHT/y7fQleXuQvPiUE+uHfeY/U3Y48cTT+Uxp+egiQer6cHjTuQ7wD4t3LkUTxx3/yES7kI9LHHxGCfQgu7wc4IrixE0iff4ab4B7Upw+uW3dvnD/+48+CZ8wgEYMCHbsHIghlzDjcZ18RPgkN6tUTb9eN6uYW+PlHBGoYkUoL/DSMOHIYsbuTb+9eAX7+HfCdSAQqzZvGB375/Njw9w1H3yJ9hkYX4+k1IQxJSHS13+z8EzfUSr2++viDz5ZX0uhioFQwKmn0CmKUhBwjXbnhRFruSXxcNW3hHlqchEivCaJL/OliQryITC8lMWoJ84AxIDMqSDGiT7+p/LngzK7Ky+5zc/BRYjyjikSXhtBrQhaLSPRyUmTZNEZpWEw9hV5Biy7Hzy37NvNgYcOzualHghaJ/MPFS7nHsuuufZ1Q6bFARI2qnUEX+c4pjUs7XL7v9ukLDw79+uQ7wRGv+SJCVBExShq2uGZ6ZDV1USExpiyEIQbGJrqUElnjN0e6hF1RXnHrq+8l+AgpNboqNK4cP78ydFFNWGxNSJSIFltNDJdSF5f60iunx+6R1t9fkLIfHy3BR1aEMKQhi0vfRnwHPM9Gn8FcaCxgmgYYJ2pqamKxWJiTDEbnbdl6hzRG3iHKw58Q1uHkWFj+9OnTmFrSAdxfD5FKpVqnAxKMQiF7gcgaXVm5JCFxWXHJbr0BoLtKqdPqTNbQMaAMZNwGgwF6yxiNRovFYjAYjP/6MlhfcKElk8kEN5qsL6PRqNPpoG2AIWigzcBw//Vt/jO2Yt0LuKKTSqW6cOni86bG6po6mVyJMXesQ/YSf173/Vr+Pi9iisdUiOwQ5YlkEpFMCiATcCEkIimENHJisD0S0AMJdhsSOnx04Dg33PgRpFFjCCNG+Tr3C7B3IjsPJAX7E6bPwLu74/r0Ib3Xj+jtS/78E3KgP7FvvwAHBD9lkv+M6cSwjwjTphO+mOE1aph/L0dit15k9ym4j2cEfT2T9PHHhClTgvr+A+/kgPN0x385I3jcBNI7vagOTgHBPoTpM4iffEIgBQd27xmIIKSRI3Gffk6YQQvq3Z3o2JPwwSBSMIX40cegcxBCIbkOC7XrHtSzLy4IBFXA+iW2+oxt+jfHB35b8T0kro4aVUaNKcNFlrB3ntGglubWlgLRndC4cspiKSVWSoqpCompwEWKSNHiwn0PTl5vnvR1YVh0NT6mFDdL9HGslLy4LHCRCLegxm/hbiK9xn9eKZFeE8wopNHFCet+ZW085r9oH2FuKT6mNCgyJ2BRHZWxn8YQkRkVfoslwZHlgQsLA+l1/gvKF6bWJGadnLdq367qJxvyrrA2HTl8sXEZ76jHF9mkBbWBcSXus8Q7yu88vNteWX17R9ntBQk1wQurZnxb479IEkyvDpqXFxZfFriwOGBxhW+4KIQhpXwr/fCzLYlZJy/ftMxP2Rcwr9gvpiRgYVlAVCV+Sa33PDFhcU3QnAoaXUyJK/OclR/2TVVrk3wJ75jvzNyvfygLZOR9GlP1/wDfIShAZIfBZtva2mbNmrVgwQIsxi/0euyA6V3+hCUxV8usrKyt1vX88vLyrl+/DjEXiwSAMfd/q3hAAQdSbDjvdFdObrfuPRGHnj37vJedk2UyGawLn+q01kgHVksAKHxzc/OpU6eOWV8wzPrRo0ePHDly6NChAwcO1NfX79mzp7a2trq6usb6ggmYKZVKL168CKdfQXUIa/+fgd2/vU4oGUEQv3Hr5v2HD06dPnPh4mXboZTfLsG/Dt/nRsxxnzq5M74HUUmkGWEUHIHc34Vkb48f4EwI8seFkYMBvaeQqNNI1GmEEWPxjj2C3+sT4DmOEDqdPHUqoW9f0nv9cB4euBnTgv288X3eIzkgtMkTg0IplGnTgkMppE9oQcOG4t/pSXbq4de7D26yOz4wADd2POF958Ae3Unv98HhfQM/DcOPm0gCs2QRUoAvjkwjTAsLwvkHdOuFc0SCBrsRP/k8gBJE7PsOoec7gb36UHq6BnlMCfafEjR4qH+P3hSH7kS3oYC8462BCqy6UwdMt5Fn/s38ppd20wbf36rxVSJdNC1aTFu8H79YUnniPmpQoUb04rVmaqyEvKiSHCclRldPo0uIDEnw4rLSPVdOXr/nPasoLLqSHCvKq7x1t11/4oJs4cqGOd8fPnb98c1n7cdPX03eeGbc3NyP42o25Z7PLr+56qdTt2+0XH6srDx8M4xR6fFl2ffcw+L6O7Hsw9tKfq1seDA/qfyXsssS6eN1u85tlV6QKXW37zbvqr1+41HLU4Vl78Xr8ZxDXvNFkyKytknPXL3Vxtp67PMVlXTW3tIT92/ffL657Bo+Kn9T8cU7zy23HitjU8vjucf3Hrp99m5zwrqDSzNOP3iovfCo9e4zzcqMgyHx4pqTdx61KeoP35nOKF+QdPDoHfXT5+ptBRfCvql8+Fz3/dr9B86qN+66EhhdSYp9y8ZXX6W/Yy40EOubmprCw8O9vb0//fRTgUAA1+vAKHmXsI5Na4JboeYOBfesrKy6urqnT59imjvm0w3xGoJ7l+KJLeRBYwA9BRUKVcS8Ba6Dh40YM8Ohx5DYJd+p1O06rUKjUmtUWrUSMH3I90+dOjVo0CBnZ+f+/fv369fP2frq//Ll7Ozcr1+/Dz74oF+/fv3793d2dn7//fffe++9999//9133+3WrduqVasgi5fL5TBkTQefH9sW/hfS0M7Brg9E87v374Foxrfu1O0BEWkg6MP/EaPzL1Go6+/X4Xt4+JwpUyZbg70QIeqRrJ7jRCKeTKGRJk0McLIDwsiwUUQqxSOMHEwKDQRhIkNxIR/jJ04hvfMOvmf3QDe3YBKNMHFSYO/ewf94j+DlRfhkGj7AJ6jve3hHhDT6QwKVSAulBoXhSWFE8uChOAcnvx7d/P7xbuC7fYN69sH3fjfQwdGvdw/S5FFEGgH38QzcBPdgp26+jnZkPx8CJYQ4LYxIxAf1ejfICQkYPIg845NgUhDp/T5+PXrgevcK6v6u/zs9id2dcN17+Tg6BPV9F4cHkcv+xnerNlJHiymj0vcELNqzmCttMxgu32+blVBDZUhDI2uI8RIivSosqoxIl+Ijq6R7rl44Lxv5RYnH/Irkn443PVMkbT0k2Xf77MXmgj03T11oXSE49qhRvanozPDP8j6O3rf7yLW9Z55k5J199EC/ufjsrbvyZRsODv9ia2RyzeHTD2sOPv710pN7T3Uley9XHLyblX+x4Xhb+o5zh44+rt5zh7vz+MXLrUXl945efVpQfY0ws3LCl7mbRdfbmvRP2tSl9bfYmSfWF168elVx4YZsV+WVSzca12VfWp9/ZUX6oTMXZecuyq/daT1/UynMP/KoScb65cTe/TcPnbq398DzU5ceLs3Yd+ux8qfci1fOy4obrnI3nXzYqlyRcf3+3eZHau3xM08+jqnB02vIjOK3kb+Dp/ylPtMBAjDHjNmzZ3t7e8MnOjIycs2aNa+n8NAjHlPesVHWsrKyO3fuQNqr0+lkMqCcdI7OCDnya1g83AuCrJW9Gnn89Pc/GDBsBGXYCJ+ff9lqMGrUKoVGBYKFaXRaCLUGg+H58+fV1dVlZWVisVgikYi7epVbXx22lJWVlZSUnD9/3nZiLZSGoFn6L6B550NgA9EqlQr+WU+fP7t5+9bjJ88kFZUd8L1rOO+U+2/wfepUdwzfQchHIFQTaCQiNZAcOmoEvieCH+gSONHzY8pHZByVTAjEUQKCcf4ECtWf4E8Y4Urt817wkBEBwSSahyel3/uU/v3xXh4B06m4QB/ygP5+H7zrN348IXQ6jhbmFUIOpFKoI90Dew8IdBtKnTSJ5DyY9m7/wA/6+Tr3D5k0hUACgcxI0z8NnOhJ6vueb9/eBC8vIg1ENQDRx/p+ENTLgThiOI4cgicGkT/4h98/3sWPGhk0dhz+3b6BPXsQ3n2fMmBwcIAniUh7GWQYDBoDFxqbcJK25P0/0WfeKv5OiS0hxAK5nEyv/miJuEWJXr3+JHC+iBRTNi26jhAvIjGqP4qr5BkKAAAgAElEQVQW4+iVuMg6ae2Vy1fbfegF5GUNadtPqdVaXGTVluKrj1pbyvdfv3Tz4dK0wzcfqTYVXxnyaUEEo75k3/UTR55sKDpbf/rJ7ATx1fMK4c5Lw74soEZWZ1fcNOoth888LT9yTWNAc0Q3EzbvOXbxYUJGQ8mRm9sqbq/e+OvZc4/jUmtKjz2rrb3tHVk86rPC3MrrVy4/Xbb2tM/igszc87UH7x4+9fTsrcdVR+9euf00JvXw3KQ9UZz6x89V9b8+yKu4Ulj2cF3O+YeN7Z+v3L8h9/yFa60377TsP/bQd+aey4+ebq8939yoEuafnUGvkanU3F+OPGmVtWp19248oUZXESOriPS3xMn11f4zkLnborzFYmlubp4zZ05gYGBwcDC8w0kkUkREBJPJ7JK8w0xI4WH4mpycnPr6ehj4F5NWsGFVTOWwBcrXj1vCSjBPGJPJcv/Bk6Rk1mczZ2b+tOZ54yOdRqvXmJVKo0qvbtc2QWSE9WOAZnuaWKZtAhawFa+NRiPWb4Cx4KGl6Yy8/50crDFKpdJgMIA/q7XlyrWrT581losrbPWZf3uy2Im/Dt8jIiI8PDw6OIbDZTo6ZEIXcuiOApzKX75gPvx8mffPbxC6HSokLz9BkBlcMHDUAc72uODAoODAoBdrn5NBpDIiiUIiU/EEEg4HvPGtcSRBPBngzI7DQaSGbcPjwTxVPB4fFBQE72ZYzz8P/xtS/9Z/xuqHatVnLGhTuzpl48nRXxS+cn7THzRliUYXd/l+0/k+ZHr5RzG1hKjSQEb1zG8kBqP5yr37hAXA3zE0toIaKwYcP6aSurg0NGrXjrpGPYo+fdZy7Y6Wvb7hwJnW5jb17Scq7o4zC1bt3Xv+0cVrrY+a2zLzz42bUfbxt3mi2id7Tz3YXPhr1aknUSsaDt5u5WRd9vwqyyuiNPWXo1oVuqnoQuKmX5VyNHNzbVzawYtX5fGsho05567elTccetJwouW7lOqKg8/L6m9Oic73+KSkoPrOoSu3v/6xwW1agaDw3N07zQ/v664/ViWvO1BzVHW/qfl5i5qZ3rC+4MatOy332/Qb8i8w1xx+/Ax99KypWaP7efflH7nHLt5pf9TSePMRGrWidG3er7ee65obVYfPPZn3Q11jcxNn3a/nn2lLK2/ho0tmRHY1Q+0P+gff9J96fXkSo9J9dl7p3pvWQKT/5O/YQ26baGlpmTNnjq+vb+fbPyQkJDw8PCMjQyKtyCvIz83NzcnJycrKysvLE4lEdXV1J0+evHPnTnt7+x+Lgx1qg2OeEO6x9Os9cP47+PtnH8WWv+t0OovFolAoLl269KzxeWmZyHYRoT8d3zvfHHC6UAc6jOF75/IgBzhcEiGJfuGKbgV6zEKQCEToqP5iLBQErAQQT7DiO4geCeIEAxDHXrYHIv1rHIIuLZNt+c7pN8L3563KpJ+Oj/u6BOvXk2Mk5Bjggv1nvGHlv+sQDFFITAU1vjwgpvizb8tvP0eP32jHLRIDb0h6OZEuItElVEbNtLha0oL8OSsrl6bVr1rbwGDvmxYv/eK7qtRfTjA4dcH00o2FZ3691iiWnH/Yiv7wU8OUr8pocZL5P+5fvLpu5rc18xOrP44+EMUUf7G0krS4khizZ9pSCT15z8dLxaHLpHHsg9MZRaHf1yxI3EuKr/xkaVVUalVk8t6IpOqPvqmak1g3J6GKGCUlLGyYm1C/KFn8ady+gPCqT7+rWC488J3gyGJ2NZle9vE3NQmbDn4jqAuLriAzKpbx9v/w85Fp30pnLKmNTtm/PGPf0syaj+Kr8PMrFrNqf9zYsCC5gRRdSYguiE2rT1p/5PPvygmx1XGpddNiq2YmlcazjwV+U06m1/4Z/9rvr7Pz/46LEk+elSvad+sFjoMVZl4mO02EeQ2+43A4IpG4MmHVhUsXb9253S6XQZ8T6EEI0Q3zOPxT539iUgl2uD8bW/8K9dviu1arRVFUqVRevHjx+s0bhcVF0KkG/q9/Ir53BkEsB8NlSKi7xFyssG0CKwkTmJGAA6Gw5D87By9nnMJ8ECYBMPkXL1gDgUCw7WH8B8gOq/u3+G693C/4e2ObCuJ7CL2KFlP5+98UemWXbzKjsst3l4Up9Fe2hMKooUTWUOjV5NiqUHpV+PfVX30jptL3hdDBHCJybDklvoIQU2lFukpyVClpUQ1loQj4j0dXk6L3UedLyYvFftGSuOTTe04/OXmjMWP3OcL8cmJUPTm+FBddQmZUEiJriTFlofR60uLCkBgxlSEl0sHUUNxicArEGDFI0KvJjApCVBU+rgIfWUmOlNBiaoMii4hx0uAoETW6ZkZMJZlRERQtJkZJaYvLw+Kk+Kiy4EgJfhGY9ESIqSRG1xCjRaToCmLUXnx0FTmyihQjIsRUU2P3Bs4rp0RVEKJKCFHV1sZU4KPKcJE1QZF1RHpV8MISapQYH1lBXFJNXrCPTK/FRYqoi8qIS8qo0dI3vp6v+L9edSe8af2vqodIl06emQ/GVyGaW/EdpjsDwWvwHXoJL/n2m1/Pnrl05bJCpURRFDoRYuCO8ejX6Ol/FFZi4A6lGOznH1X/X7Me2JvRaDQoiqrV6vPnz589f65EVIqtwf3Sdv+m7zfWZ14C6eu+O+D1q4pCRQWTv1+AO5g8ZRXFwbJ7/1xuyVYrx0Ac1txBlulQ4ZsaG9vWvh7fXzxCqMG6ugLaLNMkbzgx+otCGh3MAALT+m3enXNst75R2pbB2abfqBIq7FgwgNRDjhJRGGJitIgYVQ4m/dOrQhgSoMszxJTYKkKUlBZbC+xEdF1olJQWU0ZilIUyqkMXVk2LAr40BLo4NKZ4Or2UQgdATIkpotKLiXFVwYxiHJh9Wk6kl9BiqkNjK4nRpdRYCawBhBaIEZNiRMABP6oMRJ6JLQmJqQiNqaFG11BjJSR6OY1eERpZQ40pIzMKSIyykLg6Mr2MHF+KjxGRGJWE6HJqTHkIvTyEIcEtKiPHSEMYoHIQ2GBxWSgdTLgF9UQDL/6wGDENOMhLSXQpNa6aEi0OY1SG0qWUaHFoXDk5qpQWUw0OF1NDiykNi64Mi/yXv+9Nr+2fUb7LW4hGryAxqt1nFdjiu3VtPqsr/Cv4u4+Pj+19DtOQBn27bOnZ8+euXr8mVyrMZjNcaxuq6hjC2mrrfx5KQqTDBH3s6H/eEf/nNWMUXq1Woyiq0WjOnTt35tzZcokYMvrOBvv1MP+n4HsHSO0Ax7ag3PkmA8r7SwXflr8DN02rzo59YgkM0LusDTucrRl4TUnbTW+E703t6uQNJ8Z8WQQAiyHpUiL/S2WGMCSUmJJQuuQjRg0xuhgXW0RdIg2NklIjK8MYlSEMCTG6FIQdt+pLpGgxiV5OZUhJMWXk+DJidPG02BpaNCDj+G+qCdESQkwxMU6Kj6z8mLEndHEliVFGji0PiauhRJeFxZdRIvdSo2todGA/qIwqSkyJVbmqpsWBmGK02FpSDOgZhMZWkCOtxJlRB1CYXk2LBvFtYC+EFC2G9J8cI6FGS0lLJACsrSIYNa6aHCehAMUJtDMkro60WAxUJkYZCCwTUwUizEQD13tCbCU+RhQSLyUukgAGHSuhMUS0qCpyfBkhWkJmiEmx5SExe0AEnleMc/zV8gkxlZNn5ov23XnxqJvBSk4w3RkOIH/vEt/hA/Ld8u9P/Xr6+s0bSjWIUGbrGw7RB4Pd/zka/v9rgK3hhPgO+Xu5RAwR//Vo3nnrn4XvGMQTwKjn6162eArLQX0Grqb9YiISjAX2Et+xXWyR3Tb9z6NbhRpbrQbb97ckXo/vVo8l9MWCqxb0WYvihf5uMwrXISDi6wfKfuNWDF+oMYDAYj9/4+5YMVJ0JZgKtFgaGgnoOSFeBKaARteC+GLR0hCGFNYPwtFYiTA1towYVU5lVFlXtwCHpkZLw2LrKNGij+KrAHrGSF9MDY2WUBlSoFNFVdEWS8Niy6lRtRR6NTWumBwlIjMqw6IrabHVuMjyMEY1JaqCSJeGxFRao80AiKcwyklR1RR6JSm6IjRWQo2XEMDcqHpSrJgcIwmJFM+IqyRGVxLpIiqjhhJVHRZbR4gso8SJidGl02JryHTg9AnOglGFjyqlxkvI0TUh9JqwuCpyjJQQbbUo9IpQRi0RhLWRAOYeVUWNLwfpb0DngEgXkWOBSPXXfHcIIUmOrZk8s6Ck7vaLx/uFf6R1rb5X8Pcux1ehPvP9D8vPnj937cZ1qM9ADMW4sy0A/f+D1//5GdleXojvFy5cuHbjerlEDBUbDME7W25sk23iT8R3AKDW9VE7IC8GvmCFkJdOLzDzRU4nfQbgPliKz1qhDTB3rtlm4wuR5/U5tls7p98I36H/zKjPCyixVV3q43+1TACXjAoAYbFgEhMQ3OPKSDFl1LhqYkwFKbqSyqgBIbcYABbJMVJKdBktFqj5IdHV5KjykHgplQFCek1nlNOi6yiL66fFAXGGwqghMyqpoHIA2dPi9hGjReQ4MYlRTYotBPaAXkGNqrCirYQaVUGNBvWE0qtCY2oo0aLQ2EoqvTiMXgvUlWgpwHpGGTm6hhRTExxbRouXhkWVU6NF+LjKMBChDIwAU6IqQhiSULokhA6aGhYroURVhsRLKXRgJKj00hB6DdSjSJFlH8XXhcSAsGJkenkoOJ1qShToUoTEiEEwhshCMJ4cUwIw9BXjHH+1fHx0FcR3q4sF8J8BS/SBFYC7CDT4Gv2dRCIFBwd/s/Tbh48fPXz8qF0ug/zdFnRs1RKY/v2fr0FV7HDYtCks8fuP+0fVAKNddv58Vf2vP19sq8ViUavVly5devTkcblErNfrfyOm/1n43gFtX8AxDt8ZN2EO5siI0Xs4LgqlGJC2TjSFhTF8h4z+RabVJf9V9f/+/N+I74AkWVCZ2sja9OuQ6dl+ESK/CJFveOmf9PaJKO3y/aaH85hX5BMu8Z0n8piX5z1P7Dtb6jdX5DuvyDMiz3dhCThEuMhrdjE8HZ9wkW9EhVeEyGtOie9cif/8yqnhxV4Linwiin3Cy6fMz/NZWO4zt8QnXDRlvsRrvsh/VsXUiEK/+cXes0U+4SKP+bu95lX6RBT7zqrxnSfymlfoOafIb16517xCr3nFoEB4ofdcsc/8Mo+Z5f4Li3zmlPnOL/CKKPdYUOYTXh4UXhQYXuQ9T+QRUeofXuYfLvJYUOI3R+IdXuC9sNRjbrH/vFLfcJHnXLHHApFfeLFXROmUBTke88U+4RKf8DzfiDKPeXme84v95pf5zBb5hYu955d4Lcz1nl/kPafCe2Hx1PmlPnMK/edX+M6p9Jsl8plX9aYX839Y3mN24fgvdkv2P3zRoXzhP/PG/B2Hw5HJZHos49GTxw8ePZQp5CiKwnFUCPGYMvMq5Pqj8iHGQX9wW+8d2Iw/6ih/VD2dkR3mvGn9tqZLo9FAfL98GSz0ISovgx7xttj9W9L/CX+HOA69qTpgKIVCIZFeOKTbqiJwF1tAB+EbcTiS1YWxo2F4uX4ePIS/vz8sDI+FVQKHg6BtgIYBOtJAt3foEU8mk7HWksnkoKAg2AklkUiwMLYVNjswMBAWeGFp8PjAwEAWi2VrObEpEiawnoJ1cT4Q6w7wpat35Wu31v6YcXjVmqOJ60+sXnd89brjCWuPwcTfn39fgT/jCqzi1eeUX3zapreAhSK1UDC0LkrQBQK0tLTMnTsX6u/wCYKPFfYMxsfHP3z86MGjh3L5C3zXKJQahVKrVGlUWo1ca5LrtUowHwhkqFQahVyp1QBEkyvkWrUeOE6q9DKwlJJMpTQpNSCor0ajlivUaq2hXa3SqJVyEGxArlVb61EpNHqFUq1RqfVqME9VLm8Hkd81CpVCLdNotAqNQqtsVbVqtIoWvUKuVsnVINOsMOgVeqVCq1Zr1RqdUq1qVWgMWoVKBaKU6ZVKlULdpjMoVW2gbSqNQitrVWtV6lZQqUbVotFqlaou3xCX1UpVh7dSqVaqFXINaINCrtGo9DqVWqtoa9NqNCpwLgqlVqHRa1RqpVIu06gUWqVOAQorlUqFRt2sVRpUGo1CKVdr2g0KvaZdpZW1KxVahV6lM2rlaqNC3WbQyVRqhRKEVEMNgL+fv3r12fOmsnLJf89/Bk5kJZFI3t7ebm5uAwYMcLW+XFxcRo8e7enpSSKRwMLZVrdFuB43dg/BWXMQgiHIwmIQTzHpBoIslUr19/d3dXX18vLCdoGATiaTYWFYP/C1CQ7GoB9aDgqFEhQUFBwcDFEeswewcjgBCu4Odxw/fnzfvn39/f1hzSQSyd/f33Z9bVuUB1wJPE7gC/SIzUYjatGhqMqM6g0mg9GsN5jg22A02/7E8v9O/H0F/pAroLQAUDehZpPJAO5GE2qCq/S9Qp+ZO3cu1N+xJwJ7FvB4fGx83JNnTzH+DgIGqGRtypZ2TZtaI1dplK0aZZseLLcBULW9RavVtqvVBrnCpNG1qVRapQzgqVajbJe16wCUG9XaRrXcoNE2qQHQt+vUIAykXCFXKowKtVYOFu7QKhVaOYRNhcpgjf9uBV+lFhgGpVql1aiMMpVcLjeodAqtXKGQyeXtSp1KqVe3q2QyRbtSrVDrTcq2JrVGrlZqNIp2YH4UWq2qXS9TmpQ6papNo9KrdXKdXKdVynQqANZdvhUgDsKLTQqVHL5VGqVaDUDcqFBq5WB+abtS0a6SqbUKmVqukasNKh1Af2vNGmD7lEqdSq9UKhQKg0oDztegVSnlKpXC0gbsglapAi3XA9vQpmxXaxU6hfVM1RqtWgMuDmrR6nU3zl/qgO8dUKgLG26TBfh7Y2Njl+s3dTl/FUNqMpns6ek5YMCAkSNHenp6enh4TJkyxdXV1dnZ2d3dnUwmQ24OERayY4ywQ9kd3l62SI2hLZQCIb4PHDjQ09PTFsdhzZDdQ7iH6A+rwkwFPAoEd6jsY42Hh8YoPCQv7u7uQ4cODQgIgI0PCgoikUgBAQFMJtPmilkh/cWwlXXOsNkK8ajBgupMqNnwcm6JbTCgLpXQDnX+/fPvK/CfXgGd2aQFHUmLdQYr0GfMRgtwsOuMBS0tLbNmzfLz88O6ufDmJxKJ8IaPWxL/6MnjO/fuQn1Go9G0atRqpUan0zUqWmV6lUwm0yu1apW+XaXVaBXtarVMrrFoVMp2mVpjbFfL29VqvUqn0AEqqtcbFUq1XK0B0KXWKuWqVrlCq9UrVRqZRqNSgE0qJSDDCo1argZQrVfpNK0Kk1yvlstkKiWgyBqtSqE1tGt1GqNGrlWDGrQKrbJdLZcrZSA0glqnV+nalRqtUqFWq40ag0KlbFGrTAqDTqHQafSyNqUSNFbfpJSpNYZ2tVyrBKS+y7daCRpmDTqvV6u1KutqIwDblUqFUq3W6BRKwNCVgIiDg6rVSp3W1C5TaXQgX63S6zRGlVLeqlTqAJ3XamSg66PUgxD2Mo0KWAaNXifXaxU6mUajVqpAx0WpatXJlAZlm7JdIZNrtVo9irYp5Dcu/aH4fuXKFWx9vlfhO+TdRCIRArq3t3doaCjEXAKBMHr0aFdXVz8/PwisFAoFoioG0BCXsfIwFAFk0PAOw/oHZDLZz8/P1dUV4jsOh6NQKFCrAQt8v6Tw0GzAvbBOA6Qk8NBwR2gJIHnH9BwI9PDo0AhB0wLvfhwO5+fnx2KxbB88bKKwxQz4u8WMmoHUabSyKAOKGmG8aYjv5pcvGJ315a+/v/++An/YFUD1gLMDUDebrcOqZrNFD1WaLvE9PDy8g38kvP/hExoVE/3oyeNHTx7LFPIXQdLlOq1Mp5BrjGqtUtGmNCgU8latUmGQqzS61jaVQmu0NKmfqQ1KXavaoFHKlTJDm6xdpwTrLcnalDqVTqHQaFQGmVyrVBi1GmVrq06rVqkUapVCplfJNbJ2TXubFqQVQAZSWqFTDrZo5XKNrEXeChR5JSgp07ab5Gq1StGmbFepZXo10FggIss1CrVKplbJ2ttbVUC5UYLDKeVtKplCowZxGWUqvVbXrlTINTKNot0akBLoQhoVqBx765XAHAGObYVdmK9SKHVKcDiFAmxT6OUKQzvg3RqDTimTKaxHVLYZ9OrWtkadVm1QqbR6EHNNLm/X6zRKRZtc2abRgm5Bq66p1SDTyBQGuaZVI29Xg7VNZEDVUeplcoWqXW3QqNVqC/B/V126cv7Z86ZycQWmz3T+T23RqUO6I3//LfiOKSRTp051dXX18fGhUCjBwcE4HC40NNTLy2vgwIEeHh4hISEEAgEKMhizJpPJEGFhJRCU4SeVSoWgDwsQiUQKheLv7z9w4MCpU6dinBrehdjcKAjKGIvHOgrwloU1w2bACiHuQ0OCUXtoY3A4HJVKxewNbAbU3yEV6nRlAZSDTSh4tFDUfOfG9Z1bt2zdvG3r5m3btmzftmU7TGM/Yebfn39fgT/wCmz4aXOZqOLp82cA4UE/0npHghuza/4+Z84cLy8vyJDgMBXGb8hkctyS+MdPn9x7cF+mkJtMJrDqhVYG1HbUrNMbTSaDxqRDdUZUbwbrZBi1wLpoUZNRazYZLHrQcQBNMKJ6vRHVWcAyTDqz2WgxagyowaSzmECWDsiXqNqIai0GgwmUVxtRNYqqwY46HdjBaNBZ9GaDRmsx61Gz2aIzGLU6s0kH+iU6s9FoBosc6U2oxmAymI0msJS20ag3Gs1mrR48j0aTRWfQG3Wo1oyazEa9AdVZOzdqs8lgRDUmVG9GjSbUaLIYjJ3fQF01GA0Gg16vN4KqTUa9QWMCP8Ggm8Gks8Y8AwKtBrVoLWatFrUYtDqDUQ/UMYtaYzSgZh2wtmajCbi+mMApWMdHTBaD1my0nrUO4AYYOFXrwPCdEUWVZks7kPhleg1qtmjlyj8Y369evfpv+TsETRKJNGXKlEGDBnl7e0NaDe8YT09PV1fXyZMnQ44MAT0gIGDy5MmTJk2Cwh8EVjKZDEVzMpns7e09fvx4d3d3Pz8/EJnGOv4JBfSBAwdiw0GQjwcEBMCBUIjFWP/A29sbG0HFYBobniUSif7+/vCG9vHxcXd39/LygpiOmQF/f3/YvYCfQUFBEyZM+OGHHzpYxZdPDuDt1jT4bGpqkUoqTx45ATiMDgwQyTUKq7IIqIRCq4Q5f3/+fQX+2Cug0itKxMUHjx4xWMxm1ARABQo1r8D3uXPnYg8FHo+HD6+vr+/kyZPd3d3psYzHT5/cvX8P6jMg2LqyVasx5l24HLkrf0F+4YLCAvruoq/yC2Znb5+9Ozc6pzQ8K2/R7rz5WVlfFeTNKRDNytkdsTPny6L8hdtzvsjb/XX2rjnZObMLCuZu3/lF4e6I3PzZO7LnFhRE7MqNyC38oqhwfk7hnN1F4QWlEbtLonaXRecUR+UXh+fnzSwsnZebP2f71kU7sxZk5c4vKo0sLp27O2t+fuGcwsKIgsJFu/Kj8osXlBbPzts1b+fOiKydEYWi8Pyir7Ztm59bFLEze87OHbMLSsKzd8/avm1eYdGM3VtnFRV/nZ21qKh8FjiRvPkFuZ3f8/J3RxTmRhTlhVs/5xXlLSjMW5CfOy+vYFZ21vy8vPDs3bHF0gW7SxYUi77Oy5m1I2dxUUlEXu7cgrzZ2TkLduUtKCiZVSSavTU7oqAwPCdnTn7ulzuzFueXzs4pXFhQviC/bG523ld5OTN3Z83L2R1dXBJbULhw9655eQUFV66YtGa1XNaqU6FmVKNSn79y4ffy9+fPn7+R/g41DQKBAPm7t7c3pN4kEolCoYwbN27QoEGBgYEYfx8xYoSzs/OAAQMGDx7s7Ow8cuRIiKeQ7wcFBX344YfOzs6DBg1yc3Pr27fvhAkTAgMDYW3+/v4DBgzw8fGBuBwaGjp27Nh+/fpNnjzZlnpAiB8yZMjEiRMx/Z1IJMLOhL+/P4VCCQwMdHV1nThx4lDrCzZp1KhRcF8SieTl5eXs7Izt7ufnN3DgwN69ey9btgzydIjmtp+Q0cPPxsZmkaj8wYNHsIDFgnaaXGK769/pv6/AH3MFLKhxb/2+Y0dP6bQmK0cFDNNide7q1ONEW1paZs+eDVkUgUCAXWT4ALq6ug4cOHBuRPjd+/cePXksVypMJpNWq9WYdKIbN99JTnZI5iGrmMjq1b2/+3HUmvXfVzc4JHL6rGIOWr/WPoVJ2VU4PF3o+AN79E8/E7fs7s5m0rbmDVm3fvz2HT4btvVOSp6eW/oelzuSnxlSLO69OmV05saeq5J6pQn7CfjvCAT2fB7C4SPJbCSFhySk9hZkODGF+HyR/7btuC07R/20BWELkB9ZSAoXSWIiKWy7VH731QL7JC6SkPgukxm6q8Bvwy/dV6T05Qk+zitzY6X578r9LLsAYbJHpq/7vLjs/eTUSb+sRX5cEfjLNvtVTITNsUvu+o0kscFRkjlIKhckElnIylSnRI6vcNNnheX+27b3XLHKfiULSeQhP650TPyesDUHSeQgyZyg7du+KJMgq1hICr9XQnJQTsG7CUkeP28dmblu8qZt/ZN47/DXIKuY/df/Qty5G7d7GzE/22Pz9r6Z651//qX/+rXI6lV9OCsPXLmO6kwKnQY1WGQazfnLQH//XfrMm+I7NiDj7e09YMCAcePG+fr6Tp061cPDY/jw4UOHDvX09ISyOx6PHzVqlIuLC+wPkkgkT09PFxeXYcOGwXsLh8MNHz588ODB3t7eUFrx9/d3dnYeM2YMgUAgk8nQf8bT05NMJtNotPHjxzs7O0+ePBnrAWCmgkgkuri4QHyHLSSRSD4+Pv3794cuMSQSacCAAf379586dSqk7R4eHn379oW1EYlEDw8PZ2dnWGFwcPCgQYMGDx7s4+MDx1f/KbtblXXYCbY+P2YgvpuNzc3N4grJjTu3rewJTjKB2o0FNdv8tPrbgDJ/v/++An/IFUDNB/buP3bwhFkHbjMLkPI+0UUAACAASURBVEjAzfWyl/kvVgT6R/r6+uLxeOgxPHToUFdX18DAQAKB8Pnnn2esyXz89AkcXzWbzSBQrcG4a/9xxx9WIcm893hrfX/etPbA8bXHTxx8+AxZsfyLnbnMo8dwO3alVuxdUV+HJCYzROIfKmqWHT7Iqz0YtCbju9o9y6W1cTU1iXUNlJ3b48RVs7ZkLRJV/HT2ekRO0YycvLjqiu9E0sjskqBfdiKsJISX2jOF+UVR9YQ1GxcUiCILi1bVHwjckY0w2T04GfZsgSOHi/CECDvdPlngKMhEeBwXLjeyuGLj6bO0Lbt8Nm/aeOD0kur64LWZVZfu9mAmfl9bn3P4V+GRU3vv3Ptk45Yjd5vdMzbYs5PtuGldvh3ZaQ6cNGBOOEJHbrpjqqAHM61f2saZ5ZKVDftW1dXOlEjsklJ6pvIi8kWnHzfvOHUOWZXcLZW99fSJbcdP9OVmIImspdXV39Uf+DQnO7akPL6ictXhY9/sPTzypw1Oq5OWSCUyLWo0m9rN6Pbj13p9l2SfxJq4aYfHphLkx29LTp0xa/UA302oUq+/euHKH4nvv1F/h4Kdt7c3XBNr0KBBLi4ucAUs6IIC2ffkyZMhuIeEhEDFg0Kh+Pr6Dhw4cPLkyWFhYZMnT4byC41Gg4pKaGiop6dn//79vb294Zj+gAEDYBdhypQpH3zwwZQpU+B4KRxWxcQZIpE4aNCgsWPHQjsB8319fQcMGABlGTweP2DAgDFjxlCpVMyTZ8yYMa6urlBEgmQf2oYJEyb069cv2PqC46uY2zu24Nm/PDco2tjYKBaL79692yH/L/xTBRz4jdB530r6jBrUZDajgAfCBewNqAw1GfXgnP/lPGxXG/iXDS81AdueDSwAczAzCS8jrAfrHmF8E+bDheS7xClYJ9YMbMfOjem8yfavxCrHqsJyOlT1V/7Z0NBw+PBh7HK9pqnQfyYgICAoKCgkJGTixIkDBgwICAiwOhQQo6PplZWVt+/eAf6RMpnZbNZoNCYzmnPkmEP80lV1dRuOnBBdvb7r0sVdv148ePsZkvDdyr2HWfsalpdLU+sbllfVID+uXLbvYLi4YmF2UULdoamZGasajgr2nfT9eWNMvmh1w5HFInFAWnr8vvo5hcWrDhxZUbc/WXqQs+fIgoqy2T9nIexkhMNGUlPoBdVk4XrarhxadvbSugP4n7Z2Y6YgAoE9E8AuwuMjXJ4TU9iDsw7hCnqsXCWsO5xUVOm1cUPQ+l8SxfWC/Udidu7+RrIHWb5C0HAg8+z5kC2bMo+fBC0/e2lKeoYjk41whBDfQYWd0jDTni20Zwu7cTPezdgQUS6qffAssbbOf8eOXgm8Hpw1w/lC8YXrH2/ZiaRwHFM4G46c3HnmUp8Urn0iM7X+0JJSybLaPVE7C5ZU1E3KzPi2an9iw6leQlZMtRg8dKjBiKKFp67aL//Bjska98sW9515TitTCo4eR80GpVplRC0aje7K5Yv/bXyH4I7D4Tw9Pd3c3CC5hqJNYGDgkCFDBg8eDL0MR40aNWTIEMyVBXNKGTZs2KhRo/B4/Icffjh8+HDob47J7kQi0c3NbcyYMSQSydfX19XV1d/f393dHYI7HGiFumFQUBBUaaCo4uLi4u7ublsbhOzAwEC414ABAzw8PGx98ydMmODm5gbHdT09PT/44AOI78OHDx8zZgyRSLT1n+mMFLYP0tuH7xYwNgb6FqjBgILZWhYLGIWydkesd6DJrIY9flQHBu6sehN2ETCkhshoi48wVjWWA+Eb+2l70cBtbrBOE3tpGDrUhkE/TNhCGMzBdkdR9PUHghYFOzqsyrZV2KlhCazwXzzxKnzvfCLY/CbIaVxdXWFf2eq2QImNja+urbl15/b9hw9kCjmcQmkyGLc3HHD8YfVsUXlkeWVkmWR2cckCkfRb6b5eaeleW3YN4wkIuwpGrsnA7djlkCL0X7fJkZ04WCBYVF4XvD17+Mb1kzb87LttR2TFvsD0jeTNWQvq9vus/dlDuM4vc+PneaLBGWtGZ2YE5edEle8ZuWm7UyofYbGmbt35tXTP5K3bh6enf1pcgc8p7MbmIkx2N95ahJOOcAQIl+PAEtgx0xC+sG+68Ns9++cUiYetW++9eefSPUfJm7aEZWWPZqc5pnDwO7OHc4S9VyeRsvIDt2zDb94+9KdNCCsdw3RbFm+L9fa8dAdOmh1LgDD59mwhfuOWmOKKaXn53ZJTerLXgMw03vi16f05XIQlsGfyp+Xmflkq6iPItEvmTFi7dq60Zpwg7cuisuDNO4amZwZs2PZ5vqRHOs9jRwFdsieqqiK2rvrT3SWD0teP/nn7+E1be6VykB+TSk6eNuvBxDELalapNJcu/df1dwimJBLJw8PDxcUFkmvooxISEhIQEODm5jZ27Njg4OCRI0diAjc2Rh8SEjJixIjhw4cHBgZ++OGHsAC82zCOP2LEiKFDh8IB2EGDBg0bNmzgwIHvvfeej48PrIdIJGKoDfEa8vdJkyZBbg4/vb29Bw4cCPUZHA7Xv39/OP0KAjqJRJo4ceKgQYOgWDR16tRBgwZBa+Tq6jphwgQ4JGvrH9n5gcGe/LcP300v0Bz4dKIg5qAG+HiawWwZWYvh+XOzWgEc7/SoHlUBO2AznoBRYCwTAqXFYrHFTQw9IfJaLBYsAa8bVgDWA39CyAZ+C1bPU+wQcF+I47blMcaNlbQ1G9hWiO+YoypsANzF1khgf+hblHgjfJ89e7aPjw+NRiMSif3793d3d4eaJJFIjotbUrun7tad2/ce3JcrFRDfjWbd1uNHkCRm95Rkh1VJDknJSHIKksR0Wrm6B38dksBB2DyHFD4i4Dkksey46+1ZXITNdUrlOiazERbHLpnVLZWLcLhIaiqSnOwoFCDJSQiLiTBTwSeLCWR3kEjsmZBqn8Ttzl6LpGUiqSyHhFSHVE43FscxIblbEtuOxbcXrkVYGfbcTEduGsLlIGwugOO0TITJ7r1ytX1qCsJi2aXynFam2CcnIsxEhMNDBGsRJtuBJUQ4mchqYCHsklkIOw1hr7OFclsiD5UZ+OnASbNnC+1YAoDyLKZ9ChNhssD5stIdOZkIV+CQCn7a8dchqVz71JRuLBbC5Ntx0xAWB0lKsWOzkcQkcEGYbKcUjuNqJsLn9Uhdj4D28O3YXCe+8P30Df2F67rzgSlCkpjFJ0+bdcA104KalUr15au/W3//PfObBg4c6OXlRaFQML9DMpkM4RuPx48cOXLo0KGQtkNaDe+kESNGfPjhh1B8h/gOWTNEeSKROHz48BEjRpBIpKCgoH7W16RJk0aNGjVo0KCAgACovUAJHu4I0Xzw4MFjx46Fwj00AxDf4S7BwcGurq5TpkzBxochvg8cOBDu4unpCcdXcTjc4MGDJ06ciM1vsgUOW1ywhYC3D98t0G3aKsWYwOx20GuUK1T5+c3Tpz8lez2ajdfWlGhQ1PRS0IUIazAYFAoF5pCLEecOVwmis9Fo1Gq1jx49wqg3LGaL7B1wvKWlpbm5GbvOra2tTU1N8KfJZMKOolAo7t+/39bWZru72Wz124N+q9hIidUyYeahsbERig+wKiwfeL9ZX1gO/PnX/3wjfI+IiPDz84Oua5DHvGRXhNjY+Lq9eyC+yxRys9kMwtJqNLsOHHZMTbNjchzYGXY8wHwBieax7Jn8Xpy1CFfomCpABAI7Ft9KrvlAtmanAZbNEThx0hEmH+EBlHTiZSApXEc2IMX2bCFQz1l8hxQhyOfxEZ4AIDgzHWEK7Xlp4EAsvj0vDWHxHAUZADQ5QoSbgXAy7ZkCew7PgQ90FVCYn4FweQhXYM9Lt2elO3HS7Tk8UCE49BqEywX18NfYcTKALeHy7HlpWPNgI20/7bhCO64Q5LD5CEfgwBHCNyJIQ3jg6E6Cn8BWXhrCFdrxMhFOph0vE7SWC1V7Pkiz0xxYQjteup0AXDHQD0jl9+AD1u+YzEQEAmA/UkEjnVgCu1Q+wk3vJkhDEpl5x0+iRqNBozWbjWq1FvrP2MYnwO7/33JbdvR//y3+kdB5EfrPuLi4+Pj4QLdxOGJDJBKHDBkyYsQIMpk8YcIEqNXQaDQopISFhcEh0/Hjx4eEhIwZM2bIkCGBgYE0Gg26tNNotMDAQBcXlwkTJlAolICAABcXl3HjxkG6MXjw4GHDhkFvd+gSQ6FQIOvH4/HwuNAZH4/H02g0d3f3/v37Y/g+aNCgqVOnYjIRmUyePHmyq6srpPNTp06F+E4ikUaPHu3i4gIFIjabbcsB4WXtfJXfOnwHoGdBjWBUDjgpG1HUoDO2bF3TPKF7e7pQW1Vg5v5ozi8Feo0JNaIqeMoWi6WtrW3FihXXrl3DLgt044U/IUHGLAGKopcvX+bz+Y2NjTATY/EYoYYWAsK0yWTatWuXWCxub2+/ceOGWq3euHFjSUkJZk5gJRcuXFi1atXX1ldpaalKBYKVd8BlaAywZsMCJpMpIyOjuLgY7oKZGexp6VAJlv9XTrwRvs+aNQs6pNFotBEjRgwePPjlrEDA323x3WQygbC0BkP2/kPIj1wAoFyA5giTBxBckIaw2A7JPDtephNL4AikagHCBcgFsJib5sTLsE/mOQDwFTqy0wD4WrVsBxZQtAEjtqre9qz07uz0Huw0sC+T5yjIdOSmAyDmAJMAqDo/DbBdFt8eUGOhPX8NOASb68DlO/HA+KcDOwPhpQNrkcRx4K1BOMLuvAy7VJ49W+jEXeMg4Dvw05EUrj1b2FuwBgzPpqY6CIHtedXbnpcGDIwV5V/APZtvl8p3ZK3pzlxnnywAWA8cfoQIO8OBvQYYNjbfjgP6FnAvB3ZGN1aGPSsdXC6OEOwryESYvO7sdHtuCiLgdGMKu3HX2HGFgNdz0xzZGaCLk5hacPI0ajRqlSqLxaTTGc5dBvObfi++P3ny5P79+7du3fot+A4pM3SGcXV1tfV/J5FI48aNGzhw4JQpU8LCwqBWM3r0aCiAwFlOo0aNcnV19fX1DQkJ8ff3d3Nzgx6TVCoVetCPGDFiyJAhfn5+UO2BEhCcnRQQEODs7Dx+/Hgo3UAKD6k6mUyeOHGii4sLVGPgIOqwYcM++OADOBhAIBCcnZ3haAEmMU2YMMHFxQXz3B84cCC0Fr6+vh988IG7uzsOh8PGV1//hL99+I6aUTD5A8yUQ/WAy6OaM4qNI/TFO/RgpgXaqjE/V1s0CutgqwmQe4iGTU1NsbGxFy5cgBdEr9efP39+3759zc3NZrNZqVQeO3bszJkz9+7dg+Wbm5vPnTsnk8nu3bt30vpSKsHabwaD4datW0+fPlUqlVevXlUoFG1tbfA+vHv3bnZ29qJFi86dO7dt2zaBQHD06NHHjx/DCp89exYfH5+VlYWi6KFDh/h8/r179ywWy4kTJxoaGuRyQDybmprq6+vPnDkDUf7y5csnT568dOmSyWRKS0srKirS6XTXr1+vq6tramqCNsn2/327UP6N8H3OnDl+fn7wnvfx8Rk0aNCECROszyYJ6jM3b9+C+gz0j9QZtDuOH0NWcZE0gGKIQAjYMYcPYE6YBhg34MWAj9vx1iJcgOMAu63+Jw4cqy8KB4xSApBl8ezZAideutVCWAk+qDAdYfMcmXxHQQbC5tsLABY7soUOnDRHthDgspXCO/HSnbgA1hEmz46XDioBkC3owcnozrIyazavW9paYCS4oLtgz7Ryf+Bpw0d4acDMcAROqQKEybUXZoBzeTmm2lF/t7bcVrGBXQfgVMPLQNhChJ9uzxN05wicknndmAC+u7H5jhw+sEMC0EgHlpXdg96GELRHkA428fiIEBiq7pw0BPjnZCLcTISXBn7ygVYDjE0yu+DkabNWq1NqUdSs0eguXj73e8dXGxsb3wjf4UAoHo+fOnVqv379hgwZMtr6go5WAwYMmDRpEgRQIpEIFRI3Nzd3d3foL+/i4gJFcKiTwCAHbm5uU6ZMmTp16pAhQ1xdXeEoKI1G8/X1hR44UJOh0WhTp0597733oMxCo9Hg/FgcDkej0YKCglxcXNzc3CZOnOjh4QG5Sb9+/eDdjMPhoOGBx4VWYcKECa6urrDnAU8HTlulUCiTJk3q06ePm5tbQkICfPI7c3ZbRHgL8d0AvGIsOpMZRFmwoAZzW4llL2I2XjSZLNn70YDVRtpadMFmbUu7Diz3+/LV1NREp9OvXLkC48fW1tZ++eWXy5YtS05OfvjwYWZm5qJFi+Li4pYuXQpNwqlTp9hs9tmzZ5OTk2fNmhUZGZmbmwvnRmZnZ2/fvr2+vv6TTz6pqakpLi7OysrKz8/funXrunXrpk+fXltbu2nTpoULF86cOVMoFEKhpqamJjk5+cmTJ8+fPz979uyFCxeMRuOWLVu++eab8PDwX3755d69e4mJid9///3XX38NQT82NnbVqlUkEunixYvr1q2TSqVnzpxZunRpamrq0qVLGxsbMeuFDSG8PN234PtN8d3X1xdyduhCA4e43N2nLloUaau/Q3w3GHRZBw93W852EAqcWIChd0vhA6GGvc6BywfKcjK/ZwoT+Cxy1yAcQOStcAboPIBmDkBbAMdsnkMa0KzBG8AuD4g2kJsD+LPyd54A5LB4PdjASECQ7cbPtJJ9gR1X6Ai6BelgdxYf6DyCDHtemkMqz4ED+gRIErsbMCQZCIvfjSnsyUkHagw3E+EAV0jQDDA2m4aw00EbXuI7MEXWPgfEcdtPaKVgjtV1R4CkZSAcngMLSFLAYoGz5jqA7gsY6UV4QGwBJXng9B25AL7tmXwEWLUMsImX3o21BuGuAX0OthAB52KF/jQ+uG4JQJ8x63V6rQFFzQqF6n+D71BMDw4OHj169Ejra8SIEWPHjp04cSKcTAQ1HOi1EhAQMGbMGOhDOXbsWH9/fyyoAIlEolKpfn5+cFbUwIEDx44dC4MfQQsRFBQ0fvx4bLYq7AdMsr5gzEgs8kFwcDBUZkaNGuXm5gaFRTweP3bs2KCgINjgCRMmwKNDcCcSib6+vtClkkQi+fn5weFZ2C0gkUhQsVm6dCmkjbb4bpuGAPAW4rt1BhaYUm2FbzOKPj/0sLbX1cenUJPh0gNj1kHLoqz20DSdUaEEWs5L/5mmpqalS5deuXLFaDS2tLSkpqaWlJQolcqkpCShULh69erW1tazZ88uWbLEYDCYzebz588nJyefOnVq7dq1v/76a0NDAxay7eTJk8uXL+dyud9///3q1asFAsHFixdzc3PFYvGpU6c2b97c1ta2efPm6urqq1evJicnnz9/HkXRY8eO/fDDD3fu3Dl+/PjSpUs///zzioqKJUuWXLt2raWlZfXq1SwWKzU1VaFQlJSUpKenMxiM6upqi8USGxt76dKljIyMffv2ZWZmLl26dOvWrREREbdv34aEHftb4T/+FkC7tYn/Ab5jo2JwitPw4cMHDRo8c+bsmrra23fvwPgERqMR+EdajFkHD/dYzkR4LIDvfGE3VgbCXYvw1/RJZSLMFK+fdgZv3mHHZtpx0xzYLIQtAIJ4Ks8eSNJAE3cCJFcAxyoRjhDkA+wDcg3QagBVB6S4O+sl9xdmIFyrnM0TIrwMO2YaGMzkgL2AwyKLCxgxJ90JZIL+hCOH78DmgUPwM7qxraI837p7ChcRCpyY6Y7ctG5MHhghSOUhaZkOybxeQA8B/pEAwVM44A1lJZhp/QQdkZc+8tYhB9AnAGO2PGF3dqY9KxOCu9VZE9gMOy44EUdOppPVzoGtPOEL6OeCHowTMx30AIBtYzulsN4Fo6zpCDvDiZNpx+KDliewik6fsRhAVDILalartVeu/kH+M/fu3fuN+gzGzWEcYDKZTHn5goAO0RMybqxwh0yYj23FIs/ABObjCKPNdNiXZH1h9XdIYPQcawyWY7sjVJls68eKwQo7xJ/5t496Y2NjeXn5nTsvl8H8tzv8rwtYPdwtKPrSvd1kVKBNqdVcfPnc6003NYbGC7Km8A1PE0v0MMgOhn0tLS2LFi36+eef9+3bd+LEiezs7ISEhLq6umXLlh06dGjdunUcDofJZC5fvtxg9X08e/bs6tWrjx8/vm7durNnz+7fvx9KXiaTqbm5efHixQwG48yZM4sXL16+fLlOp9u5c2dpaemFCxdWrlx59uzZjRs3VldXX7t2LTU19dKlS2CwQKfjcDjJyckXL17My8v7+uuvDx8+zGKx8vLysrOzuVxudXX18uXL9+zZs3LlSpFIVFJSkpSUtG3btk8++eTy5csZGRlSqbS0tDQhIaGqqmr79u1KJYj4Cv+QtwvZ4ZgHhu+YDcb+rA53GTa/yfapgU8BgUCIjo6WVlXeunP7waOHCpUS4jtqMOw8eBRZnQLwi8sHjigcnh03zZ6b6bCS6Z+59uD9R+TNGxxS+PapaxAe2PRWvAGPTuVOXpO27tBJbt3ZYcAXKAHMWU0VIkwmwuXbpa5CUlYhvDWOq9n2SRw7HrMfGBhY45jCc2SyeyxPRvgsJCndaTUXYfO6JfARHg9h8XsmCJAUNsDxVK5DUirCzkBS2MC/iJWOrE4CIk/iD9N27A78eSdQ7VlpwLaxed1YGUC4T2AWHzuFGnXW1VbNGpX+0pXLT5812urvHf7Q1//85/oevx3f4fCm7f2BASKESNtNHaDZdhOWxoDVdncMf20zbQ+E7d45YVth5622OZ0rh1vh0fF4vG3891ddSvgsvXX8/UVoNIsBBJa1QAled1Z+6SNp/PCcT4jls0fmfkKv2qVoR3WoArX6UkKfd7VavXnz5hUrViQnJ4vFYqVSuXbt2qVLlx49ehRF0fr6+q1bt7JYrMTERIg+t27dkkqlN2/erK2tvX379tWrV8ViMYRRrVZbXV1dUVFhMpnKy8vr6upQFK2rqzt+/LjBYCgpKSkvL5dKpVevXr1z545YLH706BHcUSaTZWVlLVmyZNu2bdnZ2c+sLw6H89133128eBFF0YMHD3777bdr1qxpb29/9OhRYWHhrl27Zs2ade3ataqqqlOnTpnN5pycnB9++KGi4p/B+TDZ/e1CeQzfO9yinVG+y/X54FOAx+Nnz569a3fO3fv37j243yZrNxgMcHy1S3xHUrheG9ftu3w3ZN0mJImFcIXvctIQAeetAHc7MKSZhqSkzMkr3Hr09NT1694RMuPKKj/dunsIjx+bL/HM2BhdIJqdW/QBm7+4SELaui2+pKLoxE27ROa7fMGMnIKIirr3WIlf7Cj+IqeoP4u1MKvYfdu2kMwtX+wuJuzIHcxmTducM2ZN2tg1Py3IL/tyd+E7Qi49XzJu/U+f7NiRff7mV9n5SBLT6ozEt8tcg7CsTjsv8V2lUQP9/X+C77b4iKEhBMQOm16Fnh2K/cafXZqKLjOxVnWo+VWW6VXF/u36fPBxgk/R8+fP3675q4CvAtnFaLKq7zDMrA41yozK2ht7tl4oltyqUqDNoIwRlMTAApvZhOVAHEetk3jZbHZCQkJSUpJYLIYFsNFL2/K2AIrl27rVY2nbkhB/sRwsgR0IJqCXJAZ2FRUVq62vpKSk5uZm6KmJeUPCSkA0RKtXJSbEY7v/9RP79++H81exK2l7Z9q2v0t8x7rR06dP5wsFj548vv/wQbtcBvX3V/F3x+Upwv0Hfzp+0GHZUoS73okJnNYRHnBxecP3/4bvI3yBXXLqZ1uza+48jSmVcvcd/qa8JKOuYXXt3o1HTnDrjqwoE2068WvagV9XSMrTaqvZ+w9sOXoEWb7ss027d5+9/EOpJGHPnrhKUen1WzFl4p3nz3y0c/Pm4+e+21OeWndoeZWk/NoDjqTy518vpFZIhNV1S+pq8g+fXlVRx6ms3H7w+Oc7spGkFDA2y01HUjjdmf/C3/9C+I6R5Q4o+Uf97NJy/IGVd1k/zMThcP7+/rbzm2wflQ7PEuTvb5E+AxxirPgO/GJgxEGQ9SJYDvA3tJhRo3UiqwXVWM8cxiyHCAhhEcNTbEqRQqFoaGi4cuWKbQHMeRG7aLZgisE0dnkhBGOFMazHcjpXCPEaFoCfmLO8xWK5fPlyQ0ODQgHm7GD7wgRmfuDRsWNhjfmLJywWSwf+jp2C7eWCZ/EqfMemp3yz9NsHjx7evX+vTdZuNBqBF+kr9Bmghqesyj15MbPuELJiuVPaegfm2u7szFc5Hb4636qYW4MEQJn75ecr/RdfXdWb7MLjI0mpM3NL2XWHe8UvSag+sFIq2bj/6I8Hj8zJzp6dnbO6smzT4SO8+iM/lpdtOHgwqkSaeWS/Q+KPlPVbik6cSimtWNNwYvvhU7VXbkUVin86flBw+HikWFx6+swXuQVHm2QRJSLR5VsxuQUZtXWZFbXMPQe/lYg/274rs7Iu7+zlr/KLkGQmmPhqHS625/9l8P03suD/GIJtAfcPPFaXdqhz/bYdgtfzd+zhgQkM3+HT9df/BPqMyYyaTRYgwYP1Ba0QADAdeE5aNCYQqNuEWszWYIQvZpNCmLA9d5jGcmxh3TaNoSqGPrawbjAYMMSHh8C2YglYAJvXCotBY2O7LyyPdTKwYlgCFuhcD2YPYJ1//X8Qa2F9fX2X8WewPwU79y7xHT5x8AGB8YGh/v5iftOr8D0NDF3ar1hRcPHG7JICZGWCnfBnhPUf4PubgPKrndbfGPTZXISfPlK4fvz6XxAmG2EnLhPV4DZtc8nYMFKQFrYrb8O+A1lXro1i8eeVSD7aluO0mv9xTk6P5FTc5uyiK9dnZuf3Xp30VV7ZrKw8tzUbowtKxmSuD9mU83luzoAUAW3Ttj4cXuCWbUjCivn5pV/mFfXhcCZv3uyQlDorv3hWUakrBzjVOKZtQFI4YKIWm2erv/+F+Pt/jOPYEGuHGmzxHRtotU3Ylu9Q2HYTlrYtYwvfGGfBSnZo0uvxHXtmIJQ0NjZKJJK3Kr4Y5O8m2Dg55gAAIABJREFUC2o2AXwH05gs4I2C1QZQox4GmTUDaR7VWyPTWL1o4FBkB+yACIthN4RI7BJh0IzlYFYBm9eK7YIBum3hDoeDm2ynSmH2AzTdaMTKv6pJsAZbw4DlYPtiDfiLJ36/PgOfBRKJRI9lYPqMwWB4HX/n8uwEa7on8e2SkobxBHaZHITJceSvf0Nx5jVizp+r2zgI05BkOEmV1yM5w16Y2f3H1QiL45iYgaSyRwp/jq6s9dzwU8/VXCQxuUcSD+H8jCQmOLCE72esHbVpLbJyNZjltJKJJCaDodpVPwIHzQQWwkp2TM1wZHKdUtLsU9iIIANZnQiUK2GGXSLTgb0GBDlISAABDATrEFa6I5Pfgwscb/4f4nsHYIXgawvHtgW6zO8y03av/ywNq/3t+G5d36NJLBbfunXrL44F/2yeBcQdMKPWmDBW7g5+mgF1B+FoULMBoDyK6kGgOy2q6wymEAcxOMawEoNsDFuxBDy6bQEMl21RFVvj0Bb0sUqwA8FDw3yYiXFw29qwU8YaDBO2hqpD+Q4/sRr+ggmLxVJfX3/o0KEOVg0bFLFtc5f8HT4j8J6H66/e/z/23gM8qiNL2K4OkrBn7P2fmR2PjSM2YMAkAUIglCXMzsymf/f5dndmdjb83347n8f2OIKkzjd1kgCntY3zeAbb4CGYZIIAIQFCQgFJKOecUGyFbqX+n7pHKpX6drcCgoFx36ee1rl169Zt1b313tOnTp2qq+3o6pyO70IAb0Z46uZO7PknsDj0o9kLr2d76NbyXanHbyM8A4s1I8ubSj12gPHjdivYRJlJ9MiMx5Ed/UzvIKM4Z4rd5Wey+DE78QwsjSEAT+Yy3Wuw+rNWpDcHGJNwfAJsZrEq+d3YYYbDjpt+3G5kxtEaFhjeQGYL3uUTlUZxDhSXiEw7cWQFjkMmcbrsnTm+ejMMncO5UqOK90pmO8xL6p8h36H/tLW1HTx4sKSkZPAu2eyDeIn3vqEh+8DwWN+Ivcc+1D9sHxjuHbYP9A/ZB21j/XbHQFfPSPtA/6jdPmQXN7ygjx37b0HnxwsBOxx9fX2Dg4NDQ0Pk6ODg4MDAgEPc+vr6oIzD4RgQN7vdPjg42N/fD/l2ux3yh4eHbTYbHHU4HJAPJeFCAwN4oeeBgQGon94lVUEBuBYUg28FZw0ODkL98PX6+/vpfPhH4NBdchvxv3Pq1KmUlBR4XcHTCO8n6VvKE9+hj4SHh7/w2xfrGxvqGuo7u7tGRkawo54H+8y9DJ7aIzMnItaKhJ0BTBIyWQN0/N2iv8tMZuzriedVic7vJisy4XFOtNMYwPALNIkKE/Z/R/o35EazkueQ0STn+QD9TjxZidstZ3cjC4fMArJalWL4BD88VdUKk5vwe85k9uNYlLRTyZhkJqvMYEGJwr16MzIlIaMR++yzFux9bzQpcf1iYINbwfc5zF8FAsKqezBRgjB0IhZdFAhAXhfFnFa6QQZnczr0I5wSHh4Oq3ysX78eolRDhXQN3uF+M0dnxfe+vr6MjIw9e/acprZTvs3XAre4BY4dO/bZZ5/BdGIp0Gnl3enE6zf94he/gGUy3XaN559/vrG5qbK6qqenB17YNN/FyASJMuwFj2eTziHRVnLp6d6PQnkYfaW9MCfGY8VIL5T3vbQkfdbcZE/XmnltZN6s5BSP/u+Hvzk6OIinkJP7SwSX++uyO+n/PvP4MyRAIwRvCQsLg0mkELkFFuUICwsjM5XIKqkAcZr7EHWSBCwDAT6B7DCFatWqVRBYBqBPf7p9Rucrc1Z8x7EXe3pKS0uvTN0yJrap2b49XwvMrgUmniPXv+np6XV1ddCxwWBF7FdSCnjhO3RPGF+F+O/wS4jiu8nH95vnuwTrxAw1yXd6fLWltf3rPx7Ey3CLrl/Eh80F5W5358h3CE60cuVKCMgFq/HB80HDF1a7hvcBBIgHNZ/o+DCqMxG+LooMosKEOohA8Oyzz65du/ahhx6CMDLk9QAXmi+Uu61nWr5DixO7MP2CddvcvkxfC8x7CwDNx8bGaPsMXGW2fI+Kinru+d80NDXW1td19XSDdet28h2CL4IWL9Xu6Rx3mj4G5a3jr/TXgDTHM7sJxL0IFqRmYf4qzffmlrYDBw/jhRJFvnu6s26fKzd8z8vLy8rKOnny5K9+9at169ZJMRoVFQXBo1evXg3BRWnjDAElOTFc3KLFDVAO+j6xsRCaE52daPrR0dHbtm2DCwHfiYsLqZ9ccd6FaflO2tTLSxXoT98bcpZP8LXAvLcA0Tncahugv2/cuFHaWaBvwvgqzF+FgRY3fDfiYIc0bWmZJi8tQ5mZ5NC1eZKl9QBbpXynS968TH+fudXmqQb8bnPH98amliNHj+OJxPNin5mW70BYWBwDgi8CaqOioiCGO1kBlcTvBXs9Ub0h6GNMTAyUhBcAvCRgyVMCcVhqFWJMksBkRM2XPqPzmzNzvpNe6uM4aQqfcJtbQGqWkT6NXvgOStXzL77Q0NQIfIcha09890w3Iw7C5SHJBBNJE2Um/d89sY++FpSR5njKp0vevDyTb+j9Kp5q8MR30N/7+/vhbhJ3tZk8XW7092vXrnnX3yGabkxMzKpVqx555BGwoQPig4ODn3nmmUWLFj3++OOrVq0CNR+YCzacjRs3rlix4klxWb41a9YQMz3Ec1+zZs2yZcuefPLJ5cuXBwUFwQtg69atsBDgHT6+Cs0t7VEzuQ2+Mr4WmLYFyA9BqUD3+dHRURf3U7pmL/Z3GPd67vnf1Dc21NbXdXZ3ORyOqf4zE/Z3UX/3RDGCbxcBaE5n3h6+35zNZNKcIrXGSHNmci36FwYte/J/b2lt/+OBQ2R+ONzNGXJmLnwnyvWqVasWLlwIgXkjIyPBSr5w4cKnxe3hhx9+9NFHIVwwOMYEBgY+8MADDz/88LJlyxYvXvyjH/3oySef3Lx587Zt20JDQ5966qmFCxc++eSTK1euhAVXAwMDY8RtzZo1jz322ObNm4lNhth25ldhd6ltDvo73Zd8sq8Fbk8LAN/pqDvEKO/yBbzwHTrp8y++UF1bA3yfap/RygTsIIj4RNk4390r6TTBadkz3yfrkZafeAdMloH3ihctmByaKDnJ6Jnw13uZqUSeS810DbQMfN93KcM5bAf7e7/NXlB4vbml7Zsjx8g7m36Xu9xc6S7m+xzWXwVj+urVq2Fx6q1bt8JCHIsXL46KinpW3GDxpkcffRQW3wgMDPzxj3+8YsWKrVu3QoGNGzf+6Ec/grX3wBVn/fr1fyVuMTExixYtevLJJ8PCwrZt27ZmzZqFCxfegeOr0gb15fha4E/SAkSh8z7a74XvUVFRf/d3f7cjPg743t3bY7fbqfmrPr5jmk8l8vzwfeKNgv1ngO+2fryiPfC9pbX9q31fQ2Rscpdn+Iy58r2wsHBa+4yL/R106sWLF8NYa2xsLOQ8++yz69evX7hw4dq1a6Ojo2Fx1KioqK1bt4IhPjY2du3atatXr46JiQkMDAwKCoLXBvjbLF++HNZu3bp1K9jfab6D/k7GdV307vna9envM3yMvBSjcQPFyDNKAnu5qCRkl5Qk9UtrI4d8wkxawAvfIyOjX3zxpX379pWUldY11Hd3d1P6expSY74rBAEJSXK89KhZIXDIyOMl+jgzMgl4GSN81KLEsz2NAawJCazcZFQIgrjatVFmscgFAzIxeBqUwYKd6E08XpfDiOf4iBOCrIjD9SABT/+hdfmpsnu/e0/2opsn8gR/Z0dzuC59rjRn6lGzGP89Y3TE3ttnw+tr2wauX8+vrWs4fuLk0ePH8Bpr1BDrTG733O0zML66cOHC8PDw0NDQxx9/fPHixT/5yU+A3cR+8thjjy1ZsiQ0NPSJJ55YuXIlWOHhaERERGxsbHR0dGho6LPPPhsTExMcHLxhw4Z169aB5+VDDz0Eh9atWwf6O5lLBQOzME47XzSX1jMTvhNj6Eya+ztehtCZBjfQnIwNujSRr3ldGsTLLmleUoZuZ8j0wveoqBi1Wnvy9KnK6qrq2pobnR1SvmP7jJA0bp9heX/OFMBaF2iNfgZxdVaevYe34GUuTCbE8fcLFsSxcpbzM5mQFS9cp+QFBYcni+LY60YT4oUFfNJ9BsGfM/kzRn+DIOOEAJPVH6+YapzKdBr3f85835eeMTI82NtnGxkb53t9Q1Nq2qWr2Vk4MJS4kfs7rTAXvoN6Hh0dDfZ3mL702GOPTazSGwkD8TBkCuv2BQcHP/zww6tXr46NjYXxWPiEKVEwsLN8+fLHHnvs0Ucfffzxx1esWLFo0SIw34N2D0tykzlTt1pzB9bPkO/TtvJ3s4AULnQ7ANbBa7utra2vr29sbGxwcLC3t5d2NvVUiad8+hLfNVnaJtIcL3yPiIjS6Qynk8+UV1ZU1VR3dHVS9plx/Z3iuxGvPsqb5bxRbjTfw5mRQY92WeUs48caFZwRR+9ieaXZKjfiMn56fjzWiklAiUmIY/15LoDjxHVQOWQxIouAeO5eUyJW9g2sEk9DpZk+vexZf3fvn0PrzrdClmrr0hz6uvj7qxgp32tq6y9eSi8uLRkPDyU+1tI76/Zpv1m+P/zww4D7J554YvHixcQ4ExUVBauhPvbYY7CA6iOPPLJs2TIo4OIuuW3bNligNTAwELj/05/+dO3atWCf2bZtW2Bg4MKFCzdv3kymyJIQMXB1qeo9Lzkz4TvdrCMjI7DiKBDK9wktMDIyMixu8FAS8wsEeqyoqDh69GhycnJTU9P58+dPnTrV1dUFQcfIhB1Y83p4eBjijvkalm4BaBP6OSS/4qUUAL679X+PiorRavXfnjpZVlFO5jeJ9vfBTy5gviOBF8dXLaL+jvVrZDT66zTIzCLefK9gRQZBZuT8TBaEh2FNeHFtwYTXnzOaFnBmudmCOL3SyCsZDlnYvzAzf5lowrFfeCOO3MLj9VGRgfFnxF0x393gKj3Q6iJPctwT68nQKx7MnMdQw56rcndFz/Hup/K9r7cf7DNpFy+XlJXidXjEbeZa/Fz4DvZ38I8EvsfGxq5cufKhhx4KCQnZtm0bFIiNjV2zZs1DDz20YcOGrVu3Llmy5JFHHtmyZcuzzz4bGRkJgQdWrFixfPny0NDQRYsWLVmyZNu2bVu3bgWv+cWLFz/44IMhISHPPvvsmjVrHnnkEfCfAS97MluKGILmBegulcyK76Ojow6HA4Jh9fu2qS0AEbtosgOyBwcH09PTc3Nzy8vLjxw5cu7cueLiYppK5JUA8cKm1urbwy3Q19cHzSu1cdEtCWjwwvfIyGidznDy9KmyinKIHwnt6xyS8p3D5OUMAQxrupKzaPcbyMD6GYT7hP9BHI4iKbdiXt+jExe/xmtYC7i8kbvXiD+R1eyn1SUeu7LjUArSqPAypPiVgNV8WWIi4sSwlNjEP7tEk5SWaY57yqfLzK/s7oqz4HtBQV5tXUPaxcul5WVgf5feZZdXO707F74Th/cVK1Y89NBDYWFhW7duDQsLA9PK5s2bYf7R+vXrH3zwwaVLl0ZHR2/dujUoKOjxxx9/6qmnYJpSWFjY2rVrf/jDHwYGBkZFRS1ZsmThwoVbtmwB286aNWt+/OMfP/DAAyEhIT/96U/XrVv3wAMPBAcHb9u2bfPmzYsWLVq7du0t1dwB9LPiO4wWQoxWeMH6PqEFiLJJYE0eQYfDkZ2dnZ6enp+fn56eXlBQ0NLSQmIC03ooXYmvYekWII1JC9DUnvjuNr5YeHgk6O8lZaUwv2lwcNCD/o75rjAyCp3mYEHpGutOZLQsECzIsBNZDcgQJ9+x/R6tFvH6+wQjMhqUKhXSJfhpNXKdTjTNW5FJ+AHH3GdkEMsig8pfpVIkqBFnQByrtJgRh5e8mK19hiYpLdO8pvNp28itkKXWGGkOfV38PSX6e0FBXk1tfWrapeLSEtDfbznfQT2PiIhYvXr1okWLtmzZAjnBwcFPPvnkQw89tFjcHnzwwcWLF4NTLbwSAgMDH3rooYcffnjJkiWLFi168MEHn376aZjEFBIS8sQTTzz66KNLly5dtGjR008/vXTp0qeeeio4ODgmJmbDhg2PP/446PIbNmz4wQ9+8OSTT4aGhhJzvIvePV+7s+I73bt88rQtAI/p2NhYd3d3ZmZmXl6ezWbr6OggS+hNW4OvALSAF9bPiu/EPlNaXlZdW9PVg/1nent7PenvMo5DjOFwReUSgZdxAvaN0ZsXsHHmw6ffyi7YcfgMYrd/n1E/xbHWtJw3z2b+596vtr77gZzl/FmrjOPCPvxw1btvLrUm/fO+vbrjybvS85+xJikYrR/D4FeF4GV8dXpbPP1uuNv5Xt/QlHIhraikmNhniN4zbRfA+jvt/z4T/0jwkImOjt6yZcv69ethyBTc3kNDQwMDA5eKG+3vSAwykZGRq1ateuqpp1asWBEcHAy+kpGRkbGxsaGhoStXrly6dOmqVavA6hIUFARzZUNCQjZs2ECM7xs2bAgJCYEh1jvEPuOlj017D77LBcBiQ+ZuSLVOKaG+y8012/9d2npexlejomI0Gt3J06cqqirBfwaMjc5hO9jfZUZhwv4O9hkzYvl9eXmrdyUhgwGZdQFxrOVcatK5s+vf5D5LvmI5fQGpf32osOa/v/gi6g3rxZYW4cRplPAKsvAo7jXz2bTnDn4d+cbu0k5bxHum1/f/8XB2pb82Du1kF7AmJTfr8VWa6bR8t/O9rr4x+ez5opJi8J+ZOdydTqcr34uKimbi/w4KOxjBaTsJxJXcKm4xMTH0IXJKbGwsTHEi8WeA0dHR0XAIxmChKqgERmtBK4dgZLdac5+5fUbahWbbCX3lfS1wMy1AnkAieKnNC98jIyN1Ot2pU+P2987OTjDuO4eGPk5Jxf7vwHfBigQWz2XlzDKG/bq0aFlSklJrREb9Rv6N47XX8Sp3nPoejf7Y9bxf/v6z32XmoO075Ntf3X7goCn5olKlQbwJaRLYk6ef2//FT9557w852ejV1wI0r39RUvyAFRviZUYOTdjfp5IaW+Qhh7bO02XcHcX+lDTlQaZsNbNzbKeNKkQG2wv9SQ65CHSZKbJgRmpm/+WMUcdAf3//yMhQX29/QWF+XX3jufMXIL4/ubMzudc3xXfgNU1wokrTzoskcyY2EziRBI+EU8BVhr4QXf9Mqp1zGZ99hjxPPuHObwHS56UC+fLT8t1lfBXb34ftbvmOeAGxzL6c6z/mOKRh5ar4xwXL+dISFMf6azT3qnRnCov+4f13v87LR9u3o1df/Z/z55iTZ1D8DoUpUaGKV3978r+//uJv3vvgy4tXZAmq+7Vx3xSXPcBj9xulQSdOoZqkOU1tmVEQFxiZHH29ab5bXBA8h90ppOZdVxqhK5SWHM+ZyvfhYYcL38ltnbkKP5fxVYJL4qRIckDwlC8tJs2B9wFdAy3TkSNn9eZwudAMd318J1zwCXdRC4C10C0FZsX3gYEBL3zHVvL4uLTyypcOfvHzLz77r31/2LD7rffOXn7n3NlNxh1vXri68+x59MJ/v3k2+bMr1w2Hvj1aU6o7cVyh2oEnQKni+POXfrN//1+9v+fra0VIk/CXgv5gafUDJgFx7D08i6dBCThhmk8kOme2+rtUhaf095viu+f1mGb3swBPBRD197EhvHTl8LDD1tMH+vv5lNTCwsI7he+e9GuintOCW9TSNdAy8B2I/yfn++joKN3id1H/933VP6cWIA8hEch/J80Bvrv1f4+MjNRq8fxV4h/pju8sXkVaYGVGAc9ZZQ0vnzj4Wfrljy+m/T49/ecHj6L413acPf9lbt5rx04rNS8v3JW4+W1T+Dtvb3pvj/HAfv35c2j7yyjRjLSabR98tumtt5a/tevf9u5DrG6BoP/5H76832IS4xyI9n3vfBePAuWn099NgHKpiUaSA56L0/vRS050Ew1fWgZypr5XJufi0nzvE9dFBr7X1jXg8dWiIundJDfak3BT+rsLmt0C11MmiQVPVwIo93QKXfL2yD793dNz48u/K1pASgTvfNfp8PjqDPmOzByyWFFCfEC8DhlUSPuaIkGtNLH+r2oUOg1SqWVGbpElKa2q8b8/eDd0J3+6vG7zm28hAU9wXSCYkF6HOK1Mr7lHrUbYjZJdoFLhCDa8CbEcXpBaVNtBZ6c1d9f8CYs8TXkP2r0bK7yEwjMp4+YFIKW2pObxs6Qlx18/lP4OfO/tthUU4vgzF1IvuswLmeHjd1N8d9GsgblEuXaLaRcF3FMZL/gmhngieCl8k4fml++0j41P9rXAfLWAWzsM9H9PfHfr/w7jqzTfx8dXwf6uUYvjqywyWsb1d5bHU1VNOL6YkjcpDQYcZ4bn5GYGGQ0yc6KSMSkYw9M72bcz0z/LufrT9z+QaRJQosXPZMK+lSYTMpn8jSZkxFHGsMHdhOPP4IhjvFHB41myeKIs6OkedPlx7ksiGXjgO1bkCXY9cZa2lc9Enjf7jNFC7DN9fX0OxyDhe2rapZKSEundnJbyc/efkaLTLXClmfBWcBlEpWuTngJjuXSZ2yNPy3fooqQvQXyCId/ma4Hb3gIu016ABVIizMT+Xl5ZQeav2my28fHVKXw3YPiazIg3YJqbdUqTHnE6ZOKQ0YjjR1qsiMG89mcN2JIeb0DxDNIlIKsVWyE4rczKKQTTAr0IeqNRyXMyjkFm7H8ZgE00mPiz4Ls44joD/X2KoWa++A7vAOmoqad3g7TkeI6E7z1dvaC/4/mrpaXT0lxa4Kb47jLyOVvmulX/CcqJag8CDf2bvO7Mv6d3vtNwh1AqAwMDPT09Nt/ma4Hb2wJ9fX12u106IDRnvtfW13V0Yf9IL3z3Y43IwiGeU2JHGqPcsvN7Og6ZWGRU3a81ykxWbMCxapWMoMRhCfQ4nrA50Z8x3ysYkFGDTDwOLGzhxDg2BiQYxNFUBpn1SGBkRu7W8H0S8XcR3y9eSi8rK5Pie9qcm7LPzByUd2lJ73x3aVyHw9HT0wN9DCJqQZAsWFWH5IMAs+0hpAFEYhkbGyPBs0iQgxFxg3roAlAn5EAlcO7w8DC5EKmNFCYXHRkZgbPIpH+fcEe1AKgOMPkLbhZ9N8ldHhoagvsIgQTo8D4uDyfZ9aK/R0RE6PWT8cU6ujqp8dXLSB0/bp8ReExkidmEymGR4CZhr3ZJvpg57ipD1eAtxyP3J6w0tHGGyJR2P26imciZHOGcIL57vxda7/akm99MPjZ8qZl9l66A/wyxzzQ0Np9PSS0qKoKbOJO7TG63j+/eXj1z5jtpX3IzpJoUKQMCdFSXTIjEQv9QkP7uBqC7nEguR5cnmS6Ffbt3WgsQYwu8++HrkWcJdkmAh7GxMQjkSwqQB0Z6x73wPTIyUqPRnDpzuqKqsqautr3jBqW/X0bquEm+TzWLS7jsBu5SslM53mguqXzcY5LOB+LjT8FEgO4iTNAcxzaY8GOBOAd3Ot8hvtjZs2fJw0Aej2mfWx/f58536EWkCw0NDbnETiGHXG4DyQcBZueTTOA12SXn0jm0TAoQgXRvEqiLfFU40fvppB6f8KdtAbobg+zp2YCFsG+S71FRUS+88MKX+76qqqmura+70dlBja+65ftsOT7b8u6571F/Bzd5CeKB7DTuxRwSv+xO5Ds9vlrf0HT2XMrevXvJ0+hWpSNHacHH91vOdzC20I3uVgbm0l2U0BnKEyjTsHY5i5SkC7u9nC/zjm0Bcu/gYXDZBWMdudEguPCd/GvkXJLj3T/yH/7hHzQ6bXllRV1DfWd3V19fX39/vzi+KuX7bGE9h/Kz4zut0UtoPkWvp3X5CZvMJOWJg40XgT6LtttMld24UYp1eogPTNlnxAGVAfCfqW9o2v/1gZMnT8LdJIgg99SL4OP73Pnu0qxEf3fpllDM+10h/RAEsiutitbNSVcn5emvRDKJQB/1yXdyC9BPC9y+wcFB4p1FbPHEM9LFPkP+Nemt98J3iN/3v/75n8D/vbO7y2azTcxf/ZPw3dMrAXN/0iYz1Vg0mT9hjvegvxPie6Kwt/xbx/f9lzPGhnBYZrt9nO/tNzoPHDwMi95Ibyi5124FH9/nn+/Q66CLwkAr6a7k9tACyDCMBjKNdZef5FCApjyp3O0NJgggR8mlSY5PuANbAG5rX19ffn7+tWvXGhoaqqury8rK6uvrCwsLc3NzsWY9sc1Wf/fk/x4VFfWTn/0U1l/t7O4aX98D+7/fhXwnTpMSu/xU4rty3NMYKa2beypzM/kwvirle2NTy+FvjoIVlybDxM339tfH91vFd6fT2dvbW1RUVFpaWl1djfUgau1zAlkidHZ2dnR0tLa2ghGfcLyqqgpe3eQ2dnd3d3Z2wvvA6XS2tLTAOnakKpr4RCYCqccn3MktAHezvr5+3759hw8fLi8vb2lpaW1tLS8vP378+N69e2tra8k9deE7eRKIQP5TL+OrEJn1Z3/z11U11cT/far+zsl5FhlxcAJqdNSTln3r8memvxNzPMyNotR52nojNcJ4YvTt5LvNZiP6e3NL25Gjx7GjqriRm07uqRfBx/eb5TvpQmCfodu6qqrq/PnzFRUV9fX1drud+EGCszzcp5GRkcHBwbGxsd7e3q6ursLCwsrKSlJJe3v7gQMH8vLyiLPE8PBwUVFRWVnZ6Ojo8PCw3W7PzMyEFwB5w9vtdpChcnivDA0NkVeCi2WfXM4n3AktQJ6okZGRtra2ioqK6urqK1euNDc3t7W1paenV4gbvdCVi32G1EAE8n954TvMLf/rv/2bsoryuob69o4bfX19E/7voL/fzXwn6rzrAOydqL/bbLbBwX6wv7e0tv/xwCHwhZXeUHJn3Qpu+J6Xl5eVlXXq1Klf/epX69atoycWeWPhn+OxWflHEvs7aejq6urMzMze3l5Yl7W6urqoqKhS3K5fv95cH/P8AAAgAElEQVTW1ma326uqqgoLC2/cuDEwMGCz2QoLC6urq4mmX1paWlxcnJ+fD571dXV1FRUVycnJFRUV3d3dVVVVBQUFycnJPT09UPng4GBzc3NpaWlzc/PAwEBtbW1JSQn8MigrK6uurh4cHPTBndygO1wYGxtraWmpEbfLly9nZ2dfvXo1LS2tWtyamprI93fR30m+VPDC94iIqJiYrb/411+WlJWC/wzwfdRh/yg1DWnUSGCVAiMTTAojgxf6MOkX8CwysUoj76c3KHhDAMdgBV9gAgRexuvliRwScJAZuWDw57Hsx5qRYAjgdfh0Qe/PqZGFk3N6ZGH8GD1eAcqo98eTYA1yQayQNSATgwQGGVlkYXFJo97dTwdXjR58JcfHUUGRn1DnyeAqrcVPZE6OstIWdohq4KLXE3We5JMcEEj+DAX8SwL7v+P47z223gF7f09XX17h9eaWtkOHj9jtdribs0I85ju9ftPM1/f4c+S56/80Z76D0by8vPzkyZOFhYW1tbWNjY2XLl0qLi5OS0vLzMwsKCjIz89vbGysqKi4cOFCTk4OFCsqKqqtrYVbaLPZUlNTa2pqzp49W1tb29nZmZOT09DQcOHChaKiotzc3JKSksrKyjNnzrS1tZ06dSo/P7+ysjIlJaWwsDA5ObmxsfHcuXO5ubkdHR0FBQWwuinwnQzMSvu/L+dOaAGYDDE2NtbY2Hjs2LHs7OyhoSG73T40NDQ8PJybm/vNN9/U19eTr+qJ71IWeOF7VFTMv//7f5qtlqqaatDfwf99bMjhnu9GvZ/AIyOHIxCYWWTlEadHZkGGl+Zg5CajnOXkJh6ZBJyMvNzCIaMZmRl/DHQzMhr8zQYMayM+V2nkZRYB05xnxEmw7Ph8KKPgJxiVjIBY3t9owdFpJJOkwHNmcmSVAB1sMmSXUuFdPOWn5buI+ynzngjNAd9klwgzxDopdgv53tjYWFNTU15e7uM7zfi58Z10qsrKyoyMjIGBgeHh4YaGhuvXrzudzoqKCoA1AL2uri4/Pz8rK+vatWvV1dXXrl2rqqoC/b2kpOTcuXNFRUUXLly4du1aTk5OeXm50+ksKSkpKChITU0Fm35qampbW9vly5dHRkby8/MvXLjQ3NycmZlZV1dXWVlZXFzc0NBQW1sLyr7D4RgeHqYdqwkjfMId1QLwFLW2th46dCg1NbWpqam2traurq65ufnChQsHDx5sbGwkv/Pmhe+RkdE7dsQfOXa0srrKC9+RYJQLBjnPy8y8QqtDJsZPb8CBCgRGZublPOvHMH4ciwOHGSDkgCAzcjg4AasRo4npA1g94lklz/mxOj/BqOBYOc8qGIOMY/yNQgCH3wpKVtTZrTwycXKWw/EmOQGZzXhRkZnzHYA+f3wn7HYbU4w+6rYAQblbAfi+/3Lm2NBgb5/Np7/TKL4l8s3wfXR0tKqqCn5Nt7a21tbWFhcXg0Gmurq6o6OjrKysqKgoKyvrqrgVFxfX19fn5+fX1NSMjY05HI6rV69WVVWNjo52d3cXFBTk5uYWFhbW1NScP3++sLAwPz+/oqKirKwsOTm5qakpLy9vcHCwqakpKyurrKysuLgYTLeXLl26evVqXV1dcXHxqVOnWltbgWKzGqW5o8D3nfoyQ0NDDQ0NTU1NVVVVYJaprKysq6tramoiP8WcTuds+e42/ntERJRarU0+d7a0vKy2vo7MX6X1d4WREfkORhLDPQKHTDolNqHo/HkG8doFnAGZDX6sDvF6tMuMeEbG6hCOKKlDFr2/ToNMernVMG7b4TTY1CMYxGoNiNUoBQYbYQS9wsgojTzidUqBQZxOZmRkvGicMTOe+D7F/50KnzAln59c9cmTfQZzdiLRVhqSCQI55JJ/U7t4fQ83fD946Ju522daWloaGhpc9Hef/T0yMnJufCcA6u7uLiwsLCkpqamp6ejoABt6r7jZ7XabzdbZ2QnN3tLS0tPT09/f39nZabPZRkdHh4aGurq6BgYGoLYbN244HI6mpqbS0tLCwsL+/n673V5RUVFcXFxTU+NwONra2hwOh9PpbG5uLi8vr62ttdvt5eXlZWVlXV1dra2tFRUVVVVV4GlDvqFPuANbADR38iuQjJeQHKkwL3wn62uXlpfV1NXC/FWbzTY2NIjX18b2dwAxDhaGBFbOmUV3Gp2fERtVAhhebhHEKJI6ZBFDBDOGBSx3jyDIjAyysIjTKQWDPJFHjA5ZOTkLASNZrNrjHAHUf6WRV5gFJDAKwYS0+gVmk8zKIUGrFAx+nF5pcuuW434m1BSyA/FvGd8J7okwW9BjK/9t4Hueb3x14sfA3PhOzx4GNZm4ypAf1KTTQvAvKWVIOBrwhCEFSN8mNnRaE4ejdBkiE5sM5NBnkcp9wp3TAnCb4K7Bm5vcSnCdou/gbPnuwf89WqczfHvqZEVVZXVtDfC9t7fXOYXvBnEtDsx3PyYRcYyfVi3TqbBxBgcd45BR9z2OR6wGWVgFo1PwBsToZQyLBF5ptiKLHjEGHDWe1SLegEwmGauT6XUKqxG/GPQ6bHNnDShBha35BgabZXg9YtS4wkSjH8sjPE4rRTyMr46HnHRjiCcmGg9ekrT93ROXZYKVtsAQGwtkkt2bEMb5DuOr/YN98zO+6lZ/P3nypM9/Zm58B0aQ7kdIDfkunIVOS+Yr0X2YyOQUQh9yiOSQFwYUhmiI5B1AjtLlffId2wLk/pKnCASIGApfG8rA57zwPSIiCvheXlkBfO/r6xvne2rqhP5uQEaTzCSOiwrM90z6kHfffOJd80JO78dq5Ez8E4mCktH+yMgrta8vSNT+QNA9YOIUvB6HhjfpFrBxD7As4rUrdpqX7U5coN7xqFm39u03vm+Iu59TbXjvnfv0cQ8K+og9e364k11qNa9+c1eAfvuanUlLkhKRUYtXdzKbvfJ9OsTfHN9pdtOsn4O1na5qQob4keP+M/PG99bWVt/46oTKPuXv3PhO+iSNDyA46bd05yT4JieSHKLvu7wASAEiQIWwSyr3VCH5GvQ39Ml3TgvQN4jcYvIwkB+I5P7OC98jI6O1WhwfuKSstK6h/kZnB9gSxxwDn6SmInW8aJ+Z4LuRlalf/u3hg6cqK//5qz3nKhr+5ZOP/vbT9zOrGpHut4fLmp773ec/27vnfy5c/PBKziM4THyCMv7591JS92YX/kDYca6y+mxR+f/++JPP864eL6mIP3po+4H9R4vKElPPv33p4rc5Rf+199MvcnLeOJf8Hwd+f6qs1nDklJzZsYBj8MJP3vR3jgSOd6/Fz4DvYGCRavETFB73ormlfO/u7Zk3vvv0dwJ1sqgI5HjnO90JnU6n3W7Hyo5v87XAbW+BwcHBgYEBgnvyJnD5ImNjY8Q/UjqvJSoqSqfTnTo1sf5qR4fNZsOzqYcGP05JRZrXZEYB28qNemxPF1iZdrvuwNGzFbVr3jIcLy49cu3a57lX0koq/2XP2zm1XV9lFvz604/+kHbpd9k5925/EfGaR41xJ8vqT1c3/+vHez68cvWJHc8dq6j6LCv7/4l/aW9mAZ96/mpFg5B65g/p2X/IyA95e/eHqenq5GM///K9Q9nZuuNH/E3bEauVmxPd8R1bbNwDfWp0GmyRnzDBT9hkIErw+LofItxJzpT1/Gjiu7De7a7LC2D6XXH91X2Xrow6Bnp7e/v7bd2dPQWF+U3NrfT4qss99b7rZn7TtWvXsrKyZmifmXa1VYLOu0ggj354ePiWLVsYhvHeiAD6oaGhvr4+uo95P8t31NcC89UCdrsdApB5r5Dmu7Q/RkREaLXab0+dhPX5bnR2gH2G5rs4oDrOd5Tw8o7TZ04VV//17z9IupLx/tWs97Kz+dQLn+VmfJh++WBZufHM8TfTTh8tLtyZdukpVvfbA3u/Li7am5vzxqXz3xQWfnQxTXfiwIG83L2Xr+69mK47feRIfh57+psP0i/uz8r5h/0fMWfPnSyq0Zw+/vG5tNyKG4vMPLIa/A1u/SOB7+6NM55GWSV8J4j/zvOdxnr4n9EWFhZG/zehoaGbNm2alu/QqYaHh20228DAgN23+VrgNrbA4OCgzWbr7+93sc5JWQ98//nPfx4UFBQREUE/6rCr0WiA77A+H7G/E/0d+C6upcf68dqHEplffflF2Md7ViYlPr6TX2zhlr+xM/LDt2Sv/3rxTvPGPe88uYuJfG/3/3fg8MMW4/q3dj0gaO5JeHHDnjejPvvgX7/6CiX8n7D33/zPr/b/pVn96NvCYrMh5N03172Z+F979615b9fff/jJsx++/4Bu+//a/2Xw228hNg6xWrwWoBv7DOG7G8S74buoxbvjOyB+nO+ipj/pKzlb/d2tUu8lE69MK67f9KfX38nDIRXoh+bukqX/y7R8p000IyMjAwMDsCRCn2/ztcDtagF45MDHhjCdfjLpzBs3bvzLv/xLUFCQ275J8/1G57h9xjlhnxGXvWZxyAHBgHhGyXDIrEYJL8l08Uq9Flk0SNAE6HVIp5LtMiOGQQYGGTR4tqpGhYwM0mnxItomNkCrR2r1Ap0BWXQBWq2/KgGZNYjVKzherjMgo8FPq0EGlVy3A3HxyKSWxb+OOC0y6u418jhWAV6pVepC45Iz6THp0W4zYaghFhsQgPsTmZjvUos8jWma+7RMHCVnKNxBfIeHg9bipT/3/gxywP4+Q/0djJ7gLQPuK75PXwvcnhagI8cRmkuFGdpnIP67lO9ynldwmO84UAzP+DEWZNTLLazMDDDVBWCvR72S0+A5TazhHkG4R69Xsjq8mragRhYGz2My6hGrlZlZxKlREifjdQpW7Wdk7mfHJ74ikw5ZDTKTDiXq8bvEysk4JoDDfpM4HAKGO0kuTHfZHUf8XcP3ifU95ll/n0P8mfDw8LCwMHo0ktis72qs0/8RqPMhISEz57u0R/lyfC1w21rAxUdLel3g+y9/+cvg4GCXDgu7YH8Hvrd33IDxVaK/u/LdmIhnpQo6pcGAIwZzuns5HTJp5ZxOZmZwJBmDGnFa7Exp1CpNermgx3OUWDz7ScHr/U2sktXho1Yt4tWY+2b8AsCzYU1af06NfecxyhlkFUTQC34cITsRJpkues6A/wz5FES4uzHajEOfcqch5poJzR1muo4r7xBijKjntP4+XzJZX5vme/71vJsdX70Zvrs8JXc13KVf3rv+7vITeNreJe1vvhxfC9zOFvCkvxO1RqvVnjx9ioyvEr5/dP4CUr/mwncZr/dTve7HxS/gGMTqUSKLOA0SXeOxmw0nmnGMrNzEyw16P6z4G5Cgx2EGLAye3yQY/Iws/gXA6UWzPg48iSe1mjgc1cDIBHCMghHDHjBamVHU/VksUPr7FEONO74D2b06TUoQT/guEn8yoiSBu2ixmRJrzC3ip3eY4acu1Dehv+P4M6L/TFdH9x3Bd/J8SBF5d+W4/CPe/SNvZ8/0XcvXAtO2AK1w0DI5kea7i2YWFRUF/jPAd4gP7J3vcib+5W++fdrEISYeQ5nDmvs9DEa2n0EbwGOzjMJowCg34xgyyKjx47WIU8sZFc4XtAEstt5gPR1HldEF8AYcesyiA+7jmatJmOYLBAZZDOMhbvD7wyWNq/DT8X2mWvyfG9/n4P8eHh4eGhrq8ohERERER0dHRkaGhYVFRkbCE0P4HiVuYWFhkA/nAk9d6oGS9IkRERGQCeXJhaAMHA0PD4erw64LqUltsxK8853uQvQkFNKdfIKvBebQAmQum9tZx/RTB7L38i5fgPi/u+sI0RrNuP875vuNG/39/dj/3dH/yfmLSPW6jBODf3E40KOM1yt06mNFJet2WRCjUbJ6HFdA0Mh5VsZjJd17whEoqUQXJvkSjrtgHXYn7TOeBl0nuA+2Gg+fEi1+wlwzqb+7Gyb1psXPWn8XrEitFf3fh3p7Bvr6u7s6Oq8XFd6sfeZm+O6CUTDKR0dHA44B3OHh4ZGRkeR9AMuA0Y8XITIR6KMgR4sbQDw6OhqM4wB0KBAbGwujvrGxsVCPtJLZ5kzLd7prQTCAYd/ma4Gba4HR0VGHwwHrbcHwLNQ3JG7Dw8MgjIgbBHyWBiki6J8V37Va/akzpyF+5KT/u4TviDVgImsSjhYWr00yIYN6ku+CeGg6vhOgy92VB8R/V/l+edRxR/IdaA6fW7ZsCQkJITo1IT643MBK7UBbUOejo6PhNUAqgV0I4hgdHQ2e6VCYvCpo9R9kmvizpbm0vHe+Q88h+tTo6Ojt8ojzXefPuQVcXGxt4kb+YVjzGhzeBwbwREdYZYme30TUDvJwEsp719/Vajy/qayiHOwzE/EJJvV3zHHOIGMwxJE6/sj1ojWJRqRXKRjsMCPjNQTcNyMQFd6tMJX70+jvE8q7Z+MMhB67Bfq7W6O8S5AyOnANGtff71S+g9lky5YtGya2oKCgkJCQiIgIMMuEh4fHxMRERkYuW7ZsxYoVUVFRMTExW7duhU9ilomJiQE5JiYGXgxbt27duHFjUFAQnBIZGRkbGwvFoqOjY2NjoVisuEVGRs4X5b3znVaRIGJ7T08PrH16cwqc7+zvdAs4HI6RkRGIEQ2LsUBzQNhIWMIJcogK39fXNzAwIDUSeuK72/jv4eGRL730yh8PHoDxVfCfwfGBHf0fnU9DqtcRaxD5rpMxBhylXRN/uKCQ5jvi1Jj7nJZOMl43XZqdMQd7Z04mj3wnZJ+w20x6xLuZ8eTBF54eU3UnwwCppzlQ7m07dD20zccT35tb2uj4BNJ7Sl7eUmGO8QmI/Z22zwCUg4ODg4KCQN3etGnThg0bAL6gg8fGxm7ZsuXJJ59cvHgxqOGbN2/esGFDSEjIli1bICc0NBRQDuEBoqKiwsLCVq9evXTp0jVr1kRGRm7dunXTpk0wBy8yMjJY3KKjo4ODg9evXx8TEwO/EqT6+GxzZsJ30qYQn4Ds+gRfC8ytBdx2YDDUQIWkABFggV9pbAxSgHwT0N/d8j0qKubf/u0/3v9gT1VNNcR/H49P4I7v2MNdE//NVP0d853VyVit2wTQd8f6afhOfgq4qPMi5e9ivtNwx/6XHvT3m11/db7s71FRUSEhIRs2bNiyZUuMuIWFhQUFBW3evDk2NhZGXKOjo9euXbty5crVq1evX79+y5YtK1asWLx48cqVK9etWxcYGBgSEhIYGLhs2bJNmzatWrXqmWeeCQoKWrdu3cqVKxcvXvz0008HBgYGBwcvX7588eLFa9asCQ4OBmH16tVQ1caNG4ltZ7ZAdynvne+kz4AwNDSElZ2xMZd8366vBW6mBQi1yaNF4keSagcHB13iE8Ahcgop6cU+Ex0d+7Of/Y2eMdTU1dbU1XZ0dfb19XV3d7vq76wBr6XH6pA2gfDdDwd5N8jG+a4TKe/6iV1oJImwe+YCTfkJ3Xx6ynua5eTFEd7FP9IFx+Kut/FVT/YZT/l3Ad9DQ0M3btwYGhoKppWIiIjN4gYjorGxsWFhYYsXL166dOljjz22evXqjRs3rlq1KjAwcNWqVUFBQatXr162bFmguK1YsWLJkiXLli1bsmTJunXr1q5dGxgYuH79+pUrVz7zzDNPP/304sWLly9fHhgYuGTJktDQ0EWLFj3zzDNLly5dvXo1MfW48Hq2u9PynRg6nU7n0NBQb28v6Y2kR/kEXwvMtgUIl8kDRgZa6UOkWrvdTvgOmVCMFCYlvfA9PDwyPDzy+RdfqK2vq66t6ejCS4mB/wzYZ2SMAdvZGb0CBEp/nwnf3UIfZ2KTziT6ZwX6afkuxpX06v9+y+zvnvxnXPg+WewO19+BnuvFDSwkmzZtWrduHeTDwOm6desWL14MZZYvX/7MM8+sWrUqLCzsmWee2bx58/r16x977LGgoKDY2NhFixYtX7587dq1Dz/8cEhIyJo1a9atW7dhw4bVq1c/88wzS5YsWbly5fr169euXbtixYpt27Y99dRTy5Yte/rpp8G2QxuOZot1Un5avpNuMzY2Bvo7yfEJvhaYcwsA1gmdh4aGGhsbr4hbTU0NHUcMLuFwOGZlf3e7flN0dGxkZPT//c1zTS3NYJ/p6emh7e+E73KDHoNetL+vtgpIl0D4rmBc1XaPWMeWHJxouOOlVmfseyPjxYlR08WimTDEe/CMvDv5Tp4N788Y6ujoAPtMdXV1eXl5YWHhTOIDE/s7QSGBeHh4eHBwMIywrl+/fs2aNWCuAfs72MojIyNjYmLA8BIcHBwWFgZGlaCgoGXLloWGhsbGxq5bt27Tpk2bN28ODAyE3wFgo4ffBxs2bFi1ahV46YAxMSQkBH4KhIaGunyrOe/OnO+gv4N9BkLQ0DG4yc0Awe0uOQuWSCVl4AcB+UlOanAp4P02+47eXS1Abi6A/saNG6mpqefPnz9x4sS5c+du3Ljh8jPR0/oe0v/ai/4eFYE7ym9eeL6+sQH4Dv4zow77ngsXUNwrMobFK+0xWhyHXc8oEl48UtgSbN2F9K/761VyQVTDDWrEaCCBFV7BaOUGjdygwWvssRp66HVcZjRu7fVyToentkqS2xeA66ArnhkrJhOJVYAFUd8fH2iV8zyekSsIJEGOm9FXce1W8Igns58Qb6R95GHUlLbhKHiL2+THWAK4RCVnlXMWuTERIh+Mxz9QM19dyhgesvf09vX22TpvdBUU5t+s/d3t+k3e19cmfKfVZPA6j4qKgqNhYWFbtmyBIVbwnwG3FuI0Sc+BgnrWr18P+j7xcI+MjIRDtMklJiYGhl4B3OCWA8OwxPIOPxfmTHZSc0hICMuy0n7ikkP0d9IznU5nd3f3tWvXrl69WltbS89VgTJ0FyXLXoMjM6kEBBI9Ck6BzIGBgdbWVpeVOV2+lW/3Lm0BlwegoqLiq6++Ki4urq6u3rdvX0lJCa09OJ1OT3wn9ZB2mBXfe7B5ppfwHRkYGWOY5Dub8Oy7H99nwLFlFDo19pLUafw4Vm7Q0kmh1+Jk0Cj0WqVBJ00i5bEW7wJuJYt/JYgJW/yVLEOSnMWRDCApONZD4pW8oOQFoLb0U+S4ES8nOzVh7JLEJsrdpJ1ydjIhfufsksmCjGZksiCTFceMFMwK3qLkLPgNMcH37h7b/PO9oqKiqKgI1tf2vr6HW74TB3ZgMbjNwMwmwCUwl558BL4u4NEYFRW1adMmEpMSEA8OkfBKIJ7yxCEH3hCkcjJzir7EzSB+5vq7C98BxNXV1enp6fX19fn5+ZWVlYB4gnX4lU38IuiuCDJxdwPouwSAbWtrKy4uttlsJG4l6cM+4a5uAfpJGBkZ6ejoyMnJycjIyBe3nJycq1evtrW1wf8Ij9Pt57tCL4YPS9iBWIx1hU6DeP0CnQ7p1Tgggdtk0OB3gySRl8EEzYHpOsQZ3CSewZn8RMLhgicSz6DxxOFluPFK3KKqbhLQlGRCJpwmtG9XYbKwkUd0wpWI55rNeBlYkE0mWqOnZU/1L+ASlQazkrMoBSviTIijVom6FXyfL/8ZqVcigB4+aU2fVq4Ji0HxB+IDymkFnyjURKOHFwDsQuXkC9D1/wn5XlVVVVBQ4HQ6CwoKMjMza2pqcnJyWlpaHA5HdXX19evXW1paurq6cnNzq6ur6+vrYWJLWVnZ0NBQh7g6Wn19fUZGRklJyfDwcFtbW0ZGRltbW3Nzc1FRUUpKSnp6+uDgII2Du5prvi9PtwDRA5qamkpKSmw2W2ZmZnZ2ts1my87OrqyspOeszpbvbv0joafQ9pkeW29PT8+ow/5BygXZjpfFeO56bHthtQo9I9NrkAFj3V+V4M/okCFBpklAzKR9hhhqxs01erVMTGCuIZ8uxSZ3J/3op9ro4eVBDcnSFvzJHwF4sVZCfIkA6IdP+mUg8MhoGk9Yr8f69XjiTYg3UbsWxJnHEx0pzCWT7BKBNWKsk2qNFrnRKo6y3gL9ndjfa2pqysvLi4qKZmV/90RtQmGCV2JmITkE0GTyKjkLgg3Ai8HFnkNOBwFQDpo7keFV4VJyDrtz099Jz6yqqjp27Fh2dnZOTk5DQ0NTU1NGRkZWVlZxcXFWVlZpaWlnZ+e1a9cyMjI6Ozvz8vJqamrq6uqOHTtWV1dXW1ubnZ1dVFTU1NR07dq1hoaG9PT03Nzc9vb2a9eu1dfX5+bmZmRkuKy6SQPCJ9+lLUBGYuDN3djYWFtb29raWlBQkJWV1d3dXVRURH4Owv94m/iuN8gNehz1l9Fg/Z3TfJ9n72H032N13zMyCpPmXovBn1Pfz+px4rQu6fuc1n0SdN93TYbvC4b7eG/pfoGBdJ+RmZIE7n4j/33TZLrfyEP6C5PwFyYjSfeZja7JZL7PZP6+0fR9o0Wa7jNZqZR0n2lKut+8ExLJv9+8k8i08H1h519Y37zXtFPOTawcIqIfm+DvZP3dE0AB00TRJq8EqdJNFHC3VZGwYoT7oOa7aOukfreVzCpzbnyHLjc6OlpdXX3x4sWOjo7+/v7u7u6ysrLCwsLMzMz6+vqmpqacnJy6urq2tra8vLyqqqra2lo4WlBQkJube/369atXr1ZUVDidzubm5sLCwosXL/b29jY3N+fm5jqdztbW1qysLOy+Jnrc+7T4u5Tmbr82uadjY2OgGfT396ekpJw/f35wcLCsrKykpIS+47Plu1v/Gen4KujvY/Zx/V2mw3zHajujkesMSo1q1a53wj76bPOnv9vw/gdBe/Zs+uijze/tCd7zAaTN739Ap40ffOA2bX7/g5A9H0rTpg8+nEgfb/pgPG3+8BOSNn30CZ02fvQJpOCPPw3++NONn/xuPH302UYqBX/8O0ibP/id27Tpk88gkZIuAtQ2kfl5yIeuCaqV5kNO8Kf713+67/E3P7yXS1SwMPfVIjMn3RK+t7e3Nzc319fXV1dXA4Byc3OvXr367bff/upXv1q3bp0LPYGPbu3vnsAaHh5OH6IrJLKLIIKTprQAACAASURBVA1QQ3MZ7O90neTlQYrNS4iCOfMd+l5FRUV+fj6Y3evr69PT07Oyss6dO1dQUFBZWZmSkpKVlVVeXp6RkXHp0qXu7u7U1NQLFy709/cfP348Ly+vt7c3KyurpKQkIyOjpqbm6tWr7e3tDocjIyMD7DOXLl3q6+ujR27dwsKXeXe1ADw8ZPSltrY2MzOztLQ0Nzc3JyenrKzs/PnzFRUV8DORjM309/eTH47k/6XfAZA5k/HVuob6cf9I0T4zZrfvOZ8i2/GyC98Ro5Lr1dgmo45TqBMWaNRy9Y4FmgSkTUC6OJz08TLdZBrPhEP0pz4OQTLEo8mkQropCWw79Cf+JeEmiVYj0Yg0PgxAW3JYMfglmG6I4Z4WeA4xRrdJxpqmJrOMxWnSSkMsMGCuIbsugoHF9h/BiHiTzGSVmbBxRnSKvwX6e1tbW1NTU11dXWVlZUlJSUFBQXZ2dkZGxokTJ2bLd3q0k3AWBMA3qOcE5cQ+A2o4MB2O0oq5i4EeKiRwh5IQXZK+lssXmNvu3PhOOhVMD4FeZ7fba2pqqqqq2tvb+/r6GhsbKyoqurq6Ojs7S0tLGxsbR0dHOzo6bty4MTY21t7e3t3d7XQ64WhdXd3IyEh3d/fAwIDT6ezq6qqqqiopKWlvb4fKyRVJx/YJd28LwN2Ez5GRkeHh4Spxa2pqqq+vr6ysrKmpgfc6eQfMr/4+Q77j0VRxhSZkUMv04hArHkHFeJXpcSIDpwBl7ELjJYluNrR3zZSRWGwXEqfIMgbiOYNnzDIGHNdM5DXJJ4KC4xWcx7AzEx41RoVgUggmOW+ENDnTdWrQMRg7pUdNJ0ZT3cefkXNmt0nJmxQcvhY4U8L8plvF9/b2duL/Dvo7uPRNq7+HiRvo5gDuP5tP8msgLCxs8+bN3tfnI2wdHh4m1hK3cIFYUeDuAvGh4FyIBEvqIQIo5hBDimSCcRa8bsgsGHLU7XV9mXdvC8DtBspD0ODh4WEyGYL8Xw6Ho6+vDx4DLw8DWd9j48aNxBZKd9vw8HB6fNVms4njqwMfJqfJX30N6XVIr5NjJxkd0mmRTis36L+nMSB1AuK1AWo1dmXR6ZEBz3HFq2kzBjwAq9P6aXVIr5HrNIjTKfVaHGAgPh7xjFynk+l1Mq1WodfL9Dq5QYvfE4xOrlX748rHE3GRFOfNitErRbID34HmIOPAZ6LfJBBf/ORk3GSS85O4n+S4UaCpLZWlvu0Tfu44PgE+ypmReRdizPfwSQregl1rcMAysz9rxU6QJgx6vPyeOVGO/SB3IdNuxFuRUfSPFJV3xFqxfUbF7LuUMeoYEGeW9XTe6CkovH5T8d/b29tbW1sbGhro+U0ztM+EUtsWMToYlXFXiuS/2CJumzdv3rhx48z5Dt6KzlluXjqkJ99H76fM8vq+4ndBC3i/48B34L6XksD3f/qnf1q3bl1oaOiWiT4LTzvsPvf8b8j8Jjd8N2gm+c5pMbI1cXhZVJ0Ka+4aFdJpFhh0SBuPdCqlOiFAr0Wa+ABW768VLTm8Rq5VIU28P6dHDC6AxMlNSJsg06sVjBh4ktEgnQZjeoLvcoMWyO6W74TsU3AvavRu+e4e8aKqLtXQZcI4qcU1+aTxIEW+YweYRGxjET8RZ5QbrX6sWWl5A+nN/oxFyVn99eYALhGZLcho8eMTFazFj7cqOYsfPsWMVXhBtL9P8L27t8dmc893L/dX+hzj+JHAd+I/M63/O21sgSU15veTViho2dNV6DK07Km8p3xYMwR+kUCZ0NDQTZs2eeK7S0MPDQ319PS4ZLq0OGjcdCZdHo6STwJ3lzIkH+qhy9M1++S7tAXIDQVh2v9iZGQE4s9I7e8u5wLff/7znwcFBcETTp758PBwiPn6mxeeb2hqrK2v6+jq7O3t7e7uHnVQ+rtBI9Nqx/V3jQrbZ1gt0muRSiXT65A6wZ/RK/UapE1QGA1ybKhRI0GLDHHYWM+okGa7EjtQJuAyOGo8pr9Mp5KxWsQkIFaFNDsUei1eCorV03yXG/QkEUONC9mn7GK+T6rtLrIbxN8M33mLnzFJwZoVpkRkNMmMiXh6qsGKGKPcshOz22hBrNFfSESCyZ+zyCwWxAsKkwWx/LgL/FS+j9j7ab7Pw/xVor/PcH6T1JwNPi3z8imtHHI8VT7b8p7qIaZ/UiAiImLLli3e+U7g63A4vNtnXDqbb9fXAvPVAp7s7y71A99/+ctfBgcH0087jJxBzvMvvtDQ1EjiE0yxz+i0SK+WabUY5TrtgoTxXaTT32Pg5Rq9TCOq5DpVgFaLEuKQLmHcLq9Ti4aaBD9Oj/HNaPA0KG0C0opaP6NH2gR/3qBktH4G/JsAe2FiO8/EfCjR+I6mfk6hOWWuIfmIZV2w7rJLKI8NNRTfqcADeOoTWFrARCP5hPjviYgz+wlmxAlIMOGQA4wVGZMCeDNieYUlCXG8ctcbiBcQJ/hzAuKwW73caJWxJtFF0oojR4q+kkjFfHXxyjzzndjfwf99Wv3dhaegMrtk3swurYPT8rR10oXJAOy0Z3kpAOOrnvgOnYfwHeK/k12XriXdJdoZra+ROkkm0dZJjidBeglfzt3YAjO5v1CG/Hez4vsvfvELl/lNpLNEREQ89/xv6hrqq2trYH0PMT7BhP4u8l2uwXwXjeYMNqwb1EijQRpslFcadNgBhscWeRj5RFqNUqVZoNbJNVpk1Cvi4rDhnsGmeT+GwSOoBrxwK3a7TFDJtTjIAeK0CkaHrfkGDVj88edUuJNd0cSPh14lSj0OlSNnParwMo6bGF/lge8Tg6XG2fJdYX4TMUaZCfNdwVtFuFuRxYQsFsQKyJToxycivVHBWxdgW43Fn026R9it0Fv8+J2IMeFTcPB37At/a/lOxlezsrK8xyfwwsTbfwjU7Vtx3Zn4zwDQIT5Bb2/v4OCgw8NGVt6B9TPJcppkRU1pAbKOEX2Ki0zKeLisL/suawH6wYCb65Lj8gCA8d1msxH7jCclg4yvuvV/B7cCb+OrU/mOOBZtf03x6gsB8a8jQwJ6/XUMd80ryt/+VqFLQNtfUb76Cop7FZtldryCtHHyHa8t2LHd77VX0WsvI12c3yuvKF99TaZJWPDyK7JXX8bvBq0Kx/8STfbYLq8XR18nPmn7DOE7LRDNHeKg0Z+edHmCeE9wp/X3iTFV2goP9vckrNebBMQb72ET8YiryeSn1cgTtArOiDSs0rQbWd5Axl1yYScCh3djEuIsyLIbGZOQYJVzOFzBLec76O/Tzl8lavKtQOoc6vxT8Z2QHdSokZERl5UzyZqZINhsNlog62p6P8ulEt/ud7YF4IEhn6Qd4PmhI1W4aPdEzSd8d9HfodPR9hmy/qqrfUanxpq4Tout8HHb17y1mzl77q/eeSNA9eL/+f1B/+2/3ZhkYY+dDTGb//6d9+KOnPybzz9da+T+6p13lnG6v3/nf1bvFOKTz770xdeKHb/+9TdH1PuPPcqqhJOn/uvwwfviXlMyWqTG9h+subNqF76LDjbYCk8zXSIzNNZpGbGslPLzw3fOsgDb1nkkmP31VmRORIz2b9/7WHPkXMzHn8S++zvF6/HYoUiDl6hFBgbH6tFq5EYzYnhc2JSo4K1+oMW7s8+4+M94enmTu0wLcxxfhUdhDiy+PafAG2jO1yL/3Uz0d6I0gSEFVs4E/0XpJ3F3gx4IDg9QDPwgpadDvrSq0dFR+pD0RLen+DLvohag76+Xrw23Hno1/TTS/Rxkwvdp9Xewz/T2QvwZyj5D8d3vpZcSjn57Ivf64ZxrP3v/jbwW+0+sSbtTLn6ek/2Pb1mPV1ft+uao7syxN8+cTi2qNCef/Czr6tc515gvv/r00uVXD311ODd/b3rG2+mXjmRfefdssj75/Peffwnjm9EjvW6Bxg3fAfESptPE98h3HNl4qkWewF0UsFkGkot/pJiJPdw96++WBaxJNL5b/fRJyGwJ0GtPl7W+f+78vx/6w+ma1l9+/sVqXhDOZsZ8/Mnfv/fxv3++/6fvfRrxyR/u0/H+2F3Sgh0lxfrd2mduiu+tra1kflNpaWlBQUFOTk5mZqb3+U1zRufddaJ3vrt9kbrNJD3NbaRfeDGQMqQr0vkuGhm5ikt/dinmUifZJacTgb4oKeYTZtcCo6PO0VHn2KhzbGTM6RxzOvH8o1u/XCO+0NgoXGfyefBwXS/zV6Fv0vaZifjvAx+dvah45VWkwWZ3pVov0+qxlv3yC/HfnL5c0fazPUmnLudcqm3ck5Hxs3fffC/zkvHUsf/44sMTV69t/+Lzy3WNb6Wdv1xavSs15XhR+ROv/5rduy/xSlrq9aoLhVUv7N/79rljv060fFBconj1BcRq/RN0fmocSt5Ff5+0xYtu+OO7U9R5RoyA5h3xPGJ5GSdIE+E7TEoiQ6nusE5MNNg+o+R3IgM2zvgxFjm7E+3cqdRrXjl4dO+VrPeuZuzPzvs0N/fLwsKPzqR8WpB3oKgkrb7uamXzf+87hLRxyGQK4BKxYyVnwlccjz8z0N3b09vn3j9yVs8kgniE9fX1VVVVZWVl169fn0l8grsL03P+tt75Tjc0DVZahjKQQ2A62QknqiCHXASXXUJ8kj9RgdNtjksm2SUCOZ18T5cc3+7MW2DE6Rx2jg2NjY44naKM2e4BszOvdUYl4XchKUoeMOmNni3fwT5D812h0gHfFa+8+n++Pv7/vvPBD1/+v59dubaNFxKT0+K/Tf78Sp7qywOq06e/Kaj828Qk7uz50ESj5sTJf/zwvX/cvftMUe1n2flBSRxz5ET8sWOvf7o3+XrVgeySGPNuhWoHdqM06JUqbMHAVqAJ4zsIbhDvju9eKO8J7oB7QLwL3z1o7oB40f4uWJA1EQmCnLP4cbuRXvgLA89cuPplbumOb0/9du/+HSdOxv3xyP6csue+2Lfjm+P/+NVea3bho3oWmQVktMgZPD1KaRaN+PPOd3r+6szXb5ozMe+uE6flu7T/QB+jEU/KjI2NEf3dCcqd0w2XSS91K5DagPX0hdyWn20mXf9sz/2Olx8WaT6uSAPax5zDjpFb3iyjY+NvkvFrT15QejfnxvcPk9OI/q5Q6UCRxyq8Kh6p4xGvkm9/FcW9qlDt8HvllUd0ev+Xfxug2fHDuDi/+Nfkca8g3Xb59pflCXEoYftD8eLsJ9V2v4R4HLsmYbtcn4B2vC5LiBOdJjV+Wl2AVo+HW8Upsu4Qb0D6qckwrrkD2cknbX8H2TvfZRxWw6V894x4zHd/w8572MQA3oyDhbFWlPQGMpkWqNQ/ZBORgVXoOGRg/Q3CA0wiMnAyhkcMc4+Kxd6TZgsyGLF3jSkRMQIeXxX5PuTA/u/zo79L5zdNO756dzH6Zr7tDPlOQ9ZFVSddjfS0sbExOnI3KTBDgb7WTE4h15UWJlXRZWhZeoovx0sLjImYxQVGx5wjo6C63w79feJd4hybVBdAhZfeTeC72/FV6Clgn6mtr2vvuNEjbjC/SSbaZ5BGA3xHGp1/ggZpdQqVTqE1YOd3tQ6xOqRS46QVXRvj4v3UWuw9qVItUOsUapVSpZIlxCNdAnZ/VO8IiMOBDZBai4msViGdGi/ratBg33k9HsUliaa8K9wJ691RXoJ498YZ2lwDUWiIuYYI7gw1mO8yfpecMctZPGUJT2RlLNifnTcpOavMmKjUm7BHDYvtMIg3Y21d2CVnRMWfNd2DPWpMyGQdX6jPx/eb4fVsz50h3+k+7xIbhDAU1G2XH850J3QpSUwxRE8nV4FOCwNukEl3Y7oeci5dgJzikumySy7nE2baAmPOUefYMDbAjzido07nqGNsyI6FW7yN4TfK2IibC0nv6fzwXW3A3iB4LpIOqdULEhiUoEMqvXy7Sq5nMOg1WqTSyPWMn57FjNYbkBrbW+QqtVKHQ9PIVWocbECtQRr1ggQx36BDCTuwb4kq3t/ALEjAxeg0iXidQeYuEbVdKlCU52UML2fd2N8J4j3xnVjkKUEcHcX2mZ14kqqBUQqJAYZEP70VCdjxEbGmBaZdmOCwgofR6mdM8hd2IcaEjBalOUlmMCrMOxFnkWPHyin6e4+tex7iz9y4cWMO6zfNFpR3aXnvfCedB5AK8cVA5YHAHSC7BG4FpkPkP1LDrABAn0UW7SNvDlIVXYxkguD2kNtMlxN9u95aAAw0400sjrWOjmDm3+Jt1IlXAMCQHx2Fm0huJRHIV/Bun4mIiCDxCVz0d8XLr2FFG/R3ke94ilOCGtNcpUUa7QI9h+3marUiQS1Xqf3UWuxJ+drrSCOGNNBp5RrxNaAzIK0+QMMp43QyDYPUBhx8Biv+O/y1aqVKhZluwCEQsP3HHeKRVo+0einipViX5sgYzPdxxDMedHlxWikFcffhIcUCmO9YPTcIeA1VAccLk7FmBW9FpkQ5I1KeNSNjklzYOb4L66waLUgQkBGHCMZKvSnJj5nC966e7nnju0v8GZ99hryNvPOd9BnoRcPDw/39/eDTBqb2kZERh8MxMDBADDLl5eX79+8/dOgQLNZBanARaB2cdFpaoweXOJvNVlhY2NvbS06nTySZRCDvACLA94QCUhaQE33CjFpgBBtmBpxOB5R2jIpK/C230Aw7nfaR4RFA/NQBXek9nTPf5S+9KvJdJ0/QIhX25g5Q6VF8wj14N17BGFBcPNJhvmMoq9RYUKkVejxYKleJXvPquAUqlVKjQur4exJUSB2n1Gv88IxWNVLFy3U6hV6PNBqlTg9qPg6E4A7xwHdPlJfrGZc0lfLYAj4lSX1pxDjvM+c7npqEV+ewKlgLEiwyk1UuqucBvFHB8XKTUc7zfizvz4mLfZtEpmO+m2XmJMQa5cZEBW+BtZyI/d3HdwLhWyjMiu8Oh8Nms5EeRaDf19c3NDQEXT4jI+PKlSs2my01NTU3N3d0dHRwcBAGXcHeAo4QJJLw6OgoTGoFuAPWx8bGQG3v7u5OSUlpbm4mvB4eHnY4HCQsOPjIwzcZGRkZGhqCHPK+GR4ettvtcDr55jNima+QpAU6nM7zpSWfXDiTXFFccqO9savbQVgvKTyPGYPO0bKaquaOdkD8eM3iWKv0ns6K793d3T09PSP2/g+TL0n5jlXvHSqsoe/YofzNS3j+6suvy196Hb32uuzVHQq1Bhvf1Sr/BI1MLSatHqm1yjgNYhnFDjUyGJBWDd6W2Kav0iOdATEMisfBgXGEA5HvLojHoW9E/X3OfIdBTm+IB76DwyIO7uglYf3dnzEiwYJwhMidOBqw2SJnBSVWzK0KLknOJiq4JBwN2JyEhCQFJ74JeCsurDcrTbux7Z7Dq3Vj+4yG/epSxpCjH/je0d59s/GBffYZL++HWfF9aGhIGl8MgtIQnmZmZl66dMlut588eTIzM7O2tvbkyZPp6ekdHR35+fkHDhw4ffp0SkrKkSNH0tLSHA5HeXn5yZMn09LSuru7s7OzT5w4cfTo0YsXL37zzTcXL17s6ur68ssvjx07dujQobq6OpvNduXKlVOnThUWFvb19R08ePDIkSP9/f1jY2Otra3Hjx8/efLkt99+e/ny5a+++qq1tbWrqyslJeXMmTMlJSU+xN88cG/0DL58cn95S09uS9eh4lLrhXMNLX0Op/NqTWNydWm/Y6ipu6ff7qyy2XscIy39ncNOR0V799nC0tLOVpvTmVfdUnejf8jpuNTaWN56o2XAkVFbW9zY0jc41mazNwzY+/od7f2DaTUVmVXVQ6PO/PaWnJ72hhudX+QXvpWWUt7R5RwjPx2cwx7+H+98j4yMfP7FF0h8YJjfNDw08MGZVNlvX0EqPIiqiNeD/o5e1xhOnEgru55WUnquouxSdUVKYcnFsuJL5SU79v0Rbd+OtBxSG+SqBBw3mFBeZP34MKw4GCt6W4rTOzXYM4ckyPf+6Yn1Ljo7MnB0mgJ30RwvZwWSyCJNLo40U3dhxSVxfFWY/ITFOrx/ikt5TJ5C7WK+f3nxypBjsAsHkOztvNFVUJjvMr/Jw411n43nr/rs754QPyu+g/7u0szDw8N9fX0OhwM0qfT09Pfee+/dd9+9dOlSTU3NH//4Rwj1c+HChXPnzlVXV2dkZKSlpXV2dmZmZqanpx8/fjwzM/Pw4cMQkb++vj4vLy85Obm7u/vcuXPFxcVHjhxpaGhoaWlJS0s7ceJEcnJyXl7el19+mZeX9/XXX7e1tcH3KS4uTk5OHhgY+Pzzz3t6evLy8jIyMo4fP56SknLt2rXf/e53drsdvqFU43P5j3y7nlpgeNh5vLSUSz19pbT+YEHpqxdP/j4jc1/x9TfS0g9eL/6fy6l78659lV343DcHz5dXpzfUDfQPv5+WwV+8uD8/71xxxZ5LObsvXjlUVmA6c+pUWfUfcwsSz5/dX1JyuKTszbRUISX5m/KypJRzn+fnf5aV+1F+/s7z5/6QlfNFft7blzN2p12o7LI5R52OsSE8tDsyOija/aV3cz75/sJvL1aV4xFl/At0tLazzznqHHYOjTmdR4sq0HMvoDi9XMNghxmtCmMatHi1hoY7limmg+yd6fRRj3zX40gAE2kK3N3o71MRT/gO8R2xci2q8C58n1hUbwqpvZMdjlJAn3Iu6O8+vnui8Tzkk0B6UJd3voMthXQhu92Og+2Njo+nQT7o72CfGR0dzcnJuXr1amFhYUZGRmFh4dGjR2HOcHl5+eXLl5ubm8vKyrKzsx0OR15e3tmzZ0+cOFFaWgoLcJ85c6a9vb28vDw9Pd3pdKamppaWlh4+fLizs3N4eDglJeXLL7+8ePEivANKSkqSk5MHBwdhEaji4uKrV6+OjY0dPnzY4XDU1tZeuXLliy++gDW+L1++TMIbeIKXL3/aFmjsc3xeeC2nuvmFU4eOFZScrqn/w7Vc5tyJj69dP1/TbLqS+m5G5v8+fsh6OX3HN4f6R/5/9r4DOoojW3sk7H1+xoY1CziAscEmCSVEEgoTFLD9/re77z0HUCR4be/a2GtyEspCIidJRHud1xGbIKRRzjmHUc45zyjOTE93/edWjVqtCQJhYbxr9bmnp7q6urq6p/ur29+9dQtV9g9fTMv5vKj6m8yCC0mp++MSDkRG/1hQFJqbdyk+7YeK2qDEpE/Kys+lpO++cX1ftPhEXPyljKxISX1YRYNHpPjLwtKk0oZrReUfF0vOJyVJmjswpNMMrUC0Uo41ePbhZBv/s/Hdm+jvBoc8H3l/X3RxGbYxoK8zswzef/+HfAnepH/IzJ/23vaHPXx5+w6CS4zHIeDuD+oWg0OeGmLo4WXoARo9F8p1psfiu6+Bp1p4Xr4gY9V27uY4Krw2vhOI14fvXEznYjc3n5vmlhmbntLfJwHDx6tiQvjOvjMslA8NDRELJ/teURQ1NDSkVCpJZ5CdnV1cXCyXy9PT03Nzc/Py8iIjIxMTEysqKrKzswm+5+fnKxQKMpNyRkZGbGxsREREbW1tcnJyV1dXbW1tZmYmTdOZmZmVlZVffPFFZGTktWvXJBJJY2NjXFxcTExMUlJSfX19UlISaQ9CqLq6OicnByEUGRmpUCjq6uoIO3Tr1q2EhITExEQuZc9e11RiQnegk6ZvFeSdSohMqKip7+gva+0q7urJbWz6LiPrnxnpzdKB0o6e6yUlVe2yH6qKGYQ6Bof9k6I+jL4RV1sjaeu6mp39aUlBTkvjd4V58SVl2S2tX6SmFPf05jW1JtfVZzS3ZLQ01QwN/TMj/dOstNy29uqmrm6Kia2vDo2OuZZf0DWsAPWZxvo7YDwwNOxzyF4Iwfdx/N/H42eIE+Q+T+wNeZi3Y2dMhYQC3x1VcmMzb9eBjJYeFUMxiPo+r4D3wXu8g54Gnt68A/sMDnngXuFu8Z3APavX60R2NpMD8T68wz46IF4P1mtAPHGqAddJzXm01dNq68f3UYKe6yM/LnE/eghbbEp/Hw+a78e+8fV3VlUnLw+ZvwlPnNhPiEupVNrb29vX18fy70NDQ3K5HCEkx4tCoWhsbOzq6iJTsJI1GxIWIURRVH19fW9vL8lECJFJOImJlWGY4eHh1tbWtrY28onQ29tbV1cnl8spihoeHmZZddZIS5xtiFmVoqju7u6Ghgauiw4LBFOJid4BCiGwpCuYAYSD0CBED9H9CKFhVT/QJoiiaAX2pgHYVShb+nrSK8sb+/vlDKOgmUGEhikGKVR9iFFS9JCSgo8vBlFDcCyjoAeRCtFoWK6UA3BDqBsgYVR0H42kKhUh3LHjPQP+9+yJxl7GZOL7rh0xVRIlfK8qEyqreO/vSCyvR0hJI9V3ufm897fz9nsA+O7bD440+714Bzx0qvAayju7yeL73ZA2GOUB37kQb+CJtXiC79rqvFcAzyvAwPuIpkwSvnOxnptmAV0jMYXv9wPDx6tzfHxnXxwW6AlQEu8X1hOGu5ccwvViZDUsjQQ5inQMZBeZWJmtgfWgJydilTXu/MvcXWyarYEkSHlSG6vFk11T6wndARp8FCH0DCMHDhr+NRUgLTF7gtPkMIxwVWGfeArGQqF+WjVAA2ojGg0hBsqAUyUUg6hhoBkDfFJ4m6YgbBmFkJKCTAWiFQTGifc7OGfSFD4KKsRtYR8q9kLulZ9JNvxgh3oQ04j+Pu1vH8RWluILpKNKim0uX0quqkMUNPZaVgHwMwd9eHsPwSCmgwcND2B8P+ChD+UJ9LPgjgdJjdpaWaw3OKyXt9EGd6LLq7kabS0e4ztPC+UNfdQKu4Yir19/x6Oc/NW+8GMpFw2GffzNKX5mPDSetH0Tig/MAitJaLxRGptEAWdfNpbMYRVttjPgVssOVSW1cbsHUp57FFs5q5Vr7NWXT8BdozBb21Tibu6AHDFwA2maApinYSArBBtTDSIVw6BBjPWg3SsBBJGcjHIF3ZxAPAxDJafBQ2GHVFjrxwVVEJYSo3FBjwAAIABJREFUqZQUUqoPJD0HkmOve4B4MoYVysFzgs1A2o/fPeA7rRi6HJVs+P4u3n5vwwNeD+3z5O335h3weOSDD+Ory3Hvo0QMGqIgOYzkFEI3S2oM3v3AYL/3tIPeBvsOQFT3Q3DIqNw1F89FfJIGv0wsBh4+Y2SEfGcpGh34ztXi9eO7TojXh+9cQL87nl0fyk/h+6RhuI6KWFhnE+Pr71yc1QB3jV3qdxbnEtaFmD01IINgqwaIs68oq7Br1KZRCXs4W4wtwK2fpMma7UvYTfaQqcQE7gCtVtUBoxlQuknk3mGkRCrsjq4EtXoYVFxgylUIdgASAxbTFORj3GdUiFZBHwEOMcCnq8BHBcIOU4gegkNwiBugaKAqtSvkiBaP90Fh9m/lXsI947vB9p1qfN/rTfCd977Hvu9/ul2Sfz2v4HpeQURh0c384u+LcsWFuX//7Cvejh28g768A54G+w7A+Kb9HHDXRdSosZuD+9rIfv/wXZuo0QfxI6SKbm3914jvGuNX7zj/6kt8EZ/PXyuyNbdav87aRiR0XGfNX23DdxQIrPiCldZW1iKRUGDrIBSss7Fc62hnw7e14tta2livW28pEAnthCI7vkBoY7tWYMO3E/GFAiFfIBIIYS0SCURCWAsgzefzyfzuNjY2QqFwPV6ICdTKyopM22RtbS0UCteuXWtpacnn862trUlhDUspF84FAoGVldXatWttbW2trKzs7OxsbGysra2t8GJnZ2dtbb1mzRqyd+XKlb6+vuRV4UInwWqsbVE46AgoZOoXj/s+TaWn7sD9vgPQlyDEUJjoUQ+pUqe1Tn1HfGfjv5P4BFKplBoeuhwdy3t/N/Az+w89vNeft++QwX48ImnHHt57O6dt3wnov/1D3ge7sezg7dwzbe8BCFSw/yBv/wHe/gMwvepBiFtAxODAQTaHTY/6TR44yDtwELzsOWJwyJsIdsNXp9lMSIyo84aHfVnBKjzEq9EY1Gro5UOYGW1+hqXjtSAeYg8Y+AYZ+h1lhed/9BFvH8Og49N9TvL8gnhHjk7zO/KI/wmeVxB0b4d8DQ55P3TIB48Y8IXBTf6neD5Hpx05xYNwY0d5fgGGMKI1SB1f7KDPP5PSlEP9Uqm0r0/a1dE7CeObJorvQqHQxtHhWXPjJ42WmNrYGK1e89SSJU8bG1lYWhpZWj65fPnilSutrG1FAqHZmjXPmZisWLXmxdWrnjYznmu0zGj1GvPV64xXr11hbWW+drWNUACALgDQFwkwsouEAoHADi+mpqbr1q1bjRcLC4slS5YsWLBg1apVa9asmT9/Pp/PNzY2Xrx4sbm5+dKlS83MzFatWrV06VIjIyNra2tWB+ciO0mLRKKlS5cuXrx43bp1xnhZunTp2rVrn3/+eSMjo1WrVr344ovLly9ft27dkiVL5s+fv3v3bm5cX/LKwEBQksJKGnw7g3JGk3dN67Waypi6A/ftDgA7Ah8Mw4iYbxEYZsEEgG0AY087mfi+z8twn/dD+zwN93ny9kHQAsMDXgZ7vXj7Dhvs9wTC/aAXdAlc2X+Yt//wmBwWwUdYl1FMh2m7OXIYB4Un67FxaTTC1Ght+vM8OeLlz/Pyhxk5YIJvjvj5woyyrPj78VjxC4DpmYj4H+EFaMhxEkaGd+Lko15HeUH+Bvv2PX3iqNOXn+8NF3uER+0Nj3L6+nuL4Au8/ft4fj6/O3YKZubzO/6I/wmYpc/fHyyrfur5tQm+98oeHL5vEDlaWds+b7T8RXNzI4vVRmYWq2z5KwWCZ02MF1munbFkyXxT8/V8kcjOwWKd1bzlxstWrVlkbLrKmr9WaLfIfOVCM/OV1rbGq9cZmZtaC/giezvQ6DG+wwy/IgBhW1vbl19+2cjI6MUXX3zuuedMTEyef/55or+vWLHCyMho4cKF5ubmzz777OLFi01MTBYtWmRmZmZpabls2bLly5fb2NiMg+98Pp/UaWNjw+fz//CHP1hYWNjY2MybN2/ZsmUrV65cuHChmZmZlZXVggUL5s+fv3PnTpYkYV8WnKNExDiGwZ2mKVolh2/uqWXqDvyCdwB4HCD9MVWjolU0Jvqx9qH93P58fH9ojx/W370f3uc7bY83b48nb58XEOIHfAz3ef9ur89De70N93kb7AWsB9nvTcRwH+QTmbbfhxW2gEbC8ICPtvAgViWIwUFfDTE85MeKgYcfK4aH/TVkmmeAoVeAweFRMfQ8QoTndWSaVyARA+9AA++jhj7HtMXA55ih73EiBn5neAEnDI8c4/kc4fkEPO4X4ClOiKpvyu9oz2tvy2prye/qLmzpTqlrP59buDTIB75mjh6dFnjiYc9AXkAQLxDA/eGAU4DyWH+nhgcIvk9OfIKJ6u8CoZ2VUPiCmcmytWvNbWxeNDd/0cLi+VUrF5qZLbG0nLPcaKGZubXQ3sHxpXU2ghdMzVdZ85euWfvcypXPW1i8aLFqqcXqFy1WzTMzNVtlAXSNnR2wMQJQ2wktQ6DZzs5uxYoVZmZmS5cuNTExMTIyMjY2NjMzW758uamp6YoVK+bNm7d48eLly5ebmZmx+L5kyZJFixatXr1aW23n5ixcuHD58uWWlparVq1auHChkZHRmjVrXnjhhfXr19vY2LB7n3/++aeeemrPnj3kbcWcDKxGXl5sTmOQHAeEBZ847AihZmoIXzO1nroDv8AdwFP0DSMKHk4cxlKBPy85z6r6mSX4Po7/u05+5mpUPO+9XYSfYfGdt9fDYO9h3p4DvF37eHv28nbu5X24Z9rOAwY79/N27OPt3Mfbtd9g9wFWeLv2jwreSzbZAga7D0CE4VHxMNwzKrw9HkRGew62C8EJtvPQ6CcM9nsY7PcwPHCYyKiP5thOgncI0ymjHYO/gYe/4eEAbSEdA9slTPMM4PnCtH/TDnsv9D/6bV5tXpc0sb4qvL4uqro2qb4xoqI8taExtbw6s6k5qrlRFHwZFHkfv0cDgNIxCDoBgcl8jxF8/zo5/QHjO58vFDo4rly3brWtjfDl/7KwsllivnKJhYWVjfV6gcB0reXKtettbW3t7YS2Av5Kq/W2tgIroXCJhfliM1NrkchGKFpusXKJhbmVjbXI3o5l20F5x7S7UKim4FlK3crKirAxS5cutbGxsbKyWr9+vZmZmY2Nzdq1a9esWWNsbGxhYbF+/Xpzc3NTU1MrKyt7e3suoHPTAoGA9BOWlpampqbW1tYrV660tLRct26dvb29SCQyNjY2MTEhLLyFhcXBgwc1kF29ScPrRGgZUKEolZIBnwgGwRCPKZm6A7/QHSATi+AJRYYRGsYGVxhkoZ+fuSd83wPUyv7Danzf6/XQ7r3PHjlmcirY5NhZk2NnzU6cNztxfuVx9SbJND5+lhVSQHttevycyYlRMT15fkROm57UISanz9yNGJ85Q8TkTIi2mJ4NNT5/jismwefVcj7EBItxcAgRk5BQk5CLGmIcctEk9BLIhZCVwZeNgz9aEhxyrbi6qqcvvrkmrbkxobUjtbE1raktrqU5trUxo70ts6k5p70jvq3P4erHTxw/AZOB+AUa+h39HYD7rwbfHQX2drYiB4G9o9BBJLATCezsRQ52dg6OxHZq54AtqLb2AhuhkM+3EzkIBS8LhC8LhI5gLbURiQT2dpAmOE6Q185ODfQsyotEInt7ez6fT+yoIpHIwcGBrAUCgT1eSA0ODg5sJYS4J30GF9O5aXIucpSDgwOpjRQg1L+DgwP5qrDBdldiXx3R2dW/BNkx80nsq4SOp5GKgteNVfE1DpvanLoDk38H+hGSgy88HtYEnpQKmtCE+vT3devWcd8Iblpbf1cNDWH9HeP7Xg8W3/9j975n/QJNg86sPHLSPOCEacAJE/+TpgGnTI6cMg08bRp42uTIKeOAk8YBJ0mOyZETrJgGnmTFJOiktpgePaVPjI+eYsXk2GlWTI+f4YrJiTMjAp3HSJ/Bdh7njU+dZcXk9LlRORUMndapYOPTatHuHkzOhKw4G2J8LtT4XOjS0DOrzlxc5HfCNzqtRDaQ2FiR3FpfXNOW21Cf09yc3lCf2dSc2dCSUtOQXN+c2tha1i77uKRiQeAxnt8RCD/pewyIoACY0PVXwc9YiwQ2QoHQTkSEbyeyEQr4wJzzBbZ8UMEFdg5CAHGhkG8jFDnwhTZCgaW9wMYRshxFsF5vBx4y7INFQJwFWQcHB1tbWz6fb29vT9IE96FGPt/BwYGPF4Ljtra25HDC8BDQ51bOnoUkRCKRra2to6Ojra2tUAgEkY2NjZ0dtIosLFMkFAqtra39/PxYVYj7wqgILYMopMDGLESj4oLhM+eRdyCIT9CUTN2BX+IOHPRBH3+pkLaDf70Svh8VeBgU+9ByO5R74N914Pveg2BH3X8Yxwfez9uxx2DnXt7OPQY79/9uj8coCTNCyBAGhrd77xjZs4/HFbJ3TM4h3m6O7PXg6ZN9h8HAy5UxVlzsjaP2ycGB6WF2wEOEkBlde/jyPHx5h4G4h8iXrHj4c5l6kuZ5BoB4HQHx9+f5eD3u4x1dVJ/W3BhfIxHXVYvrmiPqK78szImsr0mtbUysaxA3NkQ2NCRW1iVXV6S19a49fgZYHb+gab4QMt4gAMcHHvGfeZD2VaEd+C/aCUX2AqHAli8S8u0FIOAMY+8gFDmCu6NAwOfbQAcgsrcTwiZRjflA7oArJDGosoQM684IjpIYxAnysjhOkJeL4yKRiGjiXCgnabY2cpTGmijs1tbWXEznfkywaaK/+/j4sLA+JkEjcExG4M2sQEje3YkuXUZWjvSrbxBhXtvICv3qG2z6ZybY+jUSE61W43B2c6L1TJWf3DvA/hEaCX1nQX/+v6FXXFFMHKA7HtIK5Mzk2Vc18H3abl8exvdpu3we2u1ruNsLTKz7vXn7fXh7vKbt8DTY682VaXu8DXd7Ge72MtjnY7DPh7fXW0M06HLsXI8tqPs9DbCMetSwzjacBNdFUs/QJzWTrg3TarAmMD2yZv0j2QSEaAcZM66VDHcy9At62Pscz9PvpcufpLdLY+qqEupropsa42takuu6grNzjqalxja2p1Y3x9fWxzXWJ9RURTVJCtp6/n4zmnfwkOGR44Z+R3lHAn85fL/j/E0CEejqAM0CcG0U8gGSMaTaCYUTEez2rvacwZUIiTu8Bh4/uM3xxzeRQeRkOAnwMd09KOgsveFl5LqVcdmiLch5iw5x2aojU2dJnMk4bWacNk/oEN2Fxzkvu4tN6GnPHRqzabPKbRu9yZXZ5Kx038q88SZ6402Fu6vc1Y1224xcNjMu7sh1M3J2p53dVO6bkbMr5bwNOf2FcnOnXFzQpm3I/S8qJ1eVy1bGeSty3oo2bQZx2Ypctqqc3HVfl56mjlOYXIX2epxDuLvYA7mZ9zGt9acwzi70y39EN8JHBq2S4U9crX00fUf9/b333mtqaqprqO/q6Zb190n7ZCr58JXION57e8Dxce/hh3b58/Z4GOwFzxltUyebCaCPhVMGDmeFqNuA4HtHVW8C6NrrUZdKDrKzuM9CvB58H/WlMfDwMzzsb+CpQzju8FgrJ3DvE8gDWAe3d5g0dSQNmzggAawDT/IOer33xQ95nT2JDbXR1Q1Rjc0J9XU3Wutz6juu5BacSc9IrgQV/nZjXVJtQ3x1Y25z54mkdN6+g//hcwJYmiOBeA6QIOBnktMVcvCfkfVLuzulxZKS1raOH3+6QeJW6fwmG/13tVIQ/13Df+aO+A4jklhyRiiwFfBBSbd3FAlBl797Id8BwLALhPagi2NCR4gV+AeH6dwz/xL4PkE8ugOkTrA23TCkhSC6izlvuUNjNm1Wum8F4N7kjjZtply3Mm7bkLM72rgZuW5VumymNrkhpy3I9U3kspXe5I4wlKONWwDx3dwUm9yGXDYjp80Kty2UKwjtuhW5bYPuc1J6uEm5V798JVr/jia+w0uOh8vqt6+Ow7/rxfd3d989vrPgzsI9RvlRcCcor4Z4XfhOnOhZoB/FdxzDkkV2NkEgnsV3Hme4E+soOZrQwndDL/CYHIF4TXwnsK6B76B3Y4j/z4CzvH0eH14PL2jvjquuTKhrTK5vjaypSqqsTW/tiq5u2im+GdnUmFHTGNlQH9VQH11Tm9nVfTI25aFDXryA448EHOf5H4GxUf6A718lpcmH+1l8Lyop/qXxfYOt0FEgEtjC2CQ7OweRyF4ksBPywYd9QmJLyBs7YOHJOFWBQMAaS7k4+6DS94bv2po7ydGHkhPN/1Wh23iN2byVAeXdFXDZdTNycUFOLljv3so4baGct6jctindtymcN6s2bUbOb8rdXBRuW7CG7oo2uaCN25DbX2hnFwRovhnq2eSKXODbiHbejFy3TfS+/cuU10LwMS3X2ju5+L59+3aiv3d2d0n7ZL0yqVp/x/jO2+PB6u9EMdeGcm6Olgo/4hQ/4trI2zeaA370HOHyNpj/wXERIPSN2gVeI8G6w7OU+iigj3o9Yl1eD76PQLwOfCfgztXf1Uq9X9DvPI7xDvv8+ePP8tu7Y+oqohobUqoaYprqsxpbrxeXHUiMCquoS2hti62rz6xsiG5ojGyszG7rPCiOhRhqAUcfgYGsQQZHYM3ie4+0V9rXS8av/lx8n+j8TdYvOZoLbOaZr/j98hdmrVj8B+Mls1csnmO0+IkVyyYki1csX7PeknwKEN6cBCR4UGiufd7JxXfGxX2CMkry0M6bOd2GvnpGy3MKT1rm2DbcRbWbXGk3N9p9G1ArG12RizOzaRNy2QYEi9NWtBHUf0BqYF22QBlnN8bJjdnkilxdaWcXpdNm2mkLcnYBrHdxIzQOpnQwo+W0Rf/NvIu26SLQtG7aRO+zvvL68ifaTj31aPAzd6G/j+MfOSF81wnlOjPBHquLz+GwN2PAnQD9hCBeG98hPIAGsuNNMKKOhXiiv8OgJ09/tdV0hI5nkV1Dfyf4DuEKAk/xPL1NT51MbG6Nr6sWtzQm1zVF1tekVdX7ZSfcqq5NaulIrKhJqK5JamiKra6LaaioapE6/PMLnjdELJjmf4znHzgNPgV+HfhubyuysxWts7Ratc5yjbX1aiurdZZWVlY2q6z5dykWVrYWVrZrrNfbioRCOxEwPNiPRRthH2zOFL5rQd4EIAk5u1Fu7nInNwB01y3IxU31uivj9ibl4qZ0dlW5uiO3rchlC3Jyo1zc5Fs2K51dkes2QG1XZ6BxnP+K3thKubjI3d2HXF0Vbu4gQNZj88MmoO/1yAQaOe4FTrR+feX15U+0nXrquZ/43iPt1aG/7z5E+HdtKNeXQ/BdJ8RzM7n6uzbEG4AVlyNjFXkW3w1w4BdWiycJLtAT3xgNiGc3NfHd64iBNzDv+vAdxqD6HPmPQwdPZ2UXdPREV9bEV9fHNjfE1Ncn1jdFN7WkVtTHNjfF1tVG1tREtrRm1zdEFNf+zu8wz9fvIW+IPMM7cuxhIPR/HfjuaCPYILSzE9qLILYA8DN2QntwgZ84P0MMqsSLhjvQ6cHCOnv2ycX3MV/Zvzxv+4ufEagVQPatyM190Ml1+K2/D7/zodzJTem+mXJzR05uwMs7uw9vBmGgG9im2ugOpldnt0Ent+EP99LvfEhvdAGVf6M7MPUu25ATJv1dMBf/i1/Rr+If/GX5mTH4vhdGkAI/M3F85+3xNNytbXEFcoZ0Cawif88Qz8X38SGe4Lt+Q+soP4NDFASya50Qb+gT+LD/SZ63r/mx42ltspzqjuS6pojaqpTG5uiaupT65sj6urjamojmuvja+oSapoKu/te/+pZ3yMsg8BgvAPwjDQNP/IrwHULEYEcXvh0MVYIYkHb2NiQ4mAi83+9SgJnBQ1VJx0B8KEkmi7APNvErxPfx+O5JxDstENGAtjtYVnFLGGcX5P623HUz+t9Xkds76Meb6OZP6M8b6Tfc0etb0OtblG+4DW10BXJm01b0ujv63y2KTZhb/683qA93oYQb6B+X0UuvK19zB1+aNzZDGczkMC7u9GZdzkjj3oFf6NaN24Yxt/FON3lMYbZaraN+Of4d4/u0nX7glr5HjcvaCrvhboByfcKWHwV0TTcbDPocIl5DkR+jwo+l4zUgXgPlWRWexXedEM/V31lkZxPaEP+IbyDP+zjP+9hDBz3e+PSL9I6B1OaOhPq62KqauOaW6IbGxJr62Ia6uOrquIamop7B3eExvIMeD3udMAg4xgs6YgiRxY6pZ/Eesa8+SP5dIAI6hfhHgnPk3flHgjsl7hlYH0riXqn2sMTBgf89/CP1ffLrfl3Z9/buEvcCUlqIcOeWYB9EzWIj9dylR6Dc3R299pbKZQt64/+Qy1+UiSlUbjrzyv9QG7fQG7fS+/aqQo8xHgfRn9zQG9uG/DxUxwORlyf1t3fRH52Q23so8Mzgfk/VB++rAnxQUCDas3fIbYsSe86A2dbJTbN5Y28g20j2junok3Re5th6NM8ychPYfPZEbM7dJvScnW2w7nq0GzBxfuZu/Gd02FcnA99ZLZ6lZTT0d7XZVgvfwRKLQ5Vp4vu4EM9laXTiuzbEs/jOYrpGQsPKaugbwPM//Tufs7wjR3keu1+7eCWsujavqyOzrSOtsSW9tjm5oSm9szW/ozOloeW9779+6MAugyMnH/Y+wws4ZuDjyws6ZuADirx6/Gpyuny4fzLxXcM/8o7x33Xq1NxBRjoL/EtkagyMIvq7j4+Pll8pzsCTqGn4v1MvvQykBMaIO7yo4+OI/r06cGrcwrphQv8hesvrwSN95eWu76BNTkpnZ+o1V+T+DopKREmp6L9fVv3pz8PHj6LyRkYqReVVyP84Cr6q6mih2xtQRyd17hQSvMS8tY/KS0UXL6PrN1WyXtRbP1hShv62l/6f15DTNuT8Ktr0lr7z3u/8+/S3ss2eaP2Mswvzyp/QzYi793/XsK9yH/vt27c3NzfXNzZ0dnf1yqS9MqlSrrgqjjN4e6fBrsMGuw4T/d1glydW4b1gvdtTLaDU69Hrdx/msUJc4/d68rSFA+usgq9OjMShVBM4XCIeIN4b4q1ryCE/nrZ4+POwGHhoRhDjDoBiw4fxMP+uAfEG3oGGPupw8A97B/0HjjEAwcICj/EOeM73DHT+5nZwdta3ZWXiqpqw0vKPc/P/euvGiyeO8w7tY2PHayQA3w8R//ehLqlM2ifr7OwuLC74uf4zPwffCamiplb+JSBcfyPZLopN3CO+64LOib607Nt+N4kJIf7dVKi7zEi/pXuv1lXTzm7I5XXktgW96j685a3h5HgmNYURvYT+/JpSHDecl6dyckVht5X5BYqcXOab75l3/ZliCboSigR2qr/uRZl51KffqaLi0JdiJiiUkUhQwHH6v19TuG2lXV9TuL99l82Y9GL39a+8h9aq8R2PbxoZXz2e/7uLiwurv7OPOvkiFwgErP/7KL4r8Pimt3cS1RvwfY8HjEfd5alTuMwM6RLImps/bQ/HLXJkJBSr0WsgO8vIc91pDGCywDEBhHkHfFkxOOjHiuEhfyIE0Nk1NzCkweEAFtC5CW1YJzlcFZ7nE8DzP/pQwHGebyB4OgYEPuzh/RhEvff5nVfgdN8j/+nh89ABb+hpDh+dFnCeO5/f2PQovnfL+mT9fd2dPcWSogeG7yy4kygC/wZrEvSGvRAbGxtLS8sJ6+9aSIfwUKB7eHXveAhLDvzaQAda7vSuwm2L3G0r+h9nhZs7HR+D6luZMx+hoAvox59QRSY6d3koW4Ku3ZZ/fw0VlKLEGKalCV26QAn4zF93oIzsgc+/R+Jo5utvGJ/A4dJsxclj9B83Kp22IrdNsNZ1n3+DmRPF902bNq1Zs4Z9yDUS7777Luv/TvR3uXzosjiW9/ZOooAb7PTl7TlksMvTcKdu4WI6Nz1tlycRLtBz09P2eHEFTK8cdZ5NE/TXEQ0Yxz8w2OdjuN/XcL9urCegT+CeaPFqXZ4TC340wgzrIul1hOc9VkbcaYCODzzG8/I39AnCno5BvCNB4FFDhiz54fDuQYG8gADekcCH/AMf9obOQKdg/d33n8DPDBL9vauju6ik8MHjOwF6jQflX26TjLFiJwXk8/n3hu86+fdxncf1+L3dhf/fuNVO1P1OszztDP7pnMvR107NA8kh4PPuBiOS0Kuu4B/5j69QbZuivQNFp6HDRxVf/4i6W6jYGOSyTeHpw9wWU3n5VGM9OnEW8V9C77yHfvpOdfocunqZuXCOOnAAuoQDXqo/bUJObyFXV+SkOwgEPvXE2sm5QI0L0VePvnyNw++4OdF69JTn8O93o787OTmtWbOGHVGokdDGd4Vi+FJknME7u4Ao330Y8H33Iay/A11jsOswF6M1Nrm7dKZ5ezxZTNdQ2zW0dXaTAD27ySZGeXn9fpPE4kqIeC6+87SCiI2GD2PBnYvp3EAFfkEG3oEPeweBs6PfUR5MxhTI8wt6xOfYw95BD/scf8jvGI5nAKo9z//IWJ2dO9f2Ud4hXzx+VRPfr/14fdLiE9w9//7vQcvoJ2wgVqWVldVE9XedeDEWKDXefD3vrR58J7CrBb4adU7CptYp9LVTz7m2bKVdtw1telvu9hbttAn972voz6+q/vz/lK+9gV79M3p1C/2aE7L/L3rTG+haGCosR5n5KCtNvv3v9KtvqDa6yV7fRLm4oT+5Kl93RU5b5K9uBUeazW+hTduUri70Jned93kK37Fp6F74GULRaPMzcvnQpcg4tf6+y8PgQx/wj9zlydvlAcKy6iShncMW4PAwrBfNmIQGHT9SXp8iPwrohIs/gFl4IOJ9xgieuGPU0EriRHr4EqKGi/Jc/t3gMI4QyQaJHGHhif8Ml58x9An6ne8xQ58gmAXQN9DwyPFpfice8jsB5tYjJ3gBp3j+Z3i+p3mQc4IXdAr83PUJjh8pHx7sgQCSMpZezbS6AAAgAElEQVSfeTD4zkVGLpHHzf/XSnMNTSSM5T3g+/2mCHSz7RMkx+93I3H9ryEnJxiq6v4X2s0N0puckbMz47YNRi25bkYb32C2vYle+x/V5reHroSiL7+k3t6O/m8TtXkLeM27uAxt2ohc3kKuW6g3nJUuW5D7m4o3IMKB0tUNub/5i1zChL0wf/lWTZSfcXZ2Zvl37utJXmFt+6qan3lrB2+nB2+nh+GHPga7DxnuHCXf1eEhR+l4tV6vod1DTzAC2foSXCjXqdcb7vPW70jjAzEsD4xnZWXJd1DYR4RLxBseDpg2MlcfIeJZdxqdhlawsnoHAnvjf9Qg6DgwM77gL/873xOG/r7TAvDUTv4BOALwUQPfQEMf4Oh1Cszwd8j3a4gvNtQrBf79AfMz3Ifj3zJ9b/o76z/zy7/qv64zOr2JnN6kXbeqXCFCJHLdrHDbOuD8tsrJGW3a1uf6Dtq8dXjjVuTyNuP0Dnrlj/L/3oRec6JcndAbrsh5y5AruMYrXbYwG90Zt20KF2eEY0aSEAXUJpdf18U+OGPARPGda1/lvrYE37X1d0oph/iRb+0w2OFhsMPjob/7GOw8aPjhYcMPD0/b4ckVkmm487BOIYcb7PDQ2KvBy7Ow/tDuMXT8Q3u9ibC2WZaCH0lA/GFCvnPX0w74cUXb7mp4yH+ah455+DSAnrW7cmZnJUOfjoJS73sEi/80sLUCIfOQVyDo9X6YjgdG/qhBwLFp/pCjU4h/JJ6fD/Bd2ifr6njQ/jPc5+PfID05+vsvrkrr1ugfHOIQ5AX/d2d35OIKgQcg7AyEAkYuf1HB/XkVbXoTQN9tE9rkPOz0V+Tqgpy20JvcFe7bKNctyA0PZXJ9E7T+jdsG3Lcgdze00Zlx3zLs5oK1+zv4v/8rof8EHU81Lm2i+O7s7KzhH8m+uTr9ZxTyocvhMbxtH/De3w/y3mHe+3t47+3n/W0fyLv7QUiarN/bx7ujbN/P245rex8n2PQHB3g65e8HeR+OyN8P8oh8eIjHlR0evB0evJ2HNYTr5DPGj3OvF48IfBNoCdetXsPtEuIfcDwvD/obHA6EWDeHvB/y9DPw8IF5Qrz9eZ5HYMZtL3+etx/Py9fA09fAxx+GVnkH6BYvf94+zy8TUhSDA4SfmdLf2SfzviSI/q5zfj4IxIwDOSEaJuNjaITa2hRB/ugVR0AfHAKeJcoJU6yTgldHU5kIFqtctkxI9PHUGjDBbuorry+fPVAjoa+8vnyNw++4qa8efTfnjhX+zAL62qOvWn3t1FePvny0aSOyew2FJSppmNYDTwhMZnLSMWzjjvHfCT9T11Df0dVJ/Gd6KcVn8en2Pifs/M84Hj0nOBr8cmCoQ9BZh6CQicmxUIeJiP3xC+OLw4mLROxPXrQ/edHh1CWd4nj6sobYn7lsf+byhjMfseJw5qNROfexgy6xP/+xTnEI/kin2IVceenyJw6XPhaFXrG/+JHdhauCC1eEF686XPhoQ/DHthf+YR/y6YbgT+wvf+5w/hPhxc8Ely7Ynjr7TVZOv3ygt1fW193f0dVZXFjU0trO5d91/Kn6s3TEf797++p9wdRfU6Xj47uKhkDbSKVCDJ7tsqebPnMeWTuiN5wmSVzQG7pko/Mk1T9Z7Zyq54HegY1/Hnrlj/Lb4fA0MhRM+Q5PJiwj7jTqTYTQPeA7I+0tktReEqd+kVz0ZWL+Rwl5X8UXfB6f+3V89oTky7h8nfJFbN4XsXk6dsVnfTmufBGf9WVCNitfxGd9EZ/1eVwmKxo5n8VnjpWsz+JH5fOEbCLcTG76k/gs3ZKQ+QmWTxOzPk3MIulPEjI/j8v5OqXoq6SCz+JyPo/P/SQ+75P4vE8T8j+PT/8oMf3TpOwvErM/iUr+Kinrk4TULxIyPk8qDA3PLCtrUkplPV293T19jT1tBRWlU/h+v/qE8fEdz99EIxpeJwoh1fAA9ePNvjf+QrlAQESVqzvwzm6babfNJK0n2CEUm5Doq0df/oQqn8TCD6o9D+q8E711k9VO9MfX0NsfoJwsPOuqEqaLVI+sngR875H2DsjaMovKzt2KuRSeeOV2wsWIpH/cTr4akXRBPDEJFifolJDIRD2SFBI5EYlKDvkZEhydrJbIpGBdoq9yUpi7l+RcECd+lJh5OS6NXF1wVGJIdFJIdNK56Mzj4tRz15NORSRfSMg5fzMxJCHzvDg5NCL5TFhKtqRW1tfd0yfrlw10tLeW5+VP4fsDwneAdRXMVA8EDVaR+mUoNwclp4KkpIGkpoPgNJ2WplPUJUn5MesMlKJDdFYyTiaTmqZT9J1XZ2EmFV/OmObdIUdfkyarfn316DuvvuudrHx97dFXv7526qtHX74yLRlVViBGBR+UlAq0eEr9QOrT3++Gf+/o6uyR9vZIe2VD0sSiilO3Ei6K0z8Sp12Iyrh0O/WCOOWiOFOnXIjI4MpomcjUixORSxGZ2nIxfLTy0ZpxS0IjM3VKiDjjLiVYnBGsv7DOykMjM0P0SHBkykdJuZfjs4IjU4KjU0Ni0kJi0s5HpRwPj/8sMed6uuRcZOIxccLF6MyzUWmnY1PPx6YEhSeklFb2DvW09fd29ko7uzvKCgun8P3B4DsD8T5UDLxM8E4hCjGIHkYKSOsS0gtor9Xdg/aOX20Oubo7NU/f/n+969V3Jb+OfBWe3l2BKXcGITlMzoe1eP38jD58FwqFrP8Mi++Dg/0phZWnbyZdici8cjstRJxx4Xb6hZjMS+JknaJPr78YkaZTLkSk6ZSLEUl3FO65LkYm31FCo5JZuRg5mmYzQ3/GFwBXhQ+JSj4flXY1Of9ifPb5qLTg6PTzMRnnotNPhifdTM+SUXTnkLxlYPhjcXxoTPKF8MSLMSmXo1NP3ozPLalWDsp6e3u7unraejoKiqb09/sF7+rxTfrsq4DrNIMYmqJVoL5j0lOuE9rHzWSglgmI7t5D/ykmVPkkFtbXzkk8hc6qHtR5dTZmnMzJaifo7KTHVdFyhIYRjWgKW4TuhZ/RxveBwd7UovIzt+IviFMuRyQFR6eGRiSfi0q4HJF0R7kiTmZFZ2F2770luB2Mvs5gTBlOH3BJrLs/4GI9N60B33fcvCBO+iQx+0pMWmhEItQTmRoiTjl9M665T945JA/PTFUhlFTa4BURdyY2KzQy/UxM0vGwhJziKrm0u79X2t8z0NndUVJUPKW/3y+AH59/VzJAdCIacF39QYxfM31a3aiRa2xKX3l9+WOPvvOWvnrud76+lkGfiPmDe1uzPaG+w/WdV1/5Sc8nLbxjtZPXTiV8OjIUYpRKBvxnGETJce36+Bmd45vIW8T1nyH8zKC0K6uwIvhW3JWI1CthiRfCE6/eTroiTgoRp92NhEamE2HJdC5osml272hi3PqDI9M0JCQqfRwJjk7/mXIuOn1CEhyZdDU5+0Jc2vmopODo5HMxICfCYysaO/AnP1JRSJxddCI8NjQ2/Uo4lDkZnpRTVtMn6+6V9vX0DTZ1d+QXT/nP3C94v4P+Djo3QioV8O/guADOacRTUhc7o1+/1qfHTeVP3YG7ugMMAhddMPQD+w4PGqMg9qDJwfchWVpx1YkbcRfF6VfFaaGR6R+Fp4IyHp5ylwIdQ0Tq5fA0nXIlIl1DSLGLESkXI1IuiVPvKBcjwR4AJgEtfl9nZmhkaiiUHNXf2W4mNGo0k1tg3DTYFUgDuM04L079KCn/YmxWcGRaSBT0LiExGWfFKVcjExu6+xGFMmpqT0REhUZnnIxOPRubHBqdcuxWfGZpdV9/T2evtLenv6Ojo7LwZ/vPTHR+7fsGp7+6isfX3/XpX/+u+aCQApDQoCEyRFGkVEiuZgcoBBSwiqGQCoYDMNjsjGiahvIqWs4gGneINDjwYSdtBnpEyITRAyBKBr6EIEVRFLZuKGAHTcsRYBeFaCW4o+IagIPAcEYpkBJ20+CnCkgH3IRKTiPlEGKgqfgrC46bWu7CP1Kbnxkc6EstKQu+EXMhMudSZFYoxrKrEakEf3Wt9fDs4ckXwpMvRgAQc0UfiGuD9fg5IeIUIgS+2bXOTHYvN8GWDIlKJQKm0cgUkg6NTmPz7yYRHJlyJSH7UlxmSFRqcGTK+SiQkJi0oFsJ13OzkZL5IiHjCNSfdCou+VJE9oWotJMRcVmSioH+3t5emaxX2tbdUlQy2fxMfn5+dnZ2RESEm5ubhYXFv0dgmXvrOqbwnQuJgJ4qGvw0CMRDGhNUgPm4IEFSPBoAE1ZKJWRTCPoAjPw4gRA9CGQCUFtKROGPIGykZpBKiTsPPHgM817ANQxiOwd0BioVOCthZZXBP4DfcjjrMFJCglbSZIQP1mehVZiIxpT0bxHfyb3i/ol39H/Xge+yntTiUsD3iIyLEWkXxGD2vAr6OOjvI7r53eryRBnX6BW4GrrGrvE3xxyopbyT/oDbl3DTXGQfJ80Bd93+l6HRabqhX6zGd9JDkK4iNDrtZHjKrcJCxKDvMgqORSZfjU07FZt4ISIjJCr9+O24dEn5QL+sp0cq65W2drUUFpVo8O/a/yn3/9VI6xjfNIXvbGcwhe/cxwXc79Q8AE2B4xAgauugvEMuH1LS/aSoQoUUCPRwrJIT7EZyvEkhQGcatkBPp5VEGYcRYgxo61jZxvo6pe438NcCtlCqkIrBzkpw4Mj4HRoNQJWQMYCUcoQUiuEhpGrvVwE9oWSg74AWwII/C9Tp386PNhbcA74P9fWmS8pDb8QAuIMCnnRFnPxxRBqxlxK7KGs7vSJO1kva6LLHskZRYgXV2OSaRtk0W+ZiRBKbeUmczPWlgU6IQ7/oTIdEJrG0DCH92U3tRAjH8YbsHbUT6HK5CY1OCQb/96xLsWnnxYnEGBscmRQSlXwmPP3b7NymvsGvM4uO3U64FJ5wNjoRaJzo9KNhsemlFQMDfb3SgX7ZQGtXS1FRySTHf5/C9yl8HwcBVQwFLv+YVylu77qQnBZRkCPpbAEmBHoAGvuHAkxjDmYICBtIK2maUiLUoxjsl4I+rUCYzxkG6AXAVtJKAGtIMrALmBkV2Umpzdc0YoZGPhnIuZCSUSAKdwMoraG9rLUrubo+NDUzqrp2GF/DELaOwOlZpB/n2v7tdunD9wn5R/b19aUUl4fcjL0szrokTr8YCf58l8KSdPIqlyPTuDo1N83ivoZKrpMivxSVxtW1uWl9LA3Lz7A0i4ZWzi0w/i6d9AvR07XX+gqfFydfTcy5GJtxXpwMFE10KuFngiNzzkbEfRKVeFaccC46/aOo1JD41NPilAsxmQTfZf3Srm6ZVNrX2tVWUlw+he8sIE9yYkp/10A8mkFyULNppKIoig6vrtl27duSptauroHCrva4csmATN6joOLb6up7++q6OsR11dXSHmpwOLK1IbupqaGn53Ja8sXsdDmN0DBT3TMYV99Y0Ngso+mKAVlSXVN7/0DvgDK9rqG1v7dN2pfR3Fbd3t7ZP9Q1MNzY1tU2NCwdVLTK+qOrSot7OvtUtKSjvailYaCbrmzo8omKuV4s+UdR3uW8Iv+I2xXSHtwX0GD3xg4mGtfyW9icFHzvHxhKKK44ez2W8DPElnglIp04rV8Up18Uq9MXItJgU4+f+yVxOnQPI3svhKeqBfu/a9SjrgpXTnaxa53O8hci9DrzsA48GgnifgOWTy1XHDZnHIccdpeGW875qDS1iFOvJuZdiss+F5kK/u84H6ysUblno9LOhsefi04PjckOvZ10LjIZ0pGpx2/HZZZX9Q/2dUn7ZbL+ls7WosLSn4vvU/ZVfd3CFL5zQZCmwZ4Jrl1Ar6hUKiastmbLjWth1bUxZbUfxN8KSk36JCMrorzG6buPblRUnIhJ9hTH+MXExdS27RKHn05MPZeW5RETdyhGjGg0PKg8lpXi9uM3ZxJik2uqEypqNv7w7de5ed+XVm+7/n1EfeV3RUXviMO+zMv9SlJ2KSs7ICb6QlHB92WVgUkJJ+MTPOOjM8pb3r35/ZX89E+zC89np2786lNxVRmD0KfZhWHFkn6KVjs44WvAbedezW8irQ/fx/GP1Obf+/oHE4sqgm/EXLqdejEsKfR2QkhY/JXbaZduJ2vIxbCki2FJGpn6Nll1/gK2u3LXobeT7ka4hxDLLfky0MgPCU/SKaEREBKAfBlw09xvBaLyB0ckjy/cLwNu+kpc1qWYDO6xIeKU8+Ep58Wp58XJ5yKSgiOSL0ennw8H3iYkLPF0WGy6pFQm6+2SymSy/tauluKisvuC72KxeMq+OoXvXBQkI3XVvi4M6MVRFVUHwm4XtHR+k5d/PjWtulvlESm+Lqn6ITuvrXf4eEpGVe+QT3j4pfTc25KS3NYuv/iEhPLqG+U1iEFNA7KPMrJjStvSGtrPJUTF1DVs+fHmR9FxEZJ6j5i4hNrquLLaA7FJibXNXxRIdt66cSw+cdf1n77LkZxPSqtplX+dWXQmO/tCRmazQnk6ITGzvetySlZKU+1wj+xafkFnH3jcMAwYCSiKeBtzL+W3kp4cfJf15lXX/ZCSdzu3Iiyn9Fae5EaOJCy74la2hJWwnFLYlS25mVVC0tprtjCbCMspvZkLR5ED2XyyeTMX9mrLjRxoAFeuZ5dczy7h5oxJ55XeGJGb+WU388vI5vVcCZt/PVfyU07J9VwJN5Mtps7PLb+hS37KlRC5nlc6RnIltwrKb+SVQuVYrueV/pQruZ5fciO/4qeCip9ySq5lF18vrPwxB8rcyK34OrOouKauv6+nu0fa29sL+F4s+bn2VQ39ncSPnMJ3dv4mfeNXfysgMXKd4AAJeAn6uwrRA4jKrm+6VVKDFKhK1hcUJ/4yPfvHQkl2U1t6Q237YP/pxJT9YRF+cTGZ7V3+qYmfJKXFVNVEN7X8Iysb0ahvuP9oStLffrr1aUFBVG31j4WSXZHRX+ZnZDd2nktJ/64gtaCp7WRsSnxNTWxFzdXM9JSqhuPpCZLW3lsNdecT4oJz0jIrG6IqK/plAzEVdRez09+/fiOnobltaCijpalPRSaooxGlUiA0hP0nR67jN/Q7Kfg+KO0qrW8Q5xbFFVVF55VEFxSL8yXR+eWxBWUx+aUx+aWxBWXxRRUJxZXxRRVxheXR+aU6Jb6oIr6oIrawPKagjBSIypNE5UnYzZiCstjC8riiijhcjOzVXpMCpAx7bHR+KSkZnV8aU1BGqootLI8tLBfnS8T5ksiCUg2JLiqPKa6IKa6ILiqPLChli0XklZDyUYVl0UXlICUV0SUVpAB3TSoke6NLKqKKyyOLysSFpREFkogC9UnD80siCiSRRWVRxVBPZFFZZDHUH5ZbElNcIS6U3CgoFuObFlVU+1NBRWltfX8fgXfA96Jf3n+GeEyyazs7O6FQSNZCoZDkCwQCEV7IpI4ikYjN4fP5dnZ2ZCYNsmarYhOkjEgkIrNdk/pFIpGtra2dnR1bG6mTOykHySF8C6mN5V7Y9nBzSHkbGxu22WQvmVpWIBBYWVlN4btORGQYRqlUDg8PY78Y1NbTU1FXp8T43yeXd8pkobl5Z+PirucX9iLU3Cstr6mnEOpT0o193UiFugflXxZmfZ6f0dE3iGjULu+vaW0ZoFUd/X117W0DtKpneIjkMAwaHJIzCA3LYXzmMKWqqqtv7+1lkDpfSdF1Tc1Nbe1yFT1MqWT9fXIleNCMOOyTlM6L+M1ljuM/IxLAs/+3995taGqsa6hv7+zoJUt/X15N462sgsRiSU5lVVZZTXZlQ151XW55dX5lfY6kMru08nZOSURJY0R+VWJeSUZZbU5VY1ZFfXZlQ2Z5XUZZbW51U2pJVVRu8e0iXCa/CCopry2orM4urc4tr86tbsiuqM4qLo/JK79ZUn+7sDo+pyizvC67siG9tCa3uomsSW3ROcXXS+pvFlfH5RblVjZmltdklVdkVdRmltfkVNRllVdlV1RGZhXdKK67VlSZlF+WVlGXWd2YUlaTWd2YVdOUWl6bWl6bWd0Yl1vyY3FVWGmjOLMwt6o6p6o2s7Q6u7Iuq6I2q7Iyq7o+u7w+sUDyQ27pzdLGqNzi5NLqjKqGzOrG5NLqnLqW9Mr6jKqG9Mr6hPySG0VVP0nqIwvKU4ok2ZU1WdX1ueXV6ZW1GZWVmVV12eW18XmF1wsrb5Y2i7OLkkur0yrqsmqaMqoaUspqMqoaSD2JxWXX0rKL6loG+vp7e9ql0p7O9o5CyS/uP8PFUy5oEoi3sbERCAT29vZE/2WxmIA1n89n4ZV0BlwQZ7GV7QDs8GJvb29jY0NQniA+wV97e3vSGDs7O1IzOR23myFpMkk8my8UCm1tbVlMZ48iDWA7Bltb2/Xr10/h+zgoyDDYJx5DqJICrZmIkqLTm9vjSstbB4co8LYBtxiKAj95cERXIUqJWuTydoo4wkNwNnBoxHvJWoVdHFmvdXbQP7i8q8C1hmYQpQLfGXCNx2Q7SdN4OOeIYyRuO0N8e8a5jn+rXTA4YGSUgMaF3Q2+NzY3EXyH+AQ9Pf29PYXltalF5YP43yE2GOjU1bEQ0KBCVVTXcjujNKWoRo7JMEY9pFZ9chrGqKHShpbb2eUJeRXDFAz2pvDzgKMpgKMt/NEMqmjsCMspjyuolA3AaDmyqEh4JzzGgmFQQ3vvzdzyqMKKbtkAVIJVCtIqdt3WOxyeVx5RVNHWKYWKR54GUhUMqKBRj2zoZi6wSc1dAxRCCtwGxchDCI5dDOruG4wprrqRU1bb0sWtR6HAdihcbe+APE5Scz27VNLYDg8tdgzDPmCjbesbUsRJan7MKi1rbCdtIO8CaQm5zF4lk1xek1/dKO3p7ZV2YHzvKigpbm3r4M7vof1NNnKfdPyq/d+bm5vr6uoqKyslEgnxjxyfn7Gzs7O1tV21apWZmZm5ufnKlSvNzMwsLCwEAoGDgwNBW4FAQGCaYCvpCciaqOHcfoJo5Sy+k2J8Pt/e3n7NmjUvvPCCtbU1i+8ikYjUTHCZKPssNJNq+Xw+C9OkPIvmpGHsXvZbge2rSA2k47G2tp7Cd40Hh4UPdT5BTxbacYLBEKx+rWBoKQWiHmOqgmcUDz6C15oUArcc3A3gSqE/0JUAKGfUvQgpwDYG+9yr4V6dZl9rYhMmB/xbr8ndGL0n3DuAL3wcfBfyQYH/23vvauD7QE9PWXV9aV0zhm5a7YyEhwWD1Rr+DbqlR3YrJUdS3wqbxMOKrPE4CFoFDrXSQXlYar6kvlWlUqpBiqZpdowCzSCVqm+YisgqzCirxk8FraLwAGbwmVWx1SqUKnGOJKW4HMqobSsU9pclugONGBgzLc4uii/CZbiHkzRe0xSTWFoVk18KbgO4tfgZJA8hhm+sXKRX1NzOLJIrKGxyommVkiTUh9CgoORU1Ydl5MsUZOSfWpvBTcLtw37D2bWNN7IKO3r78GAQ8CQmtwUUFahERSGUU9uYX1krlUp7ZV090t7O9p5C7P/OxfcJPb+a45tKSkruBt9FItHatWufeuqp6dOnP/HEEzNmzHj00Ufnzp1rZWXl4ODAqsYEOlnqhmj0XN2cZW+4GjQBVoL4jo6ORkZG//mf/7ls2TJShsVltjYW60ltBL65rBFR+dkOhvQE9vb2pJ3kdGxLSLVE07e1tZ3iZ+78PMELPqLGk+BhZE3hiAEYyPFYI1DBQbmGEbDk/YUXUsWAMg4P/UgPwX4RaCZGOgCGYcgHAa4FHwxxEGi10qqOo6Bu+IT0nTtf7L9UCe1rJ/iu0/+dqDXvbn+vsbmpvrGhvbOjG9T3nv5+WWaxpLy1Q0miLeH7jRjQd2HsGQPD05plslsZuWXNnYx61AJAJQZC6NixWs10DPSHZeTnVdeRMvAk0JhGY1R4GDNAXs+Q/FZ2fkZlLQPxJ+BAFWjW8MCQTSVDywYHIgtK44tKaYytFK2iGegGaKQiHl4MrVAyKK64PFZSBk8FftjYrzqAf6zQUxQVV1oelV8yBBMbks8ACCVFVA8YTwcH0smllREFkn7F8MjjiZpamrNzc9hNhOiMytqwnILOwSH8GuAQGuB/gGgVHtrHIAUlz29uu5ZV0D7YD2PvVDBsm2ghRF/BTz8qqm8qrm6QyWSd0o7uHml3p1TbvjqhB/Be8F0kEtnb21tbWz/55JOzZs0yxouRkZGJiYmNjQ3BZQKvBGqJtm5nZ2dvb08QnyTIXnt7exagHRwciJLOVmJnZ7d27Vpzc/P169eT8g4ODoScIR8KhAsimr5QKCS1sSwQi+lc5Z3UQHLYNdsfODo6sp2Nra3tlP7OPk/aYEF2sbq2ZkmAc3hbKKSSM0rsNk/0SQBiAuskEx8IrxNbFQvWsIv9PoBXFRZ1MdyvqHsFsmMssrOF9bV85KD7+8vq1Pf3NLpq177we8B3qaw/r6KutKWTZUwwNuFgQbhrZhDdKOu7lZ6XV9OII1lCnAm2tyYjmRGD2vsHwjIKcRnAawi/ijsDEsICYI6mehXU7ZyijKo6pUpN3MHhI1BKqh1QKsX5ZcmllXCIeoQyFRUTjbUEMq6OlqtQdH5pfFkVMHjqpwZukPr5wx+HDELRxWWRBaWyQUBhQhFR6iIUXB5WOpLLq8LzS/soJcvtSCRlN27cIrVh3hFl1zZez8zrGoZuBgxFMJKPPKUYxxnoUbIam3/MLmyWydj2KOGd4CwMKm1oKqqqx/je1SWVdXdKCwsng59pamoi/Ayrv48ff0YkEllbWz/11FPz5s0TiUQbNmxwdHTcsGGDtbW1qampiYkJAdzVq1cbGxtbW1tbWlqam5uTzaVLl1pYWBAEF4lEa9asMTIyWrJkiZmZGZ/Pd3BwWLt2rYWFxZo1a8zNzdeuXWtlZWVubk56DqFQaG5uvgwvbCUr8bJmzZqlS5eamJhYWVmxnYS5ufnSpUuNjIwsLCyEQuGGDRv4fL6pqeny5cuXLl1KvIBFIleuY3EAACAASURBVNH69etNTEyWL19uYmJibW3NfnDw+fwpfGcfQParHz/ZsEV2sZoI0UfYTfyo4+91/IZC4RH3G/LSKkkQMnwYKIKjLzL7RkNCfZaR05Gzq2vDEM/2CmyTRsuMHP6b+mX/Ke4NIXfgjvyMhv7e3d0tk/UXlNWVNXTCf8GA4v7Pf34TFBjw7bffVlXVkIEFrdLBsNT80voOhkHdXR3ht2/RKuUP33+rkA/l5+VUV1UgRHcNDIelFRVVt4D9BSNsXVWlv/+R0HPn5Qo1mksHqfCMoqyKevzH42BHlOKfX31x4vjRocF+wmwolMzNtMLkkiq256isKDM2Mvnssy9AC2eQSg6fBfGFVTGFpVAG0Uql/Ouvv6JpSibrvX79R1KPSokSS6viC6uGcQgjxbA87OZthNBA3+C1H74DcxFUg1LLa8OyJFjHx6QKTdXWViclJZCPVtwFoIK61tuZRV394GCGPyTRR5cue3p45WZmQJ+EP1qzapquZxR19g/BZweiCwvzv/nmn76+3teufY/7AgrRTHFtfX55TV/fQHdfT0+vrLO9q6ioaDL93+8G3wmdvW7durlz586aNWvFihVmZmbGxsbko2/hwoWPP/64ubn5qlWrZs2a9fTTT/P5/CVLljz22GOzZ8+eO3fujBkzZs2aZWZm5ujouGrVqqeffnrOnDlPPfXUnDlzlixZYmdnZ2xs/Pvf/3727NmzZs0imPvYY4+ZmJg4OjoaGxvPmTPn6aefnjt37uzZs0kl8+bNIyd64oknHn300Xnz5hHiZdmyZX/4wx9mzpw5Y8aMmTNnGhsbCwQCY2Pj2bNnP/PMM7Nnz543b96qVauEQuGzzz5Lapg7d66xsTEhZwhvMyH7Kvte/RbQhL1YNkGuehRTRrCZjRQ2CvYjsckA01XwYQ3AMYLgbIIFbi5ek72Y5Rmr/rDKO+kofgv/Ab5GjfvP/RfYO8nejHHwXSQA5zeC78S+2t3b093d3SfrLS6vltQCLiOlKjkuafv2D7KzM1/e8NKNn24CniqpVungrZQ8SV07YlCPtPvNt7Y1tzZZrF6ZV5C7Y9eHldUVDKK7ZAPhacVF1S24wUgq7du5ffvN67cCfHx9fPzgAZAr+4docVZJTkUDbGKdemCo38pmfUxctIKCEKQMogeHlNH55amlNQQ6EYIe5a0335ZIytTmHIZWUigqtySprJqG6BU0RSvfe//dgqL8hKT4gx4HSM2MCsWXVIRnFpCoyr3dPX/Z9hbU1tnz5//3X0NDcqJcJEmqxPll/XKK8FEqhrp1++a+A3tJY0DrZ1BWRX14VnH3gDoKRnDIhRNBRzPTs/7y5taWljYcjwnlN7Zfzyhqk/aT9nz2xadOLpuyc7O2vrklLSMV14aKG5oLKmoB33u7unvBf0ZS9rP9ZzT83+8Yf4YYUS0tLZ955pnHHnvsD3iZMWPGsmXL7O3traysnnzyyblz55K1paWlg4PD0qVLp0+fvmDBgnXr1pmbm8+aNeuZZ55Zt27d888/P2vWLKJ0P/XUU7NmzVq7dq2Jicn06dNnz5794osvWllZmZqakg5j/fr1s2fPfvLJJy0tLVeuXPn73//+qaee4vP5ixYteuyxx5YuXWplZfXMM8/MmDFj7dq169atIwXI18DcuXOXLl26atWqmTNnzp8/nzTj8ccfnz9//po1a6ZPn75w4UJra+vFixebmZkJR5aJ+kcSXhhTwRNYqfQsE6hi3KJ6qleNe5DunSoVHEUAhS1ByHeVklLKsf5CYRqUZtjzEixWKuVgWENKBUJyws8oKZoC3wiSQ9PgYKMixlccdQyCEAMPygBfCUSvSqlUkgaQNTkFhCAmC55LS0Wq5Vwf2xKdCfZC/kUT5KLGMFojcP7z8b2np0fW151fUVnR3Ep07BMnTqRkpKsQ/dONH7/57lvMSNBNvbKwjPyCumbSp1+9+vEnn3x2+vTZS5euBAQEUhR8nbX19Udkl+RU1RNuvbq2RiS08fHz/eCD7SfOnCZabe+w8lZWQXpFDe7R4TKk0r4PPvhwxNwOz8OAUhmWWxJfUqZigP5TITQ43Lf/4AG5mtQGpkWJEHivS0qx9ReU+riY+OBzIUFHjkqKsVKPna9iy8DzfUABJoQeafeHO3dQiOmVSbe96T6APwIoxCRX1dzMLemD6NTqD0xxeGRgQBD0QNiOpEIoo6b+RlZ+5xD4AVFItXP/3oaGOhVCZ86dvB52Cx5dRKfXNQD/3j9A6vnk40+TEpIRjSIjoq5cuoonzWWKGpoLKxv6ZYDv0j5ZR1t7gSRfp/6u/c+O/OdjfoF/J/heW1tL/GfI+Ka74WeefPLJOXPmrMSLmZmZpaWlSCRydHS0sLCYOXPm9OnTidItEoleeOGFmTNnrl69+qWXXnJ0dFyyZMns2bNXrFjxzDPPzJkzZ9GiRUuWLJk/f/6sWbMsLCwIvpPeYsOGDStWrHjssccsLCzMzc2feOKJ+fPnL1q0aPHixU8//fTs2bNtbGwWLFgwa9YsKyurV155xcjIaPr06YTzmT59uoWFxcsvv0xMqYSZefTRRxcsWPDcc8+98MILT+Nl/fr1CxcunD179oIFC0xMTFifeuJuf/f8jEqlksvlAwMDg1PL1B34Be8AeeQUCgX3neemuW/8OPo70WrY+ATEvtrd29PXJ82vqJQ0NUP0N0Td+um69yGv7tb2LVvfun37NmIoWiVvlQ7eTi8sbWiDEP0IicXi9evX19fXv/7661988QVpQHt/H/QBtQ2Y2WAG+4fcNm4syM7PzsyKT04CooPGPjY5BekVVYiGbzoao62ru9vg8BBrh5QpFeLcgpTSSiV884EDDz1MvfPOW/XVVZhAAiswTSNxiUQsKSZme6IivP3Xdw4cOjisgLEU5MMxqrw8rFAyNKhEND2sGHr33e2Vkor05BQ7e74SwpsimqZiKstvFBTJQS3BEaoRunnz5qFDh0YYdvioyWxq/C67oGtgGOAdKYNOHP/s6ifdTe1vvrWtrKYG7NAM4PsP2QXtfTJy9i//+dWHO3e0tre9//cP4hLiSWZeXWtuVW1fn7S3u69POtjZ1Zpb9rPnX50ovhP7qpWV1dy5c+fNm2dvb//KK69s2LCBWEft7e3Nzc1nzpz5+OOPL1++nPDsL7744owZM8zNzV955RV7e/vnnntuzpw5JiYmBN+NjIzMzMyWLl1KFHYTE5OZM2eamZnZ29s7OjqamZnNmDHDwsLCzMyM4LuJiYmpqekLL7ywbNkygUCwaNGiOXPmrF+/3tHRcfny5U888cTatWuXL18+Y8aMlStXOjo6CoVCa2trgUBgZmb26KOPPv/88+bm5itWrFi8ePGSJUtsbGwsLS2XLFny3HPPPfbYYwsXLiSGXOLWOb7/DPctYhiGoijF1DJ1B37ZO6DECwTH11q4zyfZeQ/4LpPJ8kuryxpb8QlopVxx/MSp7du3v/PX7TdvhoENBdEtssGbKQUFNS1AJVOqwf6BUydOIpr59utvykvLMJqiroGh2+mFBTVNBMsoFVNUmP+Xt97Z+eGOkvIKaCqDpHJsX62sJUQ2QmhwcPDjjz8eGhpiOboBBR2RVZBSXMn61iIa/RR23c/Pj3jlA3WuRJFFpbFl5czwqGfX+bPnPvn4H9AYtX8XiiiGsaaAydhFMS0re+vWrUePHv3Hpx+D4o9trAnVNTfySsDhnbSbZgrzC3669iMYHkgOQydX1V3PK5UO0wi0fko6NODn47/VdUtY5G3oFmgwOOQ2tl3LKmqXDRBG69uvv/lg+/t/ffsd0iT4kGWY4saO/Mpqmay3p6u3p0vW0d6cW/yz8b29vb2pqenu9XdiO7WyspozZ87MmTOXL1++YsWKJUuWmJqaCoVCCwsLQm3PmzfviSeeIJnLli0j/Iy5ubmRkdGsWbPmz59vY2Pz4osvEi7exsZm8eLFBFtXrFgxffp0U1NTR7wYGxs/8sgjZmZmxKJLiJ3Vq1cvWLBg+fLlIpFowYIFv//97y0tLV966SVCBK1cudLKyuqJJ56YO3cu8c2fOXPmokWL1q1bN3v2bMLJWFlZPfvss8T8O2/ePAsLC0tLy5kzZz799NPElkvcxe6I79xXSCcTqvXSTWVM3YFJvgPch5BbtXb+3eN7R1dnd29PV093v2wgv7S6qrlLCRQ0uP0BJUIpfvjhx2vXfsLohRq6+6+n5Jc0dmG+DfRcru2EQHN339Dt1KLC2lY8bxemyhkg7IhpHcqoaJmcuZFRkFpaS3geEjuIdF3stQwMM9E5JalFVTCoDSAWtHEK0QoKppGBCjG+R+eXxhVVEAd5mqZzcnL++te/9vT0jMYjolBSRV1YdjFW6GFWARhkp6Kwsz2twH6SDINSqhpu55YNDYLPPtsG0O7xAjk0yqlrvZZR2D0ACr+KAad9cAqiwHNMje+4zM3c8vaeAXJnPv3005iYGBgAQEGsPnwEXVzfmlVaKuvrlvUN9HT3dXW2F5VN9vxNd+RnWP/I+fPnP/7447NmzZoxY8bjjz8+b968devWESrG0tLSysrqD3/4w/z5862srIyMjGbMmDEbLzNnzpw7d+6aNWuIv838+fNJ/qxZsxYtWiQUCk1MTAjo2+OFmFvNzc0dHR3Nzc0JLTNr1qzZs2cbGxvb2dn9f/a+A0yO4zoTkcg550XcNDnn3UWgfD5bss+WFSifMikSAEkxZ4IEwShKliVTsnVn0aJIIoeNE3ZmNofJPdOTw+YcZtPMhgl9elWL5nABkBRFW4SP/RUa1dXVVdW903+9fvW/97KysjZv3iyRSI4dO5afn79u3ToOh3PnnXey2exNmzatWrVq3bp1mzZt4vF4R44cYbFYWxCtcz3aeDyeQqHAK7Q7duzYunUrbhNTaFQqlUQi+cK+Cf34vtjdfk+AxiN66Bjfb8p/n6Of6R8cGBweGhweikajdk/I19YLjczAEiKsklCp+NjoVHwSm/n0jsbVJpKIgIxPE94xCXIG2TckKWpwYrKknnCEuzB/BnA4hZAQMc3B2CdNDccSGrPbFu4E3QvSomC1DOJYzTKsxmJJnYVsckdAgMYESdDHoJgEeHpJU9NTqWoyaHDBiitux+31tHd24HwiBas+yQSld3pr3KFp4M8g62lQqANJJo1Fd7QO2+BvKTW5aWEdlP6IQ0ln0mmqOdShcfjAq92sYTUymIJPgMT0rE0fZWvpudbs7huZ/RAZHx+Px+PXkR0ebTqV8Lb3usKRkVF48sPR0cGBPoeT+IztVz8W37EFELZfxTwZDoeDGY1isZjH4wkEAqxaoanr2dnZmO4iEAhYLJZIJMIAijXjbDb74MGDOBbgkSNHpFIpJkTiH5xCoWCz2Zj1eOedd0ql0ly0CYVCTHgXi8VcLhdz3qVSKZfLlcvlmOQjkUjy0SaVSjEr5vDhw0KhkIE2XA1fyGAwsrOzhUIhpszjQpVKpVAovsB3Gh2+yHwOnwAGcSRcXmcsXR/lZ4Lvo2NDRDDsaQG9ClBaALZAPKXSWPAEQbdraKSs1uJu78c6nMR1u1PQj1Op6elJikr1jU+oLW5bsC2BAu1CGylEOIE6AIjJ5EwsRZXVWix+cFWEV1xTqQTOzCJvOjmRpNRWZ6MnjAaSSs/glc8ZZCANc8LMDGjYdRaXkfRPwxI9QD+0B2SaWQQHuZmiqnwhjck5CXJ/AoykALoTSO2PrJPQ10GDv0VN+KLTs43gdnCDeD9DUaZwx7UmG9ivzlqlUqgdCovv6LGlrJGuS01Eb3wS3w79iJA1L1yYpsAO1hkKj4wODESHB0dGB/p7SRL471euFk9NTaHH/gHNDB9+9P4m/gk+Ft8xAmJ7pTvvvPNLX/rSUbTdeeeduPBLX/pSQUGBUqnEpPgjR47s3bt35cqVfD7/TrR96Utfop0NHDlyBOvujx07hh0b4EaOXPctc+zYMdpqqaio6OjRo7j+0aNHsXUSNnTCRlKHDx/G9fEyaWFh4bFjx/ASK0Z8TP45cuQIvhzfC14WPnr06JEjR3CbtP3qH8WP/Ohn/cXZL57Af8YTuBHE6V5uPPVp9DMTUTLSUmmyjsaxuA1QhGyLACwToKtJmD0+rdlVZfcMj8cxzZVmvAB0I1czZq9XR4S0ZufgSHQaR2NEbj5pVzaxdMLiDVZb/TUWd8fQIE1QQQrr6+CcpjxtHaVWQmNxdfQOzuIi6Gdg9QtqAjsr6Y+0V9o95XZXoKsHj4S2TsKaE4qiwn19xWZ7pc0XaOlArjNgbsACPg4KP0NR7QP9FRai1O4j2lpxC/R9YR876TTVNTqqtZPlVpc1GMI+efDHxzTi+ANjjKKisXG9E9wUN/h8mE2Eh3GdEgwzS/fYmN7hdYYiE+PD0dGRwZHR3p4ut/tPju+B9e+t1/3PfCy+Y9kWG5Fis34saGO9PC7H4jkNsgwGIysri7YnyvQBgJcxaX0IbfdEt4+hFs8HuCM8DWArU6wlx+V4j8txg9g9Ge4O16Tbx83iQnwJnlHw4iq+ry/sm2ik+CLz+X8CN6L5jSWfHN9p/sz42AgRaNFYnBe0RnVtY0W1qazGpK1t0lTXqevNV41114w1GrPd4AzqHd5ifXW5sa6iql5T06iubtDWNpUZaivrTSWV1bpmi9oR0tl9FdW1pcba8trmiura8lpzRZ2pvLqxvLq+pLa2pMFaTbQaLN7SurqSymropaaxzFCrqWnUN5jLjXVlhtqy2gadJ1xh918z1JVU16hrmytqmkrqG8tqGzQ15pKqhmu1tRV1Jp09oHYFrtXWlxlq8TC0tU3lxjpNTaOurhnaqWtUu0J6R0TbaL+g15fXN1VUNZfWNpXUNGrqGkprm65U15fVNujJULkzXNzQWGKo0dQ1wROoaSirqlPXNmrrm0uNtZerajQOX6U3UmayX9ZXaRps16oayxsaypss5dW1pdWNFQ3N59UajdNf6gyXmy3XjDUl1XVltQ3qhubSmnp1QzM+vFpXfxn883SNRAcGwXx1fHhogPzM/Ud+LL7TaJ6JubiQRls6Q6MztjnCh9hLAZaU6TkAewSjD3EGIy/dOLY5woX4cozjtPcY3G9m73iewHJ6ZjkeA43meA7AMj49af2x/PfPPwR8McL/fk+ABnE6Q9/jjSWfAt9jo2NkuLPCTBpdYA2ktXnLLV6tldRbXGoTqbX5wQs84dM6IzoiZHR4K2wkThqHp9RMgK9zi1Pn9NU6PGpnm4Fsq7K6tFZSa/Nqra5ym09j9egsHnUzoXaQeldEZ2sxOCJ6p0tNeIrNDjXhKbO5yu1kiYXQOL3ldrKO8Jc6gmpXpMYV1FicOrunwkyWOEg14VObPGq7t8zmNBC+SmdrhTNc5fKrCU+p1al1+UqtzgqHu8zmKrO5Khxug92jdrboHB16e1Dr8pZYiEpHsMTmLba7NYS71AoNGp1wX2p3h97trXB5r1mJUgdZ6iDLCHeJ3VXqIMudniqXX0MEK1wRtQtcyV9rdGqdoWIbcc3uVTvIChuMv9YTKCdC5Z4unctbSrhLCXex3VVsd5U5PVcsjjKnp9ju0rq8ZY4g2dI1Hh0eGQEf8L293S7kP/JP0s9gfiQtv3+sfRNG2/8f9rdX/KY5Glj6EL/keNV+DqvhI4CAPoW+r0Hlitu5cU/zgrGekcYUuibOzGFBZLaPG59zIV2BLs9cjKLP0neU2R3oDdLjWIOLyBVUgpoBHSwso8E3OETfBr3xFFAmqBhe8aNmQJFApRBHBHHmKGpmAmpCQitnKEf3fRtmPgLfiwoKCwoKsP1qS1sryO9DQyBIjoyRkVaNxaUl/AZHwGD3wt4Z1JIdGntITwSMrlC5xat3t1RYfZUOv54IVNo9BkdAR0Sq3ZEqO2mwezRkC0SxsAUMjkg5EdC4/WB/5PDrXRGNq1VHgJ8Avd2vsQc0RFjrDOnIoN4e1Dg8ek/QSIT11oDR6dM7vXoipHH7YVIhQmpXSO0GAyWjKwSaH3erzu4zED61K6DxRCrswUpni9YZqnQE1W4IG6J1BHVEyOD0l5FerSOodgS0jrDWEa5wBsFhmTNU6WxRuzvKneFKd6jSHajwBNVki97VVmENqN1hDdlSTnq0Hm+Fw6txt5Z5gmWkV+P0a8hwuc2nc7WUu4IaMqiz+6o8HWWuiNYT0BL+SjKi9obK3QGN028gWzREWENCdxADxB3UeVq0Nn+lK1jh9upc4RK7k2xtnRgZHR5G+veBAZfb+afq37/A91vNVbcXvmO0gbiotFaPonp6egKBgM/nm5iYoPGRZndhrhgu7+7unp7GzC5oKZFIRKPRsbEx3CyeLfCenirojnAJfUh3RJfQSEjPOjctwXQxusfMOjiPW8bNYnNTPDeMjo76fL62tjY4hdyFgyPuFOUZGKkkSU/fEJVKWXt6O+ITydQk8n6SotJT1DSqisxkgOaWBFN78DuC/V5hHh81M0WBZTwsb33weOihfa4zNz7/j8b3wsLCG/0TjI6OZuK70eEzOAJ6IqCzB/Q2j97kMJiJKrun0kpWWkmjzVUJoj1RaXUDvFo8VTailiB1dl+l3VVl9VSZyEqrW++AOkaHD8odfp3FpWuy1RFeAzTihkMrUWX16B1khYUwOEJGe6jS7DQ4yEqTC7XjNlrceptHZyOr7HCJwRnUOQN6i6vaRuqshBYmFa/e4qq0OY1Wj4ZwaUyE0RUxuiIaE6F2uvQ2j4ZwV9o9aotLR/rKbTaNxVFhI8vJUKU7pLE4NRaH1u7U2dyVJle13ad2OLUWT6WD0Nod0Jer5arFoXXCLVcQToPLp7a7ywiy2GI1EO4Sk6PCEyx3Qywn+JRxea/ZCQ3hVludAOtWZ6XdrXPAF4CGDFc6w5WuYLnrRnyPDnwm+D5H//6F/E7D/e2I7/iVpvfFxcW1tbX19fUVFRUjIzjWwawwnomVyWTy2rVrk5OTfX19tETs8/ncbncmgNF4QdfBxvG4DnbPQHedeSGuT88fuA4N0LgmPStkltN+ZujR0nNJOp0eGRmZnJyMx+OVlZVVVVUajaa9vX2WBE2lXN2Dv6ht/Ke6quMVl9pi45fsNmd0iKJmEhQ1ASRucDACU2ECDBUn0/EpxOyeTE/C3IBW6oBFActjIL9PUNOzTl0zb+zznaf/XvQwPxbfj5880dnd1drehvnvyL/YLL5DTD5HwOjw6e1+nd1XayO7hkZGYlPRWCw6OT0QmxydTgxPTEQnZzqHR5q8EY3VV0UE2waGhmKTfRNTA7H4eDwxPp4YiSUGxuODo7FmEiR9o80V7O6dmJkZGh2LTkxGJ2dGpxMj8Xh0YqZ3PGYKtZY3kdX2kL+zd2hyajg+PRifHI8nRkamxqfSgxOTQ2Nxm6+t0u7R2klPS+dAdGx4Mj4cnxqNz0QnJoenJscmEz2xmLe9Fz4IrD5XpLMrNjEcnx6OT42MQxqKTY5MT41PTnlbuwwEKFUsgXD3yGh0emZwYnIsNjMSm+qdnBiOJYZik4GunioiWNZMNgZae8dj0Qm4fDQ+0z8WG55ODE9NDo/H2waG9A5YcW0kQ91DsehUaiA2OT6VhMqT0wPTyaHJ6chgtNoTVBM++PJwBdRu/w3y+38Cvn8S/2I0/P23z9yO+I7fZPrFPnfuXDQaTSaTdrtdo9FQFNXe3k4QRFtbG0VRnZ2dfr/f6/VOTEyQJBmJRN588018amZmxuFwFBcXBwKBgYGBZDIZDoedTic4nBobGwU3p+menp7p6emOjg6/3z80NIQVNdPT0z6fz+PxDA8Pp9PpSCTi8/nC4TAeWDKZ7O3tJQiis7MTfPVNTNjtdpfLNTExMT09TZKky+UaHx+fmZkJBAJWqzUWi01NTY2OjqZSqeHh4Xg8PjAwgBucmpoqKysrLS31eDxWqxWbxdvtdmBSQ6zY1K8cpnvPX/T3xRsi/eGhIWtbe/9EfGaSqgq2a0KtREdXIkkRHV0aX1gXCcSRoT01TXWPgHkJRaXsg72pJEV0dTeF23W+0MQE0EWm07M0NRoxP88Z+mdADxLj+0fx3zPwHcdvouV3Gt8Ndr/G6gl19oC2C7bUTBKcdE2DX1xgjaQpKtQzpDZ5bC09yAkjlCBr/yQ6j65JUh2Do+UmwhlumQZ+ImYuQkwu3Cb8nCiqZyyuMbubve3T18kt0ARqDn+mJhPUyHRaa3VpLI4YoqwgAiIMApEgEWEf/nBUDRnRWjxjk9cDrmPnNWDOhNRuiMxT7/KUmO3DaCqf1UkihuU0NpSiqCmKag60qy3eztFJ4HVifR8a++xncxq+D12R1lIz0dE/BveL+TTItyUFVlRw0VSKsrd1qAmPzhUG9T0ZuBHf+/v7sX4mM77HjX9T9Lhuvrul//eP9j/z3x7Z8Q3eXvhOy9T4T411HcXFwJzFUvC1a9fC4bBer7dYLFqttq+vr7i4uLm5Wa1WO51OiqJaW1vffPPNUCiEnVW5XK7333/fbDbrdLpYLGY0Gquqqq5evRoMBuvr61OplEajcTqd5eXllZWVer0+Ho9jmdpoNJaVldXW1vb29l65cqW+vr6ysrKjo4OiqKmpKbfbXVZWptPp3Girrq5ubGz0er0Oh8NgMNTV1fl8PrvdXos2u91usVjcbvfMzAxBEIFAwGAw6PV6jUbT1tZWWlp67ty53l4wvQmFQgaDoa+vD15F5BWWHBw5XVv7T/qqxmB3gqJebagODw2+Z3G/VFP9ZnPz8XfP9cbjX7/6+7caGr5/9p3KrjYAjhT1r42NJR7f1MzkE+XX+sZj3zl/7le1dS/qNa/XNUxCyLbbabsRCz4a32n9e6b8PjY2RoZatGZXJr6rLe72ngGIpAj6QAA6TIuHiEsQfS/VNTx+rdbq7RpG5wD3EVEQ2OWz8Y8oamBiusRsd4ZbZqEPLFnRkOEpg/uZdCoxHJ/WmN2WAJgmgdsBLNxIkAAAIABJREFUwP9p5E3gevyjNDU0Oa0h3DXe0HgCBeeAa2cDS6G/KbwKVJqq9YS1VhKsXuEQjRc5sEM+3+EwTlHN4Yia8PRNoFkcuTFIzySmp+JJwPcUlYD4g+ZIV5mFHIjPIGY9dIk/LlGIEAD5SYoiu3sv2hwtw+BtBkjxMFVRidRMEn8OolJ3V1ep1akhglpnSOsO/VfgOx2f7wt8x4yaj/ZP8Hl71zN1F3hs165dw747JiYmMKq6XK50Ou1wOJqbmy9evBiPx7u6ujQaTSqVmp6erqiooG/KZrM1NDRQFHXx4sW+vj6z2ez1en/zm98MDAxcuXKlra1No9Ho9fqrV6+GQqHi4mKs/+nr67Pb7Var9ezZs+3t7TqdLplMEgRhMpnS6XQsFgsEAna7XafTXbp0yWKx4OnH4/FUVlZGo1GKoiKRiEaj6e4Gh7Rms/nixYsejyedTlssFoIgDAbD0NCQ0+n0+XxOpzMSieBVBLPZHAqBhylYOgBhMNExEg8Nz2gJ/z+e/11jZ+uTamNTV+vf/fa3oWi8a2jq7y9daIlG//7s+ckY9VNjw9sWe3JqkkpTZ4zV53wRapr6/uWSoXjq6P/5vz0TM4MUdfTt38zEY7eXCv5W+I6ZynOktMz11Uz/wCC/I3zXEwGDI1Bt9xns/goz2dIN9HMs5CIHz/gATHuSyZmu6GhxrdXfC2HQZ419qASOt4dCnCaSM4mheOJqs40E+jmENELXg2zb1tb2zu/eBjxNJYfGYuXNjmbkMRg5L4Nl8dKSaz/76U8QTIN4Pp6iKuyuSoc3hgY0K78jmRoKUCCRdJKq80Z0NvcM+GGDc7/4l1+2RsDRPHpKMLVMU1RzsOWaiRicRA6rk+A8oLuz61e/+hW2WYUPFYoytXReMxH9ExCtiaISFpu5+Oo1zJ3H/hISFEW0dpwz2bvG4zCxQZiqVDwef+utX07EomiegJsN9PaVWp1qV0hDBDXO/zT9zBfrq3N+6PTh7SW/IzkBfaAiiMMv3tmzZ8PhcCQS0Wq1brc7EAhUVlb29PRUV1e73e7i4uLp6enu7u6ysjJYPpyevnDhAhaHsbxssVimp6eLi4uDweD58+dtNttbb701OTlpMpl++ctf9vf3EwRx5coVgiDq6+uxiV0wGLxy5Uptbe3Zs2cjkUhdXV0qlXI6nU1NTVjHYkAbVq2YTCa8LkqSZHV1NUmSLS0tfr/faDQ6HI7W1laTyVRbW9vc3NzS0lJRUdHQ0NDc3Dw8PIzx3W6319XVTUxMzMzMkCQZiwETBoeBptKJ/+Mx/avZ0tza/b8uvl3n8z9wtdjb0/0Lk/W81V5mc33r/PnBwYl/vHBpPJH6t0bTb8zmGQiok/od6XqovKw8FD78u7e7xmb+9tL5iy6nOhD8zsWz0+kZWMG4fbY/Ft/x+irWv8/y3yG+B+C7zkLqiYDe7q+2+4yOgNriDnf1gocvEFhTY2NjjU0mpHODX2AyneoeGStvtHs7+0HfkoYPo6GhoaaGxqHo8BS4JQAk7B+dLDE5PC2dU/hnm6bGx8fNFlt1dfWLL54CS6I0NTweLzPZzaEOAH6E6MPDI0UFh3X6Sojqh+T0sZmUxuYyOrzgnxd8uYATGKfD5fcGBoeiaPqHAdT5I1o7OQMKo1QynTp58vi1S5ctDaapiRiyy4Uemj2hcqsrGk9e/yZJjY6OhgLBdBpRr1C0P3NrR7HZMRRD6zcUpdWqf/nTf6Jm0hF/GFQzcL+Uv73nmsXd0T+CYhtA7I7x0fj3//f3pieQRA+zCeXt6Sm2OWGJ1RWsdH2B7zTu/ldlbi98xy8zraXBhw1oq6+vN5vN2H+6yWRqRNv09LTL5cLaba/Xi6cHgiDcbjdeKcVRvSiKcjqdfX19NTU1LperoaEhkUgMDQ1hSX90dNRsNjscjkAgkEiAl/aBgQGDwWC32202WzQaDQbh3aCbGh8ft1qtzc3NFoulvb29u7sb62Ta29s7Oztra2urq6vb2tq6urosFotOp2tpaZmcnHQ4HHiVuKurq6WlJRaLdXd39/b2jo2NNTU19fT0pFKpcDg8y/bBJMZkqq0/+ova2leNlW/Z7BNTlMZFdsTHrniCv7E5f1pd/7Vz73SMxc7ZnYlEwtnWXRUCn1bT6ZmhiZl/MdT8oqH5V43NkzHqy+/+9ud1jT+vrje39CNrzVnHUrcFyOPfQOZQP+X66s3wPdLdB3qVdDIeG3/llVd+/vOf3/PDu0M+cLmepKiW/sHyRruvawAk6FR6dCR2/4kH/uUXbz308KMD0WEkw1KDI9NljYQ7DK7Sk4npyfjEAw88cOrFF7761b979bWX8IXRiclys8MUxvgOqp/WSIdcqnr7P97BEf6oNDUxmdY7vPVO3wSoT1LJ1NT75947fu99L7145i/+4i9HJmLwHNJUtT9cbnOC/I40+489/9S9x3/08ssv3//gSexBIZ4G/UyFhRiNw2dBOgUBsyOtLS88fwqvt2NqlrW1s8TkiE5MQdBvitJUad4/9965c+deee1V0NikYJCu9q7zZrJrbAopo0DjPxKbPn7iwfHxUfRJAeoqwHe7q4IEGqXhP1t+x/4jP/n66k3tj2jLIIzAtHUSNiyiD2mjJLoatj+6fghOAtBWUFRUcN3idLaw8HBBQZGq8DA6VVRwuKig8OixgsLDhYWHjxQdhRg0KAxN4eGi6xdCSzh/3ZpJhdwQFNG2V9hQa7bPjP+w/5mXXnoJy8KZ78mNb07m2c9JHsN0NBrFmhM8qkQi8SEvejeMNRaL3ajnSafT8Xh8dHQU8y/pWYSiqHg8PjQ0hEvwPhaLYU3LDW1DQSKRGBkZwVqjdDo9OjpKD28UbfiqzPzk5OTY2Bim39CBLHBmenp6ZmYGe2bGJbMm5siNyEwyMTI2isMZU4nUJEW9b7X9pKHxJYPxnWbTCI7Jg/qj/6CpVGpycnJ8fBxe6cn0Y5r3R8fiAzG0uppCxPmb3tVtUjgwMPCtb94lEYkPFxYdLiwqgjen6EgReo0OHztceOTEiRNdXcCfwfL78PDI6Og4GWrRWFxYP2Owe42OQIWZDPUAduMILTUNjf/yL7+6886/KC4tQaoNqnNorLjBjqP6pajk2Mj48RP3/+u//ooknTHw5QKo3zs2UdxMOFs7MJQ3Njc8+/xzyWTaara9cPpFrPEYGI6VWcjmEIrolJ7ls548fmJwcBAJ9NDO6HRSa/Manf54AnD8D4T9v//6XViQ/+pXv4ZW/mFQdb4Wrc09OQWq9jRF/fiBhxrNpj8EbDp54sekz49cx1BNwbYSi2tsEiQV0CylQFv4xDNPo68HWLKlEpQ10lVsJaNjEM2Goiir2cLlCX72+k/RaQT5KYrs6L3c7OweRaYVSWhqYmLi+L33xeKoe9AfUt7ugWsWt8YTUJO+ChrfW9qu898/I/4M1s98cnzHAEhbiqpUKmwjivf4kHYJgKqpCgqUhYUqjP6Z1bBzAtX1DbepUhVeb1NZUKBUqRTXz0NHhYWqgiKVqlCJCwtV4OgGhlRQiH+mcL6oSKFSKpVQZ06naGCKggIlHgY+S7efmcEudMRi8alTp+iXl0YBuuTznKHJ5jRe49FihfWtRk5jN305XZO+cM5zwOtL9Cx444V0C7gO3QUupw8zL5yTp7vIbIru8UOZ66QG/BrTseqpJLxVnfEprS9QTnp6scY3ORuOas4dgY4WfQfUDLZTKdC6Iz3ynM5vv8M/sI++/o27BEIxvEUFRUoVep1QpkB1RKkC/vsH+pmhoaEhEA4wvoM5kt1vdIB+psJMBrt7gTSTprx+31f+5n81NZm+953vXiu5iiJuAb6XNjiCnUNokTI1FZ8Oh1tKS659/ev/0NbeCX/cFLAkS5sId2snPOo0VVNX/fSzz1BpqrG+6blTz6cRoWUsliw3EU1BrCgHWEwm0/efPN7e3oo0P7DoGk+kgWhP+KdAYz8zPh776je+OTw8ODYa/fKX/2ZwcBCrg4CPaHHNIEfuFEWduO+kzWFNJpOPPvq40+VGanoUbdXmjo7BSgz+iwcDvmdffA4QGtYNAL4tLV0XmiwjMeSDjErX19f/6MTxF55/sbe7J4nXWtOUo73zcrOzZ2zW6CSZosbHR4/f96Px8RhqFjjA3u6BEptX7QpoXT4dGZxdX/1Pwndsv/pJ5HeMjAqFQi6Xy9CmQBs+lEqlcrlcoVDIZDJcolDI0JFEIhFJpWKZTHI9wcVytOF28F4uV14vlEilYnQJVJNKRGKRQCjki8ViiUwqlcM/8EMs5gm4DD6bwc7POXRwP5ORJxIJ+EKeWCQQCfkCPpfLYXE5LB6XzeWwBHwun89lsyFCCIfD4WZsPB6Py+Xy0YYzHA7n0KFDjz322JyX//Z7ra9bn9Ij/3R3RF9FZ2hgpUvoDN3XrTK0JI4boS+Elx8JT7icRn/cTuYpunc6M+daumu4ClwDos8PROaAS4BHMbusR9ekM0ioBD4ceq0RPw6rHugat2FmYGDgb7769XwOXyhTCmVKgVRBZyAvl//w3vvaujqx/D4M28jIyIg7DParNL5XEcEKMxnu7QeoSiX7+nq+94Pv//M//eJvv/I3Gp0ahNw0cB+L6y3h7iEwMEhNDfT1P/jgQz998417772nq7sXYWeqb3SipNFBtgA3JpWcicXGH338kWeffuYf7/rW66+/DmXJZHQkVtbsMAXbgVwD3ELYTp64r72tBXIwe6TGpxLAo3d4gbGIROOq6tqTJ4+/8fqrf/uVvxkdGYbJGtZXw3qnd2oS9JR/+O587MePmizNFJV69OHH/MEAlQLz5eZQe7HZOTIBDi9hokpRXZ3tz516FovqU2kID2lr67lstg/Hp5EbspTeWPn+hfNWq/XkyeMjcWDWJlOUs7un2OzsGJ61OAH5fXz0xPF7Y7FJNJnBgoOna7DM6gXJnfR/sL76meP7H2vfROO7TCaTSqUymUyBsB7nMWTjEplMJpFIpDKhVCYUiXkCIUcs4cMhQnn6WroyxneFQiVHm0w2i+8I5aVysUAsEggEPAivKpHJYBpQAr7z89k5+w5mbd+4buXWjesYzByhkC9TSMUiHo/LZDJy8nIP5ucdYuRn5+cdYjJymMz8gwf3Hzx4MDc3Ny8vj8FgMNHGYrGYTCaHw8HhwlksVl5e3q5dux566CEMMTSywA/r9tnwsOnB48wc0JxzN5koSZ+6aTvwiiGXenSDdIa+8MZM5mBAkrvulC+zXzpP90tfldkgXUhn6LN0C7gEcdSQTJ7GcSogj4lrcy6Z7RHDB+iGAccQcxvW7+jKt2NmYGDgf371a4c4PI5MwZEp2FI5nWFJpFyp/Af3Ab63dbT39/cPDw9HoyC/z8F3oyNQbnKFe/owvoPv34H+2uqa8dGx8fFREJYTye6RsdJGm6+tFzlwhwXGwcHhKqN+dGR4Vj+SSvePxcpNLiIUgXaAsDgzk5w26g19Pb3R6BBC89To2GRZs8PagvTvVAL/VPr7elDcKPRVlZiamE5qrWS10x8H4TyVTqaMVTXFxVdrqvV3feObE2hIaeBHhnQ2cgpPAsnkcP/ARHycolJDA8MT8RiVBp1MYyBSbicxvsMHXpqqr6t57IlHQfeSSAJLMk3Z2rquWED/jqaXVCw2PjgShSmtvXV8agw5NEb8yHpL33gMVoDBfSbIFoMDsFB0/aFRno6BErNbi7zWVLpuIr9/9vz3T8iPxH6+MC7L5XKlEkvcUqVSnpkUCplYLMSYLpbwxRK+TC5SKCUyuUgmF4ECBW2Z7SCVN3hdl8MmlculaI4QicVCmYivkIsVCpDlJSDASxUKCK0nYh5i52Rt37Rm3eplOdn7oX2ZRKmUC/hsDjufxczlsPO5HAaHnc9k5HDY+Ww289ChA9nZ2Uwmk81mYwkeyfJsDofF43G4XDaLxeBy2Uxm/p49ux5//HH8Jt+IILfjG/6xY77xNjMheM7lN1aeU+HGw8xLMvM31vzTSzLbBy4bEu4AgBBDHlvlZNaZ0yO8ign8KZGCkOBgnHLb4/v/+NrXD/D4LIWSpVAy5QqcYSmUbJmCp1B+/8Tx9u4ujO9DQ0PDSIB3h1vBoRjiR2L9DMZ3LIqC614U0AJpVFDco2Sqc3ikpMEa6gIteTI9q6pOJYEzjitTaap3ZLykETwmAicdZOpEEr6xsE4fOOx/0JKPjk2WNtmbQ62z+jL0F0olZ3CnIFanUxjfDXYP+I9APEu7w/nIIw/df/Jen8+H2ZCg//GGNDYXWl9FfB3QwKTADztWxaDIsc2h1msmYmIqkULjjE/EfvrmG06SgB8Bqk8lU9ZQ2xWzfWQc+DP4t4TgG7pG1E/4fLGFW0ssrq4REOcxpiPWJkxP8LEyDZ+Fvp7hCrtfh9zR6JzX7Zsy5PfPBt8z+ZGfRD+DV0FVKtBwK5DmhdbDqFQKpVKuUMjwXiaTgDpFwpdIBRKpAAO9QilRKCVyhVhxsw0pzQsVCoVUKpVIRLMXioUikUAs4srkIgT6oBcCoV4i4LDzWAezdm9Zt37VkuwDe6QSAZ4PQAPDzKXBncth4EM+j8XhsLKzD+bk5OTn57NYLFpDw+GwWCwG3jOZ+Vwum81m7tuX9cQTT+DXHgPBR8ABrvY53NMCMn0jn/AuMqvRt4/l4sxTtHKcLpzT48c+k0xZe04eZDuMsagVerK5sRpdk65D3y9kkJIXv2xoaQ69avCK3mSjb5ZKU5NYLZAAUMDv9E0uuE2KBgYG/uprdx3iCjnygjmJq1Dxlaq7T5zo7Oppb5+V34eHh0dHR2/Ed7S+iuV3pPNCt4/xHYu9XSMTxQ12bxvocMCeGH0rzaIh9pCUhohOZc1OvL6K1mlh+sVIis1Z0xQVHZsuNROZ66swqaAZGnQz8JdOxFKUxkrWesKxGWTZhCxG8eca/jKcSQIpssYT1trcKBwIsm7C+nQ0coiyhCy06vyREpt7JAa6F/hpIATH46dS1ExyGqLxRbqKbc7RCZiKQNWDpwdkpAq6KTTB+Xr6LzURCN9hwQD9ykCqQO4wYDJMU5S7E/Tv4JLM6bspvn82/mf+2PVVGt8xxMvRhrQ0s3r2THyXSERYchdL+CIxTywWyuUg5sO8oJDKlTKFSq4sUCgLQCsDihmlrKCgSKkskMlA9heJeXCVhA+6exnMEAIRH30xyBVysVjAzDu0a++2zetWLt2zY6tMCpofHo8j4HOZ+QweK5/PZgg4TB4rn8PIZefncBi5Ih6by2Xn5mZj5QyTycT4jpTvIL9zubDncFhYTX/gwL5HH300E1/wi3xjyef8Bc9Ew08+1Fvd5pxyfDgHVT+il8yamQO7aT6z8FZt0uO5MUODPhKcPgzn8CrOltzYC8B/Ak5PQzi62ekB3ubbeUP4/o1snoCrUOHEkSu5ChVPWcCRK/nKgh/ed/JD+D4Sxfz3TP5MFRHU2ryOSBs8FoRugN/oweBofOk05evoKzW7nKFuFMrjutyK/sdxsZPJZGv/YHEz0ewJYbU6fGAheEfaMHjKCYrq6h8ps5BVZBDzGqdTs1P9LFAi8bgrOqq2e3V2D3DS0UCwMwNYbEGHoP6OgaVbhc0zNAJWUHjkAOqzLojgD5xIUkZX4KoZ/OqA4yF0cQL5E0VzCYwnnQI7qctmorUHOeRAZH9oECnxEGEURljvC12zefw9/djyCxvogrMmdFOYdmQOdZTawduljvRrXTeR3/9s+I65JZn4LocNJG4awWUyCVawCIQcgZAjEglwkskkSOiX0ICOUZ4GerS+CgofqVQsEvOEIq5QxBWJeRK5QCDicvkciUwMfQk5XOaBA1mbNqxesXPzZqkERHusXWHk5fM4XAGHKeSyBBwmOz+HlZeN8Z3PBgk9Lw+EdwaDgeMLcrlcHmwcmBsEPIGAx+dzBQIei8XYty/rscceu/GNpnHkxlOft5I/VpT+ABAz7oRGcFxG334mUmdU/5DEnVk+J0+3k9lpJtRmVgCRavbtnm2fPsy8R1yI9x8qv65tp69C6I4+1ecMCx0CBCRmVTrw4U8jys0q3y5lAwMDf/21b+TwBFy5kqdQceVKnOErC3jyQoGi4O77TnZ2dre3tvX39+P4qxjf1WYntm8y2L3V4HTXr2k0WexkMBj2BkOBSJvXFwqFIv5wyBsOOxxObaNVYw9oGx2NFrs3HAyGWgPBlkgkEggFA5EWfyBEkqS6ps7obtU22+pNNn8g5AsFfZFIKNzm84d9oXAo3EK4PYYas4YA3oup2eYL+IMt7b5QSygS9gX8gUhbIBj2er3augatA6YcfWOzz+fzBiO+cKs3GAiGQ/5AJBAMewLBmnqT2g6ufY01zS6vzx9uDYfayICvpbXd7QkEW8GHUm2jSW13V5AhXU2T2+NzB8KhYGsoEvaEAqFwmz/c6gz7G0zWMouzzBPWNVgcpNsXifhbWtyRcDjS7gkE3a0hfzjSaHGUNlvUZIu60eQg3f5wqycYCYZDMOxQiy/cGgj4zHZHeaNN7Q5XkAE14QGXyNg/cIZ+5rPE90/u/x2RHQtB5FYWoQQMRVgLlYv4Qg5fyJHKRVgSl0rFYrGQL2BLpAKZXISBXqGUKFVSpKURyxUipUqqVEmROl5eWKhSKuUyhVgiE4plfJGUJ5bx8SFPwBWKOFweUyTmqZRSmZjHY2Yz9u/ctWH5po3reVy2TCQU8dg8Vj6PlS9gM0RcJsZ3IZfFZOQxGXmM/FwWM5/PB3k9Ly8vPz+fiTYM7hwUQhYHj0VYD1FkWSzW3r17H3nkEfR1eUsg+MTvNlb7zu5n1YKzuuAPncKfn7fef+IOZyv+UY1/isp/9Hjoe6cz6GahHRp85+Q/eR+4TbplOnPLFmgZ7784g26Wvt/MWe0WQwXjnY+/nVtcjDvq7+//8te/eYjDE6gK+coCLpLZ8Z4vVwmvy+/0+urQ0NBIdMLT0qk2OysdfiMRrLaDV0i9PWgkgiX19gv6xsvVTRcM9ZeqGi9VNV4w1F80NJU0WI0OX6XVXePwV9Q7LukaLhubLxhN5w1QB+rrG6/V28DPsM1jcAbLmx0X9fUXDPWXa6wXjKYL+sYrhvoretPVepPWCa7kq52h8mbrRSM0ftbYCNX0zZerLBeMDVdqTZUO8Cxf5QrorN6LVebzhubLNebzhvoLNU1nq5suGuvPVzdrrECwqXb6tYT/fHXzhar69421l6pNV6qtl6ssMLDqprJmp5EI6+w+LeG/WGM9V9V0wdhwwdgArVWZz9U0vFfdVGx26t1+rctbQQbON1rPVTWcq2k+X918rqrpYo31bJXpXE1zsdmpJUCxrnYELjUR79eYz9U0n61uOldnfq/W/H6d5b1q0+UGR6UzDO7vHT6tK6BxevWuSKnF4W5pjUajA9Hh0dHxod7BP098D1hfLSyQyZUSqVymAGULQLlUIBTzhGKeWCqQykViKcjyILOLeVKZUCYXYWULaN6RCl4mF6IEK66qAhmtu5cppBjThRKuUMKVyAViqYAnYIskfKGIq1JKpBK+gJvHyt2/Z+v67RtWsZj5UomIz+NwmXkA7hwmVssIuSwhl8XncZiMPBYzn5Gfy2Yx+Hwuh8PBtBk22ng8Hh+hPuZHcrlQAYcLZ7PZ+/btw/iO35pbEcDnvFOZ72rmC5w5T2TWmXP5/4eHn+5p0M8WP7E5h5mP8SNOZVb7o/KfbsyfoIsbp9hPcNFHVqGH2t/f/1f/8PVcvpAW2zHQ8xQqvlwlUKh+eN/J1s4uiO/R1wf096GhiTFk32QiQH53eI1WYJrr7X6D3V9FBOvcYaPDV+MK1riCVYSv3hOucYWrCH8VAUz5ajJY5QpUkcEqMlzjaasiw9VksMaNonkQECTE4AhUOoJGp7/ODaeMrkgV2VLtCteTwWoiYnD6tS6fxh4AF/BOX407WOWMGD2RandrlTNS7WqpIoMGJ0QU0RMhkN+JAJwiW4yuUBUZNHpCBne42h3SkyEgqNg9lQ6vnoRDuNAb1JMhowtaM3oiBjcc6ggILaJzhXWusMEbgQqeiN4TNnha9Z6gwRuBs05fOeGrIENad8TgDld6I0ZfC5xyhSvJiN7XonWHNGRQTXgM3ghE83AF9J6gngwY3EEAfbdf54MoJWrSp3H7wUe8y6P1+LXOUJnN6W1rHxsbGwKbv7HBnoE/A75jKyRlgUIsFQlEfKkcyCpyuVwo5klkQhC9pQKJTCgUg5aDz+dKJCKsq5FKxTiPDzG4S2VChVJSWKRQKGTXz8LyrEQq4AtYQhFHIuVLpHyRmCuRiQsK5YVKiZCTJ2AezNm7Y+uGNTn790glIqlExOOC8C7gMEU8Np/NEPHYQgEo4ml8ZzLyOGymUAAk93y0MdGGqe6gnUEbBn0ulysUCjkczsGDB5966iksS9IYQS8nfuQ7BSfxe0VfmInvn1o+/dhOb8cKmY/oxof26e5oTpu3buRGPP0sS4B4cz19+JsMRkQPks58uM7sSJDYfus7+MRnsH6GKZZizQyoZRQqgaoQ9ooCobLg7uP3Y3wfGBgA+vvw8Hh02OULQuwOT8joClQRfgTEgNFVzlC1K1ztCtd5WgGjvRG9w1tFBCEGiN1b5QpAHD47WUl4ys0OjcmpNbvwHgXxIMEoiWyBcBkWiPanNTvVJlJn9WpMTr3JabD4dSjUn4Fs0zsiOgvEgdJaPForCXEBzW6NidTb3JV2t9riNjjDRk9EbXFrLR6dhdSYnDoLqW6GMNwwBiupsXoA4p1gmaWBQ7LC7iqzONUWt8bq0VjJcpsTlPiusNYdKbO5KxxuHFlQbXeXmolyq1tjJXV2j8YKupRKb2upHWIBVtp8xWYHuAmzu8utrgqbp9zuKbG5Eax7K90QHVBH+vWeYKUbBaXywOMyEkGjK2BwgluCGneoxh0yOnwVrkgZ4XaFW6JDw4Mj0ejoyJ9Y4r7YAAAgAElEQVRHfi8oKCooKJArZXwhh8NjiqUCtF6qEEsFiI8OyI6BfnZpVCaWyiVIKpdKZGKxVCSRieEQsSSBEoMkeqzMQdAPhEuxWMjjA76LJTwAdylQ2guLFFIRW8A8yDywK2vbhv17dgoFPKGAx+dxeFymgM8W8AHWuRyGRMDFxk00vrOY+Rw2E8ydEL7noS0/Px9L61hsp3U1uJDFYh08eJDmz2DT/Mx38pO8Vp8VWn2Svm7fOhno9qGb+BRPj75kTps44P2HWkcHc6rhCjctpE9ldkHnb2z505V8nJYILwqn0uCsGBPyZvu51UhwOa6E9TMMkQQEdgTuXLlSWFDEVxYIlYVCZcE9J2fl98HBwVl8H0P8dyt5udl5sc52odoCuos6+/ka2+UG57lq69kqy6V64n2j+UKtvcIeNIBo78VJZ3FZQ21kRzfZ3uVt7/Z19Pk6+jxtXd7WLiLUWkP4NGa3zkKafRF3pMPf3gNnoUJPoLPb3dLriLTVkD61za+1+EzeMNnS4W7v9Xf2ett7vZ39nrYeT1uHM9xW5wpozG61xVXjChAt7b6OHm97r6+jz93aGejodbf3Ols7mrwRWDOwemrJINHSTnb0ku0d7s4+SO293i6o0+hr0dkBoKvcAXukjWzvcrV1err6Xe097s4esgPqmPytoMe3+42k3xZud7X2ujv7XO09rvYusqPb29nvbOtuDLSqHaTW5dMSXo3Do/OEr1jd7zU6fl9ve7+JeKfW9l6T83eN9t/WWX7fTPy+wf52ten9RucFq7fM6fO0to8MR4cRvg/3DzhJ1391fL6ioiOqwgKxVMTmMlicfJGEr1ABYRGL7Vw+i8HK5Qs5EjBrEsgVs2iOl0/lShnGd7lSJpOLsN5GJgcepFQmlCvEkORAuxSLhUIRwLpYwsNSPAj1Yr6Ancs8tHvP5jVZOzbx2aBvAcojO5/Dzudx2UIBTyIW8rhsAf8m+I7tV1kcdm5+Xh4jP4+Rz2Ax2VwOh8dlgVUTcOGx8h0rbVgsVnZ29lNPPfWhZTq0xJdZ8glfYxoyMt+3j7iWfl0/YeZWTWV290maulU7n1U5fg54YTYzf+PEmTnyT937RzTyEac+dXcfeyGeZq6vE0P1ucP4pAwd+iPjQ33S00NmKf2cBwYGvvKNb+bw+AJVgbCgUKAq+CCjKBAogB+J5ffBwUGsnxkfHydbOs5WmV47V37m3eJXf1/88jvXXn6v5JXfl770H9dee6/89fcrXvqPa6++W3bmd8W/uFpV5QwZiSDgu8Vt97ePI3YhHhVmj2D+zEyaCncPaJsIizc4gdw1YrdfM4jcAtMXopqAn7JmR40rODGNuExonXsG+ZLH7Uyn0l3D43oU0q93HJwG4IVw8E2PyC3YLftALG4gfFor2T0ymqDAFTCmUuJe8PCGYlP1TqjTMTyGY3Jgp/V4SNhHxXgiVesJl5qJYF8/ogbNjhPY+6jrJAX+ik2BgMYe0DlBJ1PuCr5ZYnj2XPkzZ0ueO1f87AXtM+c1z1xUP3OxHO3VcHhec+aS5ne1Jk9r+8TI6FB0cHgkOjTw59C/Y+8ubC4rh5nL4DKFYoFCJZdKpQIRVyjmsTj5+axsroAJ2nOkXcGEGZUKvL7A8ini1YDIr5w1bcXUeLlCrFRJpTKhWCzGTBu0KguTBJonxCqZWCxgs3L379q8dveWdVxGjkjIRe4HGDwuk88D3wMY3/mIBiMU8jElhoH07yxmPuA7j89ks2CxNT8vNz+PwWJyeFxQ4oDaBjbstEAgEAiFQjabjfEdvyr4JfljlTP0azb3NaZPfJH58BPADwo/7Q+f+TRHn/qx00A8J/NpBvHHXJMJ/be8DvncTUMMjA/pAGlwv1VmeCT6t3d9K5cvwMjOV6qEBYXCgkK+clY/g/Xvre1tWD8D66sjY562nt/pm158p/jVc9o3zle+dl736kW0P6d96d3y187rXjmref2C4dVzlS+/r9VZvXqkmtebSX973yy1NJnEriBgYPBAYa24d2Rc3WD3zPIsk6nkFBDDZ+8fc6VSw+NxdbPDHIBwY1Q6gTzAwClsJ4TbGZtJ6S1ErdMbx9ieBBfvs7Mk9j+RBk859Z6IgfDFZ1C0KOB1gqUrCGrgZHiGSgMH3uYPVzQ5huMY/5E17GxDCXBXgDiTpnBnhdk5MDEOkI7Mt2APRIkEmDenwLWwu62txOzVEn6jJ3TN7n/hgubpi7oXiqtPXa08daX61GXDC1cMpy7rn72gff6S/sVrtc9dqn7mbNlvq03B9t7J0fGh6CDoZwYGXaTnv1p+LywslMplh3KyD+Tksnh8oRjYMhIJkGdEEj6sgkq4IimPL2JjBbpcLlUgFzT0CirmvwN7UiGmpXhs9ASeDJATAmwMhTU8AP1KuYzP5OYdyNqxZfumdYzcAzIRH5ZSeRw2K08k5IpF4HAG1DVCWC4VIU81GN+ZzHwWSlw2R8DjszjsPEZ+Tl5udm5OHiOfzeXwBHyeAK5CSvhZ8rtAwGOzmdnZoH/HmJ6J7JirR/+K8HuIoeTWoj3EkcngP2RyIWhZ7FNmMptFP7W57WAV8E1P/XkKUYwF6BoMuBER+TqYZT5V9DDn3gumkdz0ljMLscUgvrvM8s/sfj8Y+U1G+EEvt6h20yHBnwm84uAHkgArfEjTKAwsljUBGdFDQ+Lih4V9DOuzsI/MaeYA/dh47K+/+jWWSCJUFvDlSgGo3VUiFWhmhMpCcUHRD+490dbVjfkzIyMjEH91aNDT0vk7bd3p35e8cVH/2lnty++rz5zT/ORS5c+uGt+4qH/p3fKfXqmCwvcqXr9gqLT5QC/vDOmanb4O8CGMBpxA0TkQEgLxFIz7+8YmK5qcZBhC5s7WQSGcEObiktTIxGR5s8Mc6oBHAjalODgXbicFbabS44l0pZWsIXzI9cAMnkiAeA4gjyF4Kk1R1e6I1uYFfE+D/xnSYR8ZGUHPD0I6UeibwOQHJf7QFBLHU7NmtzCzgM96ikpOJdMpc0tvidk9BL4NkDkE/PHB5QX0BQ4vwBzO09lVbPdqXb5Kt/+qzfPiRe1zV6peuFp16qLmyUvaVzR1r2tqf6ar+2dD45my6mevGZ6+anj2ku43VU2+lq7xoejAUH90fOzPg+9FRQVSuWzf/oP7DuWy+SKBEJTpIpGAzWWIJHy5SixXicUyPlfA5PLyRGK2HOE7FtsVCOixFI+Z8lgngxmT2HsBsHGQrkYqE3K4DC6PiR2TCRkH92xdv37VspwDe8UipHNn5TNzD/G4TKlEIBKCQkaIEsJ3kUAwS2mfxXcGE0jxSH7Pzc/D+J6bn8fisDk8LiRk1sRmM9lsJibCYxcFf/mXf3nmzJknnnjiueeee/rpp/+grnn22WdPnTr1LNqey9hwyTPPPPPCCy+cOXPm5ZdfPpOxPfjg/ffc88O77/7Bj350949+dDfO33vvPfjwU+zvueeHmelH9/zwpomuc/fdP8D52b5uVf/uH9xzs3TTxv/Ewnt/dDfu6/h9Pzp9+vTLaKMf3dNPP/3AAw/cf/8JnE6ePJ6Z7r//xAMPnJyTcE1ceOLEfQ88cPLRRx9++OEfP/DAyYcfuh+nRx5+4JGHH3j0kQdxeuzRBx979MFHH3mATrjk8cd+jNMTjz+UmZ568pEnn3g4s+TJJx5+6slHPjo9/dSjOD3z9GM4Pf3M4888+8Sc9PQzj7/w3JOnTz390gtPvfTCU6dPPfni84+dPvX4Sy88cfqFh1B65MVTj6CSp14+/cyrZ57L+ImdOX3mpRdfOv0H57rPQ3rpuRdP0/vnT7/0wpmXH3/6maL/8T/ZYinGdHFB0Rx8/94997V2gn/g3t7eaDQ6NDQ0GR3yR9p+r65++b2Sn1zQv/Ke+o0L2p9dNZ5+5+r3XvzZL0urXz+vOfNu6RsXtK+erXj1fU2lFZZYDY6AxuQM9AxNwjSUSlPT2EEj8uBLYYTtGZsqaSDdrd3YXzAEQkVWo9fnLJinohNTJY0OS0s3IHoqBcoehMZoSkDmRhQVnaE0Vk+NIzjrXywFlklYP4MmUYpKTicpykC2VVgDU+BVZiaVou7+wT1NFitUQwGeKBRXD/wD2/w94Gg4NTtPID0PBHOFqRLFb2ofvmr2DMVjSOpHExOqk4CPALjbKYpydHZdJTxq0q0lXcWE5+XL2ucvGl+8ZHj1su6ftXU/fP0XX3nwyb978IkvH3/4h6/8/PXiytNXKp+6rPs3Y1OgrWcqOjY4PBAdHxvsH/hs5Hfw+NzaGgwGcRhMs9ms0Wi+/e1vs9nso0ePYm+9RUVFR44cUSqVh48WSaXSPbuycg7l5ucyuFyuqlDJlwjymTlcPguR1rkSOU8oYQvELImUL5XxpDIeOC+S8ZQqkapAqlSIlQqxTCkC7qOML5ELZEqRXCmRKcRSuUhZICsoAhdjQr4gJ3sfl5UtE3PEPEbuvp1b1604tHeXiM8S82ERNS//IJOVw+fzRRmbUCgUCEAaF+EPAQ6XxWAy8xkcFlvE40sEQhaokJj5+UwGY9ahmABtXD6Hy+fwBFyBiC8UCwQisJUVigVMNuPAof1Z+3Zl7du1Z+/OPXt37s7asXP3tm1bN27ZvH7TxrV4v37dqrXrVq5avWz58uW7d++WSCQ07ZLP5/N4vGVLls6fN2/+vHkL5s2fzcyft2D+vBu3+fOhBl0t85KbVb+xgY8vgRF8Rhu+l5vtF+D7u/FU5q3hgcyfP5+ZzxCJRDyeACWeUCjM2rMLrl0wb8FC9MjQgNHDgYvmz5u3aOH8xYsW4G4WLZy3eD6khQvmLVoI+/nzYL9507qVK5YsXjRv+ZJ5K5fOW7po3tqVCzesWbR6ybx1y+dtWDV/w8oFm9cs3rR6Ec7g/OY1i7dtWLx1/aJtGxbv3Lx0+8Y7tq5ftGPTkl1blu3edsfOLYu2b1qwfdOCbRvnb9s4f8fmhbu2Lt6zfcnencv27lyWtWPp7m134BLIb12atX35/l2rDu5Zc3DPmgO7Vx/YvRrl1x3Yu/3A/t0H9m3et3v9/t1bD+zduXPnxn17NjNydvEYu7l5W9nZ61nZq1jZK1jZK9i5y9g5kOFkL2UfWsLOWc1j7UMfndg4D5aOODxuLpt9gMU+yOUeZHPmpEMc7iEOVyhT8iVycUERUssohAUqgUopUCklhYfFBUXfufvutq7ujq5OsG8aHIxGR8dH+iItHW+ra144q3ntYtXp9zRvXjP+7Jy64O+/8dffve9/P3r6X9WmM2d1Z85XvnJW85NzOuzqy2D3qk2kv7MfxN50MhafeuONN1995cx3v/vtSAsoW1LJGdo/MAB6MhGPT7zy2qvjoxNXL18xVlehzw9qeDiuNjst4U6Qj5G1MeEkT56478EH73cQLihIp8A/sJU0EF6A7lRiajrx1lu/npqKj02MvvXLX4EnGTRj1HojGis5M4PsUtPJ5555/oFHHjx+/N53330fzqdTiUSqKdhWZnOPxXDAWKqhrvHZZ5768WMP/fu/v51KIJc0VMoa6b5iIqIT4EP4avGV06dPP/zoI+fPXnj04Ude++nr01OgJXK1d5XaA5U2n9YTKLZ7n7uqee5y5XNXdW9VNn71+Kk7733gkX979/F/fuex37575LsnvvP8L94s0z91QftbfaO/o2sECDRDo2MTg8NDpIvo6e3/k+Jr0/4JAoFApn+xu+66i8/nFxSAO/XDhw8rFOCH/ejRowVFKolEsnfPvkMHshl5TD4fmC0iuRjr37kCJofPEIhZIikHGyhJ5RKRRCgU8iUSiQJt2MdkgUqmUkqVColCLqWTXAZKefA8I5GwWYycg1kSIUsqZOTs37Vr89rsrO1SAadAJhbzOXwei8vJZ3PysHSP6TfoQgB2nIRCPpbi+TyOUAAKHLFIgJTtbNDRo7VZPo/F57F4XKBO8rhsDpvJYTPZLAamzGNB/+CBffv3Ze3bu2vP7u27dm7duWPLtq0b169bs2b1ytWrVqxetWLlimXLly1ZsmTx4sULFy5cmJWVdfjwYezdHgcPUalUmzduWjh/AaQFgDs4LZg/b+HC+TgtXrQApXmLF+G0YNHC+RjCFi+azc85pBuBdq63iQAOLqQTfSqjwXm4O7oOnaErY9z8+D0gMEoIzj+of72cbhBnFs8HXMYJD3XhgnmrV62QSaRHjhxB3kkh9MrRo0dZzPzVq5atXLV01eplK1YuWb7ijhUrl6xcuXzFimXLly9duWLJhvWrt2xev2H96o1rV21ct3L9muXrVi9bv2b5+jXL165ZsXLFkrVrVhzYv3vnjs0bNqzYtnnV9i2rt2xYnrVz3cG9m/fsWLtv59r9u9Yd2L02e++GQ1nrD+5Zl7NvY86+jdl7N+Tu35R/cFvega25+7fkH9yWs2/zoayNeQe2MrN3MA7uolPe/m25+7bm7d/GOLiDeWgnTjjPyt7FztnNyd3DydvNY2TxmXsFrH048Zl7+cy9bMYuLiuby8nncA5wGFk8Zjafk5+Xt4/NOCgR5BdImSpxtkKwV87frRDsUgh3yPm7lcJ9SuE+lWhvgWC3SnhIJRcVqI7iGAbXWcsqkULBkcm5SiVXDv7CbkxSVZEYCDOgeRcXHUb6d5X0cJG0oIDF43/nB9/v6OpsaWvt7++PRqODg8Njo1FvoO09vfn0We1L71T8/LLh51e0R//hey+9ffFtbeM3f/z895557ddlta+dU7/ynvr1czqdzV1FAD9Sa/H4O/uRkgRc5g4Pj9RUG0+ePD42HkN2JLP+gWf9vyNDP7VWc+K+k8898+zI2GgaOWkZG5upMBFN/lY4T6UmYpP/+9vfdTkdVqv5d++8i4T65Kz/SDKAY++l0tTp02f0el2lQXfm9MtIKQqzTI0nrLGS09Pgiwa7Bf633/6mvb31O9/5HuFyouDdVGOgtczmBt9hVCqRSv7TT39+6vln+4b7v/a1b7S1QJypdCpha+m5ZnFhfH/okQfef/99k8Uslyp6u3vuPn5PTbWRSlNkR3eJPaAnAhq3r9Tue/Zi+UtXjK+WVn/18dPf/PHz/9xo/9Zzr3z/Z7/+1itvPnmu5Ms/evQnhsanLmj/r2EW30Et9lnhO/YP3NLSEggE3G43QRBWq1WtVn/729/m8/lFRcCGLCgoOHbsmAptRUcOS6XS/Xv35WbnCfkCxJwRCWUimUIqkQl5AjaLm8cXsbFgLpaBOl4g5gjEAPciKU8g4oolfDBxkkuVClkBCjFQoFQp5QrkLFIqV4jkMpFYKMo5sH/fnu1c5oH8Azt3bV67ZfWy/P1Zcj5HyGEycw9xmaB2FyLjWFiVRdZP2IRKKOKCRwTk20AghJmABnHwH8nIZjOyOcwcNiObmbc/P2dv7qE92Qd27d+zc9/uHXt3bd+zY+uubZu3b96wef2ajWtXrVu1cs2K5TitXLpkxZI7Viy5Y+mihUvvWLJk8R3LlixdtmTp8qXL1qxavWrVqtWrV69duzYnJ+fYsWP40eHvnoKCgj07tt+xYP7i+fPuWDB/ycIFyxYvWLpoPp2WLV6w7I75y5csoNOKpQvpfGaGvmTpovlLFs67VcLVoNmMjpYthvZXLF1IN77sjvk4LV08D6fM+nTjd4BQ/MGEkZm/Y8H8D6ebD4ke9pKF85Yumo97uWPBPGh53ryNG9Yo5Ypjx47RaHXs2DEuh7Vu7co1q5etBbxejjPr1q5cu2bFmtUA5ds2r9u1fdOWjWs2rlu5ecPKTetX4LRx3fKN61auXbV0/ZrlOQd37969ecOGZTu2rtm1fd22Tcv379mYd2jH/j0bDuxef3DPBozgNJRjWGcc2p63f1v+ge2MgztY2bsYB3dkgjgrZycnbzc3fw87dxcrZycrZyc7dxc3H6AcH3Lz9whY+4Ts/UL2fgHzgyRkHRCyDuASDnM3n5PL4zI4nEMcxl4BO1fIY+bn7+cwc6QCVqGUXSjJV4oOqET7VaK9KO1RSfYpxXtVoj0Fwp1QLhcUFnwI34HYpgRM5xcAGUagAJPUzCQAOyYlxneBqkBUWCQqLJIWHREqC/Lzc7Oydn/ve9/p7u5sb28fGBiIRkcHBoYGBodbOgbfrqg//Z7mZ+f1v76iz1bd+XffufcnV6veOKt+8/fFm/JF9zz/2q9KDK+/X/HKe2qM70aHLxPfwVNYdPTHD94Pjn8BXkF+7x4erTCTnrYuDLgYUr/8V1+5cukyqGZSiRSVHh2drjARyP87NT092dbe+dDDjyKRHBy+gMsY5D8SDK+cPsB3NCvY7cRbb/3yl2/9wkN6QYGCtjn4fuK+k54gnH3yyafL1RV0fI9SKzk6AeuraYr6t1//RqupSFDJF198KRIKg+RPpRxtfZebHYOjE1SaevLpxwiC6Onrvfee+6hU+tSZF7SaCipNOds6r9nAnEpH+irs/hcva85c1D//XtmBoq+8Vt/wqr7++Bu/3rp5//2/vfzjt/792ENPvFTVNAffx8ZjWH7v7un7k+T3vr6+jo4OOr4HQRAWi6WiouKuu+7icDhYDi1EG5YRio4clkgkB/bt57M5OAAMuGyUiQUivkgiFEn4GMrFMr5UBm4JpAq+QMziCvIFYpZUwYegAkhjg0nxtNsZ7GVMWaBAFqoCRk72zq2bdm/bsH/nxh0bV+7avHrP1vX5+7OEzHxmzsFDWVmMnIMCDnDe+Zx8AZfBZeWy8g+x8g8x8w7m5+zPy96Xe2hvzsGsQ/t378/asXf3tqxdW3fv2Lxz28Ztm9dt3bR2y8Y1m9avWL9m6dpVd6xZuXj1ikWrly9Zs2LpmhVLVy27Y+XSxWtWLN2wZuXm9Wu2bFi/ZcP6rRs34LR986adW7ds37xpy6bNWzZt3rFt+7YtW3du37Eva29WVta+ffv27t3LZrOP4BiARbDhZ7hnx/ZF8wD7li6af8cC2OP8kkUArMsWzVu+eP6KO+atXDI/M2WWrLhjHkoLli+ef2NaunAeTksWzGaWLZqP0uzh0oWzvSxfPNvOijsW0IlucNkiqLZs0QdXLVkwD1LGXIJx+foebgenzDpLFs3LTPT8sfz6zeL5bNkd8xfNn7d5w2q5VHbs2DEcSRHJ74fZLAZA+Zol69cvX79++bp1y9atXbFu7Yq1a5ZDZvWyrZvW7ti6btP6FRvWLtu8YeWWjSu2bVq5af2yjeuW4j/uhrXLcg/t2Z+1ZdOGJdu3rN61fd3Wzcv37d6Qn73jQNZGgPisjYf2bMrZuwWn/8fed8DFVWX/u9aYmMSY3nvvDdJDit2fZd0EBuLu/tQYdYu66jbXJJBC6FE3MWoaIfQeYIbpQOhlGjCNoffpBZjClL/3Hbg+Z4AUo+tv/97P+wznnXvuuefd9/je8867BTB95aIZK5bMXLUYHSsWTgcnfdn8qSsXzUCIv2TammUz1q2YtX7l7PUrZ65bMWPdihnrV87cvHbuxtWzN6yatWHVrE1r5nivn79lwwLv9fM3rlpAPjatXggov2HNgk3rV2xYv3rNmkWrV87duGYZwvdVi9auWrpl42qfrWt3e6/Y6bVo5+YFO7zm7fCat8t79k7vuTu85uz0mrF784yd3vN9dm3Ys28v8YihNx7kT+zx2bILITga9TiI7F67fAa/oCLmpp07vPf4ePmg8ZGbd/ts3bPPa/uuJStWb1y3cvGiuUfeer21tbm5Ge3Pp9UZdHqj3miQKtqv0opOJuSGxdHOJtGOX7j21G9e+8vn0ekVsh2v/u8bnwSHxmZEJFPDEqhhCQjf80Vo8iq9onYgPuNymC22I0feuXzpG7Q/Xx9aBczlcqh7zJlFvOqGFhQutyGX+d/nz0WERf75j39qbm0BhDUYzWj/pkH/3dbv+OOf3svOykxNTb546QoR70b7e6CgEPjvTjtabdjhOnLk8OEjbxJLFw/g+01JA4NXi/33P//xvb/96+8CAe+3v/19fWODE42rGdifz9SHPnE7Xa7Poj5PTUnqd9n//Of3ZRIpfAeuULTdqKox9KG1JP/03rtFRUUNTY2+B/xcDudH//iYmpNl73dVt3dmCaRobq1Ynl0pDkzNPZXODcku/GPExX0v//4zLu8PX5w7nk77y5eX/nYx5cA7H4UzSj5JYZL995HxnTwGgWjMoX/uU6vVnvheUVFBo9H8/Pw2bdq0Z8+enTt37t+/f8eOHRCLR+Nntm5dtnTxdm+vPTt3IDd8J1r60dt7M6wzs2On946d3rD8ABoVs32rt/fmTcTIFhgriRYO89q0Zet67y0b4PDyRoMpN20mhtxsWrty6aIpT0yYPH78wjkzFs6aNHfK+KVzpi+cOW3RrOnrli1ZuXjxsgUL1qxYvnj+vBlTJs6aOnHO9Mmzpk6cPunxqU+Mm/z4YxPHjZ44bvSEx0Z5Hk+MfXTS42MnTxg35Ynx0yZNmDFl4uzpU+bOnDZ/9oz582YtXDBn2dKFS5csWLZ04Yrli5cvW7Ri+eIlixcuXbJoyeKFixctIOI08xfMmz975qzpU2fMmDZz7ux5c2bNhWjVggWLFixYtHjx4nXr1oHzDv0i4PucGVMfvA/B+uiHH8DO7OiHH8DACrD72CO/Gjvq/rGj7h/36ANwjB/9IBzjHn1g7KgBRB790K/cUHj0Q/cPAjrA+q9GP3Q/cbh1BgDuw/6S7EEFMdx/D7uHwXqQGbg64oUAvx8MEqheojO7D10v8Y7y4K/um/zE2O3btuzfP+CN+vj4PPnkvg3r106aOH7ixDGTJj32xBOjH398FHjx48aOQseYhyc/MXb6FNRPT5owetrkcVMnjZk6acyUiaMnTRg1acLoCeMemTDukaWLZi+YO+U7fJ/82PzZTyxfPGPBnCcWzHli0bxJyxdOhWPFomnIeV8yY8WSGSuXzly1ZMaqJTMga+Xi6auWzFi9dCYRn0GhmO/CL8vnoiDM8niTLUUAACAASURBVLkbVs7fsHL++hXz1q+Yt2HlfMDxTasXblg1Z+PquRtXz0UhddQlzN64eu6mNfPWr56/cR3amWD16oWrVszZsHrppvWrVqxcuHbVwi1eK3ZvX7t76/KdXgsB3Hd4zUEOu/fiXd6Ld3sv8Nk8FxE7vHf77IfXa/C9dvns3opGOqLYC8A6RnZ86u2ze9OunZt379q8a+fWvXu27/ZZu27D4iXLvNavXL5k7jtvv4nwvbVFqVapNGqVSqXWquSNrTHMoqC47NBE5um4rG+YxUeOhnu/ePC1D4+ue/rA2VR2ZHoeGiiZmBsaSwV8d4u/95mtZ89+HhoS/Omnn3R0dkPQplNnpFXU1Da1gf9uMhniExNcTldpcUlhcdFAfMZkya2srlC0EoNT0ELzXd2qUyeDwsJCOjq7kZPtsPfaHExeLUcogfgM2rfP5SouLiwtL0EdwKD/jvEdeeYuR9HN4oTUxPfe+xOPJ0AMJ1qasrSumSaQaPS96GOuy8mr5Itrq+0uB4vF0ao1MBaoqqHjRlVNt9bgtLtYHHpbW5vBZMzJorqcLlY+W1EncxH782XyxGwhGj+TI5AdTcs9lsb5NJPzGbPknTNfrzsQ8Oqx8Fc/+OSNo1HbXg54JzL6NI3zY+F7V1cX9t/FYrFQKKyoqGAyma+//vqKFSuefPJJcEV3794NxL59+7Zv3bZy6ZIdW7x9dqAYy969Prt8dvrsRmv2bvHesHXLxq1b13t7r/XavM5r87p1a1dsWL9q/bqVG9auII5lKOy4ZunalQvWrJi/ZsX81cvnrV4+b9WyucsXzVm6YNbSJfOnT5sybvSYKY8/vnjerMVzpiyaPXnxrKlzZ0xZMHvGmuVLFs+dO2/WzFXLls6dM2vc2DGTxj82beLjM6dMnDll4uxpk+fOmDp/1vSFc2Yunjd7yfw5yxfNX7lk4aqli1YvW7x2xdL1q5avW7satuuDoPzmjZs2b9zktWkzjI/csGHdmjWrVq1asXr1yuXLly5Zsmj58qWrVq1YsWLZihUrli5dOn/+/NmzZ0+ZMm3alKkzp8+YN2fuvDlzF85fsHjhonnz5s2ZM2fevHnr168nQxWElWdPn/bw/SggAzGT0Q8/gKIlDz8wbszDY0c/hI9xYx5+fMwjj4955Imx6Jg4bhQ+Jjz28ONjHnrs0Qcfe/TBgRjLww+gHoI4QC3+xfwB4vuRnzGjHhg76sFxjz7keZBjQWCkW5AHd05APPLA/cQx4OAD83tmDFYNNo8dhezHlzBm1AMPP4DwfdfO7ejrDtpiF7miBL6vnjzp8SmTH588afwTEx6b8PiYJyY8hr5jjx8zbuyj48aOmjRx3LSpT0yeNH7KxHHTp4wnIH7stMnjiFjN2AnjHp0w7tElC2ctWDBj6tSxM6dNmDNz0vQpYxfMnbJ88YyFcyctnj9l2aLpKxdPxsfyJZOXLZ60bPEkRCyYtHzhZIjFr1oybfXS6YMHQnnimL5m2Yy1y2fiA5z6dStmAbFh1ZwNq+ZsWjNv89r5m9fO37h67vqVs3HWulXzNq5bSWxIsGTt6vkb16zYuGHNylVL1q1etNV75e4dq7+P7/N2en8vPrPTe/7uHRt99qKVoCCoBb/bwHMfxHc3L957954tPnu9du/y9tm9zcdnh8/u9RvXLVu2xNtr0+plC5Ytnvf2kTfaOtobGpH/rtfr1Wql0aStldfHsG4ei70RkcY9mZAbnMoIiaN++tmFP5+MOvZVwtn0mycSmKeT2Wfi6REJdBZfnCeUsnloLQF5uwrH34mPnLBNCjibDpWpL6tEIKpvRqPTiaXTBtAYtvgjIiQ6nTmnlI++rxLxdxjuCc4+AcoIlw19VtSp1MjR3kyE3+0kVmYnVmN3x3f4vopAHw1phDHKaKwMbOxXWtecXVXTa3HA/h5oUKbLYYHBkU4XMcXKUSprTi8XGs1otIzdicbao2gSMTCI2P7FYbU4pJ3KbKGMLZTmCmupQvmnqbTjmXl/TWccT6cHsgo/jUn7U8SFP4df/0Pk53+5nHyCVngiFQ2Qv8Qpkba06dGoJQ3239s7usjxmaEd9WG492k0mu7u7vb29paWFoVCIZPJqqureTzezZs3z5075+3tDfuUbtiwwdvbe/369WhvPG/v9WvXLZgze82KpZvXr0EDE702rduwfsWShYvmzyLCIJNmz5g4a/oTM6dNmDltwowpY6ZPHj114qipEx+ZMWX09MmPTp/4yLQnHp7++KPTxo+CY8aE0bMmPjZ70vjZk8Y/Pn7Mww8+9OB9D4x++JEpE8ZNHjfq8UcfGEvEkSdPGDdv1syJ48eNfviRyRMnzZk9c+GCeUsXzluxZOHKpYtWLl20atni1cuXwGrAa1euWE2sHAmD39esXokGShKDaVavXrly5XJYBX7p0qWLibRgwbz58+cuXDh/3rw5cEyfPnXixAmzZs2YM2fWrFmzZsyYMWXKlLFjx48aNfp+9L3z/ocffOjRR0Y9NnrMhPGPT5zwxIQJE8aPHz9p0qTFixfD5oVbibR9+3YvL6+JTzwOI0nu/xUa2jHccT8xCASF6R/4XnzjkQfve+j++x64b9gDK8RfODEHEzgLfY8lVD14Hwp/4+N29GNtIxBYv2ctDxDVkSv61X33jX70oU0b1+8g9nUhloZGW3ctXbLgsTGPPPgAGg8DlsMXWlzvww/9atQjDzz0IBJ4+CH0UfqRh38FQSFcZMrkxydNHPfYYw+OGfWrxx69/9GH73ti/Kjpkx+b9PgjUyeOmj559MzJj8CBxslMRcfMaY/OnPborGljZ059bOrEUVOeeGTapEenTXp0xpQxs6aNnT3j0TkzR8+dNWbOzNFAzJ01Zu6sMfPnjF04b/zCeeMXzB23YO64RfMfh2PpwqlwLFkwBYJCC+dOhNDQ0kVzly5buGTJnIXzpi5eMHvJ4vlz5k5fsnDWmpULNq9fgrqEVbM2rJy+YeW0jaumb1j1xMbVkzesmrRp9YRNqx/ftGbKFq8VW7ejJf7gYduyZQv639zstWaj1+rN3ms3b3Y71nl5rfPyWuO1Zd3mLRu2bFm/edPylctmzZw6b/a09auWLZwzbcWShW+++XprW4eiqVmp0qDx72qlVq9RNLdfzS0IistGgyNT2CcSciOSWJ9nMM9lcs8ms0LiqMEJ9OBkNMspPJEJ+O72fRVhMfFxEqIu2H+H/bXRJKF+FPJG23oQEE4MhkTeusnUTysXlsmbibXhkWdOwDqaH4D31+61OWD8DBro6LSD/0444MSmioP++8D+HoPjZwDfwbsndKIOpESO9l3SmywEYKPKnCjGj1x7Yg9XBPeC5u4sXi3E34lptmASEgZ8R/57Y0sGWhpTBvH3oyn0wHTu0Rt5gcn0o2msoCxGMK3odC43LKMglMo9ns79JJNJxne07E9PH8Tf2zu6UtMyzGbzMBg+Evs+rVarUqk6OztbW1sbGhoUCoVYLBaJRBUVFRwO54svvnjjjTcOESkgIIBCofgS6cCrv3nhmadfeeHZV196wffVl1988YVnn312/54d+/fs2Oezdc/OTbu3b9i9fYPP9s0+2zfv3eaNju2b9+3w2rfDa+/WDXu3bti/fdOeHV57d3rv3731qT3bn96749n9u+DYvWuH92avzRu9tmza/Oz+PU/t2bltw9rtG9dt2bR+767tT+/b67Nr91bvLdu2bN27Z/fzzz3z/PPP/s//PP8///P8Cy8898ILz2HixRdffOGFF559/jl8PP38c08//9xTz+x76pkn9+7f47N39559PiiCuW/v3v37ntr/5FP7n3z6yaf27dm7b8/ep/Y/uWe3z64dO/f47Nq/b8+e3T57ffbs3umzbcv2rd7bvDdv8d7stdV74BfNxkWbiu/Yvn37rl27nnzyyVdeeeXll19+5ZVXXnrppV//+tcvvfTStq3esAbO+nVr1q9bs27tatjyG0bcw9YiGzesIwb2oFV0tm7esM1r43bvTXBs89qIFtXZgEb+oMXUiO3CQRX6XbsO9ODfNWtWQWeGOWvXroYx/vALI4g2bURzgOGA2r/TOWjn2jWr1q5eg35v71hHjEFy0wM2ozUk1qPhrcgz2IAmDqOFP9et8dq88YXnn3311YFGe/HFF1999ZVnn9lPTFFeC5Mb0PyGTRvQqKf1GzZt2Lh+/Vovr00Q6yME1m/etG6L90ZiptsGr80boaH27tm5a+cWL+/1O7Zu2rF1k/em1bt3bN6/e+vu7Rv27Ny0Z+em/Tu27t3mvW/7lr07t8Kxb9e2fbu27ffx3u/jDTLwSPvs2Lh31+Y9O7zgoX3SZ9v+3Vuf3LPlqb1bn9qLiKf3bXt63zY4fWb/9mf2b39637Znn9yBD2CCwFN7vZ560ueZZ556+und+/dseXLvzqee3OOzZ/ve3duef2bfK/+z/9cv+Lz8zPaXn92Kj1ee3fHKsztefW7rK896oawXnn35Zb8XX37pZVJ6/qWXn33xlWde/vWzL7303MsvP/fyy8+/8gr5ePbFV559keC8/ILPHvS56/mnfJ7fv+OZJ31eeP7pP/zpjw0trfXNLSq1VqNRadRdKp1eVt9xjVF8Oh7BekgC40xibmQC/WQS92Q8IyqJGRZ7IzKJeiYhJzSRGRzHIMffpa3dBPyg8TNAoK2uCbC391s1vZYbxXzYX5vAWWKW0SC+Q4TEYLDmVojg++pA34AUEXOK0N/vxkeyBWK0Nx/hvxO7bRAbKaG6BurOr1WQx0ci79uFphwSEkiP0+kqljXi76sDnQ1y7AkNSB7BfWV9e2opX9+L9vICfEfu/0AHgKaeofh7S3u6QMKqRvH3rLKak2msoGT28TTOmVT2mTTm0fS8T27Qj2fmHsvKC0plB6VSA2/cxPiu06KVfzzx/TZj7tDQ8HsfMQRKDfje2NhYV1cHQyQrKiqKi4s5HE5WVlZycnJcXNy1a9euXLly8eLFCxcunDt37vPPPz979mxkZGRERER4eHgIkc4QKTg4GCaqwAQfTHsSwUMlPF/DU35IzlA6BnhDygMT1wKzaYaUBC1DZrnNXbodbWQZMu1pD+QOVy/mk5XcBY31uBF3oWrIIm5qcYt58oEz3H10k/esCwQw303+P356m9d1Szs9n0ZPDlnJXdQbHBx8PCiwsbmpqQXFZ2D/VYPBUK1oTskrOX454WRcxonYzJOx1JOxuacTsgOvZZ64nnUygXrietapuJyga+khcdkFfDQ4kiuSsvnC/Epec4fS3O/stdptNovJbOm12vvMVqvVqtXrivhCNq82r7SipaPbYrb39VlsNrvZbLWabbbefrPZrDP1lVfLWWVCTkW1rKW712q3QOozW802u7nfbnNpdT18sSK/nM8uqZbJG3p7Tb02p8XisvX09ZstiO4z9/RaxfLW/PJqbqlQJG409VhsFmt/L6oI/e1F2ixmu7y5O7dMyKkSVdTItIY+m6Xf1mvtt9r6+ix9tn6zubfHZqvvUrMrq9kVNcV8sd7Q299n6zX3Wa1WS5+1r8dss9n7bI769k5uRUVutRwtI1xbn1XbcDIp65+xaUeTcj5Nof4rmQnHJ0mM7x3RKUnE+jM6nU6rVZt6e75dTEIo5Le2daSkplss8FHadUdpAN9hCHxTU5NCoZBIJCKRqLKysqysrKioiMvlMpnM3Nzc7Ozs9PT05OTkhISE2NjYa9euXb169fLly5cuXbp48eLXRLowmL4cTOfPnx8k3f+eH0zkjBHkyWJk+ty5c4OafpS/5Lpuhx7OiNspS5a5V3rIOn/O9HDXe+HChZ/YbDdLbrN2t1L49DaLYzFc8CcmzhHpTGhIU0szWv+dwHe1Wm3SGmWKZk5FTQqnPDqLezmDEZ3FvZLJjc6gXb/BvH6DGZPJuJZBj8mgx2ezGIVV+cIGtlDBFKFl3xkVImpeWTojL52Rl8ngZrIK0pg3M5mF6bnsLE4hrVTArm7iVEtTuDeT6Kw0Fjedk5/K4mZwCzKY3HQ6M4tTSC2qLBQ3oWV480vT6NwbLE4il53M5aRy8xMYrAQmN7WgKKOsil4rZdU0ZRQUpnHYyZyCZNbNG2xuFicvnsVN4rCTuAWpxeWwLHtKUVkiJz+Jw87kFqRy85M43BROXia3IIXOTcsvZYvrcyXy1HJeSmFxEoebwGKn5hck5+XHc7nZnLw0FjeFW0QXyZji+uwqYQKbk8rlZhQUJ7Pz09gFmXklaezCeEZeys2yXKG4QCArFNXli+T51fUpeRXXcm9evMH9Jot7icq4mEP3PGKKeNSqaklzq1av02q1fRazVq8TiQQ/FN/JIfj6+nqZTFZTU8Pj8UpLSwsLCz3xPTExMTY2NiYmJjo6+sqVKwDx3xDpq8E0iPPoPxPTd0oMKvtq5ILkKnCRr766RamRdf4YuWDbj6H5dnTeXcvcXSmw5z97vbfTJliGfJl3/eS4KcGnuJafOQEGB4ecUTTU1zc2KNUqWJ9AY9DXNjYzygQ3axQF1fIScV1RjayoRnZTrCiUNKAV4WvqCiUNN8X1XIGkoFrO4dXBLkgcAVos/qZQnscXc0VSYlF4GatSli9S5PEkXIE0r6aRxkNbarAEsoJqtE8IWyBhCdDC8WiHELRCeh1HVMcS1TMEdfm1aIFfjlAKuTeFigKePJ8vJzaTknFEdbmiRrZQyhHWot08RPUcvoTJq2HXKPJFcq5AnidSsPlo2ym0vCXaEEqeK0QbJ7Fq5axqQq0I7fXBEKDqOKI6tERaNRJDW1ZV13MEyBhWdR1b2kirkdPEdTk1MlqNlCmR00Qyeg1a3h3Wl2dW19PFDdQaRU51ba5Yin5rZWxZPVtWzxDLOfIGrqR5yIMurafzqsUNzVqdQa3RmcwQf+e3tLbfvf+u1+u1Wq1Sqezo6GhtbXWb5VRWVnbz5k0Oh8NgMKhUalZWVmZmZkpKSmJiYlxc3PXr169duxZNJAz0l4h08eJFTFy8wwRdBbmQJ+f2c8mS95wGw8i/t1MFWX4EejhVIxQZIYusDcTIHDJNVkLmY5osMAIN8mQBT45nLq4FE1gGc+5Oj1vxW55+8803t5T5jwjc9X/WyNZCO58JDVE01Dc0Nao0asD3Tr2qpqmJUSGCbSjy0IZ5Nfk1UtioL0+INlpi86Q3hYpCUV0BX5rPE+cLJFyBpLBaXsCXFPARzRHWoh0/hDLUSQhkXF5tHl+MtnKtqUP7N/EVeTwZtwr1AUxeLb2iliuQo33yeGgDDRZfjOZMiRRobw2ehMmX51ZKmFUyNk/KItaqZPNlhDDaeAT2AEE6qxuYfCmTL0Ub4PEkLIGMyatl8mrZQjmDJ6ELpCxRPY0nZghldAGxRRSx6xOTVwv7QOXykUyuUEqtlND5aLHfHJGcKpQza+oYQhna6YkvLRA30qukzBoZq1rGFEmZfDQgkluN9odiCGWMWgVDLGeI5fRaGbGDNpJkVEuJ3abQ1Fa3gy6to1cKahQNGq1erdEZ+8xqtVos4je3tCWnpN1lfMZgMKDt/lQqHKKBVWhgFA1E4QsKCjDEZ2dnZ2RkpKWlJScnJyYmxsfHxxHpOpGueaTo6OirwyToGIbJvAq55OKY40ZgDWThK1euYP4vxD1pgZHvl2cV5NuBc4dk4lwgRq4I3323Urc8xQXdiNt5VNyKDHl6SwN+uIBnvT9cJ1lDdHR0WER4fWNDQ1Mjmt+k1aKBegZNrUxRyJPk8eqYFXKExaIGRqU0XyDh8MVsnhi2Ws3jSfL44psCcT6vprBazhXJOAI5s1LM5qP989D+onwZs0qCEBbNNZURbjVSwkZ6JPk8cZFIml8t4YrQ8MoCobRQKLspkBbya8tEkmJ+zU1eTQFfUiSSo52PkBcvI2ZRSfJE4jyRmEscHEFNgVBcUCOlC8S5QilTJGfxa7k1Mo4QdTAFNeKCGjHqaYSSvFo52oVKIOEIahi8WhQrr5ZlVwnzage0caql7FoZR4wWcOeIZLDdUn5NHbOyGpXiS/Kr69lCBUvUmCOSUqtludVyek0dXSSj8sU5Agnan0+goPHrWDVNDFFDrkCRI6jLrVbQREhmyCNTJGEJxTUNTWqNTqsz9JmtOp2uWiRoam69e3w3Go3EKFc0y6m9vb25uRlCNLBQAY/Hgyh8fn4+m82m0+k0Gi07O/vGjRsY5ZOTk5OSkhITExMSEuIHE4A+Rn84HfI31iPdphgu5ymPs4YkQJ6c5cnxzPWsxbOUJ4esZziarHk4meH45LLD0Xda9ucmP/J1kXPBcjKHTA93XcOVGlneM5dcF5n2lLw7DlknmR5OG1mGTA8nDy5aWER4Xb2ivrEB8F2LML67Vl6fW1b9dSb3bAojIpF2NoVxNpUZkZwTlc6ITKNHptHDU2jhSTnnMlmZVdJ8kSKnQvxVVl5YAjUigf5ZCvtsMisiKfdsMuuzZEZUIvXzFHpkUu5nybk3ioX5IkWpUKw0mC39rj6bo9fm6LE7e22OPquz1+Kw9LvQN1Wrw9bvsthdVrurx2xHtNU5eDisNifBcZgdjr5+l8Xh6rHaFZ0qapmAVVVT395l6uu39buQmBUdFisa8NhrcfQQam39rsYuDaOqJqdSVNPRpbP19duQcL/dBTaYbUjY0u8y2129NmebxnhTJGHXyFMrqkMzc0+k5ZzOZATfYJ7OZJxOyw1Op4feYIVkMk+n5YZlckIz2CGZ7NNpjNMZrFOZrJMZzFOZjFMZeUMeX9ALMipEtU0taPMmna7PYtbpdCKBsLGpJSk51c1/v82xNPeZTCaDwaDRaCBE09LS0tjYCAPha2pqYK2C0tLSoqKigoICLpfLZrNzc3OpVGpOTg6EazIyMtLT09PS0lJTU1MGUzKRUlJSkpKSBnnuf0Hmp//FdmAjgfPTW/JLjT+fFsBPBSaSSOnHsBNX5Eb8GHXdvs6IqEi5ok7RUK9UqyB4qzPoxc3tV5mFn0ann0xmnErOPZlAPZ2UG57ADklgBccxguOYYUmckFjG6ejsK4yqIklrLLvsREzGyYTc8NS8M/HMM9fRuPgzSB6tIRyajLYBCbx64yqtKLdc3NDS7nIRgxjRejPE+HY04hzx0JB5WPvR5fpu9wU0JnIglyg3eOKEpd6RBovdVSCQFQtkxASl7+n5bnsGp8tltaExknZXSU09p7JWh6YsoYqdKLkGa0bF0VwoNIASbRdSLkO7ZkflcP6RcOPoDfbxNPaxVNbRFOaxdPaxdDZaJzKNcTSNEZjKOJ5CP55CD0pjBqUxA9M5SCaVdTyNOeTx97icaG6ZuLkdNbtGZTabNVq9UFjd0Njsie/fXf+I1AC+Qwi+kxgF39zc3NDQAAMlq6urBQJBVVVVeXl5SUnJzZs38/Ly2Gw2k8lkMBgY6LOzs7OIlDmYMoiUmZmZnp4OtOdvOpE8+T8Z5z9uwE92pb9UlJGRkZmZ6dkOQzI9xYbkwMM+ZNaPyvxRn9uoz85K5bK6eoVKo4Y3e4NaL2/ovE4rOpNAC05mhiYzIpPp4QnZ4QnU0PiciCRGeCIdLTSWSAuNy76cW1QhbYpnFobEZ55JYQQn0MMSGOfS877MLPh3dllUWl5EEiM4nhqWgia7fpPJyedL6zs7bASWojXWXXZiowzYwATtS46w9Ts8J/jEjnhoHL3LTqwsP9ApuBCqA+3odbkYQglakQbNLUWTodCEKUKa6A0Qk9goBG2WYnG5CiUNuZXVJjQ9yobUInQf0EUU73eg9evRosFWtPZvN41f93lWQWAy83ga53Qy+3QqJziNeyKVeSKVeTKNdTKNdSKVeTwDofzxDNaprLyjKQjfg1LZJ9K4x9PpnkdgBuOTFPYlboW4tVun02iVnTabRaPVC4S19Q1NiUkpbv77iKj+XeZ9vb29RqMRPqTARKe2tjaAeJlMJpFIMMRXVFSUlJQUFhYWFBTk5+dzuVwOh8NisQDr6XR6LpFopEQlJRKbBmwabYAgSVExkyz/U9JuxmB7sM3YGDcOLogF3Ag3AbdTqMityE956mYPPqVS0U0ht4ObVWRJLOwm80NOQT9ZgyeHnEumh7Rt5OJuRe70isjFyZZ40p5m4LIgTBYAM9w4d2qbpw1kDij/7LPPZDKZoqEe4bvRoNZq9AaVRNGUwCw7GUsNTWaEJ1CjiA35/p3GDUlghcYxv0hlRSbQIpPZwdep1+glpZKGWGbxmdickCQE4ucyuWeupgR88K+D7/wt8MvY8xncMLRSPDM0kflNTgGDJ6lv70IojvB0EM2R54ycZey8Y4Ls0QMT/PFBATTl1YWcfSeHL84TKbC3DoTBYOByuXw+n6jQYbeheVIOB8L37CqR2TKwUjwIwxsD1kDMYULKeU0tTL40ipYflJgbmM46ncY4mcw4nco6mUwgezrrZBY7MJN5MoN5Jpt7Ip0RlMY8lck5lpwblMI4ncE5cWPAwT+RmXcijXMilR2YjpaG/yQFrf8O6xNo1RqzxabTG4UCnhu+D17pdyA+AoXwHUI0MNGpu7sbBtI0NTXV19fL5XKJRFJTUyMSifh8PgyKLykpKS4uLiwsvHnzZn5+fl5eHncwcQYTm5RYRCIx2MC55S+5iBtNLgtZnpyR+W4K8amnHjKHxWINKUmWudN6yWXJ+nFFd02A5uGKk3PJNrDZQ9wgTyZWSy5Ltp+sH4TdJN1Oh1N4D/WQzcDVYcLNHrdTLEZW4mabWxFya+AGxHqw8HAKycpBFS6CieHKevLJ2rANZAJ8tS+++EIqldbVK1B8xmjQ6LQabbe8pf06rSg4gXYmMfdcOicinno2g/vpN3FnMwvOZhb86+vYzzOYIUn0M4m5X+feLJc1xTKLT8dkhSQxz1OLPgi7sOmZV3e97L/7lde8njvw+j+Cz90oQCGaWBrge0MHsUfrIL4PRlsGAjR2+8COrBjXMIFce8dAOGUQSWLcRQAAIABJREFU476H79zqAXwHpM7Ly/vkk08uXLjw1VdfBQUFaXRqBNlEp5JfU0cT1PaZ0RKSZP04KISIwdeIqsZmMr4HpjJOZrBPZXJOpbNPpDJPpzH+ejkpJJN5LDn3r9fSg7PyIullJ9I4wTcKgm8UnMrIO53BCkxnHUtHHn1gCutkOvdYKuNYOsJ38vozGN8V9Y0Jicl36b/39fVhiIe1Crq6ujDEQ6BGKpWKxeLq6mqhUAgoX1FRUV5eXlZWBlhfREqFHunmL2mYFoCmGibzjtn3VtsdV//jFCgoKLjniguIdM/V/jQKcYNg4l7VC6/m586dk0gkckUdxne0vpii5Tqt6FRcztkM9nP/+96hDwM/iLz4/Gvv/PbDk38+de7gO3978X/fQ+58THYss6yktiGOVRaRxDgTTw+Ny37tw+O/fvPPAX/8yP/tD15984+/+/DoJ1/GRqWhteMv5eSzeNIh8d1ut/H5/MLCwo6ODhaLVVxcrNfrmUymTCYzmUwZGRk1NTWdnZ00Gq23t5cEykPju8Ph6O7ufu+996qqqj7//PP09PRr165FRIUTUX70olAoaaCLJKaePtdgIl4eUF/jdDoHXPhh8P14Biswk/1pcm5QBjswmfYlu3TTb3730p/+/tev43w/CQ6Ku/G/wZ9/Ep3yaWzmP6+l7Xnn45c+DgqnFh5PQ/H6kzfyA1PQ5nyB6azh8F1eVx+fkHSX+G4mUk9PDwyk0Wg0MFayvb29Fa0TOhCLh1hNbW0tfHQVCoUCgYDH41VWVlYMpvLBVPZLGr4FSgfT8CJ3mQM9rmfhIflDMj3L/pw5g4/bd3/vlbWgcUhtP0G74SrIZmCmp1WlpaWezLvgQBUXLlyora2V1clVGrXBZNSgxVC6pY3Ifw9Noocl534Ycv6VIx+dTcn9Mjl7F+XNf6cx3zt1dv+htz5P5wbHUy/Ri8qlzdcZJWdisr+4UfhBxDe/fuuD5wLe8D/y3q9/d/jV19/5zdsf/P6fwV/TSoKvZ1+mFjCrUHwGLQGDsJRwxglINZt733rrraSkpKtXr3722Wf//ve/qVTqxYsXjx079sUXX2RkZNDp9H/+859BQUHnzp0bGd/BB6dSqV9++eXHH39cVFTk5+dXWFgYdDIQrRpJrD9TUKvIqhRarMQCwIQB4MV/F5whLIR3Czf/HSF1KiPoBud4GorJRGRxfv2XT/f97l3f9/9G+eiTfb89vO/3b732r8D9r7/722OnA/51gvLPkMicAXw/nsE5nsY+kY4+urrhu8XarzeYhAKeTK64e3y3WCxmsxlceHIgHrx4iMU3NjbW19crFAq5XC6TycREAqwXiUTCwSQgJf5tJ1IhwW0X+kGC5BrJNCj15JD5Q1ZMLiIQ3LOrcFOLT4e0gc/nYwE3G8h8Mj2cHvL1grwb5zYLjizmmYttc8si2wBZnhy3IkOeujXLCKqwJZ5FPDm4Lk+ryHqGo3Fx8h30tI1cnJzrZg8Ww2oxB0uSOWQainz11Vc1NTVyRZ1aqzH2mDQ6rcGkr1W0xNFLTsVmR6YxT19MfO73f7qYW/gk5fWwuMyTl5NPfRO3h/JG4OW00CT6ZUZxmaQpjlUWcj3ns4yCjz+7cuST04f/evTIR//67R8++N/3//Zh8NnX/xXyZXZh8PXsb7K4bL5sOHzPzs7+9NNPg4OD44iplMeOHTt79uz7778fFBTEZDILCwvfe++9ixcvcjgcEgoP679zOJzz58+HhYUlJiZSKJR//OMfX5z7HDoVq9VaJG3MFYpx/N3lcvX39zudzsrKSo1GM+DTD+O/n05lnc7gECtEsk6kMyJyuHuPvB8cf2PFky88/fo7O/1+5/vRPz/64sJW39+9cTLs8OmI3x2Pisi+iYbQZHCOpaPhNycz2IDvl7mleH1gjO9SWd3d4ztaGcdiIUdp8LfWrq6uzs5O7Mg3NjY2NDTU19fXEQmwXiqVSiQSQHzyb+1QqYZIQ+V8jwdi+BfneXJwFnQ2bgI1NTVkAaCHZI6Q5SmPawHCswqsDUsOJzMcf2TNw5W6U/5PUwu+NXdqnqf8CAbjpva8X256sICbNqzBTZ58Si6C5bFCsuQPpD0rGkEhtmQEmdvJggv55ptvqqur5Yo6jU4L+K7RdsuaOqKzb56Ko0Wlc85cST1yNPwPZ857P3vgT0Ff/PHEF7858vGh9z6NiM+NiM+9lltcLGmMZZaejskKT2afu5H3yjsfb33+wP/89q2DR97b/WvK7gO//zyNFZ7MhvgMo1I8XHwmKysrNzc3Pj7+z3/+M41G6+rqio+Pz8/P7+rqioqKKi8vb2houHTpklKJtngFd9vlGgLfIaunp+fdd98tLi6+cuVKXl7exYsXe/pMeHenm+J6Kr+mz2wlj4l0uVxisVir1Y6M7ycT6WfSOaczODAU8vQN9jtfXDmTwfjkSvLfvon/6OvYg/8Kfu/L6L9fTXn388ufxmYGBEaGZhccS2UEZnKDMrjHk9HXV098t9rs4L9LpPK4+ES3+Mzg9Q6Gk4b5e5+NSGazGUM8OVCjVCrBkQeUb2lpaW5ubmpqAqwHuFcoFID4br/yX9L3WwC3z/fZv5zdZQtAe95lYaKYTCa70+J3UeROqxhZvq6uDgQwMbL87edCe166dEkkEsnq5BqdFpYw1BvUkoa2BGY52qEpiR4el/NVVmFIAiMyhRacQD+bWRCakBWZQotIY5+Op15kFJXJm+PZpWcSaCdjqVHoY2z2wT/+be2+F1b4PP/c7/8QdDExKp0TnEAPTWR+ncllVkmGxHeI1TgcjtbWVpVKRYrADHxTxV9WMUFA3ND4DiGaxsbGwMDA0NDQixcvIvec2OKD+EbrAHzv6R1YY93hQEF50msBoXs4/z2DdTyJejKNdSqdiz6WJjEiGSXHU+jBWXkhOQWnsvLCGWUhtOKTN/LPUIuCMrgRtJvwQTUoAwmfysgjYvHMf6Uysf+u1WoB3wX8KrFEFhuX4Ibvw+C5Oxvhe39/P3jxboEaLTE7Wa1WK5XK7u7uzs7Ojo6O9vb2tra21tbWlsGEEb/RIzUQyYP9CwO1ADROQ0PDL83xw1sAN+bttGcTkeAW3FHVP83zjC+BXB2ZJtuMhclMN3q4sm5icHr58mWhUCiVyzC+6/QqWVPHtZzCU3FoalJ4fG5obG5ICjcqkRGRkheSwIpKzI1KREvDn47JiWGUFonr4zilp2KzQ1K4wQn0yBTahQzWmatJwVeSP0+hn7+RdyaREZqadzIm53LOTRZPOtz4SDdMJ3z0gcE1QwTHB5BtCHyHHAzWnZ2dXV1dRLAfDYlBu3g7HEXSxhxetcXaT0xrGqgF9xwDZYfB9yBiKGRQCuNUOjcwmXkqI+/TZMaJzLygTObRVBr6TaEHpqJRkifS0adUxCHGxQemc06kcU6lcxG+Z7I88d1g7BHwq2rF0ti4hLvc36O/vx9ceAzx4Mj39PQYDAa9Xq/T6bRarVqtVqlU3UTqIhKGe0D8tmFSK5Egk0wPI34HbNA2nM7W1tY70HVXokNWMSQT1Hua6slxM6SlpaWjo6OlpaWrq6ulpaWtra2dSG1taIf71tbWrq6upqYmeLvCDeKmBJadgL65paUF99BuYrdzCnVBB9/Z2Qk2NDc3d3Z2Njc3gxm31N/ejjYLg+rAHmg0+O3o6GhqaoIRXPgyQRhfOxhwOwaTZaB9Ojo6oDhYCwK46W55R8gKfyb0kI/ckMxbGtze3n716lU+ny+XyzUaTV9fn06nM2pVsubWa/T803E5Ycl5oYmckMTcsOTc8EQ6HGEJuaHxOVHJ9JCYjKuMkiJpQwKrKDQ2I5LY0elMIiM8hRmVziGWMUBjKM/Eo4IR8dSLN7gsnrwJxr8jOEfbZ+DpSIQLj8anux3EiEZifw9i4hLkIib6OksIO11WpyuvWpInqkHzl4g5U8TcpoH5UzCRCuE+mq2KNgcsl9SzKkQGK5pRBZKevy6HzWW32l0uYWMLlV/zeTbnRCr9eBobxd+HOsjTnWDS08DUJwLlEdAT81rx7ydp3IuckpqWFj2adaCy2uw6vVEgEFTXiK/HxlutaOzmnab77HY7QLyVSPC5lRyrAZTHvjwAvZJIAPfd3d2A+MP9QocJ0XwyPZz8nfI7iUQu5ckh545M335ZT0ngePJHrnGEXPza1NHRAf0rNCCcwtcRmJWGGxZrIxsDMl1dXaAQE3dkamdnJ7zJtba2wmoWEL6DGslmdHZ2wigsbIwnAQaDPUqlsrOzEx6ntrY2lUrVQSSyfk8Nd8rB3glUh9twSD1gGLkNMT2k/H+Q6XkTPTm3Yx6Uio6O5vF4MpkM47tWZ6htaoumFZyOyToTzwxPYIcn0kOTaKGJaI5SSAIjLIkVnsIMjaeduJx+mV5eKEXrE5yKTkdZKdzQZA4aKJmEMD0kMTckiRmZXhCSwDh5JeObG3lMYUNNQ1MvMWnV7iD2tHahbZJsePaoB2EnBOC3n0Q7XWhiK/QR3UYzrVLI4om0JivBImDehvZcHTglNl6yoS2aXOo+C6uqhl5Z3a7vGZxp9Z0Ylrc7kH6dzYk+xlY3fJGT/8m1zJPp3KPp7CGPTzPRhtojH//KYOPjHzGZsXkl0pZmtG2WRuNwuoymXoGAJ6qujbked5fxGTuR+olks9ncvPje3t6enh6TyWQ0GsnuvIZI6mGSikg4E049f0HAk485bgJYoRuB5YckyMJYYDgmFkDbxhOvLGTOD6TJlZLp4dSCDB6xqlQqsUlqNVoPTqfTdXV1abXa7u5unAWWk/VDFsjAL8TchqsX+GQNWFKpRHv6gEkqFVofvLu7W0MsXgT1KpVoU2YAd9CAy5INg2tRKpWwdml3dzcWw5cJa2Z4KsHm4SK3T+Cm0Gg0arW6q6uLbBX5ksntObJ+XMpNDPMx4SYApzgX1wgcsjBZhkyTZTxpLOmZNSQHDLh27VplZaVUKsX4rtbo2tQ6Lq/2XHxm8NcJYZdTIq+lhl5NDrmSGhadHnw5JSQ69czVlJArKZ/HZmUWivJF8huFvHMJ1JCraWeupIZGp4dcSQmLTom4mhYWnXb6UnLI1bTgyylRsTfS8yvyRXIqt7CgQlBcwS+rEpTzhOU8YUmloKhKUDr8UcYTlvGEpVWCkkp+SSUfJEv4osJKXhmfX1hSyS3lM6qqubxqel5xURW/sJJXwheWCkTFPEFRFR9+b1YKy0U1BeWV2QVFTF5tbmV1Zl5RIQ/lDnmUCcSFVSJWGT+7qIpbrUgs5IfFZ524mnbyevodHSdi04c8ziZncwQ1HWo1Wp9Aq++3u/QGE59XKRBWX4uJhfjMbX5WxW7+fQ4igRff7xGrwd9dMdAD1gPcGwaTnpR0308Q4QGe9vvp+4LfnYHUd+dEgOj7RYc4G1KezATaUzkEoLRaLSawDCY89WBhcpanWSPnjqwfVv/QaDSwhrNGo9FqtcCEVtVoNHq9HphADKkQC+h0Or1e39PTo1KpDAaDp7WYQzYbaGgfsMRgMKjVaqPR2NXVZTKZQL9Go9HpdLBWnV6vB0lcFopjtdhyrBaK6/V6k8mkRo84igriX9zaQ14gVkuuDl8LJqBSvV6PWxIaBAtgYmQ9btXhUyiOT38ywrNeTw7ZGHyZ7oRep9Xrrl2PKa+sEEslGh3aQkhn0KtVqAvvVqobW9vkjS2yhuba+iZJY4ukoU3S2CJuaJa2tAGnrqmtpVNV19Ta0qmUt7RLGtpqG5ulTa2yhmZUSt5Q19QmbWwX17fW1jfJW9pbu1SKlpb6NmV1XUOVqJZfLRbWSnmi2kphjVAs59dIhjx41WJetZhfIwECaH6NpEpcy5OIBTW1/BqJtKVN1tYlb+2qb+mokkj5MnlFrbi8ppYnlVXUisuqa3hSWVWtFFUkQcLidqWsS1fXoRSKZZViyZCHoEZSJaqVKBrr2zsbOroVHV3i5taaxlZZQ8uQh7S++Y4OeXt3l96o1etQR6vW2vpdRqNRwK/gC0TR167fpf/uJD4T24nUP5iwIw+bHQLKQ9Cml0g9RDINlYykBPkkxv8BEvqsn4OhBoPBaDT29vZqtVqDwdDb2wsA2tvbC/2pyWTq6ekBTNTr9WAzvidwCkrgokwmE/yfm0wmLD/ClbrdPlCFO3ij0Qh6QDlYYjAYQABtEEy89rnpB51uZpMvAWuA6+0hZt65Kbm7U2g3nU4H35Z0Oh00yN1pcys1wsW6Sf5sTw0mo8FkjIm9XlZRLpZKtHqd2WrRGdAXOI1aqdWo9DqNQa/V6dALHOrC9Vq9Ds1/Ijgqg15rNOgMGrVepwE+OtVrdVqlQaM06VVGrcaoRRpAQK9T6bRKvU6l1ptUOr3eYNIZ9Hqjwdhj0htMGoNRazTd8tCZenSmHhDTmFD/hPBRb1Ab9SqdXqszaHUmwuswGY09er2R+C/pMRp7tGgRXvSsoqszGNWGni6NXmPoAWGDweR56I0GuGBiBLmK8KzURoNOb0AVeh4GvRoOvU5FPnTItCEOZC2x1ZJardbqDHaHy2QyVVWW3wN8dzgcAPEY6AHicVAe4vLmwUTGenDte3p6APrx6ZAc6BiG+yV3Hrg4Fsb63Qgs8DMn3MzGp8OZbTabYWmg8PDwsLCwM2fOhIaGhoSEnD59+syZM2FhYYDvfX19bhpAM5nZ19cXHx+fkJBgMpn6+vqMRiO+g2QxN9pND1QUHx8fHBwMHQ8o6evrM5lMvb29dXV14eHhcrncZDLZbDbyk4A1w0w6uLk9PT19fX1yuTwiIiIvLw/fcbPZDIN0IyIi4uPjcdkfSBiNxtDQ0KSkJJPJBEPF8C0Ykrij6jwvFuu8Iz24ZdxKeep3E7jNU2zVkERPT09sbGxZWZlYLNbr9VarVa/Xtys1SvQqhV7alGqVCq1Io9dq9apuJQokEAlWr0IhO40Wx+vgo51Wq0bjM1TdSFitAQFimnx3V1cH6juIpNNplMoupbJLo1HBgA7ge/6i7oUIr2FiQMagApN6zX1ma5/F3Ntvs1ht9r6+PlAI9kBETqvVGrUavVqlVnWriBcUZJhKrVcP2ONZb5catQO6dp1BpUIhcpVKpdWoVBrlkIdaq8KHSqPENCbcSmk1Kq0aXRNqW7W232Hv7e3l8SqreIKr0TF377+DC+8gJfzR1TaYAOjxL/j1br+D4P/d3z4iYfcfE8B3+8XFcKkRODhrZJ1kVW7VeWYNp4pcF5keUuEITHJZMj1Ckb4+tDX7gQMHjhw5EhISEhEREUKkiIiI4OBgq9Xa29trNpt7enoAsLAqsv7e3l6LxRJKJLhGKAUyuMgtCSgVFhbm7+9vsVh6e3utViu50aRS6W9+8xupVAqIT87Cys1mM5htsVh6enr6+/tra2sPHDhApVLBhwC+xWKxWq1+fn6hoaG47A8kzGYzVgi24V9yc2H6h1SHlXg2As4aTj8IkHM9OeTc26FxpSMQ0P6xsbGlpaW1tbWA7waDodto6NZolUq1Rovczk70+U+t0yDIV2tR3KZTpUbuq0bXrUSBBZWa6AB0BpVa261UE5CuRxpUGrVGhwTQXy3sMqpSo/5hAC41So1OrdKo0fARhJ+3TvDNAIJ7Wr3GYbF3tHXT2ZyL0ZciQk4HnzgZfvazjOyshpbmHotZrdcptej9ohveR5RdajVaA1mjUanVSo1aqepGn5eU2qEPnd6oUqOr0Gj1SpVGqzMgjkat0eju0YGuFzUR0okmzfb09FRUVFRU8i5fib7L8ZHOwUSCd0TiiHw/kQZxHv2Fb7AA7hjxMYElMeeOCPJ7wx0V/O8TtlgsdjvyPvz9/UNDQ/v7+wH1oP2tVqvNZjObzbbBGQzDNR2IhYWFhYaGgsxwkrdsQ4vFEh4e/u30bpC0WCw2m81iscAUCrFY/Nprr0kkErBtZG1wdWazWSKRHDp06MaNG3B1oBDc/0OHDoWGho6s5/ZzbTabWCxubm7GD/Dtl/3/RNJiscTFxZWUlAC+22w2g8GgVHdrtWqdCoVo1Frkrmo13XpVFwJhFfK1NToE2QjViRkzZOcaYbeGAH2dXq3VaHRapVqF3HiirE6nQy8EhB+r0Wm7iJeDbg1AP+owhj5AkVav0ejUai0KZqBIS29DS/O/o8797tAbR/74XtDpU19+8XlURORfjx6n+Pq/+MJLoWfCGhSNvaY+Ip6k16gIm/WGTo2mS60arEqLalejmJPnoVZ1IxcbDq1apUKDGvAle/ZFaq0GdVQa1GNB+wzHwXwE7jo9ge8qp6PfaDTyeIKy8spLl6/29X239hn+fHpLAn1fHUR4NF+LnOweCbAef4bFUO5GuP0zuOX+SKfkSn/UKoZTjg0YTmAEPpQFAUxDD2q32zG+A25iSDWbzXV1dVQqtbOzMyYmJjw8PDExsZlISUlJ4eHh58+fl0qloDY0NDQsLEwgEFy9ejUsLCwnJ6epqQluKABrUVHRtWvXzp07x+VyTSYTxt/W1tacnJzQ0NDz588LhcLQ0FB/f38w0m63c7nc6Ojo0NDQ1NRUPp9PoVAUCgXYaTAYaDRaaGhodHR0WVkZdAZgTFFR0ZUrVyIjIxMTE0tLS/38/LKzsz17BbhwzLfb7XDtQJSUlICS7OzslpYWq9UKT6bZbBaJRMnJyaGhodnZ2c3NzVlZWSqVqr+/n0qllpaW2mw2uVyenZ2tUqmuXLkSGhoaExMjFAqho4K+imztCDfuvynLbrdbrdbY2NjC4iKxVGIwGGw2GwRe1D9ags6ArB4DJZlJpsHZ12q1MHhMq9X29PQwGIyXX375k08+KS8vhw/+8CJoNBq1Wm1VVdWpU6def/11DodjNBo9K1WrkcsMbwPkum6Hxga7EbdTliwDxYGj0WicTqfRaERLsleUX7pyuaenB6P57Y+iuQ+DOxBkfMe0/c5T/22k4f43Ri7qWWpk+SFz74mSITXfQya0usViOXjwYFRUFATgzGYzIK/NZrPb7dnZ2QcPHnznnXfef//9iIgICoUSGBh4+PDhgICA4OBgf3//t99+W6PR2Gy2qKiow4cP+/n5/f3vfz969Ki/v/+RI0dkMhm4/zExMYcOHTp69GhkZKSfn9/x48ch/NLW1vbOO+8cPHgwKCjo/fffDwgIOHz4sK+vr8PhsNlsV65cgSpCQkKA8PX1lUgkTqeztbX1yJEjfn5+4eHhH3/88cGDB2NjY6Gu6Oho0BMWFhYQEHDgwIGAgAAqlYr9hv7+fkBwCoUSEREBuAOvL/Bmabfbr169SqFQPv744+Dg4EOHDlEolJKSEovF4nA4UlJSKBTK4cOHoUHefvttPz8/uVze39/v6+sbERFhs9mys7PBhrfeeuv48eN+RKqrqwNw7+9Hcxrv4a28C1U/3iPqqRk40EEmpSTnFeQLq0Vava6/H7mQ6p88kZHOs3IYlQuDrDQaTW9vb1JS0r59+3JycuDrjkqFdhbs6uqCQWUqlQr4paWlgYGBdDodBne5ab5rfHfTc09OAd9NJlNFRUVhcdGV6KsmkwnNxyLWxwGsxnA/AnEflBkS5T3j8hjx3Yg7x39Uwk0JPh1OGxYYkiCXAgEyh0wPWRwDB1kSaE9tnho8S92SQ1biWRE5l0KhHDlyJIxIUVFR4eHhkZGRSUlJTqczKysrICAAlkjt7+9PSUkBnxfe5mg0mq+vr1wut9vtEDe/du0aBPJaW1v9/f0//PBDh8NRW1v7m9/8Jjk52U5MdquurqZQKNHR0U6nMyIiAsDRQWykcOPGjYCAgIMHDzocjrq6On9//3PnztlsNpfL1dbW9tFHH/n7+8vlcqfTGRYW9uabb7a3o601DQbDhQsXKBSKWq3+dscYX1/foKAgeGno6+sLDAz09fWl0WhwC+DC4dnz8/MLCwuDRwUeVOjVSktLKRTKt8u99vb2OhyO9vb2I0eOvPvuuz09PWq1mkKhBAUFGY1Gp9PZ0dFx+PBheKuw2+0BAQGhoaEOh4NGox04cCAqKgq+AQgEAj8/v2+XnLXZbE6nE3qXW95BNwHyLbsd2q04Ph2uLBYYjoCCOHc4PSPz0zMz6EwGT8DXGw39/f0wm+GeYNa9UgIfSEGbyWSi0+nbtm0rLS3t6+uDyRPghmuIGBDM2Oju7tZqtb29vfX19TExMdXV1cMZQ1Y+nMyPx8e1k+PvnDxudMw1o9HocrnsdjQBC83TJeIuQI/wi/AdkhvEk09HfiB+yf2RWgB3gX5+fm+99dbZs2chxhIeHh4aGpqSkgI4RaFQ2traYDnT8vJyPz+/8vJyKCuTyQICAurq6pxOJ7jYBoMBnhKHwwF+tFqtjomJoVAo9USqI9Lx48fffvttu93u6+v75ZdfulwuCMi4XK4PP/zwW0/f6XSmpKT4+vp2dHSAL+90OouLiw8dOlRfX/9tAMTf3/+bb76RE0mhUOTn5x84cIBOp+fk5Pj7+4tEIphvbbVaKysrAd8B051Op9VqhefY398/PDwcmhd8f+hLvvrqKz8/P41G09+PFuy22+1UKtXX11cmk9FoNAqFwuPx4B+gv78/PT2djO8REREulysnJycgIEAoFGJXyNfXNzw8HBRC2R/ptv5s1ULHlpl1I5uaU8XnGXtMTqfTYEBjRSD9eLh2p5oNBkNHR4fRaGxpadm7d29mZmZvby+AI3juMPkOAjho8D4xgU6pVBqNRrlcTqPRcEDGrerhrhQjr5v8PTxFYfrBaZWwaGVPT095eTmDxYyOuabX68mwjuPqg/g99N/v8B3nk5GdTOPnkswk0yBA5gCNC94dgRXesvg9qe6WtfxkAnA54HVGREQA9AATaJvNRqfT/fz8MMwpFApfX9/GxkZw4hoaGsD7drlcYWFhUVFRYDz46TQazc/PT6FQfDuo0Z9IECrx9/f38/OjUChyufy1116jUqnYa+jv7w8PD/f19bXb7WfPnoXDz+JYAAAaPElEQVRADTw5DoejqanpwIED9USiUCjfvjr4+/sHBAT4+/t/y3/ttdeSk5NjYmJ8fX3h9QKeUeiEqFQq+O+4+3E6nRQKJTw8HHZoA2FYmDs0NDQgIAD3f06nE14mcnNzr1+/fvDgQeg8oFmoVKqfn199fb3D4YD4TH9/P7zZABP6FX9/f4B+m81GfpP4CW73z+S5hWcmKyc7h0at4vN0Br3T6ezt7VWqVXDgT4X/WUKn03V0dIA/fvbs2bfeequ3t1eDRrXoulXKzu4uGKXepewe+PBLxNbRt1ylUktMmpNKpQqFgvzxk3xFnhfrySHL30MafW3WoPUcAc0B3+lMxpXoq8CBRwUD/S0D8UPg+y2BHuog/7r9D5CzRgjyuInd9SnUTi7uySHnDke7XYXnKRT05LtVd0sBzzYhaybTAGr+/v5hYWFwUzHKA+bm5ub6+fmBQpfLBWNRZDIZoCSgXkNDQ39/f1RU1AcffABKINhCo9H8/f3r6+vDw8MDAgJkMllzc7NUKpXL5QpizWeDwXDw4MHk5GSIjUCp48eP+/v7u1yumJgYPz8/s9kMOOt0OsVisZ+fX0NDQ3d396FDh76N6SuIJJfLm5qaFApFW1tbbm7ut6H/zs5OaCWXywVG0mg0p9MJVwfV2e12CoUSGRmJmxcuyul0fvbZZwcPHsRiLperurr64MGDAoGASqV+26nU1dUBTLtcrqSkpNdee00mkzmdTj8/v8jISJfLRafTKRQKvNmAfn9//8jISNy8nvcI39Y7fX6Gk79TPjbgBxIj1OtwONIzM6i5NJ6Ar9XrnE4nCnoQ+H4PUewHqoJlLWAqUGhoaEVFBQSRulVoBKZaq3EzGGAdXGNYTkOtVjc3N4+A754WAvJ68u+C42Ye1gCWqzTqbhV6z3C50PzV8vJyFodN/r7qefswYnsSI+G7pzT8R3lWcG85P00t99bm29cGrXo78rgd/Pz84DMjlAV/1uVy2Ww2Go0GniycfgvQfn5+AFsul0sul/v5+QHcnz17FhANO8h//etfKRSK3W4vKCg4cOAAeP1Q6UdEstvtOK4N+pVK5bcKKRSK0+nkcDjg3WNv4vz5899+6oTq3nzzzQ8//BDjtUAg8PX1raioqKqqgq+p4HrY7fZr164FBATk5uaCYdgrdzgchw4dCgkJwe0AAi6XKz8/n0KhlJWV4QaJioqiUCitra0VFRUUCiU1NRWs6uvr++CDDygUSkNDg81m++1vfwstCWEchUIBYi6XC94VoA+DKNDt3KP/izLDdQ/QpSUmJ4H/rtaiIdhWq/UeQhvGsh9OqLWa1va2wuIiNJRej8ZZwijDLmU3Rnk0PJ8A/W6VEtx5NApT2a0nZtaCd//TX90ta1SqVX19fU6nU6fTlZWVcfPzLl25jP+VPB+5IYEamHeM7yPouudZ5Cu558p/PgrxSxZcLxgGTPj18/P761//ShtMdDqdRqNRqVSj0QgxFgxSdXV1gGWAiQ0NDf7+/o2NjU6nE8atv/322zQarbKyMjIykkKhAKpaLJZ33nnn8OHDGRkZFRUVFy5c8Pf3VygUTqezoKAAxuTk5+cXFha+8cYb/v7+vr6+LpertxftkEmhUNLT08vLy7/++utvu5aAgID6+nqXy1VQUODv73/ixImysjIqlfruu+9+/PHHcIEfffSRr69vbGxseXk51OXn55ebm4vbAd8aX1/fjz/+GK6bTqdnZ2czmcyysjKz2XzkyBF/f/+UlBSomkKhfPXVV1Dw+PHjFAolJiaGTqf/5S9/+cMf/uDr6wtWwTdVl8vFYDDgVQMqhUGo4NoDB4AeW/LfRJD/rcg0XHJichKNnlteWdHR1QlvVD8ci++5BiUasa7t6OpsbW8DmEZhDSK4gVEbwB2cYhh3DxyAeJ1BjyXBvOHc6ntu/C0VKtUqs9XidDo1Gk1paWn+zYJLVy5jLwe6Z/KN8/zHwY/rzxrfsZX/3xLwLwe4efDgQcpgAk5DQwOEO0DM4XA0NjZSKJTGxkbgKBQK+LTocrkiIiICAwNhHIufn9/bb78NTi70DV1dXREREf5E5P3YsWOA+5D17R72gOPwtfPEiRPgv8PzB/0EhUJ56623IGIDTrHT6bx58yag8Ntvv33+/HnYVMHlcpnN5i+//BJC84cPH4ZSdDrd8zGFdwUKhQKdSkBAgK+vb1RUFAzXiYiIgME8R44cSU1NtVqtcNUWi+XChQtvvfUWxLUYDAZ0Vy6XC+IzDofDDd8dDgdcHTxpnpb89z2BbgABl9zf389isTIyMm7evNna2orWYnc6tMSsJRh1joem3MPvineqCn8CRTF3YmsKGB4Dtrl9CAVhGPsIo2tgXA2MocQLIYCYW9k7NewHyn83j1elgrvT2dlZUlLC4XBiYmLgCYRhFBjr3W6i51P6C757tsnPiAP/dTi8ji0DPgzmAya8vuHQDdx4LI87AHgydDoUWiUXBNrpdMKHe5AHJtA6nQ4rwVbhUnq9Hn+DxaXA+4NYBw6tQC70HGq1Gp9ie0APfHjAuUBAFvkRhxglvnaY0l1fX481O53O6Ojob0f9w6QB0IPrwpeJQ//4KrCMmw3/HaduuACncO0ikSgmJqa4uLi5udliszpc6BMrQCcZ3P/jUKhUKmH2rJZIXV1osYEhIR4AHS2eQxSBxath/VR8XUMW/IF4PVzxkZtOpVLB0F6n09nY2FhQUJCVlZWeng4PJNwj+BIO/yNut9Lt+fwF390a5Gd3ihEHwAjjDsYmDJ0giQXgSshigKoY+uFFD8RwdA86APiFsvBLVo41kLsT0EN+CjHtZgPZQs+uCxsApbASfJlkgnwJ8IVAp9P5+fkFBgZ2dXX19PQUFhbCJCnQgy3HvQ60iVtbkS2ErP+yXzdQgLsAt1ilUl28eJHFYtXV1aEhki5Xf38/dm/hW+VwyPVT8sEBh+WpsUcPBmBrAUnxFgU6HVp61/N1hFzqJ7gEN2vdauzu7gZfBJZmysvLi4+PLy8vJ98jPKIMQzwm3B7UX/DdrUF+RqcYFjFBBlky/GFvFwMTWZIMiG4wR0Y38v88rhGaA5+SK8VdAq4UcrEwVu50OgFPsSQQZCZGasgC+8kCwB+yP4ALxPVWVFRAQMnPzw8i+B0dHbjbwDbAGEqsFgtA1T+j5+BemwI3GhocnhyggW+1Wr/66isajSYUClUatRNtfOTUGfQ4PA0R7TsafHLLiPMdCWh02m6VEhahQcvTazUwJpL83RKsxRF5svGd3V3oclQDi8O4lbojS+5OGBvjVhz4aq3GQexSaOwxVfKqWBz25cuXu7u74SGH0QfkMQj4PmKIh/sIT80v+H6v/3vuqT4cN8A3D8MQrgfjGhnHIRfQECAMxGAOC1kJhjOyHjKMAh93IVAWC2OUxwQ2AxfEppLLYnlsEn69IMsPZx7uPNwE4NRqtTY2NtbX18MEWny9uA8D28jgTq4dXx3Zkv8aGm4uGRfItNPpjIuLy87OLi4ubu/ssNisTpfLYrPCuD08hm84fHfDrB/pFEbLqDTqLiWsWakBYkiw7lJ2g7XwVRYKSKRytHQ9af0vctkfyWxQO3JFpt4e6FPbOztKy8voTMaFCxfAFwG3HcAdltAg3zgMEb/g+/+Zf1UyNJPhEju2GIkgJIcvDAQwhgKfLIxRmEzgh4YMduTHhWwPuSCgKkgCjWEXingKA+biXLCQrN+tRwEBrBauBeSxhfgUBvbhPgBfuBtBrh2ycIuRs3Cr/hcQ0FZuuACnAB9Op1MoFF6+fPnb8a/1jQ3GHrTsicvlgvlBOJY9chDZLeZwb09x+AVmsTY1NUHgZbi4h06ngw2BiYmsqp6ePhqNXl5eqSP2JcG2/QevCGxQEcvmwBNusVgkEklBQUF6enpaWho8yRjfwSXy9OLh5uJfl8v1i//+s/6fBZTBqOQGncDHSISFgU/+hYJYcgTgg+YYGUYh0u0G0IARUBwbjOESc3BzYw6WgecSqsbgDs80Nhiq9rwcKIuVk83A14JzycWhdtwyQEDviOX/awj8nz8cvsPEXYvFcv78+ZwctEqBUq0C59FisWAY/Sm/RmL8xQQMeoEvAd3d3XK5vLGxUY+WcR96aw7YqRhWKTCbrXl5BR9//LfW1nY8eAZr/k9BPPRMSqUSz+vWaDQVFRV0Ov3y5csNDQ0Y32HpPbhNv+D7/+1/TAw65LCGJ6oCBy6VjFa4uBuBgZVchAyg5FbDZTETh1OwHiD+X3vn/tPGscXx/62qbnUrtQQlgYhf+lB+qKqSG6k/tb9UVaXclkeKTWm4baTchIQkN4E4Bj+ANNzwKEkJUCWBBL+NXxhje9e76wcGc8V8L0fTXXsxSejDmqPVcnZ29nWG+ezZM+MZ5MQN8Cn87dFJkMFIXmTQnZnujdLpnLgowZ3PwJ9Kl46j6BVCz0hno/PTDTeGYsJ3fP/hA253d3d4eHhoaOje/Z+C4VAul4MBMXMvT8NaLjPlOQqFHx84l8tFIpG5ublQKISGU+O7B790TafTpVJ5fn7hrbf+/tNPk6qap46SdJN/yOPQDWNsKPQB8/l8U1NTDoejv78f374oGho8g7rQ8K9qKl+qEcJ/b4yaK55CWKCmBXTVvlb8nQiyu7ubTqctFovD4VhcXEwmk5qm4UOKHy4Y/jL5vIAjbRI0j0ihy2Wz2UAgMDo6+uuvTzDRB+sjI9F1MxlJVfO5nGqz2d94482BgWsM7nt9af4oISulUin02pTlvdE6d3d3i8ViIpFYXFycmJj48ccfl5aW4FFtMSlzwiOeL1MqbhGfqVklxA5hgYaxAFV4Uninj9eLxb2fTeIXBiMjIzdu3HC73aurq+l0Wpbl7e3tYrGI+TFAKEAWlERKrSDJayQpwRHXwjoYDF6/fnN42LawsJRM7nUhx9yWqqomEskHD6bb2//x5pt/GxlxaFpBlpWNjdd4R4c7FYzGvx0lSSoUCuVyGQOlrays3Lt37+7duz/88AM57+D7FpusrcyE5ztfiFTKlUpF+O8NU4vFgwgLVLcAX+Gh8ziAjklU4D8CH6VSyWKx2Gy2qampUCgExBeLRUxXjR9b8kwHtgi+RuaZ7DJmPjCFhnrHCO+SJKVS6bGxib6+C+fOfd3V1WW1Wr/44ouzZ88eO3bsnXfe6e7uDgQC+Xw+lUrRKGMHXuUoMlBcCIEmTFVfKpUURZFl2efzTU9Pj46OWq3WaDSKwbcxOjcmMgPoEYivini+uAXfq1cJkSos0DAWqMV0nvLbbGoXeOggCEZd7u3ttY+OTM1MR2JRjNuVlSVFU2UlR7OGUm9C9EmnTZ1i3i9Ql9l8EyPJoL8jRp7Z6zGZzkqysrGZWvx1yeFyXrk68H3/hcsDVyYf/DeWiCuaigGEMewMjVpjfqGj2wvrZaSsrORkJZeRsplMxuv1zs7Oulwu9F/a3p+QkvgOxYh4vq1V8L1haq54EGGBgy1wIN/hBoIamI2dpqKdm5uz9FodLuf07EwkFk2mNtBtfI9HbOF7kW9spjBe49FhkX4ExHdd/7++uTd592YmnZUlNa+peS2nKmpek5Uc0RwDjWGIscPeJC5tXB/2PHhNkvWysoQXj9/vn5mZsdvtAwMD165dQ9g9n89jpjMj4sv7guKrinjhvx9cPUQOYYG/tAXIodM57MSFfVCUMaU7prqVZRkHTk1NWa3WoaGh+/fve73eRCKBjpKYAin9WzmKgIbxnBTq2WDCZ0DQAzEQ3BruE5NmJJNJZKYz8Mf+nnqaDY6G+4xEIisrKxMTEy6X6/Lly5cuXUI/YMCd5zsKSOfFU6yGL1+UneD7X7rmipsXFqjLAkYXHnAv78vW1lapVKpUKqCJpmlbW1uqqhYKhZ2dnUePHvX19aG5dX5+3u/3r6+vg1DoRZ5iApLWT0nib/2H4BK6yxGss9kshdephYBaMinsjpRDXfQ1Zs5m90Ix6BYZi8W8Xu8vv/zicrnsdntfXx9+zYTZ7RVFAdB1a/Ll8ckl+F5XHRCZhAUa1QJV+V7eF2ACkZlSqVQoFLDWNC2fz2uaVqlU/H7/hQsX+vv7h4aGxsfHHz165PF4wuEwoMmTGnrVNU/JqhnME+lw6uoOhXx2tLUSPTHAJN5Dm6zXZIYJpZtf7oj2rq+vx2KxQCDw9OnTmZkZt9tts9muXr3a09MzPz9fqVQKhYLGpFAo5PP5wm+Fd+fR4ir43qjVVjyXsMDBFjDCHT+ABN4Bd3IJS6VSsVgEWQB39IlE773JyUmLxdLf33/79u07NvvEvfuzPz98vLC0vPLC5w8GQ2tYAsFwIBhei8SCoTV/IBReiwaC4WBoDemBYNgfCEHn8/PpfE5/IERLIBj2+YPI6fMH61m8voDPH/T6Ah6vH7rH61/1+Dxev8my6vHxy94hXk/V5YVnteqy6vW88Kw+X33xfPUFMjxdfrawtPjzw7np2ZnxexN37tps9ruXLv/7W0vP7eEhWZZLpVI+n1cUBZbH+5UQb/Tit1h3ST7yTiEaEZ85uGKIHMICDWCBOvkOfIDsmqYpipLL5TBOejqdJtfY5/PZ7fZz5851dp3//sK/rg3eGBq23bHZRx0u99iE0zXmcLqxtrO5ukdGnba7Iy73uNM1Vs/icLqx8Jkp0eF0u9zjLvc4roILOZxuXJo/hHTkxyYd6B6bGHW4qi78tSiDw+kedTp0i8PlNFlGnXs36xpzO1xO/sBh251r1wf/feXy+Z5vz339z//cvuX1+xRNTaVSMhNJknK5nKIo4LuqqlAKhQLKiF7GIj7TANVTPIKwwCtZQMd3dIWkmAwcdnRsB9ZlWUYLajKZTCQS4XDY6/U+e/bs8ePHDx48cLlcN2/e7OvrO3v2bHNz89tvv/3++++fOXPm008//fLLL8+fP2+xWHp6egYHBy9evNjZ2XnlypXr1693d3dbLBYrk14m0GmNRH5Xrfy9vb24hNVqtVgsXV1dHR0d3d3dHTWku7u7k0k3k46Ojs7OTovFwl/RXK962+aH9Pb2fvfdd7hDHP7NN9989tln7e3tn3zyyUcffdTe3m6xWFwu1+zs7MLCwtLS0vPnz/1+fzgcjsViyWQSQaRsNivLMnCvA72xOzw571DE75teqdqIg4UF/vwW0MGdIjN8WAYBGYR94bZLkoT2yWQyGY/Hg8Ggx+NZXl5++PDh5OSkw+EYHBzs7+/v6Oj4/PPPP/744zY2s2NbW1tLS8upU6dOnDhx+vTp99577/jx4x988MGHH354/PjxFiatnCDlJBPofMoJJtiLNVJaWlqw2dra2tLS0tzc3NTU1NzcfKy2NDFpZvLuu+82NTWdPHkSZzu6NR75FJuEoLW1ta2t7fTp02fOnPnqq68uXrx469Ytp9M5OTk5Nzf35MmT5eVln88XCoVisRjNI5hloigKkR2xGt6LR4gGIXgd33d2dkT/mT9/DRV3KCzw8hYw8h0UgBdfZoLOM3Dk80zQvgfWZ7NZRVHQNQXESe3LOpONjY1kMhmLxaLRaCQSicfjUKLRaDwej0QiwFZkX9aY7G+95F+cZG1tLcwkEolQirmC/NFo1Dwb3ZZ5trW1NcoJJcoJ7ioajcZisXg8nkgk1tfXk0zQ5wd+Or6WJCayLMPsiMKjOHQheHju5L/Xgrvg+64QYYHGtoAJ3wnx5MvzLato4lOZEHEURYFrj7g8IjlpJhkmsixTbxb0Y8lkMpIkGbvZbG5u4kAaQHH/rbH3l0/cYMLvRQdHPsVc32SC0/JnNjkKh9STmXKSgudCP0h6RjwvUJ7NZsmMZEmFCUIx0PGWxRqgR1ca6kID532bidF5F3xv7Kotnk5YYJcfWZA8dyJ7uVwm5x2tdoR4gkuhUIAvqaqqJEkgfiaTkZkQ1mkEdvRHBEyBeKCN8KeDJtKNqAXWjev19fUNNlM2rZPJpDEbpcBHxkcGEs3zG++kVgrdOf9oOh3WwHcPbJXL5fDOw8tSkiREYNCgSmZHTEZVVZ7sVZtY4b9X7UUj4jMCAcICjWwBI98pBF9mssWEWlkR2+W7XOfzeWINNcCSAsrLsixJEloCc7kc6ZIkwVeFAszxsMtkMvBw61zjVcEfBZ7yKbpT4RBKPDA/5SSFDgGggWzotOYfDbrEhOxDCuJd8NNzTDRNwyZ9M1X12fHq5YPvuhCNEfGC741ct8WzCQtUmOwYZJsJI/yeC6/z4ktMgBLyKHkFXryqqogk8LEFAtmBCgNgzZWRmIdNwakPe5Quf9X7O/DRKAMIzkddYCsYkDcp6TqHXReTQdHQGmUHF95QyKJ9dVeIsEAjW6DCxFjzeS/enO/gCzX06TBEm0R8o8K/A+hNQOAzUYiSfxKl1q0aHxAhF6Mp8CVERuMVsjC1ptJXFF60FHYnuOv8d2MpC/+9keu2eDZhAXO+6wLxRtATWagPJf20tRb3eWbp9Kq8O2xiVZgedWI9N6l7WJ7X9ehEc1J44xvhjsIyaWIV/d9F9RcWaHALHMj3qojnwzU6ytAmYYgHPf2kXgc7k3RjzldPqQfHtfK8ytVfguNkT3PF6LPzkRld5B2FLvje4HVbPJ6wgAnfEaJBIJ6nPDrVkHvIk6WWDjbpiF/nZj1M/B3yENZf5Vomj1wL37VMWiudsI62ExQfH5khuAu+i+ovLNDgFjDnuw7xfKOrjvLASi3o8N1vTPJU3VULfLp0E3Sa79Kdp+qm+RkO3Fv1nHxi1Qc3SaSXa1UFZCe+83Df2dkRfG/wKi0eT1iALHAg33V0IOJT1xqeJjxudHginOnSX/smXchcOex1zc9msvewF6qVn7dtVZ0vCOrzrovMCL7Tf75QhAUa3wIvwXcd4nVYoc2qDDJJNLYQ1iLdH5JOBH/1q+NU9ZzHxFxoOCVr6xSKqgm+N34dFk8oLGBiAf6DnXSj225M4SFCug40Jpvm8BJ7yQImNjTuooLgFb7sUMT4f/gfceINGKrTP/8AAAAASUVORK5CYII=;" vertex="1" parent="1">
          <mxGeometry x="710" y="352.98" width="91" height="67.02" as="geometry" />
        </mxCell>
        <mxCell id="R68YelzHevuyLXNBaInd-37" value="" style="edgeStyle=orthogonalEdgeStyle;rounded=0;orthogonalLoop=1;jettySize=auto;html=1;" edge="1" parent="1" source="R68YelzHevuyLXNBaInd-30" target="R68YelzHevuyLXNBaInd-36">
          <mxGeometry relative="1" as="geometry" />
        </mxCell>
        <mxCell id="R68YelzHevuyLXNBaInd-30" value="ALB (HTTPS)" style="rounded=0;whiteSpace=wrap;html=1;" vertex="1" parent="1">
          <mxGeometry x="354" y="490" width="120" height="60" as="geometry" />
        </mxCell>
        <mxCell id="R68YelzHevuyLXNBaInd-32" value="" style="outlineConnect=0;dashed=0;verticalLabelPosition=bottom;verticalAlign=top;align=center;html=1;shape=mxgraph.aws3.application_load_balancer;fillColor=#F58534;gradientColor=none;" vertex="1" parent="1">
          <mxGeometry x="280" y="490" width="59" height="60" as="geometry" />
        </mxCell>
        <mxCell id="R68YelzHevuyLXNBaInd-33" value="AWS WAF" style="rounded=0;whiteSpace=wrap;html=1;" vertex="1" parent="1">
          <mxGeometry x="580" y="490" width="120" height="60" as="geometry" />
        </mxCell>
        <mxCell id="R68YelzHevuyLXNBaInd-35" value="" style="outlineConnect=0;dashed=0;verticalLabelPosition=bottom;verticalAlign=top;align=center;html=1;shape=mxgraph.aws3.waf;fillColor=#759C3E;gradientColor=none;" vertex="1" parent="1">
          <mxGeometry x="720" y="485" width="60" height="70" as="geometry" />
        </mxCell>
        <mxCell id="R68YelzHevuyLXNBaInd-40" value="" style="edgeStyle=orthogonalEdgeStyle;rounded=0;orthogonalLoop=1;jettySize=auto;html=1;" edge="1" parent="1" source="R68YelzHevuyLXNBaInd-36" target="R68YelzHevuyLXNBaInd-39">
          <mxGeometry relative="1" as="geometry">
            <Array as="points">
              <mxPoint x="414" y="730" />
              <mxPoint x="100" y="730" />
            </Array>
          </mxGeometry>
        </mxCell>
        <mxCell id="R68YelzHevuyLXNBaInd-42" value="" style="edgeStyle=orthogonalEdgeStyle;rounded=0;orthogonalLoop=1;jettySize=auto;html=1;" edge="1" parent="1" source="R68YelzHevuyLXNBaInd-36" target="R68YelzHevuyLXNBaInd-41">
          <mxGeometry relative="1" as="geometry">
            <Array as="points">
              <mxPoint x="414" y="730" />
              <mxPoint x="309" y="730" />
            </Array>
          </mxGeometry>
        </mxCell>
        <mxCell id="R68YelzHevuyLXNBaInd-45" value="" style="edgeStyle=orthogonalEdgeStyle;rounded=0;orthogonalLoop=1;jettySize=auto;html=1;" edge="1" parent="1" source="R68YelzHevuyLXNBaInd-36" target="R68YelzHevuyLXNBaInd-44">
          <mxGeometry relative="1" as="geometry">
            <Array as="points">
              <mxPoint x="414" y="730" />
              <mxPoint x="730" y="730" />
            </Array>
          </mxGeometry>
        </mxCell>
        <mxCell id="R68YelzHevuyLXNBaInd-47" value="" style="edgeStyle=orthogonalEdgeStyle;rounded=0;orthogonalLoop=1;jettySize=auto;html=1;" edge="1" parent="1" source="R68YelzHevuyLXNBaInd-36" target="R68YelzHevuyLXNBaInd-46">
          <mxGeometry relative="1" as="geometry">
            <Array as="points">
              <mxPoint x="414" y="730" />
              <mxPoint x="550" y="730" />
            </Array>
          </mxGeometry>
        </mxCell>
        <mxCell id="R68YelzHevuyLXNBaInd-36" value="ECS Cluster&lt;br&gt;&amp;nbsp; &amp;nbsp;(Java Spring-Boot)" style="rounded=0;whiteSpace=wrap;html=1;" vertex="1" parent="1">
          <mxGeometry x="354" y="630" width="120" height="60" as="geometry" />
        </mxCell>
        <mxCell id="R68YelzHevuyLXNBaInd-38" value="" style="outlineConnect=0;dashed=0;verticalLabelPosition=bottom;verticalAlign=top;align=center;html=1;shape=mxgraph.aws3.ecs;fillColor=#F58534;gradientColor=none;" vertex="1" parent="1">
          <mxGeometry x="490" y="622.5" width="72" height="67.5" as="geometry" />
        </mxCell>
        <mxCell id="R68YelzHevuyLXNBaInd-39" value="RDS" style="rounded=0;whiteSpace=wrap;html=1;" vertex="1" parent="1">
          <mxGeometry x="40" y="780" width="120" height="60" as="geometry" />
        </mxCell>
        <mxCell id="R68YelzHevuyLXNBaInd-41" value="S3 (Profiles)" style="rounded=0;whiteSpace=wrap;html=1;" vertex="1" parent="1">
          <mxGeometry x="249.5" y="780" width="120" height="60" as="geometry" />
        </mxCell>
        <mxCell id="R68YelzHevuyLXNBaInd-44" value="Elasticsearch" style="rounded=0;whiteSpace=wrap;html=1;" vertex="1" parent="1">
          <mxGeometry x="670" y="780" width="120" height="60" as="geometry" />
        </mxCell>
        <mxCell id="R68YelzHevuyLXNBaInd-46" value="Redis" style="rounded=0;whiteSpace=wrap;html=1;" vertex="1" parent="1">
          <mxGeometry x="490" y="780" width="120" height="60" as="geometry" />
        </mxCell>
        <mxCell id="uwvPn7mtEXEJNA39bh9l-1" value="" style="outlineConnect=0;dashed=0;verticalLabelPosition=bottom;verticalAlign=top;align=center;html=1;shape=mxgraph.aws3.rds;fillColor=#2E73B8;gradientColor=none;" vertex="1" parent="1">
          <mxGeometry x="64" y="850" width="72" height="81" as="geometry" />
        </mxCell>
        <mxCell id="uwvPn7mtEXEJNA39bh9l-2" value="" style="outlineConnect=0;dashed=0;verticalLabelPosition=bottom;verticalAlign=top;align=center;html=1;shape=mxgraph.aws3.s3;fillColor=#E05243;gradientColor=none;" vertex="1" parent="1">
          <mxGeometry x="271.25" y="850" width="76.5" height="93" as="geometry" />
        </mxCell>
        <mxCell id="uwvPn7mtEXEJNA39bh9l-3" value="Amazon ElastiCache for Redis" style="sketch=0;outlineConnect=0;fontColor=#232F3E;gradientColor=none;strokeColor=#ffffff;fillColor=#232F3E;dashed=0;verticalLabelPosition=middle;verticalAlign=bottom;align=center;html=1;whiteSpace=wrap;fontSize=10;fontStyle=1;spacing=3;shape=mxgraph.aws4.productIcon;prIcon=mxgraph.aws4.elasticache_for_redis;" vertex="1" parent="1">
          <mxGeometry x="510" y="860" width="80" height="120" as="geometry" />
        </mxCell>
        <mxCell id="uwvPn7mtEXEJNA39bh9l-4" value="Amazon Elasticsearch Service" style="sketch=0;outlineConnect=0;fontColor=#232F3E;gradientColor=none;strokeColor=#ffffff;fillColor=#232F3E;dashed=0;verticalLabelPosition=middle;verticalAlign=bottom;align=center;html=1;whiteSpace=wrap;fontSize=10;fontStyle=1;spacing=3;shape=mxgraph.aws4.productIcon;prIcon=mxgraph.aws4.elasticsearch_service;" vertex="1" parent="1">
          <mxGeometry x="690" y="860" width="80" height="120" as="geometry" />
        </mxCell>
      </root>
    </mxGraphModel>
  </diagram>
</mxfile>
